%TF.GenerationSoftware,KiCad,Pcbnew,(5.1.5)-3*%
%TF.CreationDate,2020-12-29T21:36:43+13:00*%
%TF.ProjectId,SensorNodeCircuit,53656e73-6f72-44e6-9f64-654369726375,rev?*%
%TF.SameCoordinates,Original*%
%TF.FileFunction,Soldermask,Top*%
%TF.FilePolarity,Negative*%
%FSLAX46Y46*%
G04 Gerber Fmt 4.6, Leading zero omitted, Abs format (unit mm)*
G04 Created by KiCad (PCBNEW (5.1.5)-3) date 2020-12-29 21:36:43*
%MOMM*%
%LPD*%
G04 APERTURE LIST*
%ADD10C,0.100000*%
G04 APERTURE END LIST*
D10*
G36*
X163892712Y-106596727D02*
G01*
X164042012Y-106626424D01*
X164205984Y-106694344D01*
X164353554Y-106792947D01*
X164479053Y-106918446D01*
X164577656Y-107066016D01*
X164645576Y-107229988D01*
X164680200Y-107404059D01*
X164680200Y-107581541D01*
X164645576Y-107755612D01*
X164577656Y-107919584D01*
X164479053Y-108067154D01*
X164353554Y-108192653D01*
X164205984Y-108291256D01*
X164042012Y-108359176D01*
X163892712Y-108388873D01*
X163867942Y-108393800D01*
X163690458Y-108393800D01*
X163665688Y-108388873D01*
X163516388Y-108359176D01*
X163352416Y-108291256D01*
X163204846Y-108192653D01*
X163079347Y-108067154D01*
X162980744Y-107919584D01*
X162912824Y-107755612D01*
X162878200Y-107581541D01*
X162878200Y-107404059D01*
X162912824Y-107229988D01*
X162980744Y-107066016D01*
X163079347Y-106918446D01*
X163204846Y-106792947D01*
X163352416Y-106694344D01*
X163516388Y-106626424D01*
X163665688Y-106596727D01*
X163690458Y-106591800D01*
X163867942Y-106591800D01*
X163892712Y-106596727D01*
G37*
G36*
X161352712Y-106596727D02*
G01*
X161502012Y-106626424D01*
X161665984Y-106694344D01*
X161813554Y-106792947D01*
X161939053Y-106918446D01*
X162037656Y-107066016D01*
X162105576Y-107229988D01*
X162140200Y-107404059D01*
X162140200Y-107581541D01*
X162105576Y-107755612D01*
X162037656Y-107919584D01*
X161939053Y-108067154D01*
X161813554Y-108192653D01*
X161665984Y-108291256D01*
X161502012Y-108359176D01*
X161352712Y-108388873D01*
X161327942Y-108393800D01*
X161150458Y-108393800D01*
X161125688Y-108388873D01*
X160976388Y-108359176D01*
X160812416Y-108291256D01*
X160664846Y-108192653D01*
X160539347Y-108067154D01*
X160440744Y-107919584D01*
X160372824Y-107755612D01*
X160338200Y-107581541D01*
X160338200Y-107404059D01*
X160372824Y-107229988D01*
X160440744Y-107066016D01*
X160539347Y-106918446D01*
X160664846Y-106792947D01*
X160812416Y-106694344D01*
X160976388Y-106626424D01*
X161125688Y-106596727D01*
X161150458Y-106591800D01*
X161327942Y-106591800D01*
X161352712Y-106596727D01*
G37*
G36*
X146900200Y-108393800D02*
G01*
X145098200Y-108393800D01*
X145098200Y-106591800D01*
X146900200Y-106591800D01*
X146900200Y-108393800D01*
G37*
G36*
X148652712Y-106596727D02*
G01*
X148802012Y-106626424D01*
X148965984Y-106694344D01*
X149113554Y-106792947D01*
X149239053Y-106918446D01*
X149337656Y-107066016D01*
X149405576Y-107229988D01*
X149440200Y-107404059D01*
X149440200Y-107581541D01*
X149405576Y-107755612D01*
X149337656Y-107919584D01*
X149239053Y-108067154D01*
X149113554Y-108192653D01*
X148965984Y-108291256D01*
X148802012Y-108359176D01*
X148652712Y-108388873D01*
X148627942Y-108393800D01*
X148450458Y-108393800D01*
X148425688Y-108388873D01*
X148276388Y-108359176D01*
X148112416Y-108291256D01*
X147964846Y-108192653D01*
X147839347Y-108067154D01*
X147740744Y-107919584D01*
X147672824Y-107755612D01*
X147638200Y-107581541D01*
X147638200Y-107404059D01*
X147672824Y-107229988D01*
X147740744Y-107066016D01*
X147839347Y-106918446D01*
X147964846Y-106792947D01*
X148112416Y-106694344D01*
X148276388Y-106626424D01*
X148425688Y-106596727D01*
X148450458Y-106591800D01*
X148627942Y-106591800D01*
X148652712Y-106596727D01*
G37*
G36*
X151192712Y-106596727D02*
G01*
X151342012Y-106626424D01*
X151505984Y-106694344D01*
X151653554Y-106792947D01*
X151779053Y-106918446D01*
X151877656Y-107066016D01*
X151945576Y-107229988D01*
X151980200Y-107404059D01*
X151980200Y-107581541D01*
X151945576Y-107755612D01*
X151877656Y-107919584D01*
X151779053Y-108067154D01*
X151653554Y-108192653D01*
X151505984Y-108291256D01*
X151342012Y-108359176D01*
X151192712Y-108388873D01*
X151167942Y-108393800D01*
X150990458Y-108393800D01*
X150965688Y-108388873D01*
X150816388Y-108359176D01*
X150652416Y-108291256D01*
X150504846Y-108192653D01*
X150379347Y-108067154D01*
X150280744Y-107919584D01*
X150212824Y-107755612D01*
X150178200Y-107581541D01*
X150178200Y-107404059D01*
X150212824Y-107229988D01*
X150280744Y-107066016D01*
X150379347Y-106918446D01*
X150504846Y-106792947D01*
X150652416Y-106694344D01*
X150816388Y-106626424D01*
X150965688Y-106596727D01*
X150990458Y-106591800D01*
X151167942Y-106591800D01*
X151192712Y-106596727D01*
G37*
G36*
X156272712Y-106596727D02*
G01*
X156422012Y-106626424D01*
X156585984Y-106694344D01*
X156733554Y-106792947D01*
X156859053Y-106918446D01*
X156957656Y-107066016D01*
X157025576Y-107229988D01*
X157060200Y-107404059D01*
X157060200Y-107581541D01*
X157025576Y-107755612D01*
X156957656Y-107919584D01*
X156859053Y-108067154D01*
X156733554Y-108192653D01*
X156585984Y-108291256D01*
X156422012Y-108359176D01*
X156272712Y-108388873D01*
X156247942Y-108393800D01*
X156070458Y-108393800D01*
X156045688Y-108388873D01*
X155896388Y-108359176D01*
X155732416Y-108291256D01*
X155584846Y-108192653D01*
X155459347Y-108067154D01*
X155360744Y-107919584D01*
X155292824Y-107755612D01*
X155258200Y-107581541D01*
X155258200Y-107404059D01*
X155292824Y-107229988D01*
X155360744Y-107066016D01*
X155459347Y-106918446D01*
X155584846Y-106792947D01*
X155732416Y-106694344D01*
X155896388Y-106626424D01*
X156045688Y-106596727D01*
X156070458Y-106591800D01*
X156247942Y-106591800D01*
X156272712Y-106596727D01*
G37*
G36*
X158812712Y-106596727D02*
G01*
X158962012Y-106626424D01*
X159125984Y-106694344D01*
X159273554Y-106792947D01*
X159399053Y-106918446D01*
X159497656Y-107066016D01*
X159565576Y-107229988D01*
X159600200Y-107404059D01*
X159600200Y-107581541D01*
X159565576Y-107755612D01*
X159497656Y-107919584D01*
X159399053Y-108067154D01*
X159273554Y-108192653D01*
X159125984Y-108291256D01*
X158962012Y-108359176D01*
X158812712Y-108388873D01*
X158787942Y-108393800D01*
X158610458Y-108393800D01*
X158585688Y-108388873D01*
X158436388Y-108359176D01*
X158272416Y-108291256D01*
X158124846Y-108192653D01*
X157999347Y-108067154D01*
X157900744Y-107919584D01*
X157832824Y-107755612D01*
X157798200Y-107581541D01*
X157798200Y-107404059D01*
X157832824Y-107229988D01*
X157900744Y-107066016D01*
X157999347Y-106918446D01*
X158124846Y-106792947D01*
X158272416Y-106694344D01*
X158436388Y-106626424D01*
X158585688Y-106596727D01*
X158610458Y-106591800D01*
X158787942Y-106591800D01*
X158812712Y-106596727D01*
G37*
G36*
X153732712Y-106596727D02*
G01*
X153882012Y-106626424D01*
X154045984Y-106694344D01*
X154193554Y-106792947D01*
X154319053Y-106918446D01*
X154417656Y-107066016D01*
X154485576Y-107229988D01*
X154520200Y-107404059D01*
X154520200Y-107581541D01*
X154485576Y-107755612D01*
X154417656Y-107919584D01*
X154319053Y-108067154D01*
X154193554Y-108192653D01*
X154045984Y-108291256D01*
X153882012Y-108359176D01*
X153732712Y-108388873D01*
X153707942Y-108393800D01*
X153530458Y-108393800D01*
X153505688Y-108388873D01*
X153356388Y-108359176D01*
X153192416Y-108291256D01*
X153044846Y-108192653D01*
X152919347Y-108067154D01*
X152820744Y-107919584D01*
X152752824Y-107755612D01*
X152718200Y-107581541D01*
X152718200Y-107404059D01*
X152752824Y-107229988D01*
X152820744Y-107066016D01*
X152919347Y-106918446D01*
X153044846Y-106792947D01*
X153192416Y-106694344D01*
X153356388Y-106626424D01*
X153505688Y-106596727D01*
X153530458Y-106591800D01*
X153707942Y-106591800D01*
X153732712Y-106596727D01*
G37*
G36*
X122812915Y-106393334D02*
G01*
X122921491Y-106426271D01*
X122921494Y-106426272D01*
X122957600Y-106445571D01*
X123021556Y-106479756D01*
X123109264Y-106551736D01*
X123181244Y-106639443D01*
X123210589Y-106694344D01*
X123234728Y-106739505D01*
X123234729Y-106739508D01*
X123267666Y-106848084D01*
X123276000Y-106932702D01*
X123276000Y-107439297D01*
X123267666Y-107523916D01*
X123235252Y-107630767D01*
X123234728Y-107632495D01*
X123224761Y-107651141D01*
X123181244Y-107732557D01*
X123109264Y-107820264D01*
X123021557Y-107892244D01*
X122957601Y-107926429D01*
X122921495Y-107945728D01*
X122921492Y-107945729D01*
X122812916Y-107978666D01*
X122700000Y-107989787D01*
X122587085Y-107978666D01*
X122478509Y-107945729D01*
X122478506Y-107945728D01*
X122442400Y-107926429D01*
X122378444Y-107892244D01*
X122290737Y-107820264D01*
X122218757Y-107732557D01*
X122175239Y-107651141D01*
X122161625Y-107630766D01*
X122144298Y-107613439D01*
X122123924Y-107599826D01*
X122101285Y-107590448D01*
X122077252Y-107585668D01*
X122052748Y-107585668D01*
X122028715Y-107590448D01*
X122006076Y-107599826D01*
X121985701Y-107613440D01*
X121968374Y-107630767D01*
X121954761Y-107651141D01*
X121911244Y-107732557D01*
X121839264Y-107820264D01*
X121751557Y-107892244D01*
X121687601Y-107926429D01*
X121651495Y-107945728D01*
X121651492Y-107945729D01*
X121542916Y-107978666D01*
X121430000Y-107989787D01*
X121317085Y-107978666D01*
X121208509Y-107945729D01*
X121208506Y-107945728D01*
X121172400Y-107926429D01*
X121108444Y-107892244D01*
X121020737Y-107820264D01*
X120957622Y-107743359D01*
X120940297Y-107726034D01*
X120919923Y-107712420D01*
X120897284Y-107703043D01*
X120873250Y-107698263D01*
X120848746Y-107698263D01*
X120824713Y-107703044D01*
X120802074Y-107712421D01*
X120781700Y-107726035D01*
X120764373Y-107743362D01*
X120750759Y-107763736D01*
X120741382Y-107786375D01*
X120736000Y-107822660D01*
X120736000Y-107987000D01*
X119584000Y-107987000D01*
X119584000Y-106385000D01*
X120736000Y-106385000D01*
X120736000Y-106549341D01*
X120738402Y-106573727D01*
X120745515Y-106597176D01*
X120757066Y-106618787D01*
X120772611Y-106637729D01*
X120791553Y-106653274D01*
X120813164Y-106664825D01*
X120836613Y-106671938D01*
X120860999Y-106674340D01*
X120885385Y-106671938D01*
X120908834Y-106664825D01*
X120930445Y-106653274D01*
X120949387Y-106637729D01*
X120957608Y-106628657D01*
X121020736Y-106551736D01*
X121108443Y-106479756D01*
X121172399Y-106445571D01*
X121208505Y-106426272D01*
X121208508Y-106426271D01*
X121317084Y-106393334D01*
X121430000Y-106382213D01*
X121542915Y-106393334D01*
X121651491Y-106426271D01*
X121651494Y-106426272D01*
X121687600Y-106445571D01*
X121751556Y-106479756D01*
X121839264Y-106551736D01*
X121911244Y-106639443D01*
X121954761Y-106720859D01*
X121968375Y-106741234D01*
X121985702Y-106758561D01*
X122006076Y-106772174D01*
X122028715Y-106781552D01*
X122052748Y-106786332D01*
X122077252Y-106786332D01*
X122101285Y-106781552D01*
X122123924Y-106772174D01*
X122144299Y-106758560D01*
X122161626Y-106741233D01*
X122175239Y-106720860D01*
X122218756Y-106639444D01*
X122290736Y-106551736D01*
X122378443Y-106479756D01*
X122442399Y-106445571D01*
X122478505Y-106426272D01*
X122478508Y-106426271D01*
X122587084Y-106393334D01*
X122700000Y-106382213D01*
X122812915Y-106393334D01*
G37*
G36*
X135798228Y-104527703D02*
G01*
X135953100Y-104591853D01*
X136092481Y-104684985D01*
X136211015Y-104803519D01*
X136304147Y-104942900D01*
X136368297Y-105097772D01*
X136401000Y-105262184D01*
X136401000Y-105429816D01*
X136368297Y-105594228D01*
X136304147Y-105749100D01*
X136211015Y-105888481D01*
X136092481Y-106007015D01*
X135953100Y-106100147D01*
X135798228Y-106164297D01*
X135633816Y-106197000D01*
X135466184Y-106197000D01*
X135301772Y-106164297D01*
X135146900Y-106100147D01*
X135007519Y-106007015D01*
X134888985Y-105888481D01*
X134795853Y-105749100D01*
X134731703Y-105594228D01*
X134699000Y-105429816D01*
X134699000Y-105262184D01*
X134731703Y-105097772D01*
X134795853Y-104942900D01*
X134888985Y-104803519D01*
X135007519Y-104684985D01*
X135146900Y-104591853D01*
X135301772Y-104527703D01*
X135466184Y-104495000D01*
X135633816Y-104495000D01*
X135798228Y-104527703D01*
G37*
G36*
X128198228Y-104527703D02*
G01*
X128353100Y-104591853D01*
X128492481Y-104684985D01*
X128611015Y-104803519D01*
X128704147Y-104942900D01*
X128768297Y-105097772D01*
X128801000Y-105262184D01*
X128801000Y-105429816D01*
X128768297Y-105594228D01*
X128704147Y-105749100D01*
X128611015Y-105888481D01*
X128492481Y-106007015D01*
X128353100Y-106100147D01*
X128198228Y-106164297D01*
X128033816Y-106197000D01*
X127866184Y-106197000D01*
X127701772Y-106164297D01*
X127546900Y-106100147D01*
X127407519Y-106007015D01*
X127288985Y-105888481D01*
X127195853Y-105749100D01*
X127131703Y-105594228D01*
X127099000Y-105429816D01*
X127099000Y-105262184D01*
X127131703Y-105097772D01*
X127195853Y-104942900D01*
X127288985Y-104803519D01*
X127407519Y-104684985D01*
X127546900Y-104591853D01*
X127701772Y-104527703D01*
X127866184Y-104495000D01*
X128033816Y-104495000D01*
X128198228Y-104527703D01*
G37*
G36*
X141755562Y-103261681D02*
G01*
X141790481Y-103272274D01*
X141822663Y-103289476D01*
X141850873Y-103312627D01*
X141874024Y-103340837D01*
X141891226Y-103373019D01*
X141901819Y-103407938D01*
X141906000Y-103450395D01*
X141906000Y-104591605D01*
X141901819Y-104634062D01*
X141891226Y-104668981D01*
X141874024Y-104701163D01*
X141850873Y-104729373D01*
X141822663Y-104752524D01*
X141790481Y-104769726D01*
X141755562Y-104780319D01*
X141713105Y-104784500D01*
X140246895Y-104784500D01*
X140204438Y-104780319D01*
X140169519Y-104769726D01*
X140137337Y-104752524D01*
X140109127Y-104729373D01*
X140085976Y-104701163D01*
X140068774Y-104668981D01*
X140058181Y-104634062D01*
X140054000Y-104591605D01*
X140054000Y-103450395D01*
X140058181Y-103407938D01*
X140068774Y-103373019D01*
X140085976Y-103340837D01*
X140109127Y-103312627D01*
X140137337Y-103289476D01*
X140169519Y-103272274D01*
X140204438Y-103261681D01*
X140246895Y-103257500D01*
X141713105Y-103257500D01*
X141755562Y-103261681D01*
G37*
G36*
X144265562Y-103241681D02*
G01*
X144300481Y-103252274D01*
X144332663Y-103269476D01*
X144360873Y-103292627D01*
X144384024Y-103320837D01*
X144401226Y-103353019D01*
X144411819Y-103387938D01*
X144416000Y-103430395D01*
X144416000Y-104571605D01*
X144411819Y-104614062D01*
X144401226Y-104648981D01*
X144384024Y-104681163D01*
X144360873Y-104709373D01*
X144332663Y-104732524D01*
X144300481Y-104749726D01*
X144265562Y-104760319D01*
X144223105Y-104764500D01*
X142756895Y-104764500D01*
X142714438Y-104760319D01*
X142679519Y-104749726D01*
X142647337Y-104732524D01*
X142619127Y-104709373D01*
X142595976Y-104681163D01*
X142578774Y-104648981D01*
X142568181Y-104614062D01*
X142564000Y-104571605D01*
X142564000Y-103430395D01*
X142568181Y-103387938D01*
X142578774Y-103353019D01*
X142595976Y-103320837D01*
X142619127Y-103292627D01*
X142647337Y-103269476D01*
X142679519Y-103252274D01*
X142714438Y-103241681D01*
X142756895Y-103237500D01*
X144223105Y-103237500D01*
X144265562Y-103241681D01*
G37*
G36*
X156042001Y-103222001D02*
G01*
X154940001Y-103222001D01*
X154940001Y-101320001D01*
X156042001Y-101320001D01*
X156042001Y-103222001D01*
G37*
G36*
X158042001Y-103222001D02*
G01*
X156940001Y-103222001D01*
X156940001Y-101320001D01*
X158042001Y-101320001D01*
X158042001Y-103222001D01*
G37*
G36*
X154042001Y-103222001D02*
G01*
X152940001Y-103222001D01*
X152940001Y-101320001D01*
X154042001Y-101320001D01*
X154042001Y-103222001D01*
G37*
G36*
X162042001Y-103222001D02*
G01*
X160940001Y-103222001D01*
X160940001Y-101320001D01*
X162042001Y-101320001D01*
X162042001Y-103222001D01*
G37*
G36*
X152042001Y-103222001D02*
G01*
X150940001Y-103222001D01*
X150940001Y-101320001D01*
X152042001Y-101320001D01*
X152042001Y-103222001D01*
G37*
G36*
X160042001Y-103222001D02*
G01*
X158940001Y-103222001D01*
X158940001Y-101320001D01*
X160042001Y-101320001D01*
X160042001Y-103222001D01*
G37*
G36*
X169499512Y-100371927D02*
G01*
X169648812Y-100401624D01*
X169812784Y-100469544D01*
X169960354Y-100568147D01*
X170085853Y-100693646D01*
X170184456Y-100841216D01*
X170252376Y-101005188D01*
X170287000Y-101179259D01*
X170287000Y-101356741D01*
X170252376Y-101530812D01*
X170184456Y-101694784D01*
X170085853Y-101842354D01*
X169960354Y-101967853D01*
X169812784Y-102066456D01*
X169648812Y-102134376D01*
X169499512Y-102164073D01*
X169474742Y-102169000D01*
X169297258Y-102169000D01*
X169272488Y-102164073D01*
X169123188Y-102134376D01*
X168959216Y-102066456D01*
X168811646Y-101967853D01*
X168686147Y-101842354D01*
X168587544Y-101694784D01*
X168519624Y-101530812D01*
X168485000Y-101356741D01*
X168485000Y-101179259D01*
X168519624Y-101005188D01*
X168587544Y-100841216D01*
X168686147Y-100693646D01*
X168811646Y-100568147D01*
X168959216Y-100469544D01*
X169123188Y-100401624D01*
X169272488Y-100371927D01*
X169297258Y-100367000D01*
X169474742Y-100367000D01*
X169499512Y-100371927D01*
G37*
G36*
X115640062Y-100110181D02*
G01*
X115674981Y-100120774D01*
X115707163Y-100137976D01*
X115735373Y-100161127D01*
X115758524Y-100189337D01*
X115775726Y-100221519D01*
X115786319Y-100256438D01*
X115790500Y-100298895D01*
X115790500Y-101765105D01*
X115786319Y-101807562D01*
X115775726Y-101842481D01*
X115758524Y-101874663D01*
X115735373Y-101902873D01*
X115707163Y-101926024D01*
X115674981Y-101943226D01*
X115640062Y-101953819D01*
X115597605Y-101958000D01*
X114456395Y-101958000D01*
X114413938Y-101953819D01*
X114379019Y-101943226D01*
X114346837Y-101926024D01*
X114318627Y-101902873D01*
X114295476Y-101874663D01*
X114278274Y-101842481D01*
X114267681Y-101807562D01*
X114263500Y-101765105D01*
X114263500Y-100298895D01*
X114267681Y-100256438D01*
X114278274Y-100221519D01*
X114295476Y-100189337D01*
X114318627Y-100161127D01*
X114346837Y-100137976D01*
X114379019Y-100120774D01*
X114413938Y-100110181D01*
X114456395Y-100106000D01*
X115597605Y-100106000D01*
X115640062Y-100110181D01*
G37*
G36*
X112665062Y-100110181D02*
G01*
X112699981Y-100120774D01*
X112732163Y-100137976D01*
X112760373Y-100161127D01*
X112783524Y-100189337D01*
X112800726Y-100221519D01*
X112811319Y-100256438D01*
X112815500Y-100298895D01*
X112815500Y-101765105D01*
X112811319Y-101807562D01*
X112800726Y-101842481D01*
X112783524Y-101874663D01*
X112760373Y-101902873D01*
X112732163Y-101926024D01*
X112699981Y-101943226D01*
X112665062Y-101953819D01*
X112622605Y-101958000D01*
X111481395Y-101958000D01*
X111438938Y-101953819D01*
X111404019Y-101943226D01*
X111371837Y-101926024D01*
X111343627Y-101902873D01*
X111320476Y-101874663D01*
X111303274Y-101842481D01*
X111292681Y-101807562D01*
X111288500Y-101765105D01*
X111288500Y-100298895D01*
X111292681Y-100256438D01*
X111303274Y-100221519D01*
X111320476Y-100189337D01*
X111343627Y-100161127D01*
X111371837Y-100137976D01*
X111404019Y-100120774D01*
X111438938Y-100110181D01*
X111481395Y-100106000D01*
X112622605Y-100106000D01*
X112665062Y-100110181D01*
G37*
G36*
X141755562Y-100286681D02*
G01*
X141790481Y-100297274D01*
X141822663Y-100314476D01*
X141850873Y-100337627D01*
X141874024Y-100365837D01*
X141891226Y-100398019D01*
X141901819Y-100432938D01*
X141906000Y-100475395D01*
X141906000Y-101616605D01*
X141901819Y-101659062D01*
X141891226Y-101693981D01*
X141874024Y-101726163D01*
X141850873Y-101754373D01*
X141822663Y-101777524D01*
X141790481Y-101794726D01*
X141755562Y-101805319D01*
X141713105Y-101809500D01*
X140246895Y-101809500D01*
X140204438Y-101805319D01*
X140169519Y-101794726D01*
X140137337Y-101777524D01*
X140109127Y-101754373D01*
X140085976Y-101726163D01*
X140068774Y-101693981D01*
X140058181Y-101659062D01*
X140054000Y-101616605D01*
X140054000Y-100475395D01*
X140058181Y-100432938D01*
X140068774Y-100398019D01*
X140085976Y-100365837D01*
X140109127Y-100337627D01*
X140137337Y-100314476D01*
X140169519Y-100297274D01*
X140204438Y-100286681D01*
X140246895Y-100282500D01*
X141713105Y-100282500D01*
X141755562Y-100286681D01*
G37*
G36*
X144265562Y-100266681D02*
G01*
X144300481Y-100277274D01*
X144332663Y-100294476D01*
X144360873Y-100317627D01*
X144384024Y-100345837D01*
X144401226Y-100378019D01*
X144411819Y-100412938D01*
X144416000Y-100455395D01*
X144416000Y-101596605D01*
X144411819Y-101639062D01*
X144401226Y-101673981D01*
X144384024Y-101706163D01*
X144360873Y-101734373D01*
X144332663Y-101757524D01*
X144300481Y-101774726D01*
X144265562Y-101785319D01*
X144223105Y-101789500D01*
X142756895Y-101789500D01*
X142714438Y-101785319D01*
X142679519Y-101774726D01*
X142647337Y-101757524D01*
X142619127Y-101734373D01*
X142595976Y-101706163D01*
X142578774Y-101673981D01*
X142568181Y-101639062D01*
X142564000Y-101596605D01*
X142564000Y-100455395D01*
X142568181Y-100412938D01*
X142578774Y-100378019D01*
X142595976Y-100345837D01*
X142619127Y-100317627D01*
X142647337Y-100294476D01*
X142679519Y-100277274D01*
X142714438Y-100266681D01*
X142756895Y-100262500D01*
X144223105Y-100262500D01*
X144265562Y-100266681D01*
G37*
G36*
X150192001Y-101322001D02*
G01*
X147590001Y-101322001D01*
X147590001Y-100220001D01*
X150192001Y-100220001D01*
X150192001Y-101322001D01*
G37*
G36*
X165392001Y-101322001D02*
G01*
X162790001Y-101322001D01*
X162790001Y-100220001D01*
X165392001Y-100220001D01*
X165392001Y-101322001D01*
G37*
G36*
X169499512Y-97831927D02*
G01*
X169648812Y-97861624D01*
X169812784Y-97929544D01*
X169960354Y-98028147D01*
X170085853Y-98153646D01*
X170184456Y-98301216D01*
X170252376Y-98465188D01*
X170287000Y-98639259D01*
X170287000Y-98816741D01*
X170252376Y-98990812D01*
X170184456Y-99154784D01*
X170085853Y-99302354D01*
X169960354Y-99427853D01*
X169812784Y-99526456D01*
X169648812Y-99594376D01*
X169499512Y-99624073D01*
X169474742Y-99629000D01*
X169297258Y-99629000D01*
X169272488Y-99624073D01*
X169123188Y-99594376D01*
X168959216Y-99526456D01*
X168811646Y-99427853D01*
X168686147Y-99302354D01*
X168587544Y-99154784D01*
X168519624Y-98990812D01*
X168485000Y-98816741D01*
X168485000Y-98639259D01*
X168519624Y-98465188D01*
X168587544Y-98301216D01*
X168686147Y-98153646D01*
X168811646Y-98028147D01*
X168959216Y-97929544D01*
X169123188Y-97861624D01*
X169272488Y-97831927D01*
X169297258Y-97827000D01*
X169474742Y-97827000D01*
X169499512Y-97831927D01*
G37*
G36*
X112627562Y-97610181D02*
G01*
X112662481Y-97620774D01*
X112694663Y-97637976D01*
X112722873Y-97661127D01*
X112746024Y-97689337D01*
X112763226Y-97721519D01*
X112773819Y-97756438D01*
X112778000Y-97798895D01*
X112778000Y-99265105D01*
X112773819Y-99307562D01*
X112763226Y-99342481D01*
X112746024Y-99374663D01*
X112722873Y-99402873D01*
X112694663Y-99426024D01*
X112662481Y-99443226D01*
X112627562Y-99453819D01*
X112585105Y-99458000D01*
X111443895Y-99458000D01*
X111401438Y-99453819D01*
X111366519Y-99443226D01*
X111334337Y-99426024D01*
X111306127Y-99402873D01*
X111282976Y-99374663D01*
X111265774Y-99342481D01*
X111255181Y-99307562D01*
X111251000Y-99265105D01*
X111251000Y-97798895D01*
X111255181Y-97756438D01*
X111265774Y-97721519D01*
X111282976Y-97689337D01*
X111306127Y-97661127D01*
X111334337Y-97637976D01*
X111366519Y-97620774D01*
X111401438Y-97610181D01*
X111443895Y-97606000D01*
X112585105Y-97606000D01*
X112627562Y-97610181D01*
G37*
G36*
X115602562Y-97610181D02*
G01*
X115637481Y-97620774D01*
X115669663Y-97637976D01*
X115697873Y-97661127D01*
X115721024Y-97689337D01*
X115738226Y-97721519D01*
X115748819Y-97756438D01*
X115753000Y-97798895D01*
X115753000Y-99265105D01*
X115748819Y-99307562D01*
X115738226Y-99342481D01*
X115721024Y-99374663D01*
X115697873Y-99402873D01*
X115669663Y-99426024D01*
X115637481Y-99443226D01*
X115602562Y-99453819D01*
X115560105Y-99458000D01*
X114418895Y-99458000D01*
X114376438Y-99453819D01*
X114341519Y-99443226D01*
X114309337Y-99426024D01*
X114281127Y-99402873D01*
X114257976Y-99374663D01*
X114240774Y-99342481D01*
X114230181Y-99307562D01*
X114226000Y-99265105D01*
X114226000Y-97798895D01*
X114230181Y-97756438D01*
X114240774Y-97721519D01*
X114257976Y-97689337D01*
X114281127Y-97661127D01*
X114309337Y-97637976D01*
X114341519Y-97620774D01*
X114376438Y-97610181D01*
X114418895Y-97606000D01*
X115560105Y-97606000D01*
X115602562Y-97610181D01*
G37*
G36*
X104813500Y-98647886D02*
G01*
X104814102Y-98660138D01*
X104816649Y-98686000D01*
X104814102Y-98711862D01*
X104813500Y-98724114D01*
X104813500Y-98797406D01*
X104804543Y-98814164D01*
X104800415Y-98825701D01*
X104774632Y-98910693D01*
X104766854Y-98936336D01*
X104706406Y-99049425D01*
X104625054Y-99148554D01*
X104525925Y-99229906D01*
X104412836Y-99290354D01*
X104380904Y-99300040D01*
X104290118Y-99327580D01*
X104226355Y-99333860D01*
X104194474Y-99337000D01*
X103430526Y-99337000D01*
X103398645Y-99333860D01*
X103334882Y-99327580D01*
X103244096Y-99300040D01*
X103212164Y-99290354D01*
X103099075Y-99229906D01*
X102999946Y-99148554D01*
X102918594Y-99049425D01*
X102858146Y-98936336D01*
X102850368Y-98910693D01*
X102824587Y-98825708D01*
X102815213Y-98803075D01*
X102811500Y-98797518D01*
X102811500Y-98724114D01*
X102810898Y-98711862D01*
X102808351Y-98686000D01*
X102810898Y-98660138D01*
X102811500Y-98647886D01*
X102811500Y-97435000D01*
X104813500Y-97435000D01*
X104813500Y-98647886D01*
G37*
G36*
X150192001Y-99322001D02*
G01*
X147590001Y-99322001D01*
X147590001Y-98220001D01*
X150192001Y-98220001D01*
X150192001Y-99322001D01*
G37*
G36*
X165392001Y-99322001D02*
G01*
X162790001Y-99322001D01*
X162790001Y-98220001D01*
X165392001Y-98220001D01*
X165392001Y-99322001D01*
G37*
G36*
X106738848Y-91939820D02*
G01*
X106738850Y-91939821D01*
X106738851Y-91939821D01*
X106880074Y-91998317D01*
X106880077Y-91998319D01*
X107007169Y-92083239D01*
X107115261Y-92191331D01*
X107200181Y-92318423D01*
X107200183Y-92318426D01*
X107258679Y-92459649D01*
X107288500Y-92609571D01*
X107288500Y-92762429D01*
X107258679Y-92912351D01*
X107200183Y-93053574D01*
X107200181Y-93053577D01*
X107115261Y-93180669D01*
X107007169Y-93288761D01*
X106922440Y-93345375D01*
X106880074Y-93373683D01*
X106829772Y-93394519D01*
X106808164Y-93406068D01*
X106789222Y-93421614D01*
X106773677Y-93440556D01*
X106762126Y-93462166D01*
X106755013Y-93485615D01*
X106752611Y-93510001D01*
X106755013Y-93534387D01*
X106762126Y-93557836D01*
X106773677Y-93579447D01*
X106789223Y-93598389D01*
X106808165Y-93613934D01*
X106829775Y-93625485D01*
X106853224Y-93632598D01*
X106877610Y-93635000D01*
X107238500Y-93635000D01*
X107238500Y-96737000D01*
X106877610Y-96737000D01*
X106853224Y-96739402D01*
X106829775Y-96746515D01*
X106808164Y-96758066D01*
X106789222Y-96773611D01*
X106773677Y-96792553D01*
X106762126Y-96814164D01*
X106755013Y-96837613D01*
X106752611Y-96861999D01*
X106755013Y-96886385D01*
X106762126Y-96909834D01*
X106773677Y-96931445D01*
X106789222Y-96950387D01*
X106808164Y-96965932D01*
X106829772Y-96977481D01*
X106880074Y-96998317D01*
X106880075Y-96998318D01*
X107007169Y-97083239D01*
X107115261Y-97191331D01*
X107200181Y-97318423D01*
X107200183Y-97318426D01*
X107248469Y-97435000D01*
X107258680Y-97459652D01*
X107288500Y-97609569D01*
X107288500Y-97762431D01*
X107266329Y-97873895D01*
X107258679Y-97912351D01*
X107200183Y-98053574D01*
X107200181Y-98053577D01*
X107115261Y-98180669D01*
X107007169Y-98288761D01*
X106956564Y-98322574D01*
X106880074Y-98373683D01*
X106738851Y-98432179D01*
X106738850Y-98432179D01*
X106738848Y-98432180D01*
X106588931Y-98462000D01*
X106436069Y-98462000D01*
X106286152Y-98432180D01*
X106286150Y-98432179D01*
X106286149Y-98432179D01*
X106144926Y-98373683D01*
X106068436Y-98322574D01*
X106017831Y-98288761D01*
X105909739Y-98180669D01*
X105824819Y-98053577D01*
X105824817Y-98053574D01*
X105766321Y-97912351D01*
X105758672Y-97873895D01*
X105736500Y-97762431D01*
X105736500Y-97609569D01*
X105766320Y-97459652D01*
X105776531Y-97435000D01*
X105824817Y-97318426D01*
X105824819Y-97318423D01*
X105909739Y-97191331D01*
X106017831Y-97083239D01*
X106144925Y-96998318D01*
X106144926Y-96998317D01*
X106195228Y-96977481D01*
X106216836Y-96965932D01*
X106235778Y-96950386D01*
X106251323Y-96931444D01*
X106262874Y-96909834D01*
X106269987Y-96886385D01*
X106272389Y-96861999D01*
X106269987Y-96837613D01*
X106262874Y-96814164D01*
X106251323Y-96792553D01*
X106235777Y-96773611D01*
X106216835Y-96758066D01*
X106195225Y-96746515D01*
X106171776Y-96739402D01*
X106147390Y-96737000D01*
X105786500Y-96737000D01*
X105786500Y-93635000D01*
X106147390Y-93635000D01*
X106171776Y-93632598D01*
X106195225Y-93625485D01*
X106216836Y-93613934D01*
X106235778Y-93598389D01*
X106251323Y-93579447D01*
X106262874Y-93557836D01*
X106269987Y-93534387D01*
X106272389Y-93510001D01*
X106269987Y-93485615D01*
X106262874Y-93462166D01*
X106251323Y-93440555D01*
X106235778Y-93421613D01*
X106216836Y-93406068D01*
X106195228Y-93394519D01*
X106144926Y-93373683D01*
X106102560Y-93345375D01*
X106017831Y-93288761D01*
X105909739Y-93180669D01*
X105824819Y-93053577D01*
X105824817Y-93053574D01*
X105766321Y-92912351D01*
X105736500Y-92762429D01*
X105736500Y-92609571D01*
X105766321Y-92459649D01*
X105824817Y-92318426D01*
X105824819Y-92318423D01*
X105909739Y-92191331D01*
X106017831Y-92083239D01*
X106144923Y-91998319D01*
X106144926Y-91998317D01*
X106286149Y-91939821D01*
X106286150Y-91939821D01*
X106286152Y-91939820D01*
X106436069Y-91910000D01*
X106588931Y-91910000D01*
X106738848Y-91939820D01*
G37*
G36*
X150192001Y-97322001D02*
G01*
X147590001Y-97322001D01*
X147590001Y-96220001D01*
X150192001Y-96220001D01*
X150192001Y-97322001D01*
G37*
G36*
X165392001Y-97322001D02*
G01*
X162790001Y-97322001D01*
X162790001Y-96220001D01*
X165392001Y-96220001D01*
X165392001Y-97322001D01*
G37*
G36*
X170287000Y-97089000D02*
G01*
X168485000Y-97089000D01*
X168485000Y-95287000D01*
X170287000Y-95287000D01*
X170287000Y-97089000D01*
G37*
G36*
X104813500Y-96987000D02*
G01*
X102811500Y-96987000D01*
X102811500Y-95385000D01*
X104813500Y-95385000D01*
X104813500Y-96987000D01*
G37*
G36*
X113217000Y-96065000D02*
G01*
X111115000Y-96065000D01*
X111115000Y-94463000D01*
X113217000Y-94463000D01*
X113217000Y-96065000D01*
G37*
G36*
X165392001Y-95322001D02*
G01*
X162790001Y-95322001D01*
X162790001Y-94220001D01*
X165392001Y-94220001D01*
X165392001Y-95322001D01*
G37*
G36*
X150192001Y-95322001D02*
G01*
X147590001Y-95322001D01*
X147590001Y-94220001D01*
X150192001Y-94220001D01*
X150192001Y-95322001D01*
G37*
G36*
X104813500Y-94987000D02*
G01*
X102811500Y-94987000D01*
X102811500Y-93385000D01*
X104813500Y-93385000D01*
X104813500Y-94987000D01*
G37*
G36*
X119517000Y-94915000D02*
G01*
X117415000Y-94915000D01*
X117415000Y-91013000D01*
X119517000Y-91013000D01*
X119517000Y-94915000D01*
G37*
G36*
X113217000Y-93765000D02*
G01*
X111115000Y-93765000D01*
X111115000Y-92163000D01*
X113217000Y-92163000D01*
X113217000Y-93765000D01*
G37*
G36*
X150192001Y-93322001D02*
G01*
X147590001Y-93322001D01*
X147590001Y-92220001D01*
X150192001Y-92220001D01*
X150192001Y-93322001D01*
G37*
G36*
X165392001Y-93322001D02*
G01*
X162790001Y-93322001D01*
X162790001Y-92220001D01*
X165392001Y-92220001D01*
X165392001Y-93322001D01*
G37*
G36*
X104226355Y-91038140D02*
G01*
X104290118Y-91044420D01*
X104380904Y-91071960D01*
X104412836Y-91081646D01*
X104525925Y-91142094D01*
X104625054Y-91223446D01*
X104706406Y-91322575D01*
X104766854Y-91435664D01*
X104766855Y-91435668D01*
X104800413Y-91546292D01*
X104809787Y-91568925D01*
X104813500Y-91574482D01*
X104813500Y-91647886D01*
X104814102Y-91660138D01*
X104816649Y-91686000D01*
X104814102Y-91711862D01*
X104813500Y-91724114D01*
X104813500Y-92937000D01*
X102811500Y-92937000D01*
X102811500Y-91724114D01*
X102810898Y-91711862D01*
X102808351Y-91686000D01*
X102810898Y-91660138D01*
X102811500Y-91647886D01*
X102811500Y-91574594D01*
X102820457Y-91557836D01*
X102824585Y-91546299D01*
X102858145Y-91435668D01*
X102858146Y-91435664D01*
X102918594Y-91322575D01*
X102999946Y-91223446D01*
X103099075Y-91142094D01*
X103212164Y-91081646D01*
X103244096Y-91071960D01*
X103334882Y-91044420D01*
X103398645Y-91038140D01*
X103430526Y-91035000D01*
X104194474Y-91035000D01*
X104226355Y-91038140D01*
G37*
G36*
X113217000Y-91465000D02*
G01*
X111115000Y-91465000D01*
X111115000Y-89863000D01*
X113217000Y-89863000D01*
X113217000Y-91465000D01*
G37*
G36*
X165392001Y-91322001D02*
G01*
X162790001Y-91322001D01*
X162790001Y-90220001D01*
X165392001Y-90220001D01*
X165392001Y-91322001D01*
G37*
G36*
X150192001Y-91322001D02*
G01*
X147590001Y-91322001D01*
X147590001Y-90220001D01*
X150192001Y-90220001D01*
X150192001Y-91322001D01*
G37*
G36*
X150192001Y-89322001D02*
G01*
X147590001Y-89322001D01*
X147590001Y-88220001D01*
X150192001Y-88220001D01*
X150192001Y-89322001D01*
G37*
G36*
X165392001Y-89322001D02*
G01*
X162790001Y-89322001D01*
X162790001Y-88220001D01*
X165392001Y-88220001D01*
X165392001Y-89322001D01*
G37*
G36*
X129833642Y-87235781D02*
G01*
X129979414Y-87296162D01*
X129979416Y-87296163D01*
X130110608Y-87383822D01*
X130222178Y-87495392D01*
X130302747Y-87615973D01*
X130309838Y-87626586D01*
X130370219Y-87772358D01*
X130401000Y-87927107D01*
X130401000Y-88084893D01*
X130370219Y-88239642D01*
X130309838Y-88385414D01*
X130309837Y-88385416D01*
X130222178Y-88516608D01*
X130110608Y-88628178D01*
X129979416Y-88715837D01*
X129979415Y-88715838D01*
X129979414Y-88715838D01*
X129833642Y-88776219D01*
X129678893Y-88807000D01*
X129521107Y-88807000D01*
X129366358Y-88776219D01*
X129220586Y-88715838D01*
X129220585Y-88715838D01*
X129220584Y-88715837D01*
X129089392Y-88628178D01*
X128977822Y-88516608D01*
X128890163Y-88385416D01*
X128890162Y-88385414D01*
X128829781Y-88239642D01*
X128799000Y-88084893D01*
X128799000Y-87927107D01*
X128829781Y-87772358D01*
X128890162Y-87626586D01*
X128897253Y-87615973D01*
X128977822Y-87495392D01*
X129089392Y-87383822D01*
X129220584Y-87296163D01*
X129220586Y-87296162D01*
X129366358Y-87235781D01*
X129521107Y-87205000D01*
X129678893Y-87205000D01*
X129833642Y-87235781D01*
G37*
G36*
X137816564Y-85935389D02*
G01*
X138007833Y-86014615D01*
X138007835Y-86014616D01*
X138051591Y-86043853D01*
X138179973Y-86129635D01*
X138326365Y-86276027D01*
X138441385Y-86448167D01*
X138520611Y-86639436D01*
X138561000Y-86842484D01*
X138561000Y-87049516D01*
X138520611Y-87252564D01*
X138491849Y-87322001D01*
X138441384Y-87443835D01*
X138326365Y-87615973D01*
X138179973Y-87762365D01*
X138007835Y-87877384D01*
X138007834Y-87877385D01*
X138007833Y-87877385D01*
X137816564Y-87956611D01*
X137613516Y-87997000D01*
X137406484Y-87997000D01*
X137203436Y-87956611D01*
X137012167Y-87877385D01*
X137012166Y-87877385D01*
X137012165Y-87877384D01*
X136840027Y-87762365D01*
X136693635Y-87615973D01*
X136578616Y-87443835D01*
X136528151Y-87322001D01*
X136499389Y-87252564D01*
X136459000Y-87049516D01*
X136459000Y-86842484D01*
X136499389Y-86639436D01*
X136578615Y-86448167D01*
X136693635Y-86276027D01*
X136840027Y-86129635D01*
X136968409Y-86043853D01*
X137012165Y-86014616D01*
X137012167Y-86014615D01*
X137203436Y-85935389D01*
X137406484Y-85895000D01*
X137613516Y-85895000D01*
X137816564Y-85935389D01*
G37*
G36*
X142316564Y-85935389D02*
G01*
X142507833Y-86014615D01*
X142507835Y-86014616D01*
X142551591Y-86043853D01*
X142679973Y-86129635D01*
X142826365Y-86276027D01*
X142941385Y-86448167D01*
X143020611Y-86639436D01*
X143061000Y-86842484D01*
X143061000Y-87049516D01*
X143020611Y-87252564D01*
X142991849Y-87322001D01*
X142941384Y-87443835D01*
X142826365Y-87615973D01*
X142679973Y-87762365D01*
X142507835Y-87877384D01*
X142507834Y-87877385D01*
X142507833Y-87877385D01*
X142316564Y-87956611D01*
X142113516Y-87997000D01*
X141906484Y-87997000D01*
X141703436Y-87956611D01*
X141512167Y-87877385D01*
X141512166Y-87877385D01*
X141512165Y-87877384D01*
X141340027Y-87762365D01*
X141193635Y-87615973D01*
X141078616Y-87443835D01*
X141028151Y-87322001D01*
X140999389Y-87252564D01*
X140959000Y-87049516D01*
X140959000Y-86842484D01*
X140999389Y-86639436D01*
X141078615Y-86448167D01*
X141193635Y-86276027D01*
X141340027Y-86129635D01*
X141468409Y-86043853D01*
X141512165Y-86014616D01*
X141512167Y-86014615D01*
X141703436Y-85935389D01*
X141906484Y-85895000D01*
X142113516Y-85895000D01*
X142316564Y-85935389D01*
G37*
G36*
X170147000Y-87889000D02*
G01*
X168345000Y-87889000D01*
X168345000Y-86087000D01*
X170147000Y-86087000D01*
X170147000Y-87889000D01*
G37*
G36*
X150192001Y-87322001D02*
G01*
X147590001Y-87322001D01*
X147590001Y-86220001D01*
X150192001Y-86220001D01*
X150192001Y-87322001D01*
G37*
G36*
X165392001Y-87322001D02*
G01*
X162790001Y-87322001D01*
X162790001Y-86220001D01*
X165392001Y-86220001D01*
X165392001Y-87322001D01*
G37*
G36*
X129833642Y-84695781D02*
G01*
X129979414Y-84756162D01*
X129979416Y-84756163D01*
X130110608Y-84843822D01*
X130222178Y-84955392D01*
X130306232Y-85081189D01*
X130309838Y-85086586D01*
X130370219Y-85232358D01*
X130401000Y-85387107D01*
X130401000Y-85544893D01*
X130370219Y-85699642D01*
X130340751Y-85770784D01*
X130309837Y-85845416D01*
X130222178Y-85976608D01*
X130110608Y-86088178D01*
X129979416Y-86175837D01*
X129979415Y-86175838D01*
X129979414Y-86175838D01*
X129833642Y-86236219D01*
X129678893Y-86267000D01*
X129521107Y-86267000D01*
X129366358Y-86236219D01*
X129220586Y-86175838D01*
X129220585Y-86175838D01*
X129220584Y-86175837D01*
X129089392Y-86088178D01*
X128977822Y-85976608D01*
X128890163Y-85845416D01*
X128859249Y-85770784D01*
X128829781Y-85699642D01*
X128799000Y-85544893D01*
X128799000Y-85387107D01*
X128829781Y-85232358D01*
X128890162Y-85086586D01*
X128893768Y-85081189D01*
X128977822Y-84955392D01*
X129089392Y-84843822D01*
X129220584Y-84756163D01*
X129220586Y-84756162D01*
X129366358Y-84695781D01*
X129521107Y-84665000D01*
X129678893Y-84665000D01*
X129833642Y-84695781D01*
G37*
G36*
X107809512Y-84447927D02*
G01*
X107958812Y-84477624D01*
X108122784Y-84545544D01*
X108270354Y-84644147D01*
X108395853Y-84769646D01*
X108494456Y-84917216D01*
X108562376Y-85081188D01*
X108597000Y-85255259D01*
X108597000Y-85432741D01*
X108562376Y-85606812D01*
X108494456Y-85770784D01*
X108395853Y-85918354D01*
X108270354Y-86043853D01*
X108122784Y-86142456D01*
X107958812Y-86210376D01*
X107809512Y-86240073D01*
X107784742Y-86245000D01*
X107607258Y-86245000D01*
X107582488Y-86240073D01*
X107433188Y-86210376D01*
X107269216Y-86142456D01*
X107121646Y-86043853D01*
X106996147Y-85918354D01*
X106897544Y-85770784D01*
X106829624Y-85606812D01*
X106795000Y-85432741D01*
X106795000Y-85255259D01*
X106829624Y-85081188D01*
X106897544Y-84917216D01*
X106996147Y-84769646D01*
X107121646Y-84644147D01*
X107269216Y-84545544D01*
X107433188Y-84477624D01*
X107582488Y-84447927D01*
X107607258Y-84443000D01*
X107784742Y-84443000D01*
X107809512Y-84447927D01*
G37*
G36*
X169359512Y-83551927D02*
G01*
X169508812Y-83581624D01*
X169672784Y-83649544D01*
X169820354Y-83748147D01*
X169945853Y-83873646D01*
X170044456Y-84021216D01*
X170112376Y-84185188D01*
X170147000Y-84359259D01*
X170147000Y-84536741D01*
X170112376Y-84710812D01*
X170044456Y-84874784D01*
X169945853Y-85022354D01*
X169820354Y-85147853D01*
X169672784Y-85246456D01*
X169508812Y-85314376D01*
X169359512Y-85344073D01*
X169334742Y-85349000D01*
X169157258Y-85349000D01*
X169132488Y-85344073D01*
X168983188Y-85314376D01*
X168819216Y-85246456D01*
X168671646Y-85147853D01*
X168546147Y-85022354D01*
X168447544Y-84874784D01*
X168379624Y-84710812D01*
X168345000Y-84536741D01*
X168345000Y-84359259D01*
X168379624Y-84185188D01*
X168447544Y-84021216D01*
X168546147Y-83873646D01*
X168671646Y-83748147D01*
X168819216Y-83649544D01*
X168983188Y-83581624D01*
X169132488Y-83551927D01*
X169157258Y-83547000D01*
X169334742Y-83547000D01*
X169359512Y-83551927D01*
G37*
G36*
X118249000Y-84213000D02*
G01*
X116447000Y-84213000D01*
X116447000Y-82411000D01*
X118249000Y-82411000D01*
X118249000Y-84213000D01*
G37*
G36*
X129833642Y-82155781D02*
G01*
X129979414Y-82216162D01*
X129979416Y-82216163D01*
X130110608Y-82303822D01*
X130222178Y-82415392D01*
X130306232Y-82541189D01*
X130309838Y-82546586D01*
X130370219Y-82692358D01*
X130401000Y-82847107D01*
X130401000Y-83004893D01*
X130370219Y-83159642D01*
X130340751Y-83230784D01*
X130309837Y-83305416D01*
X130222178Y-83436608D01*
X130110608Y-83548178D01*
X129979416Y-83635837D01*
X129979415Y-83635838D01*
X129979414Y-83635838D01*
X129833642Y-83696219D01*
X129678893Y-83727000D01*
X129521107Y-83727000D01*
X129366358Y-83696219D01*
X129220586Y-83635838D01*
X129220585Y-83635838D01*
X129220584Y-83635837D01*
X129089392Y-83548178D01*
X128977822Y-83436608D01*
X128890163Y-83305416D01*
X128859249Y-83230784D01*
X128829781Y-83159642D01*
X128799000Y-83004893D01*
X128799000Y-82847107D01*
X128829781Y-82692358D01*
X128890162Y-82546586D01*
X128893768Y-82541189D01*
X128977822Y-82415392D01*
X129089392Y-82303822D01*
X129220584Y-82216163D01*
X129220586Y-82216162D01*
X129366358Y-82155781D01*
X129521107Y-82125000D01*
X129678893Y-82125000D01*
X129833642Y-82155781D01*
G37*
G36*
X107809512Y-81907927D02*
G01*
X107958812Y-81937624D01*
X108122784Y-82005544D01*
X108270354Y-82104147D01*
X108395853Y-82229646D01*
X108494456Y-82377216D01*
X108562376Y-82541188D01*
X108597000Y-82715259D01*
X108597000Y-82892741D01*
X108562376Y-83066812D01*
X108494456Y-83230784D01*
X108395853Y-83378354D01*
X108270354Y-83503853D01*
X108122784Y-83602456D01*
X107958812Y-83670376D01*
X107809512Y-83700073D01*
X107784742Y-83705000D01*
X107607258Y-83705000D01*
X107582488Y-83700073D01*
X107433188Y-83670376D01*
X107269216Y-83602456D01*
X107121646Y-83503853D01*
X106996147Y-83378354D01*
X106897544Y-83230784D01*
X106829624Y-83066812D01*
X106795000Y-82892741D01*
X106795000Y-82715259D01*
X106829624Y-82541188D01*
X106897544Y-82377216D01*
X106996147Y-82229646D01*
X107121646Y-82104147D01*
X107269216Y-82005544D01*
X107433188Y-81937624D01*
X107582488Y-81907927D01*
X107607258Y-81903000D01*
X107784742Y-81903000D01*
X107809512Y-81907927D01*
G37*
G36*
X169359512Y-81011927D02*
G01*
X169508812Y-81041624D01*
X169672784Y-81109544D01*
X169820354Y-81208147D01*
X169945853Y-81333646D01*
X170044456Y-81481216D01*
X170112376Y-81645188D01*
X170147000Y-81819259D01*
X170147000Y-81996741D01*
X170112376Y-82170812D01*
X170044456Y-82334784D01*
X169945853Y-82482354D01*
X169820354Y-82607853D01*
X169672784Y-82706456D01*
X169508812Y-82774376D01*
X169359512Y-82804073D01*
X169334742Y-82809000D01*
X169157258Y-82809000D01*
X169132488Y-82804073D01*
X168983188Y-82774376D01*
X168819216Y-82706456D01*
X168671646Y-82607853D01*
X168546147Y-82482354D01*
X168447544Y-82334784D01*
X168379624Y-82170812D01*
X168345000Y-81996741D01*
X168345000Y-81819259D01*
X168379624Y-81645188D01*
X168447544Y-81481216D01*
X168546147Y-81333646D01*
X168671646Y-81208147D01*
X168819216Y-81109544D01*
X168983188Y-81041624D01*
X169132488Y-81011927D01*
X169157258Y-81007000D01*
X169334742Y-81007000D01*
X169359512Y-81011927D01*
G37*
G36*
X117461512Y-79875927D02*
G01*
X117610812Y-79905624D01*
X117774784Y-79973544D01*
X117922354Y-80072147D01*
X118047853Y-80197646D01*
X118146456Y-80345216D01*
X118214376Y-80509188D01*
X118249000Y-80683259D01*
X118249000Y-80860741D01*
X118214376Y-81034812D01*
X118146456Y-81198784D01*
X118047853Y-81346354D01*
X117922354Y-81471853D01*
X117774784Y-81570456D01*
X117610812Y-81638376D01*
X117461512Y-81668073D01*
X117436742Y-81673000D01*
X117259258Y-81673000D01*
X117234488Y-81668073D01*
X117085188Y-81638376D01*
X116921216Y-81570456D01*
X116773646Y-81471853D01*
X116648147Y-81346354D01*
X116549544Y-81198784D01*
X116481624Y-81034812D01*
X116447000Y-80860741D01*
X116447000Y-80683259D01*
X116481624Y-80509188D01*
X116549544Y-80345216D01*
X116648147Y-80197646D01*
X116773646Y-80072147D01*
X116921216Y-79973544D01*
X117085188Y-79905624D01*
X117234488Y-79875927D01*
X117259258Y-79871000D01*
X117436742Y-79871000D01*
X117461512Y-79875927D01*
G37*
G36*
X142316564Y-79435389D02*
G01*
X142507833Y-79514615D01*
X142507835Y-79514616D01*
X142679973Y-79629635D01*
X142826365Y-79776027D01*
X142937501Y-79942353D01*
X142941385Y-79948167D01*
X143020611Y-80139436D01*
X143061000Y-80342484D01*
X143061000Y-80549516D01*
X143020611Y-80752564D01*
X142975802Y-80860742D01*
X142941384Y-80943835D01*
X142826365Y-81115973D01*
X142679973Y-81262365D01*
X142507835Y-81377384D01*
X142507834Y-81377385D01*
X142507833Y-81377385D01*
X142316564Y-81456611D01*
X142113516Y-81497000D01*
X141906484Y-81497000D01*
X141703436Y-81456611D01*
X141512167Y-81377385D01*
X141512166Y-81377385D01*
X141512165Y-81377384D01*
X141340027Y-81262365D01*
X141193635Y-81115973D01*
X141078616Y-80943835D01*
X141044198Y-80860742D01*
X140999389Y-80752564D01*
X140959000Y-80549516D01*
X140959000Y-80342484D01*
X140999389Y-80139436D01*
X141078615Y-79948167D01*
X141082500Y-79942353D01*
X141193635Y-79776027D01*
X141340027Y-79629635D01*
X141512165Y-79514616D01*
X141512167Y-79514615D01*
X141703436Y-79435389D01*
X141906484Y-79395000D01*
X142113516Y-79395000D01*
X142316564Y-79435389D01*
G37*
G36*
X137816564Y-79435389D02*
G01*
X138007833Y-79514615D01*
X138007835Y-79514616D01*
X138179973Y-79629635D01*
X138326365Y-79776027D01*
X138437501Y-79942353D01*
X138441385Y-79948167D01*
X138520611Y-80139436D01*
X138561000Y-80342484D01*
X138561000Y-80549516D01*
X138520611Y-80752564D01*
X138475802Y-80860742D01*
X138441384Y-80943835D01*
X138326365Y-81115973D01*
X138179973Y-81262365D01*
X138007835Y-81377384D01*
X138007834Y-81377385D01*
X138007833Y-81377385D01*
X137816564Y-81456611D01*
X137613516Y-81497000D01*
X137406484Y-81497000D01*
X137203436Y-81456611D01*
X137012167Y-81377385D01*
X137012166Y-81377385D01*
X137012165Y-81377384D01*
X136840027Y-81262365D01*
X136693635Y-81115973D01*
X136578616Y-80943835D01*
X136544198Y-80860742D01*
X136499389Y-80752564D01*
X136459000Y-80549516D01*
X136459000Y-80342484D01*
X136499389Y-80139436D01*
X136578615Y-79948167D01*
X136582500Y-79942353D01*
X136693635Y-79776027D01*
X136840027Y-79629635D01*
X137012165Y-79514616D01*
X137012167Y-79514615D01*
X137203436Y-79435389D01*
X137406484Y-79395000D01*
X137613516Y-79395000D01*
X137816564Y-79435389D01*
G37*
G36*
X130401000Y-81187000D02*
G01*
X128799000Y-81187000D01*
X128799000Y-79585000D01*
X130401000Y-79585000D01*
X130401000Y-81187000D01*
G37*
G36*
X108597000Y-81165000D02*
G01*
X106795000Y-81165000D01*
X106795000Y-79363000D01*
X108597000Y-79363000D01*
X108597000Y-81165000D01*
G37*
G36*
X169359512Y-78471927D02*
G01*
X169508812Y-78501624D01*
X169672784Y-78569544D01*
X169820354Y-78668147D01*
X169945853Y-78793646D01*
X170044456Y-78941216D01*
X170112376Y-79105188D01*
X170147000Y-79279259D01*
X170147000Y-79456741D01*
X170112376Y-79630812D01*
X170044456Y-79794784D01*
X169945853Y-79942354D01*
X169820354Y-80067853D01*
X169672784Y-80166456D01*
X169508812Y-80234376D01*
X169359512Y-80264073D01*
X169334742Y-80269000D01*
X169157258Y-80269000D01*
X169132488Y-80264073D01*
X168983188Y-80234376D01*
X168819216Y-80166456D01*
X168671646Y-80067853D01*
X168546147Y-79942354D01*
X168447544Y-79794784D01*
X168379624Y-79630812D01*
X168345000Y-79456741D01*
X168345000Y-79279259D01*
X168379624Y-79105188D01*
X168447544Y-78941216D01*
X168546147Y-78793646D01*
X168671646Y-78668147D01*
X168819216Y-78569544D01*
X168983188Y-78501624D01*
X169132488Y-78471927D01*
X169157258Y-78467000D01*
X169334742Y-78467000D01*
X169359512Y-78471927D01*
G37*
M02*
