%TF.GenerationSoftware,KiCad,Pcbnew,(5.1.5)-3*%
%TF.CreationDate,2020-12-29T21:36:43+13:00*%
%TF.ProjectId,SensorNodeCircuit,53656e73-6f72-44e6-9f64-654369726375,rev?*%
%TF.SameCoordinates,Original*%
%TF.FileFunction,Legend,Top*%
%TF.FilePolarity,Positive*%
%FSLAX46Y46*%
G04 Gerber Fmt 4.6, Leading zero omitted, Abs format (unit mm)*
G04 Created by KiCad (PCBNEW (5.1.5)-3) date 2020-12-29 21:36:43*
%MOMM*%
%LPD*%
G04 APERTURE LIST*
%ADD10C,0.150000*%
%ADD11C,0.120000*%
G04 APERTURE END LIST*
D10*
X168298952Y-103814571D02*
X168441809Y-103862190D01*
X168489428Y-103909809D01*
X168537047Y-104005047D01*
X168537047Y-104147904D01*
X168489428Y-104243142D01*
X168441809Y-104290761D01*
X168346571Y-104338380D01*
X167965619Y-104338380D01*
X167965619Y-103338380D01*
X168298952Y-103338380D01*
X168394190Y-103386000D01*
X168441809Y-103433619D01*
X168489428Y-103528857D01*
X168489428Y-103624095D01*
X168441809Y-103719333D01*
X168394190Y-103766952D01*
X168298952Y-103814571D01*
X167965619Y-103814571D01*
X169108476Y-104338380D02*
X169013238Y-104290761D01*
X168965619Y-104243142D01*
X168918000Y-104147904D01*
X168918000Y-103862190D01*
X168965619Y-103766952D01*
X169013238Y-103719333D01*
X169108476Y-103671714D01*
X169251333Y-103671714D01*
X169346571Y-103719333D01*
X169394190Y-103766952D01*
X169441809Y-103862190D01*
X169441809Y-104147904D01*
X169394190Y-104243142D01*
X169346571Y-104290761D01*
X169251333Y-104338380D01*
X169108476Y-104338380D01*
X170013238Y-104338380D02*
X169918000Y-104290761D01*
X169870380Y-104243142D01*
X169822761Y-104147904D01*
X169822761Y-103862190D01*
X169870380Y-103766952D01*
X169918000Y-103719333D01*
X170013238Y-103671714D01*
X170156095Y-103671714D01*
X170251333Y-103719333D01*
X170298952Y-103766952D01*
X170346571Y-103862190D01*
X170346571Y-104147904D01*
X170298952Y-104243142D01*
X170251333Y-104290761D01*
X170156095Y-104338380D01*
X170013238Y-104338380D01*
X170632285Y-103671714D02*
X171013238Y-103671714D01*
X170775142Y-103338380D02*
X170775142Y-104195523D01*
X170822761Y-104290761D01*
X170918000Y-104338380D01*
X171013238Y-104338380D01*
X119467523Y-83865980D02*
X119467523Y-82865980D01*
X119800857Y-83580266D01*
X120134190Y-82865980D01*
X120134190Y-83865980D01*
X121038952Y-83199314D02*
X121038952Y-83865980D01*
X120610380Y-83199314D02*
X120610380Y-83723123D01*
X120658000Y-83818361D01*
X120753238Y-83865980D01*
X120896095Y-83865980D01*
X120991333Y-83818361D01*
X121038952Y-83770742D01*
X121419904Y-83865980D02*
X121943714Y-83199314D01*
X121419904Y-83199314D02*
X121943714Y-83865980D01*
X122324666Y-83865980D02*
X122324666Y-82865980D01*
X122562761Y-82865980D01*
X122705619Y-82913600D01*
X122800857Y-83008838D01*
X122848476Y-83104076D01*
X122896095Y-83294552D01*
X122896095Y-83437409D01*
X122848476Y-83627885D01*
X122800857Y-83723123D01*
X122705619Y-83818361D01*
X122562761Y-83865980D01*
X122324666Y-83865980D01*
X119416723Y-81275180D02*
X119416723Y-80275180D01*
X119750057Y-80989466D01*
X120083390Y-80275180D01*
X120083390Y-81275180D01*
X120988152Y-80608514D02*
X120988152Y-81275180D01*
X120559580Y-80608514D02*
X120559580Y-81132323D01*
X120607200Y-81227561D01*
X120702438Y-81275180D01*
X120845295Y-81275180D01*
X120940533Y-81227561D01*
X120988152Y-81179942D01*
X121369104Y-81275180D02*
X121892914Y-80608514D01*
X121369104Y-80608514D02*
X121892914Y-81275180D01*
X122845295Y-81179942D02*
X122797676Y-81227561D01*
X122654819Y-81275180D01*
X122559580Y-81275180D01*
X122416723Y-81227561D01*
X122321485Y-81132323D01*
X122273866Y-81037085D01*
X122226247Y-80846609D01*
X122226247Y-80703752D01*
X122273866Y-80513276D01*
X122321485Y-80418038D01*
X122416723Y-80322800D01*
X122559580Y-80275180D01*
X122654819Y-80275180D01*
X122797676Y-80322800D01*
X122845295Y-80370419D01*
X171221447Y-101315828D02*
X171983352Y-101315828D01*
X171119847Y-96235828D02*
X171881752Y-96235828D01*
X171500800Y-96616780D02*
X171500800Y-95854876D01*
X166497047Y-79421028D02*
X167258952Y-79421028D01*
X166878000Y-79801980D02*
X166878000Y-79040076D01*
X167089104Y-81592800D02*
X166993866Y-81545180D01*
X166851009Y-81545180D01*
X166708152Y-81592800D01*
X166612914Y-81688038D01*
X166565295Y-81783276D01*
X166517676Y-81973752D01*
X166517676Y-82116609D01*
X166565295Y-82307085D01*
X166612914Y-82402323D01*
X166708152Y-82497561D01*
X166851009Y-82545180D01*
X166946247Y-82545180D01*
X167089104Y-82497561D01*
X167136723Y-82449942D01*
X167136723Y-82116609D01*
X166946247Y-82116609D01*
X166187523Y-84085180D02*
X166758952Y-84085180D01*
X166473238Y-85085180D02*
X166473238Y-84085180D01*
X166997047Y-85085180D02*
X167520857Y-84418514D01*
X166997047Y-84418514D02*
X167520857Y-85085180D01*
X166884361Y-87472780D02*
X166551028Y-86996590D01*
X166312933Y-87472780D02*
X166312933Y-86472780D01*
X166693885Y-86472780D01*
X166789123Y-86520400D01*
X166836742Y-86568019D01*
X166884361Y-86663257D01*
X166884361Y-86806114D01*
X166836742Y-86901352D01*
X166789123Y-86948971D01*
X166693885Y-86996590D01*
X166312933Y-86996590D01*
X167217695Y-87472780D02*
X167741504Y-86806114D01*
X167217695Y-86806114D02*
X167741504Y-87472780D01*
X138614304Y-90012780D02*
X138280971Y-89536590D01*
X138042876Y-90012780D02*
X138042876Y-89012780D01*
X138423828Y-89012780D01*
X138519066Y-89060400D01*
X138566685Y-89108019D01*
X138614304Y-89203257D01*
X138614304Y-89346114D01*
X138566685Y-89441352D01*
X138519066Y-89488971D01*
X138423828Y-89536590D01*
X138042876Y-89536590D01*
X139423828Y-89965161D02*
X139328590Y-90012780D01*
X139138114Y-90012780D01*
X139042876Y-89965161D01*
X138995257Y-89869923D01*
X138995257Y-89488971D01*
X139042876Y-89393733D01*
X139138114Y-89346114D01*
X139328590Y-89346114D01*
X139423828Y-89393733D01*
X139471447Y-89488971D01*
X139471447Y-89584209D01*
X138995257Y-89679447D01*
X139852400Y-89965161D02*
X139947638Y-90012780D01*
X140138114Y-90012780D01*
X140233352Y-89965161D01*
X140280971Y-89869923D01*
X140280971Y-89822304D01*
X140233352Y-89727066D01*
X140138114Y-89679447D01*
X139995257Y-89679447D01*
X139900019Y-89631828D01*
X139852400Y-89536590D01*
X139852400Y-89488971D01*
X139900019Y-89393733D01*
X139995257Y-89346114D01*
X140138114Y-89346114D01*
X140233352Y-89393733D01*
X141090495Y-89965161D02*
X140995257Y-90012780D01*
X140804780Y-90012780D01*
X140709542Y-89965161D01*
X140661923Y-89869923D01*
X140661923Y-89488971D01*
X140709542Y-89393733D01*
X140804780Y-89346114D01*
X140995257Y-89346114D01*
X141090495Y-89393733D01*
X141138114Y-89488971D01*
X141138114Y-89584209D01*
X140661923Y-89679447D01*
X141423828Y-89346114D02*
X141804780Y-89346114D01*
X141566685Y-89012780D02*
X141566685Y-89869923D01*
X141614304Y-89965161D01*
X141709542Y-90012780D01*
X141804780Y-90012780D01*
X103057485Y-85415428D02*
X103819390Y-85415428D01*
X103438438Y-85796380D02*
X103438438Y-85034476D01*
X104771771Y-84796380D02*
X104295580Y-84796380D01*
X104247961Y-85272571D01*
X104295580Y-85224952D01*
X104390819Y-85177333D01*
X104628914Y-85177333D01*
X104724152Y-85224952D01*
X104771771Y-85272571D01*
X104819390Y-85367809D01*
X104819390Y-85605904D01*
X104771771Y-85701142D01*
X104724152Y-85748761D01*
X104628914Y-85796380D01*
X104390819Y-85796380D01*
X104295580Y-85748761D01*
X104247961Y-85701142D01*
X105105104Y-84796380D02*
X105438438Y-85796380D01*
X105771771Y-84796380D01*
X102327295Y-82773828D02*
X103089200Y-82773828D01*
X102708247Y-83154780D02*
X102708247Y-82392876D01*
X103470152Y-82154780D02*
X104089200Y-82154780D01*
X103755866Y-82535733D01*
X103898723Y-82535733D01*
X103993961Y-82583352D01*
X104041580Y-82630971D01*
X104089200Y-82726209D01*
X104089200Y-82964304D01*
X104041580Y-83059542D01*
X103993961Y-83107161D01*
X103898723Y-83154780D01*
X103613009Y-83154780D01*
X103517771Y-83107161D01*
X103470152Y-83059542D01*
X104374914Y-82154780D02*
X104708247Y-83154780D01*
X105041580Y-82154780D01*
X105279676Y-82154780D02*
X105898723Y-82154780D01*
X105565390Y-82535733D01*
X105708247Y-82535733D01*
X105803485Y-82583352D01*
X105851104Y-82630971D01*
X105898723Y-82726209D01*
X105898723Y-82964304D01*
X105851104Y-83059542D01*
X105803485Y-83107161D01*
X105708247Y-83154780D01*
X105422533Y-83154780D01*
X105327295Y-83107161D01*
X105279676Y-83059542D01*
X103886095Y-79814800D02*
X103790857Y-79767180D01*
X103648000Y-79767180D01*
X103505142Y-79814800D01*
X103409904Y-79910038D01*
X103362285Y-80005276D01*
X103314666Y-80195752D01*
X103314666Y-80338609D01*
X103362285Y-80529085D01*
X103409904Y-80624323D01*
X103505142Y-80719561D01*
X103648000Y-80767180D01*
X103743238Y-80767180D01*
X103886095Y-80719561D01*
X103933714Y-80671942D01*
X103933714Y-80338609D01*
X103743238Y-80338609D01*
X104362285Y-80767180D02*
X104362285Y-79767180D01*
X104933714Y-80767180D01*
X104933714Y-79767180D01*
X105409904Y-80767180D02*
X105409904Y-79767180D01*
X105648000Y-79767180D01*
X105790857Y-79814800D01*
X105886095Y-79910038D01*
X105933714Y-80005276D01*
X105981333Y-80195752D01*
X105981333Y-80338609D01*
X105933714Y-80529085D01*
X105886095Y-80624323D01*
X105790857Y-80719561D01*
X105648000Y-80767180D01*
X105409904Y-80767180D01*
D11*
X112899936Y-99442000D02*
X114104064Y-99442000D01*
X112899936Y-97622000D02*
X114104064Y-97622000D01*
X112937436Y-100122000D02*
X114141564Y-100122000D01*
X112937436Y-101942000D02*
X114141564Y-101942000D01*
X140070000Y-101931436D02*
X140070000Y-103135564D01*
X141890000Y-101931436D02*
X141890000Y-103135564D01*
X144400000Y-101911436D02*
X144400000Y-103115564D01*
X142580000Y-101911436D02*
X142580000Y-103115564D01*
X106812500Y-91286000D02*
X106812500Y-91736000D01*
X104962500Y-91286000D02*
X106812500Y-91286000D01*
X102412500Y-99086000D02*
X102662500Y-99086000D01*
X102412500Y-91286000D02*
X102662500Y-91286000D01*
X104962500Y-99086000D02*
X106812500Y-99086000D01*
X106812500Y-99086000D02*
X106812500Y-98636000D01*
X107362500Y-93486000D02*
X107362500Y-93936000D01*
X107362500Y-93486000D02*
X106912500Y-93486000D01*
X170576000Y-78038000D02*
X167916000Y-78038000D01*
X170576000Y-85718000D02*
X170576000Y-78038000D01*
X167916000Y-85718000D02*
X167916000Y-78038000D01*
X170576000Y-85718000D02*
X167916000Y-85718000D01*
X170576000Y-86988000D02*
X170576000Y-88318000D01*
X170576000Y-88318000D02*
X169246000Y-88318000D01*
X147269200Y-108822800D02*
X147269200Y-106162800D01*
X147269200Y-108822800D02*
X165109200Y-108822800D01*
X165109200Y-108822800D02*
X165109200Y-106162800D01*
X147269200Y-106162800D02*
X165109200Y-106162800D01*
X144669200Y-106162800D02*
X145999200Y-106162800D01*
X144669200Y-107492800D02*
X144669200Y-106162800D01*
X168056000Y-102598000D02*
X170716000Y-102598000D01*
X168056000Y-97458000D02*
X168056000Y-102598000D01*
X170716000Y-97458000D02*
X170716000Y-102598000D01*
X168056000Y-97458000D02*
X170716000Y-97458000D01*
X168056000Y-96188000D02*
X168056000Y-94858000D01*
X168056000Y-94858000D02*
X169386000Y-94858000D01*
X106366000Y-81534000D02*
X109026000Y-81534000D01*
X106366000Y-81534000D02*
X106366000Y-86674000D01*
X106366000Y-86674000D02*
X109026000Y-86674000D01*
X109026000Y-81534000D02*
X109026000Y-86674000D01*
X109026000Y-78934000D02*
X109026000Y-80264000D01*
X107696000Y-78934000D02*
X109026000Y-78934000D01*
X118678000Y-79442000D02*
X116018000Y-79442000D01*
X118678000Y-82042000D02*
X118678000Y-79442000D01*
X116018000Y-82042000D02*
X116018000Y-79442000D01*
X118678000Y-82042000D02*
X116018000Y-82042000D01*
X118678000Y-83312000D02*
X118678000Y-84642000D01*
X118678000Y-84642000D02*
X117348000Y-84642000D01*
X128750000Y-109746000D02*
X134750000Y-109746000D01*
X128750000Y-100946000D02*
X134750000Y-100946000D01*
X128717350Y-100968440D02*
G75*
G03X128750000Y-109746000I3032650J-4377560D01*
G01*
X134782650Y-109723560D02*
G75*
G03X134750000Y-100946000I-3032650J4377560D01*
G01*
X117226000Y-96374000D02*
X117226000Y-95114000D01*
X117226000Y-89554000D02*
X117226000Y-90814000D01*
X113466000Y-96374000D02*
X117226000Y-96374000D01*
X111216000Y-89554000D02*
X117226000Y-89554000D01*
X148371001Y-78151001D02*
X164611001Y-78151001D01*
X164611001Y-78151001D02*
X164611001Y-85771001D01*
X164611001Y-101771001D02*
X164611001Y-102391001D01*
X164611001Y-102391001D02*
X162491001Y-102391001D01*
X150491001Y-102391001D02*
X148371001Y-102391001D01*
X148371001Y-102391001D02*
X148371001Y-101771001D01*
X148371001Y-85771001D02*
X148371001Y-78151001D01*
X148371001Y-85771001D02*
X147761001Y-85771001D01*
X119630000Y-109036000D02*
X123230000Y-109036000D01*
X119591522Y-109024478D02*
G75*
G02X121430000Y-104586000I1838478J1838478D01*
G01*
X123268478Y-109024478D02*
G75*
G03X121430000Y-104586000I-1838478J1838478D01*
G01*
X126730000Y-78066000D02*
X132470000Y-78066000D01*
X132480000Y-78066000D02*
X132480000Y-90326000D01*
X132480000Y-90326000D02*
X126720000Y-90326000D01*
X126720000Y-90326000D02*
X126720000Y-78076000D01*
X126440000Y-77786000D02*
X126440000Y-79786000D01*
X126440000Y-77786000D02*
X128050000Y-77786000D01*
X143010000Y-85946000D02*
X143010000Y-81446000D01*
X139010000Y-87196000D02*
X140510000Y-87196000D01*
X136510000Y-81446000D02*
X136510000Y-85946000D01*
X140510000Y-80196000D02*
X139010000Y-80196000D01*
D10*
X110509142Y-98738666D02*
X110556761Y-98786285D01*
X110604380Y-98929142D01*
X110604380Y-99024380D01*
X110556761Y-99167238D01*
X110461523Y-99262476D01*
X110366285Y-99310095D01*
X110175809Y-99357714D01*
X110032952Y-99357714D01*
X109842476Y-99310095D01*
X109747238Y-99262476D01*
X109652000Y-99167238D01*
X109604380Y-99024380D01*
X109604380Y-98929142D01*
X109652000Y-98786285D01*
X109699619Y-98738666D01*
X110604380Y-97786285D02*
X110604380Y-98357714D01*
X110604380Y-98072000D02*
X109604380Y-98072000D01*
X109747238Y-98167238D01*
X109842476Y-98262476D01*
X109890095Y-98357714D01*
X110589142Y-101218666D02*
X110636761Y-101266285D01*
X110684380Y-101409142D01*
X110684380Y-101504380D01*
X110636761Y-101647238D01*
X110541523Y-101742476D01*
X110446285Y-101790095D01*
X110255809Y-101837714D01*
X110112952Y-101837714D01*
X109922476Y-101790095D01*
X109827238Y-101742476D01*
X109732000Y-101647238D01*
X109684380Y-101504380D01*
X109684380Y-101409142D01*
X109732000Y-101266285D01*
X109779619Y-101218666D01*
X109779619Y-100837714D02*
X109732000Y-100790095D01*
X109684380Y-100694857D01*
X109684380Y-100456761D01*
X109732000Y-100361523D01*
X109779619Y-100313904D01*
X109874857Y-100266285D01*
X109970095Y-100266285D01*
X110112952Y-100313904D01*
X110684380Y-100885333D01*
X110684380Y-100266285D01*
X140798334Y-99615641D02*
X140750715Y-99663260D01*
X140607858Y-99710879D01*
X140512620Y-99710879D01*
X140369762Y-99663260D01*
X140274524Y-99568022D01*
X140226905Y-99472784D01*
X140179286Y-99282308D01*
X140179286Y-99139451D01*
X140226905Y-98948975D01*
X140274524Y-98853737D01*
X140369762Y-98758499D01*
X140512620Y-98710879D01*
X140607858Y-98710879D01*
X140750715Y-98758499D01*
X140798334Y-98806118D01*
X141131667Y-98710879D02*
X141750715Y-98710879D01*
X141417381Y-99091832D01*
X141560239Y-99091832D01*
X141655477Y-99139451D01*
X141703096Y-99187070D01*
X141750715Y-99282308D01*
X141750715Y-99520403D01*
X141703096Y-99615641D01*
X141655477Y-99663260D01*
X141560239Y-99710879D01*
X141274524Y-99710879D01*
X141179286Y-99663260D01*
X141131667Y-99615641D01*
X143343333Y-99693142D02*
X143295714Y-99740761D01*
X143152857Y-99788380D01*
X143057619Y-99788380D01*
X142914761Y-99740761D01*
X142819523Y-99645523D01*
X142771904Y-99550285D01*
X142724285Y-99359809D01*
X142724285Y-99216952D01*
X142771904Y-99026476D01*
X142819523Y-98931238D01*
X142914761Y-98836000D01*
X143057619Y-98788380D01*
X143152857Y-98788380D01*
X143295714Y-98836000D01*
X143343333Y-98883619D01*
X144200476Y-99121714D02*
X144200476Y-99788380D01*
X143962380Y-98740761D02*
X143724285Y-99455047D01*
X144343333Y-99455047D01*
X107614880Y-95519333D02*
X108329166Y-95519333D01*
X108472023Y-95566952D01*
X108567261Y-95662190D01*
X108614880Y-95805047D01*
X108614880Y-95900285D01*
X108614880Y-94519333D02*
X108614880Y-95090761D01*
X108614880Y-94805047D02*
X107614880Y-94805047D01*
X107757738Y-94900285D01*
X107852976Y-94995523D01*
X107900595Y-95090761D01*
X168912666Y-88770380D02*
X168912666Y-89484666D01*
X168865047Y-89627523D01*
X168769809Y-89722761D01*
X168626952Y-89770380D01*
X168531714Y-89770380D01*
X169341238Y-88865619D02*
X169388857Y-88818000D01*
X169484095Y-88770380D01*
X169722190Y-88770380D01*
X169817428Y-88818000D01*
X169865047Y-88865619D01*
X169912666Y-88960857D01*
X169912666Y-89056095D01*
X169865047Y-89198952D01*
X169293619Y-89770380D01*
X169912666Y-89770380D01*
X142681580Y-107826133D02*
X143395866Y-107826133D01*
X143538723Y-107873752D01*
X143633961Y-107968990D01*
X143681580Y-108111847D01*
X143681580Y-108207085D01*
X142681580Y-107445180D02*
X142681580Y-106826133D01*
X143062533Y-107159466D01*
X143062533Y-107016609D01*
X143110152Y-106921371D01*
X143157771Y-106873752D01*
X143253009Y-106826133D01*
X143491104Y-106826133D01*
X143586342Y-106873752D01*
X143633961Y-106921371D01*
X143681580Y-107016609D01*
X143681580Y-107302323D01*
X143633961Y-107397561D01*
X143586342Y-107445180D01*
X169052666Y-93310380D02*
X169052666Y-94024666D01*
X169005047Y-94167523D01*
X168909809Y-94262761D01*
X168766952Y-94310380D01*
X168671714Y-94310380D01*
X169957428Y-93643714D02*
X169957428Y-94310380D01*
X169719333Y-93262761D02*
X169481238Y-93977047D01*
X170100285Y-93977047D01*
X107362666Y-76946380D02*
X107362666Y-77660666D01*
X107315047Y-77803523D01*
X107219809Y-77898761D01*
X107076952Y-77946380D01*
X106981714Y-77946380D01*
X108315047Y-76946380D02*
X107838857Y-76946380D01*
X107791238Y-77422571D01*
X107838857Y-77374952D01*
X107934095Y-77327333D01*
X108172190Y-77327333D01*
X108267428Y-77374952D01*
X108315047Y-77422571D01*
X108362666Y-77517809D01*
X108362666Y-77755904D01*
X108315047Y-77851142D01*
X108267428Y-77898761D01*
X108172190Y-77946380D01*
X107934095Y-77946380D01*
X107838857Y-77898761D01*
X107791238Y-77851142D01*
X117014666Y-85094380D02*
X117014666Y-85808666D01*
X116967047Y-85951523D01*
X116871809Y-86046761D01*
X116728952Y-86094380D01*
X116633714Y-86094380D01*
X117919428Y-85094380D02*
X117728952Y-85094380D01*
X117633714Y-85142000D01*
X117586095Y-85189619D01*
X117490857Y-85332476D01*
X117443238Y-85522952D01*
X117443238Y-85903904D01*
X117490857Y-85999142D01*
X117538476Y-86046761D01*
X117633714Y-86094380D01*
X117824190Y-86094380D01*
X117919428Y-86046761D01*
X117967047Y-85999142D01*
X118014666Y-85903904D01*
X118014666Y-85665809D01*
X117967047Y-85570571D01*
X117919428Y-85522952D01*
X117824190Y-85475333D01*
X117633714Y-85475333D01*
X117538476Y-85522952D01*
X117490857Y-85570571D01*
X117443238Y-85665809D01*
X131583333Y-100598380D02*
X131250000Y-100122190D01*
X131011904Y-100598380D02*
X131011904Y-99598380D01*
X131392857Y-99598380D01*
X131488095Y-99646000D01*
X131535714Y-99693619D01*
X131583333Y-99788857D01*
X131583333Y-99931714D01*
X131535714Y-100026952D01*
X131488095Y-100074571D01*
X131392857Y-100122190D01*
X131011904Y-100122190D01*
X132440476Y-99598380D02*
X132250000Y-99598380D01*
X132154761Y-99646000D01*
X132107142Y-99693619D01*
X132011904Y-99836476D01*
X131964285Y-100026952D01*
X131964285Y-100407904D01*
X132011904Y-100503142D01*
X132059523Y-100550761D01*
X132154761Y-100598380D01*
X132345238Y-100598380D01*
X132440476Y-100550761D01*
X132488095Y-100503142D01*
X132535714Y-100407904D01*
X132535714Y-100169809D01*
X132488095Y-100074571D01*
X132440476Y-100026952D01*
X132345238Y-99979333D01*
X132154761Y-99979333D01*
X132059523Y-100026952D01*
X132011904Y-100074571D01*
X131964285Y-100169809D01*
X114554095Y-87916380D02*
X114554095Y-88725904D01*
X114601714Y-88821142D01*
X114649333Y-88868761D01*
X114744571Y-88916380D01*
X114935047Y-88916380D01*
X115030285Y-88868761D01*
X115077904Y-88821142D01*
X115125523Y-88725904D01*
X115125523Y-87916380D01*
X116125523Y-88916380D02*
X115554095Y-88916380D01*
X115839809Y-88916380D02*
X115839809Y-87916380D01*
X115744571Y-88059238D01*
X115649333Y-88154476D01*
X115554095Y-88202095D01*
X155752895Y-83678780D02*
X155752895Y-84488304D01*
X155800514Y-84583542D01*
X155848133Y-84631161D01*
X155943371Y-84678780D01*
X156133847Y-84678780D01*
X156229085Y-84631161D01*
X156276704Y-84583542D01*
X156324323Y-84488304D01*
X156324323Y-83678780D01*
X156752895Y-83774019D02*
X156800514Y-83726400D01*
X156895752Y-83678780D01*
X157133847Y-83678780D01*
X157229085Y-83726400D01*
X157276704Y-83774019D01*
X157324323Y-83869257D01*
X157324323Y-83964495D01*
X157276704Y-84107352D01*
X156705276Y-84678780D01*
X157324323Y-84678780D01*
X120668095Y-103078380D02*
X120668095Y-103887904D01*
X120715714Y-103983142D01*
X120763333Y-104030761D01*
X120858571Y-104078380D01*
X121049047Y-104078380D01*
X121144285Y-104030761D01*
X121191904Y-103983142D01*
X121239523Y-103887904D01*
X121239523Y-103078380D01*
X122144285Y-103411714D02*
X122144285Y-104078380D01*
X121906190Y-103030761D02*
X121668095Y-103745047D01*
X122287142Y-103745047D01*
X128981295Y-90739980D02*
X128981295Y-91549504D01*
X129028914Y-91644742D01*
X129076533Y-91692361D01*
X129171771Y-91739980D01*
X129362247Y-91739980D01*
X129457485Y-91692361D01*
X129505104Y-91644742D01*
X129552723Y-91549504D01*
X129552723Y-90739980D01*
X130505104Y-90739980D02*
X130028914Y-90739980D01*
X129981295Y-91216171D01*
X130028914Y-91168552D01*
X130124152Y-91120933D01*
X130362247Y-91120933D01*
X130457485Y-91168552D01*
X130505104Y-91216171D01*
X130552723Y-91311409D01*
X130552723Y-91549504D01*
X130505104Y-91644742D01*
X130457485Y-91692361D01*
X130362247Y-91739980D01*
X130124152Y-91739980D01*
X130028914Y-91692361D01*
X129981295Y-91644742D01*
X140003161Y-84950133D02*
X140050780Y-84807276D01*
X140050780Y-84569180D01*
X140003161Y-84473942D01*
X139955542Y-84426323D01*
X139860304Y-84378704D01*
X139765066Y-84378704D01*
X139669828Y-84426323D01*
X139622209Y-84473942D01*
X139574590Y-84569180D01*
X139526971Y-84759657D01*
X139479352Y-84854895D01*
X139431733Y-84902514D01*
X139336495Y-84950133D01*
X139241257Y-84950133D01*
X139146019Y-84902514D01*
X139098400Y-84854895D01*
X139050780Y-84759657D01*
X139050780Y-84521561D01*
X139098400Y-84378704D01*
X139050780Y-84045371D02*
X140050780Y-83807276D01*
X139336495Y-83616800D01*
X140050780Y-83426323D01*
X139050780Y-83188228D01*
X140050780Y-82283466D02*
X140050780Y-82854895D01*
X140050780Y-82569180D02*
X139050780Y-82569180D01*
X139193638Y-82664419D01*
X139288876Y-82759657D01*
X139336495Y-82854895D01*
M02*
