G04 #@! TF.GenerationSoftware,KiCad,Pcbnew,(5.1.5)-3*
G04 #@! TF.CreationDate,2020-12-22T19:25:10+13:00*
G04 #@! TF.ProjectId,SensorNodeCircuit,53656e73-6f72-44e6-9f64-654369726375,rev?*
G04 #@! TF.SameCoordinates,Original*
G04 #@! TF.FileFunction,Copper,L2,Bot*
G04 #@! TF.FilePolarity,Positive*
%FSLAX46Y46*%
G04 Gerber Fmt 4.6, Leading zero omitted, Abs format (unit mm)*
G04 Created by KiCad (PCBNEW (5.1.5)-3) date 2020-12-22 19:25:10*
%MOMM*%
%LPD*%
G04 APERTURE LIST*
%ADD10C,0.100000*%
%ADD11C,1.450000*%
%ADD12O,1.900000X1.200000*%
%ADD13R,1.700000X1.700000*%
%ADD14O,1.700000X1.700000*%
%ADD15C,1.600000*%
%ADD16O,1.050000X1.500000*%
%ADD17R,1.050000X1.500000*%
%ADD18R,1.500000X1.500000*%
%ADD19C,1.500000*%
%ADD20C,2.000000*%
%ADD21C,0.800000*%
%ADD22C,0.250000*%
%ADD23C,0.254000*%
G04 APERTURE END LIST*
G04 #@! TA.AperFunction,SMDPad,CuDef*
D10*
G36*
X139469504Y-93587204D02*
G01*
X139493773Y-93590804D01*
X139517571Y-93596765D01*
X139540671Y-93605030D01*
X139562849Y-93615520D01*
X139583893Y-93628133D01*
X139603598Y-93642747D01*
X139621777Y-93659223D01*
X139638253Y-93677402D01*
X139652867Y-93697107D01*
X139665480Y-93718151D01*
X139675970Y-93740329D01*
X139684235Y-93763429D01*
X139690196Y-93787227D01*
X139693796Y-93811496D01*
X139695000Y-93836000D01*
X139695000Y-94761000D01*
X139693796Y-94785504D01*
X139690196Y-94809773D01*
X139684235Y-94833571D01*
X139675970Y-94856671D01*
X139665480Y-94878849D01*
X139652867Y-94899893D01*
X139638253Y-94919598D01*
X139621777Y-94937777D01*
X139603598Y-94954253D01*
X139583893Y-94968867D01*
X139562849Y-94981480D01*
X139540671Y-94991970D01*
X139517571Y-95000235D01*
X139493773Y-95006196D01*
X139469504Y-95009796D01*
X139445000Y-95011000D01*
X138195000Y-95011000D01*
X138170496Y-95009796D01*
X138146227Y-95006196D01*
X138122429Y-95000235D01*
X138099329Y-94991970D01*
X138077151Y-94981480D01*
X138056107Y-94968867D01*
X138036402Y-94954253D01*
X138018223Y-94937777D01*
X138001747Y-94919598D01*
X137987133Y-94899893D01*
X137974520Y-94878849D01*
X137964030Y-94856671D01*
X137955765Y-94833571D01*
X137949804Y-94809773D01*
X137946204Y-94785504D01*
X137945000Y-94761000D01*
X137945000Y-93836000D01*
X137946204Y-93811496D01*
X137949804Y-93787227D01*
X137955765Y-93763429D01*
X137964030Y-93740329D01*
X137974520Y-93718151D01*
X137987133Y-93697107D01*
X138001747Y-93677402D01*
X138018223Y-93659223D01*
X138036402Y-93642747D01*
X138056107Y-93628133D01*
X138077151Y-93615520D01*
X138099329Y-93605030D01*
X138122429Y-93596765D01*
X138146227Y-93590804D01*
X138170496Y-93587204D01*
X138195000Y-93586000D01*
X139445000Y-93586000D01*
X139469504Y-93587204D01*
G37*
G04 #@! TD.AperFunction*
G04 #@! TA.AperFunction,SMDPad,CuDef*
G36*
X139469504Y-96562204D02*
G01*
X139493773Y-96565804D01*
X139517571Y-96571765D01*
X139540671Y-96580030D01*
X139562849Y-96590520D01*
X139583893Y-96603133D01*
X139603598Y-96617747D01*
X139621777Y-96634223D01*
X139638253Y-96652402D01*
X139652867Y-96672107D01*
X139665480Y-96693151D01*
X139675970Y-96715329D01*
X139684235Y-96738429D01*
X139690196Y-96762227D01*
X139693796Y-96786496D01*
X139695000Y-96811000D01*
X139695000Y-97736000D01*
X139693796Y-97760504D01*
X139690196Y-97784773D01*
X139684235Y-97808571D01*
X139675970Y-97831671D01*
X139665480Y-97853849D01*
X139652867Y-97874893D01*
X139638253Y-97894598D01*
X139621777Y-97912777D01*
X139603598Y-97929253D01*
X139583893Y-97943867D01*
X139562849Y-97956480D01*
X139540671Y-97966970D01*
X139517571Y-97975235D01*
X139493773Y-97981196D01*
X139469504Y-97984796D01*
X139445000Y-97986000D01*
X138195000Y-97986000D01*
X138170496Y-97984796D01*
X138146227Y-97981196D01*
X138122429Y-97975235D01*
X138099329Y-97966970D01*
X138077151Y-97956480D01*
X138056107Y-97943867D01*
X138036402Y-97929253D01*
X138018223Y-97912777D01*
X138001747Y-97894598D01*
X137987133Y-97874893D01*
X137974520Y-97853849D01*
X137964030Y-97831671D01*
X137955765Y-97808571D01*
X137949804Y-97784773D01*
X137946204Y-97760504D01*
X137945000Y-97736000D01*
X137945000Y-96811000D01*
X137946204Y-96786496D01*
X137949804Y-96762227D01*
X137955765Y-96738429D01*
X137964030Y-96715329D01*
X137974520Y-96693151D01*
X137987133Y-96672107D01*
X138001747Y-96652402D01*
X138018223Y-96634223D01*
X138036402Y-96617747D01*
X138056107Y-96603133D01*
X138077151Y-96590520D01*
X138099329Y-96580030D01*
X138122429Y-96571765D01*
X138146227Y-96565804D01*
X138170496Y-96562204D01*
X138195000Y-96561000D01*
X139445000Y-96561000D01*
X139469504Y-96562204D01*
G37*
G04 #@! TD.AperFunction*
D11*
X106512500Y-92686000D03*
X106512500Y-97686000D03*
D12*
X103812500Y-91686000D03*
X103812500Y-98686000D03*
D13*
X169246000Y-86988000D03*
D14*
X169246000Y-84448000D03*
X169246000Y-81908000D03*
X169246000Y-79368000D03*
D13*
X145999200Y-107492800D03*
D14*
X148539200Y-107492800D03*
X151079200Y-107492800D03*
X153619200Y-107492800D03*
X156159200Y-107492800D03*
X158699200Y-107492800D03*
X161239200Y-107492800D03*
X163779200Y-107492800D03*
D13*
X169386000Y-96188000D03*
D14*
X169386000Y-98728000D03*
X169386000Y-101268000D03*
D13*
X107696000Y-80264000D03*
D14*
X107696000Y-82804000D03*
X107696000Y-85344000D03*
D13*
X117348000Y-83312000D03*
D14*
X117348000Y-80772000D03*
G04 #@! TA.AperFunction,SMDPad,CuDef*
D10*
G36*
X152065504Y-87222204D02*
G01*
X152089773Y-87225804D01*
X152113571Y-87231765D01*
X152136671Y-87240030D01*
X152158849Y-87250520D01*
X152179893Y-87263133D01*
X152199598Y-87277747D01*
X152217777Y-87294223D01*
X152234253Y-87312402D01*
X152248867Y-87332107D01*
X152261480Y-87353151D01*
X152271970Y-87375329D01*
X152280235Y-87398429D01*
X152286196Y-87422227D01*
X152289796Y-87446496D01*
X152291000Y-87471000D01*
X152291000Y-88721000D01*
X152289796Y-88745504D01*
X152286196Y-88769773D01*
X152280235Y-88793571D01*
X152271970Y-88816671D01*
X152261480Y-88838849D01*
X152248867Y-88859893D01*
X152234253Y-88879598D01*
X152217777Y-88897777D01*
X152199598Y-88914253D01*
X152179893Y-88928867D01*
X152158849Y-88941480D01*
X152136671Y-88951970D01*
X152113571Y-88960235D01*
X152089773Y-88966196D01*
X152065504Y-88969796D01*
X152041000Y-88971000D01*
X151291000Y-88971000D01*
X151266496Y-88969796D01*
X151242227Y-88966196D01*
X151218429Y-88960235D01*
X151195329Y-88951970D01*
X151173151Y-88941480D01*
X151152107Y-88928867D01*
X151132402Y-88914253D01*
X151114223Y-88897777D01*
X151097747Y-88879598D01*
X151083133Y-88859893D01*
X151070520Y-88838849D01*
X151060030Y-88816671D01*
X151051765Y-88793571D01*
X151045804Y-88769773D01*
X151042204Y-88745504D01*
X151041000Y-88721000D01*
X151041000Y-87471000D01*
X151042204Y-87446496D01*
X151045804Y-87422227D01*
X151051765Y-87398429D01*
X151060030Y-87375329D01*
X151070520Y-87353151D01*
X151083133Y-87332107D01*
X151097747Y-87312402D01*
X151114223Y-87294223D01*
X151132402Y-87277747D01*
X151152107Y-87263133D01*
X151173151Y-87250520D01*
X151195329Y-87240030D01*
X151218429Y-87231765D01*
X151242227Y-87225804D01*
X151266496Y-87222204D01*
X151291000Y-87221000D01*
X152041000Y-87221000D01*
X152065504Y-87222204D01*
G37*
G04 #@! TD.AperFunction*
G04 #@! TA.AperFunction,SMDPad,CuDef*
G36*
X154865504Y-87222204D02*
G01*
X154889773Y-87225804D01*
X154913571Y-87231765D01*
X154936671Y-87240030D01*
X154958849Y-87250520D01*
X154979893Y-87263133D01*
X154999598Y-87277747D01*
X155017777Y-87294223D01*
X155034253Y-87312402D01*
X155048867Y-87332107D01*
X155061480Y-87353151D01*
X155071970Y-87375329D01*
X155080235Y-87398429D01*
X155086196Y-87422227D01*
X155089796Y-87446496D01*
X155091000Y-87471000D01*
X155091000Y-88721000D01*
X155089796Y-88745504D01*
X155086196Y-88769773D01*
X155080235Y-88793571D01*
X155071970Y-88816671D01*
X155061480Y-88838849D01*
X155048867Y-88859893D01*
X155034253Y-88879598D01*
X155017777Y-88897777D01*
X154999598Y-88914253D01*
X154979893Y-88928867D01*
X154958849Y-88941480D01*
X154936671Y-88951970D01*
X154913571Y-88960235D01*
X154889773Y-88966196D01*
X154865504Y-88969796D01*
X154841000Y-88971000D01*
X154091000Y-88971000D01*
X154066496Y-88969796D01*
X154042227Y-88966196D01*
X154018429Y-88960235D01*
X153995329Y-88951970D01*
X153973151Y-88941480D01*
X153952107Y-88928867D01*
X153932402Y-88914253D01*
X153914223Y-88897777D01*
X153897747Y-88879598D01*
X153883133Y-88859893D01*
X153870520Y-88838849D01*
X153860030Y-88816671D01*
X153851765Y-88793571D01*
X153845804Y-88769773D01*
X153842204Y-88745504D01*
X153841000Y-88721000D01*
X153841000Y-87471000D01*
X153842204Y-87446496D01*
X153845804Y-87422227D01*
X153851765Y-87398429D01*
X153860030Y-87375329D01*
X153870520Y-87353151D01*
X153883133Y-87332107D01*
X153897747Y-87312402D01*
X153914223Y-87294223D01*
X153932402Y-87277747D01*
X153952107Y-87263133D01*
X153973151Y-87250520D01*
X153995329Y-87240030D01*
X154018429Y-87231765D01*
X154042227Y-87225804D01*
X154066496Y-87222204D01*
X154091000Y-87221000D01*
X154841000Y-87221000D01*
X154865504Y-87222204D01*
G37*
G04 #@! TD.AperFunction*
G04 #@! TA.AperFunction,SMDPad,CuDef*
G36*
X152145504Y-89752204D02*
G01*
X152169773Y-89755804D01*
X152193571Y-89761765D01*
X152216671Y-89770030D01*
X152238849Y-89780520D01*
X152259893Y-89793133D01*
X152279598Y-89807747D01*
X152297777Y-89824223D01*
X152314253Y-89842402D01*
X152328867Y-89862107D01*
X152341480Y-89883151D01*
X152351970Y-89905329D01*
X152360235Y-89928429D01*
X152366196Y-89952227D01*
X152369796Y-89976496D01*
X152371000Y-90001000D01*
X152371000Y-91251000D01*
X152369796Y-91275504D01*
X152366196Y-91299773D01*
X152360235Y-91323571D01*
X152351970Y-91346671D01*
X152341480Y-91368849D01*
X152328867Y-91389893D01*
X152314253Y-91409598D01*
X152297777Y-91427777D01*
X152279598Y-91444253D01*
X152259893Y-91458867D01*
X152238849Y-91471480D01*
X152216671Y-91481970D01*
X152193571Y-91490235D01*
X152169773Y-91496196D01*
X152145504Y-91499796D01*
X152121000Y-91501000D01*
X151371000Y-91501000D01*
X151346496Y-91499796D01*
X151322227Y-91496196D01*
X151298429Y-91490235D01*
X151275329Y-91481970D01*
X151253151Y-91471480D01*
X151232107Y-91458867D01*
X151212402Y-91444253D01*
X151194223Y-91427777D01*
X151177747Y-91409598D01*
X151163133Y-91389893D01*
X151150520Y-91368849D01*
X151140030Y-91346671D01*
X151131765Y-91323571D01*
X151125804Y-91299773D01*
X151122204Y-91275504D01*
X151121000Y-91251000D01*
X151121000Y-90001000D01*
X151122204Y-89976496D01*
X151125804Y-89952227D01*
X151131765Y-89928429D01*
X151140030Y-89905329D01*
X151150520Y-89883151D01*
X151163133Y-89862107D01*
X151177747Y-89842402D01*
X151194223Y-89824223D01*
X151212402Y-89807747D01*
X151232107Y-89793133D01*
X151253151Y-89780520D01*
X151275329Y-89770030D01*
X151298429Y-89761765D01*
X151322227Y-89755804D01*
X151346496Y-89752204D01*
X151371000Y-89751000D01*
X152121000Y-89751000D01*
X152145504Y-89752204D01*
G37*
G04 #@! TD.AperFunction*
G04 #@! TA.AperFunction,SMDPad,CuDef*
G36*
X154945504Y-89752204D02*
G01*
X154969773Y-89755804D01*
X154993571Y-89761765D01*
X155016671Y-89770030D01*
X155038849Y-89780520D01*
X155059893Y-89793133D01*
X155079598Y-89807747D01*
X155097777Y-89824223D01*
X155114253Y-89842402D01*
X155128867Y-89862107D01*
X155141480Y-89883151D01*
X155151970Y-89905329D01*
X155160235Y-89928429D01*
X155166196Y-89952227D01*
X155169796Y-89976496D01*
X155171000Y-90001000D01*
X155171000Y-91251000D01*
X155169796Y-91275504D01*
X155166196Y-91299773D01*
X155160235Y-91323571D01*
X155151970Y-91346671D01*
X155141480Y-91368849D01*
X155128867Y-91389893D01*
X155114253Y-91409598D01*
X155097777Y-91427777D01*
X155079598Y-91444253D01*
X155059893Y-91458867D01*
X155038849Y-91471480D01*
X155016671Y-91481970D01*
X154993571Y-91490235D01*
X154969773Y-91496196D01*
X154945504Y-91499796D01*
X154921000Y-91501000D01*
X154171000Y-91501000D01*
X154146496Y-91499796D01*
X154122227Y-91496196D01*
X154098429Y-91490235D01*
X154075329Y-91481970D01*
X154053151Y-91471480D01*
X154032107Y-91458867D01*
X154012402Y-91444253D01*
X153994223Y-91427777D01*
X153977747Y-91409598D01*
X153963133Y-91389893D01*
X153950520Y-91368849D01*
X153940030Y-91346671D01*
X153931765Y-91323571D01*
X153925804Y-91299773D01*
X153922204Y-91275504D01*
X153921000Y-91251000D01*
X153921000Y-90001000D01*
X153922204Y-89976496D01*
X153925804Y-89952227D01*
X153931765Y-89928429D01*
X153940030Y-89905329D01*
X153950520Y-89883151D01*
X153963133Y-89862107D01*
X153977747Y-89842402D01*
X153994223Y-89824223D01*
X154012402Y-89807747D01*
X154032107Y-89793133D01*
X154053151Y-89780520D01*
X154075329Y-89770030D01*
X154098429Y-89761765D01*
X154122227Y-89755804D01*
X154146496Y-89752204D01*
X154171000Y-89751000D01*
X154921000Y-89751000D01*
X154945504Y-89752204D01*
G37*
G04 #@! TD.AperFunction*
G04 #@! TA.AperFunction,SMDPad,CuDef*
G36*
X152098004Y-92382204D02*
G01*
X152122273Y-92385804D01*
X152146071Y-92391765D01*
X152169171Y-92400030D01*
X152191349Y-92410520D01*
X152212393Y-92423133D01*
X152232098Y-92437747D01*
X152250277Y-92454223D01*
X152266753Y-92472402D01*
X152281367Y-92492107D01*
X152293980Y-92513151D01*
X152304470Y-92535329D01*
X152312735Y-92558429D01*
X152318696Y-92582227D01*
X152322296Y-92606496D01*
X152323500Y-92631000D01*
X152323500Y-93881000D01*
X152322296Y-93905504D01*
X152318696Y-93929773D01*
X152312735Y-93953571D01*
X152304470Y-93976671D01*
X152293980Y-93998849D01*
X152281367Y-94019893D01*
X152266753Y-94039598D01*
X152250277Y-94057777D01*
X152232098Y-94074253D01*
X152212393Y-94088867D01*
X152191349Y-94101480D01*
X152169171Y-94111970D01*
X152146071Y-94120235D01*
X152122273Y-94126196D01*
X152098004Y-94129796D01*
X152073500Y-94131000D01*
X151148500Y-94131000D01*
X151123996Y-94129796D01*
X151099727Y-94126196D01*
X151075929Y-94120235D01*
X151052829Y-94111970D01*
X151030651Y-94101480D01*
X151009607Y-94088867D01*
X150989902Y-94074253D01*
X150971723Y-94057777D01*
X150955247Y-94039598D01*
X150940633Y-94019893D01*
X150928020Y-93998849D01*
X150917530Y-93976671D01*
X150909265Y-93953571D01*
X150903304Y-93929773D01*
X150899704Y-93905504D01*
X150898500Y-93881000D01*
X150898500Y-92631000D01*
X150899704Y-92606496D01*
X150903304Y-92582227D01*
X150909265Y-92558429D01*
X150917530Y-92535329D01*
X150928020Y-92513151D01*
X150940633Y-92492107D01*
X150955247Y-92472402D01*
X150971723Y-92454223D01*
X150989902Y-92437747D01*
X151009607Y-92423133D01*
X151030651Y-92410520D01*
X151052829Y-92400030D01*
X151075929Y-92391765D01*
X151099727Y-92385804D01*
X151123996Y-92382204D01*
X151148500Y-92381000D01*
X152073500Y-92381000D01*
X152098004Y-92382204D01*
G37*
G04 #@! TD.AperFunction*
G04 #@! TA.AperFunction,SMDPad,CuDef*
G36*
X155073004Y-92382204D02*
G01*
X155097273Y-92385804D01*
X155121071Y-92391765D01*
X155144171Y-92400030D01*
X155166349Y-92410520D01*
X155187393Y-92423133D01*
X155207098Y-92437747D01*
X155225277Y-92454223D01*
X155241753Y-92472402D01*
X155256367Y-92492107D01*
X155268980Y-92513151D01*
X155279470Y-92535329D01*
X155287735Y-92558429D01*
X155293696Y-92582227D01*
X155297296Y-92606496D01*
X155298500Y-92631000D01*
X155298500Y-93881000D01*
X155297296Y-93905504D01*
X155293696Y-93929773D01*
X155287735Y-93953571D01*
X155279470Y-93976671D01*
X155268980Y-93998849D01*
X155256367Y-94019893D01*
X155241753Y-94039598D01*
X155225277Y-94057777D01*
X155207098Y-94074253D01*
X155187393Y-94088867D01*
X155166349Y-94101480D01*
X155144171Y-94111970D01*
X155121071Y-94120235D01*
X155097273Y-94126196D01*
X155073004Y-94129796D01*
X155048500Y-94131000D01*
X154123500Y-94131000D01*
X154098996Y-94129796D01*
X154074727Y-94126196D01*
X154050929Y-94120235D01*
X154027829Y-94111970D01*
X154005651Y-94101480D01*
X153984607Y-94088867D01*
X153964902Y-94074253D01*
X153946723Y-94057777D01*
X153930247Y-94039598D01*
X153915633Y-94019893D01*
X153903020Y-93998849D01*
X153892530Y-93976671D01*
X153884265Y-93953571D01*
X153878304Y-93929773D01*
X153874704Y-93905504D01*
X153873500Y-93881000D01*
X153873500Y-92631000D01*
X153874704Y-92606496D01*
X153878304Y-92582227D01*
X153884265Y-92558429D01*
X153892530Y-92535329D01*
X153903020Y-92513151D01*
X153915633Y-92492107D01*
X153930247Y-92472402D01*
X153946723Y-92454223D01*
X153964902Y-92437747D01*
X153984607Y-92423133D01*
X154005651Y-92410520D01*
X154027829Y-92400030D01*
X154050929Y-92391765D01*
X154074727Y-92385804D01*
X154098996Y-92382204D01*
X154123500Y-92381000D01*
X155048500Y-92381000D01*
X155073004Y-92382204D01*
G37*
G04 #@! TD.AperFunction*
G04 #@! TA.AperFunction,SMDPad,CuDef*
G36*
X158688004Y-98132204D02*
G01*
X158712273Y-98135804D01*
X158736071Y-98141765D01*
X158759171Y-98150030D01*
X158781349Y-98160520D01*
X158802393Y-98173133D01*
X158822098Y-98187747D01*
X158840277Y-98204223D01*
X158856753Y-98222402D01*
X158871367Y-98242107D01*
X158883980Y-98263151D01*
X158894470Y-98285329D01*
X158902735Y-98308429D01*
X158908696Y-98332227D01*
X158912296Y-98356496D01*
X158913500Y-98381000D01*
X158913500Y-99631000D01*
X158912296Y-99655504D01*
X158908696Y-99679773D01*
X158902735Y-99703571D01*
X158894470Y-99726671D01*
X158883980Y-99748849D01*
X158871367Y-99769893D01*
X158856753Y-99789598D01*
X158840277Y-99807777D01*
X158822098Y-99824253D01*
X158802393Y-99838867D01*
X158781349Y-99851480D01*
X158759171Y-99861970D01*
X158736071Y-99870235D01*
X158712273Y-99876196D01*
X158688004Y-99879796D01*
X158663500Y-99881000D01*
X157738500Y-99881000D01*
X157713996Y-99879796D01*
X157689727Y-99876196D01*
X157665929Y-99870235D01*
X157642829Y-99861970D01*
X157620651Y-99851480D01*
X157599607Y-99838867D01*
X157579902Y-99824253D01*
X157561723Y-99807777D01*
X157545247Y-99789598D01*
X157530633Y-99769893D01*
X157518020Y-99748849D01*
X157507530Y-99726671D01*
X157499265Y-99703571D01*
X157493304Y-99679773D01*
X157489704Y-99655504D01*
X157488500Y-99631000D01*
X157488500Y-98381000D01*
X157489704Y-98356496D01*
X157493304Y-98332227D01*
X157499265Y-98308429D01*
X157507530Y-98285329D01*
X157518020Y-98263151D01*
X157530633Y-98242107D01*
X157545247Y-98222402D01*
X157561723Y-98204223D01*
X157579902Y-98187747D01*
X157599607Y-98173133D01*
X157620651Y-98160520D01*
X157642829Y-98150030D01*
X157665929Y-98141765D01*
X157689727Y-98135804D01*
X157713996Y-98132204D01*
X157738500Y-98131000D01*
X158663500Y-98131000D01*
X158688004Y-98132204D01*
G37*
G04 #@! TD.AperFunction*
G04 #@! TA.AperFunction,SMDPad,CuDef*
G36*
X161663004Y-98132204D02*
G01*
X161687273Y-98135804D01*
X161711071Y-98141765D01*
X161734171Y-98150030D01*
X161756349Y-98160520D01*
X161777393Y-98173133D01*
X161797098Y-98187747D01*
X161815277Y-98204223D01*
X161831753Y-98222402D01*
X161846367Y-98242107D01*
X161858980Y-98263151D01*
X161869470Y-98285329D01*
X161877735Y-98308429D01*
X161883696Y-98332227D01*
X161887296Y-98356496D01*
X161888500Y-98381000D01*
X161888500Y-99631000D01*
X161887296Y-99655504D01*
X161883696Y-99679773D01*
X161877735Y-99703571D01*
X161869470Y-99726671D01*
X161858980Y-99748849D01*
X161846367Y-99769893D01*
X161831753Y-99789598D01*
X161815277Y-99807777D01*
X161797098Y-99824253D01*
X161777393Y-99838867D01*
X161756349Y-99851480D01*
X161734171Y-99861970D01*
X161711071Y-99870235D01*
X161687273Y-99876196D01*
X161663004Y-99879796D01*
X161638500Y-99881000D01*
X160713500Y-99881000D01*
X160688996Y-99879796D01*
X160664727Y-99876196D01*
X160640929Y-99870235D01*
X160617829Y-99861970D01*
X160595651Y-99851480D01*
X160574607Y-99838867D01*
X160554902Y-99824253D01*
X160536723Y-99807777D01*
X160520247Y-99789598D01*
X160505633Y-99769893D01*
X160493020Y-99748849D01*
X160482530Y-99726671D01*
X160474265Y-99703571D01*
X160468304Y-99679773D01*
X160464704Y-99655504D01*
X160463500Y-99631000D01*
X160463500Y-98381000D01*
X160464704Y-98356496D01*
X160468304Y-98332227D01*
X160474265Y-98308429D01*
X160482530Y-98285329D01*
X160493020Y-98263151D01*
X160505633Y-98242107D01*
X160520247Y-98222402D01*
X160536723Y-98204223D01*
X160554902Y-98187747D01*
X160574607Y-98173133D01*
X160595651Y-98160520D01*
X160617829Y-98150030D01*
X160640929Y-98141765D01*
X160664727Y-98135804D01*
X160688996Y-98132204D01*
X160713500Y-98131000D01*
X161638500Y-98131000D01*
X161663004Y-98132204D01*
G37*
G04 #@! TD.AperFunction*
G04 #@! TA.AperFunction,SMDPad,CuDef*
G36*
X158688004Y-95762204D02*
G01*
X158712273Y-95765804D01*
X158736071Y-95771765D01*
X158759171Y-95780030D01*
X158781349Y-95790520D01*
X158802393Y-95803133D01*
X158822098Y-95817747D01*
X158840277Y-95834223D01*
X158856753Y-95852402D01*
X158871367Y-95872107D01*
X158883980Y-95893151D01*
X158894470Y-95915329D01*
X158902735Y-95938429D01*
X158908696Y-95962227D01*
X158912296Y-95986496D01*
X158913500Y-96011000D01*
X158913500Y-97261000D01*
X158912296Y-97285504D01*
X158908696Y-97309773D01*
X158902735Y-97333571D01*
X158894470Y-97356671D01*
X158883980Y-97378849D01*
X158871367Y-97399893D01*
X158856753Y-97419598D01*
X158840277Y-97437777D01*
X158822098Y-97454253D01*
X158802393Y-97468867D01*
X158781349Y-97481480D01*
X158759171Y-97491970D01*
X158736071Y-97500235D01*
X158712273Y-97506196D01*
X158688004Y-97509796D01*
X158663500Y-97511000D01*
X157738500Y-97511000D01*
X157713996Y-97509796D01*
X157689727Y-97506196D01*
X157665929Y-97500235D01*
X157642829Y-97491970D01*
X157620651Y-97481480D01*
X157599607Y-97468867D01*
X157579902Y-97454253D01*
X157561723Y-97437777D01*
X157545247Y-97419598D01*
X157530633Y-97399893D01*
X157518020Y-97378849D01*
X157507530Y-97356671D01*
X157499265Y-97333571D01*
X157493304Y-97309773D01*
X157489704Y-97285504D01*
X157488500Y-97261000D01*
X157488500Y-96011000D01*
X157489704Y-95986496D01*
X157493304Y-95962227D01*
X157499265Y-95938429D01*
X157507530Y-95915329D01*
X157518020Y-95893151D01*
X157530633Y-95872107D01*
X157545247Y-95852402D01*
X157561723Y-95834223D01*
X157579902Y-95817747D01*
X157599607Y-95803133D01*
X157620651Y-95790520D01*
X157642829Y-95780030D01*
X157665929Y-95771765D01*
X157689727Y-95765804D01*
X157713996Y-95762204D01*
X157738500Y-95761000D01*
X158663500Y-95761000D01*
X158688004Y-95762204D01*
G37*
G04 #@! TD.AperFunction*
G04 #@! TA.AperFunction,SMDPad,CuDef*
G36*
X161663004Y-95762204D02*
G01*
X161687273Y-95765804D01*
X161711071Y-95771765D01*
X161734171Y-95780030D01*
X161756349Y-95790520D01*
X161777393Y-95803133D01*
X161797098Y-95817747D01*
X161815277Y-95834223D01*
X161831753Y-95852402D01*
X161846367Y-95872107D01*
X161858980Y-95893151D01*
X161869470Y-95915329D01*
X161877735Y-95938429D01*
X161883696Y-95962227D01*
X161887296Y-95986496D01*
X161888500Y-96011000D01*
X161888500Y-97261000D01*
X161887296Y-97285504D01*
X161883696Y-97309773D01*
X161877735Y-97333571D01*
X161869470Y-97356671D01*
X161858980Y-97378849D01*
X161846367Y-97399893D01*
X161831753Y-97419598D01*
X161815277Y-97437777D01*
X161797098Y-97454253D01*
X161777393Y-97468867D01*
X161756349Y-97481480D01*
X161734171Y-97491970D01*
X161711071Y-97500235D01*
X161687273Y-97506196D01*
X161663004Y-97509796D01*
X161638500Y-97511000D01*
X160713500Y-97511000D01*
X160688996Y-97509796D01*
X160664727Y-97506196D01*
X160640929Y-97500235D01*
X160617829Y-97491970D01*
X160595651Y-97481480D01*
X160574607Y-97468867D01*
X160554902Y-97454253D01*
X160536723Y-97437777D01*
X160520247Y-97419598D01*
X160505633Y-97399893D01*
X160493020Y-97378849D01*
X160482530Y-97356671D01*
X160474265Y-97333571D01*
X160468304Y-97309773D01*
X160464704Y-97285504D01*
X160463500Y-97261000D01*
X160463500Y-96011000D01*
X160464704Y-95986496D01*
X160468304Y-95962227D01*
X160474265Y-95938429D01*
X160482530Y-95915329D01*
X160493020Y-95893151D01*
X160505633Y-95872107D01*
X160520247Y-95852402D01*
X160536723Y-95834223D01*
X160554902Y-95817747D01*
X160574607Y-95803133D01*
X160595651Y-95790520D01*
X160617829Y-95780030D01*
X160640929Y-95771765D01*
X160664727Y-95765804D01*
X160688996Y-95762204D01*
X160713500Y-95761000D01*
X161638500Y-95761000D01*
X161663004Y-95762204D01*
G37*
G04 #@! TD.AperFunction*
D15*
X127950000Y-105346000D03*
X135550000Y-105346000D03*
G04 #@! TA.AperFunction,SMDPad,CuDef*
D10*
G36*
X132429504Y-105862204D02*
G01*
X132453773Y-105865804D01*
X132477571Y-105871765D01*
X132500671Y-105880030D01*
X132522849Y-105890520D01*
X132543893Y-105903133D01*
X132563598Y-105917747D01*
X132581777Y-105934223D01*
X132598253Y-105952402D01*
X132612867Y-105972107D01*
X132625480Y-105993151D01*
X132635970Y-106015329D01*
X132644235Y-106038429D01*
X132650196Y-106062227D01*
X132653796Y-106086496D01*
X132655000Y-106111000D01*
X132655000Y-106861000D01*
X132653796Y-106885504D01*
X132650196Y-106909773D01*
X132644235Y-106933571D01*
X132635970Y-106956671D01*
X132625480Y-106978849D01*
X132612867Y-106999893D01*
X132598253Y-107019598D01*
X132581777Y-107037777D01*
X132563598Y-107054253D01*
X132543893Y-107068867D01*
X132522849Y-107081480D01*
X132500671Y-107091970D01*
X132477571Y-107100235D01*
X132453773Y-107106196D01*
X132429504Y-107109796D01*
X132405000Y-107111000D01*
X131155000Y-107111000D01*
X131130496Y-107109796D01*
X131106227Y-107106196D01*
X131082429Y-107100235D01*
X131059329Y-107091970D01*
X131037151Y-107081480D01*
X131016107Y-107068867D01*
X130996402Y-107054253D01*
X130978223Y-107037777D01*
X130961747Y-107019598D01*
X130947133Y-106999893D01*
X130934520Y-106978849D01*
X130924030Y-106956671D01*
X130915765Y-106933571D01*
X130909804Y-106909773D01*
X130906204Y-106885504D01*
X130905000Y-106861000D01*
X130905000Y-106111000D01*
X130906204Y-106086496D01*
X130909804Y-106062227D01*
X130915765Y-106038429D01*
X130924030Y-106015329D01*
X130934520Y-105993151D01*
X130947133Y-105972107D01*
X130961747Y-105952402D01*
X130978223Y-105934223D01*
X130996402Y-105917747D01*
X131016107Y-105903133D01*
X131037151Y-105890520D01*
X131059329Y-105880030D01*
X131082429Y-105871765D01*
X131106227Y-105865804D01*
X131130496Y-105862204D01*
X131155000Y-105861000D01*
X132405000Y-105861000D01*
X132429504Y-105862204D01*
G37*
G04 #@! TD.AperFunction*
G04 #@! TA.AperFunction,SMDPad,CuDef*
G36*
X132429504Y-103062204D02*
G01*
X132453773Y-103065804D01*
X132477571Y-103071765D01*
X132500671Y-103080030D01*
X132522849Y-103090520D01*
X132543893Y-103103133D01*
X132563598Y-103117747D01*
X132581777Y-103134223D01*
X132598253Y-103152402D01*
X132612867Y-103172107D01*
X132625480Y-103193151D01*
X132635970Y-103215329D01*
X132644235Y-103238429D01*
X132650196Y-103262227D01*
X132653796Y-103286496D01*
X132655000Y-103311000D01*
X132655000Y-104061000D01*
X132653796Y-104085504D01*
X132650196Y-104109773D01*
X132644235Y-104133571D01*
X132635970Y-104156671D01*
X132625480Y-104178849D01*
X132612867Y-104199893D01*
X132598253Y-104219598D01*
X132581777Y-104237777D01*
X132563598Y-104254253D01*
X132543893Y-104268867D01*
X132522849Y-104281480D01*
X132500671Y-104291970D01*
X132477571Y-104300235D01*
X132453773Y-104306196D01*
X132429504Y-104309796D01*
X132405000Y-104311000D01*
X131155000Y-104311000D01*
X131130496Y-104309796D01*
X131106227Y-104306196D01*
X131082429Y-104300235D01*
X131059329Y-104291970D01*
X131037151Y-104281480D01*
X131016107Y-104268867D01*
X130996402Y-104254253D01*
X130978223Y-104237777D01*
X130961747Y-104219598D01*
X130947133Y-104199893D01*
X130934520Y-104178849D01*
X130924030Y-104156671D01*
X130915765Y-104133571D01*
X130909804Y-104109773D01*
X130906204Y-104085504D01*
X130905000Y-104061000D01*
X130905000Y-103311000D01*
X130906204Y-103286496D01*
X130909804Y-103262227D01*
X130915765Y-103238429D01*
X130924030Y-103215329D01*
X130934520Y-103193151D01*
X130947133Y-103172107D01*
X130961747Y-103152402D01*
X130978223Y-103134223D01*
X130996402Y-103117747D01*
X131016107Y-103103133D01*
X131037151Y-103090520D01*
X131059329Y-103080030D01*
X131082429Y-103071765D01*
X131106227Y-103065804D01*
X131130496Y-103062204D01*
X131155000Y-103061000D01*
X132405000Y-103061000D01*
X132429504Y-103062204D01*
G37*
G04 #@! TD.AperFunction*
G04 #@! TA.AperFunction,SMDPad,CuDef*
G36*
X171715504Y-91704204D02*
G01*
X171739773Y-91707804D01*
X171763571Y-91713765D01*
X171786671Y-91722030D01*
X171808849Y-91732520D01*
X171829893Y-91745133D01*
X171849598Y-91759747D01*
X171867777Y-91776223D01*
X171884253Y-91794402D01*
X171898867Y-91814107D01*
X171911480Y-91835151D01*
X171921970Y-91857329D01*
X171930235Y-91880429D01*
X171936196Y-91904227D01*
X171939796Y-91928496D01*
X171941000Y-91953000D01*
X171941000Y-93203000D01*
X171939796Y-93227504D01*
X171936196Y-93251773D01*
X171930235Y-93275571D01*
X171921970Y-93298671D01*
X171911480Y-93320849D01*
X171898867Y-93341893D01*
X171884253Y-93361598D01*
X171867777Y-93379777D01*
X171849598Y-93396253D01*
X171829893Y-93410867D01*
X171808849Y-93423480D01*
X171786671Y-93433970D01*
X171763571Y-93442235D01*
X171739773Y-93448196D01*
X171715504Y-93451796D01*
X171691000Y-93453000D01*
X170941000Y-93453000D01*
X170916496Y-93451796D01*
X170892227Y-93448196D01*
X170868429Y-93442235D01*
X170845329Y-93433970D01*
X170823151Y-93423480D01*
X170802107Y-93410867D01*
X170782402Y-93396253D01*
X170764223Y-93379777D01*
X170747747Y-93361598D01*
X170733133Y-93341893D01*
X170720520Y-93320849D01*
X170710030Y-93298671D01*
X170701765Y-93275571D01*
X170695804Y-93251773D01*
X170692204Y-93227504D01*
X170691000Y-93203000D01*
X170691000Y-91953000D01*
X170692204Y-91928496D01*
X170695804Y-91904227D01*
X170701765Y-91880429D01*
X170710030Y-91857329D01*
X170720520Y-91835151D01*
X170733133Y-91814107D01*
X170747747Y-91794402D01*
X170764223Y-91776223D01*
X170782402Y-91759747D01*
X170802107Y-91745133D01*
X170823151Y-91732520D01*
X170845329Y-91722030D01*
X170868429Y-91713765D01*
X170892227Y-91707804D01*
X170916496Y-91704204D01*
X170941000Y-91703000D01*
X171691000Y-91703000D01*
X171715504Y-91704204D01*
G37*
G04 #@! TD.AperFunction*
G04 #@! TA.AperFunction,SMDPad,CuDef*
G36*
X168915504Y-91704204D02*
G01*
X168939773Y-91707804D01*
X168963571Y-91713765D01*
X168986671Y-91722030D01*
X169008849Y-91732520D01*
X169029893Y-91745133D01*
X169049598Y-91759747D01*
X169067777Y-91776223D01*
X169084253Y-91794402D01*
X169098867Y-91814107D01*
X169111480Y-91835151D01*
X169121970Y-91857329D01*
X169130235Y-91880429D01*
X169136196Y-91904227D01*
X169139796Y-91928496D01*
X169141000Y-91953000D01*
X169141000Y-93203000D01*
X169139796Y-93227504D01*
X169136196Y-93251773D01*
X169130235Y-93275571D01*
X169121970Y-93298671D01*
X169111480Y-93320849D01*
X169098867Y-93341893D01*
X169084253Y-93361598D01*
X169067777Y-93379777D01*
X169049598Y-93396253D01*
X169029893Y-93410867D01*
X169008849Y-93423480D01*
X168986671Y-93433970D01*
X168963571Y-93442235D01*
X168939773Y-93448196D01*
X168915504Y-93451796D01*
X168891000Y-93453000D01*
X168141000Y-93453000D01*
X168116496Y-93451796D01*
X168092227Y-93448196D01*
X168068429Y-93442235D01*
X168045329Y-93433970D01*
X168023151Y-93423480D01*
X168002107Y-93410867D01*
X167982402Y-93396253D01*
X167964223Y-93379777D01*
X167947747Y-93361598D01*
X167933133Y-93341893D01*
X167920520Y-93320849D01*
X167910030Y-93298671D01*
X167901765Y-93275571D01*
X167895804Y-93251773D01*
X167892204Y-93227504D01*
X167891000Y-93203000D01*
X167891000Y-91953000D01*
X167892204Y-91928496D01*
X167895804Y-91904227D01*
X167901765Y-91880429D01*
X167910030Y-91857329D01*
X167920520Y-91835151D01*
X167933133Y-91814107D01*
X167947747Y-91794402D01*
X167964223Y-91776223D01*
X167982402Y-91759747D01*
X168002107Y-91745133D01*
X168023151Y-91732520D01*
X168045329Y-91722030D01*
X168068429Y-91713765D01*
X168092227Y-91707804D01*
X168116496Y-91704204D01*
X168141000Y-91703000D01*
X168891000Y-91703000D01*
X168915504Y-91704204D01*
G37*
G04 #@! TD.AperFunction*
G04 #@! TA.AperFunction,SMDPad,CuDef*
G36*
X136339703Y-98296722D02*
G01*
X136354264Y-98298882D01*
X136368543Y-98302459D01*
X136382403Y-98307418D01*
X136395710Y-98313712D01*
X136408336Y-98321280D01*
X136420159Y-98330048D01*
X136431066Y-98339934D01*
X136440952Y-98350841D01*
X136449720Y-98362664D01*
X136457288Y-98375290D01*
X136463582Y-98388597D01*
X136468541Y-98402457D01*
X136472118Y-98416736D01*
X136474278Y-98431297D01*
X136475000Y-98446000D01*
X136475000Y-99746000D01*
X136474278Y-99760703D01*
X136472118Y-99775264D01*
X136468541Y-99789543D01*
X136463582Y-99803403D01*
X136457288Y-99816710D01*
X136449720Y-99829336D01*
X136440952Y-99841159D01*
X136431066Y-99852066D01*
X136420159Y-99861952D01*
X136408336Y-99870720D01*
X136395710Y-99878288D01*
X136382403Y-99884582D01*
X136368543Y-99889541D01*
X136354264Y-99893118D01*
X136339703Y-99895278D01*
X136325000Y-99896000D01*
X136025000Y-99896000D01*
X136010297Y-99895278D01*
X135995736Y-99893118D01*
X135981457Y-99889541D01*
X135967597Y-99884582D01*
X135954290Y-99878288D01*
X135941664Y-99870720D01*
X135929841Y-99861952D01*
X135918934Y-99852066D01*
X135909048Y-99841159D01*
X135900280Y-99829336D01*
X135892712Y-99816710D01*
X135886418Y-99803403D01*
X135881459Y-99789543D01*
X135877882Y-99775264D01*
X135875722Y-99760703D01*
X135875000Y-99746000D01*
X135875000Y-98446000D01*
X135875722Y-98431297D01*
X135877882Y-98416736D01*
X135881459Y-98402457D01*
X135886418Y-98388597D01*
X135892712Y-98375290D01*
X135900280Y-98362664D01*
X135909048Y-98350841D01*
X135918934Y-98339934D01*
X135929841Y-98330048D01*
X135941664Y-98321280D01*
X135954290Y-98313712D01*
X135967597Y-98307418D01*
X135981457Y-98302459D01*
X135995736Y-98298882D01*
X136010297Y-98296722D01*
X136025000Y-98296000D01*
X136325000Y-98296000D01*
X136339703Y-98296722D01*
G37*
G04 #@! TD.AperFunction*
G04 #@! TA.AperFunction,SMDPad,CuDef*
G36*
X135069703Y-98296722D02*
G01*
X135084264Y-98298882D01*
X135098543Y-98302459D01*
X135112403Y-98307418D01*
X135125710Y-98313712D01*
X135138336Y-98321280D01*
X135150159Y-98330048D01*
X135161066Y-98339934D01*
X135170952Y-98350841D01*
X135179720Y-98362664D01*
X135187288Y-98375290D01*
X135193582Y-98388597D01*
X135198541Y-98402457D01*
X135202118Y-98416736D01*
X135204278Y-98431297D01*
X135205000Y-98446000D01*
X135205000Y-99746000D01*
X135204278Y-99760703D01*
X135202118Y-99775264D01*
X135198541Y-99789543D01*
X135193582Y-99803403D01*
X135187288Y-99816710D01*
X135179720Y-99829336D01*
X135170952Y-99841159D01*
X135161066Y-99852066D01*
X135150159Y-99861952D01*
X135138336Y-99870720D01*
X135125710Y-99878288D01*
X135112403Y-99884582D01*
X135098543Y-99889541D01*
X135084264Y-99893118D01*
X135069703Y-99895278D01*
X135055000Y-99896000D01*
X134755000Y-99896000D01*
X134740297Y-99895278D01*
X134725736Y-99893118D01*
X134711457Y-99889541D01*
X134697597Y-99884582D01*
X134684290Y-99878288D01*
X134671664Y-99870720D01*
X134659841Y-99861952D01*
X134648934Y-99852066D01*
X134639048Y-99841159D01*
X134630280Y-99829336D01*
X134622712Y-99816710D01*
X134616418Y-99803403D01*
X134611459Y-99789543D01*
X134607882Y-99775264D01*
X134605722Y-99760703D01*
X134605000Y-99746000D01*
X134605000Y-98446000D01*
X134605722Y-98431297D01*
X134607882Y-98416736D01*
X134611459Y-98402457D01*
X134616418Y-98388597D01*
X134622712Y-98375290D01*
X134630280Y-98362664D01*
X134639048Y-98350841D01*
X134648934Y-98339934D01*
X134659841Y-98330048D01*
X134671664Y-98321280D01*
X134684290Y-98313712D01*
X134697597Y-98307418D01*
X134711457Y-98302459D01*
X134725736Y-98298882D01*
X134740297Y-98296722D01*
X134755000Y-98296000D01*
X135055000Y-98296000D01*
X135069703Y-98296722D01*
G37*
G04 #@! TD.AperFunction*
G04 #@! TA.AperFunction,SMDPad,CuDef*
G36*
X133799703Y-98296722D02*
G01*
X133814264Y-98298882D01*
X133828543Y-98302459D01*
X133842403Y-98307418D01*
X133855710Y-98313712D01*
X133868336Y-98321280D01*
X133880159Y-98330048D01*
X133891066Y-98339934D01*
X133900952Y-98350841D01*
X133909720Y-98362664D01*
X133917288Y-98375290D01*
X133923582Y-98388597D01*
X133928541Y-98402457D01*
X133932118Y-98416736D01*
X133934278Y-98431297D01*
X133935000Y-98446000D01*
X133935000Y-99746000D01*
X133934278Y-99760703D01*
X133932118Y-99775264D01*
X133928541Y-99789543D01*
X133923582Y-99803403D01*
X133917288Y-99816710D01*
X133909720Y-99829336D01*
X133900952Y-99841159D01*
X133891066Y-99852066D01*
X133880159Y-99861952D01*
X133868336Y-99870720D01*
X133855710Y-99878288D01*
X133842403Y-99884582D01*
X133828543Y-99889541D01*
X133814264Y-99893118D01*
X133799703Y-99895278D01*
X133785000Y-99896000D01*
X133485000Y-99896000D01*
X133470297Y-99895278D01*
X133455736Y-99893118D01*
X133441457Y-99889541D01*
X133427597Y-99884582D01*
X133414290Y-99878288D01*
X133401664Y-99870720D01*
X133389841Y-99861952D01*
X133378934Y-99852066D01*
X133369048Y-99841159D01*
X133360280Y-99829336D01*
X133352712Y-99816710D01*
X133346418Y-99803403D01*
X133341459Y-99789543D01*
X133337882Y-99775264D01*
X133335722Y-99760703D01*
X133335000Y-99746000D01*
X133335000Y-98446000D01*
X133335722Y-98431297D01*
X133337882Y-98416736D01*
X133341459Y-98402457D01*
X133346418Y-98388597D01*
X133352712Y-98375290D01*
X133360280Y-98362664D01*
X133369048Y-98350841D01*
X133378934Y-98339934D01*
X133389841Y-98330048D01*
X133401664Y-98321280D01*
X133414290Y-98313712D01*
X133427597Y-98307418D01*
X133441457Y-98302459D01*
X133455736Y-98298882D01*
X133470297Y-98296722D01*
X133485000Y-98296000D01*
X133785000Y-98296000D01*
X133799703Y-98296722D01*
G37*
G04 #@! TD.AperFunction*
G04 #@! TA.AperFunction,SMDPad,CuDef*
G36*
X132529703Y-98296722D02*
G01*
X132544264Y-98298882D01*
X132558543Y-98302459D01*
X132572403Y-98307418D01*
X132585710Y-98313712D01*
X132598336Y-98321280D01*
X132610159Y-98330048D01*
X132621066Y-98339934D01*
X132630952Y-98350841D01*
X132639720Y-98362664D01*
X132647288Y-98375290D01*
X132653582Y-98388597D01*
X132658541Y-98402457D01*
X132662118Y-98416736D01*
X132664278Y-98431297D01*
X132665000Y-98446000D01*
X132665000Y-99746000D01*
X132664278Y-99760703D01*
X132662118Y-99775264D01*
X132658541Y-99789543D01*
X132653582Y-99803403D01*
X132647288Y-99816710D01*
X132639720Y-99829336D01*
X132630952Y-99841159D01*
X132621066Y-99852066D01*
X132610159Y-99861952D01*
X132598336Y-99870720D01*
X132585710Y-99878288D01*
X132572403Y-99884582D01*
X132558543Y-99889541D01*
X132544264Y-99893118D01*
X132529703Y-99895278D01*
X132515000Y-99896000D01*
X132215000Y-99896000D01*
X132200297Y-99895278D01*
X132185736Y-99893118D01*
X132171457Y-99889541D01*
X132157597Y-99884582D01*
X132144290Y-99878288D01*
X132131664Y-99870720D01*
X132119841Y-99861952D01*
X132108934Y-99852066D01*
X132099048Y-99841159D01*
X132090280Y-99829336D01*
X132082712Y-99816710D01*
X132076418Y-99803403D01*
X132071459Y-99789543D01*
X132067882Y-99775264D01*
X132065722Y-99760703D01*
X132065000Y-99746000D01*
X132065000Y-98446000D01*
X132065722Y-98431297D01*
X132067882Y-98416736D01*
X132071459Y-98402457D01*
X132076418Y-98388597D01*
X132082712Y-98375290D01*
X132090280Y-98362664D01*
X132099048Y-98350841D01*
X132108934Y-98339934D01*
X132119841Y-98330048D01*
X132131664Y-98321280D01*
X132144290Y-98313712D01*
X132157597Y-98307418D01*
X132171457Y-98302459D01*
X132185736Y-98298882D01*
X132200297Y-98296722D01*
X132215000Y-98296000D01*
X132515000Y-98296000D01*
X132529703Y-98296722D01*
G37*
G04 #@! TD.AperFunction*
G04 #@! TA.AperFunction,SMDPad,CuDef*
G36*
X131259703Y-98296722D02*
G01*
X131274264Y-98298882D01*
X131288543Y-98302459D01*
X131302403Y-98307418D01*
X131315710Y-98313712D01*
X131328336Y-98321280D01*
X131340159Y-98330048D01*
X131351066Y-98339934D01*
X131360952Y-98350841D01*
X131369720Y-98362664D01*
X131377288Y-98375290D01*
X131383582Y-98388597D01*
X131388541Y-98402457D01*
X131392118Y-98416736D01*
X131394278Y-98431297D01*
X131395000Y-98446000D01*
X131395000Y-99746000D01*
X131394278Y-99760703D01*
X131392118Y-99775264D01*
X131388541Y-99789543D01*
X131383582Y-99803403D01*
X131377288Y-99816710D01*
X131369720Y-99829336D01*
X131360952Y-99841159D01*
X131351066Y-99852066D01*
X131340159Y-99861952D01*
X131328336Y-99870720D01*
X131315710Y-99878288D01*
X131302403Y-99884582D01*
X131288543Y-99889541D01*
X131274264Y-99893118D01*
X131259703Y-99895278D01*
X131245000Y-99896000D01*
X130945000Y-99896000D01*
X130930297Y-99895278D01*
X130915736Y-99893118D01*
X130901457Y-99889541D01*
X130887597Y-99884582D01*
X130874290Y-99878288D01*
X130861664Y-99870720D01*
X130849841Y-99861952D01*
X130838934Y-99852066D01*
X130829048Y-99841159D01*
X130820280Y-99829336D01*
X130812712Y-99816710D01*
X130806418Y-99803403D01*
X130801459Y-99789543D01*
X130797882Y-99775264D01*
X130795722Y-99760703D01*
X130795000Y-99746000D01*
X130795000Y-98446000D01*
X130795722Y-98431297D01*
X130797882Y-98416736D01*
X130801459Y-98402457D01*
X130806418Y-98388597D01*
X130812712Y-98375290D01*
X130820280Y-98362664D01*
X130829048Y-98350841D01*
X130838934Y-98339934D01*
X130849841Y-98330048D01*
X130861664Y-98321280D01*
X130874290Y-98313712D01*
X130887597Y-98307418D01*
X130901457Y-98302459D01*
X130915736Y-98298882D01*
X130930297Y-98296722D01*
X130945000Y-98296000D01*
X131245000Y-98296000D01*
X131259703Y-98296722D01*
G37*
G04 #@! TD.AperFunction*
G04 #@! TA.AperFunction,SMDPad,CuDef*
G36*
X129989703Y-98296722D02*
G01*
X130004264Y-98298882D01*
X130018543Y-98302459D01*
X130032403Y-98307418D01*
X130045710Y-98313712D01*
X130058336Y-98321280D01*
X130070159Y-98330048D01*
X130081066Y-98339934D01*
X130090952Y-98350841D01*
X130099720Y-98362664D01*
X130107288Y-98375290D01*
X130113582Y-98388597D01*
X130118541Y-98402457D01*
X130122118Y-98416736D01*
X130124278Y-98431297D01*
X130125000Y-98446000D01*
X130125000Y-99746000D01*
X130124278Y-99760703D01*
X130122118Y-99775264D01*
X130118541Y-99789543D01*
X130113582Y-99803403D01*
X130107288Y-99816710D01*
X130099720Y-99829336D01*
X130090952Y-99841159D01*
X130081066Y-99852066D01*
X130070159Y-99861952D01*
X130058336Y-99870720D01*
X130045710Y-99878288D01*
X130032403Y-99884582D01*
X130018543Y-99889541D01*
X130004264Y-99893118D01*
X129989703Y-99895278D01*
X129975000Y-99896000D01*
X129675000Y-99896000D01*
X129660297Y-99895278D01*
X129645736Y-99893118D01*
X129631457Y-99889541D01*
X129617597Y-99884582D01*
X129604290Y-99878288D01*
X129591664Y-99870720D01*
X129579841Y-99861952D01*
X129568934Y-99852066D01*
X129559048Y-99841159D01*
X129550280Y-99829336D01*
X129542712Y-99816710D01*
X129536418Y-99803403D01*
X129531459Y-99789543D01*
X129527882Y-99775264D01*
X129525722Y-99760703D01*
X129525000Y-99746000D01*
X129525000Y-98446000D01*
X129525722Y-98431297D01*
X129527882Y-98416736D01*
X129531459Y-98402457D01*
X129536418Y-98388597D01*
X129542712Y-98375290D01*
X129550280Y-98362664D01*
X129559048Y-98350841D01*
X129568934Y-98339934D01*
X129579841Y-98330048D01*
X129591664Y-98321280D01*
X129604290Y-98313712D01*
X129617597Y-98307418D01*
X129631457Y-98302459D01*
X129645736Y-98298882D01*
X129660297Y-98296722D01*
X129675000Y-98296000D01*
X129975000Y-98296000D01*
X129989703Y-98296722D01*
G37*
G04 #@! TD.AperFunction*
G04 #@! TA.AperFunction,SMDPad,CuDef*
G36*
X128719703Y-98296722D02*
G01*
X128734264Y-98298882D01*
X128748543Y-98302459D01*
X128762403Y-98307418D01*
X128775710Y-98313712D01*
X128788336Y-98321280D01*
X128800159Y-98330048D01*
X128811066Y-98339934D01*
X128820952Y-98350841D01*
X128829720Y-98362664D01*
X128837288Y-98375290D01*
X128843582Y-98388597D01*
X128848541Y-98402457D01*
X128852118Y-98416736D01*
X128854278Y-98431297D01*
X128855000Y-98446000D01*
X128855000Y-99746000D01*
X128854278Y-99760703D01*
X128852118Y-99775264D01*
X128848541Y-99789543D01*
X128843582Y-99803403D01*
X128837288Y-99816710D01*
X128829720Y-99829336D01*
X128820952Y-99841159D01*
X128811066Y-99852066D01*
X128800159Y-99861952D01*
X128788336Y-99870720D01*
X128775710Y-99878288D01*
X128762403Y-99884582D01*
X128748543Y-99889541D01*
X128734264Y-99893118D01*
X128719703Y-99895278D01*
X128705000Y-99896000D01*
X128405000Y-99896000D01*
X128390297Y-99895278D01*
X128375736Y-99893118D01*
X128361457Y-99889541D01*
X128347597Y-99884582D01*
X128334290Y-99878288D01*
X128321664Y-99870720D01*
X128309841Y-99861952D01*
X128298934Y-99852066D01*
X128289048Y-99841159D01*
X128280280Y-99829336D01*
X128272712Y-99816710D01*
X128266418Y-99803403D01*
X128261459Y-99789543D01*
X128257882Y-99775264D01*
X128255722Y-99760703D01*
X128255000Y-99746000D01*
X128255000Y-98446000D01*
X128255722Y-98431297D01*
X128257882Y-98416736D01*
X128261459Y-98402457D01*
X128266418Y-98388597D01*
X128272712Y-98375290D01*
X128280280Y-98362664D01*
X128289048Y-98350841D01*
X128298934Y-98339934D01*
X128309841Y-98330048D01*
X128321664Y-98321280D01*
X128334290Y-98313712D01*
X128347597Y-98307418D01*
X128361457Y-98302459D01*
X128375736Y-98298882D01*
X128390297Y-98296722D01*
X128405000Y-98296000D01*
X128705000Y-98296000D01*
X128719703Y-98296722D01*
G37*
G04 #@! TD.AperFunction*
G04 #@! TA.AperFunction,SMDPad,CuDef*
G36*
X127449703Y-98296722D02*
G01*
X127464264Y-98298882D01*
X127478543Y-98302459D01*
X127492403Y-98307418D01*
X127505710Y-98313712D01*
X127518336Y-98321280D01*
X127530159Y-98330048D01*
X127541066Y-98339934D01*
X127550952Y-98350841D01*
X127559720Y-98362664D01*
X127567288Y-98375290D01*
X127573582Y-98388597D01*
X127578541Y-98402457D01*
X127582118Y-98416736D01*
X127584278Y-98431297D01*
X127585000Y-98446000D01*
X127585000Y-99746000D01*
X127584278Y-99760703D01*
X127582118Y-99775264D01*
X127578541Y-99789543D01*
X127573582Y-99803403D01*
X127567288Y-99816710D01*
X127559720Y-99829336D01*
X127550952Y-99841159D01*
X127541066Y-99852066D01*
X127530159Y-99861952D01*
X127518336Y-99870720D01*
X127505710Y-99878288D01*
X127492403Y-99884582D01*
X127478543Y-99889541D01*
X127464264Y-99893118D01*
X127449703Y-99895278D01*
X127435000Y-99896000D01*
X127135000Y-99896000D01*
X127120297Y-99895278D01*
X127105736Y-99893118D01*
X127091457Y-99889541D01*
X127077597Y-99884582D01*
X127064290Y-99878288D01*
X127051664Y-99870720D01*
X127039841Y-99861952D01*
X127028934Y-99852066D01*
X127019048Y-99841159D01*
X127010280Y-99829336D01*
X127002712Y-99816710D01*
X126996418Y-99803403D01*
X126991459Y-99789543D01*
X126987882Y-99775264D01*
X126985722Y-99760703D01*
X126985000Y-99746000D01*
X126985000Y-98446000D01*
X126985722Y-98431297D01*
X126987882Y-98416736D01*
X126991459Y-98402457D01*
X126996418Y-98388597D01*
X127002712Y-98375290D01*
X127010280Y-98362664D01*
X127019048Y-98350841D01*
X127028934Y-98339934D01*
X127039841Y-98330048D01*
X127051664Y-98321280D01*
X127064290Y-98313712D01*
X127077597Y-98307418D01*
X127091457Y-98302459D01*
X127105736Y-98298882D01*
X127120297Y-98296722D01*
X127135000Y-98296000D01*
X127435000Y-98296000D01*
X127449703Y-98296722D01*
G37*
G04 #@! TD.AperFunction*
G04 #@! TA.AperFunction,SMDPad,CuDef*
G36*
X127449703Y-91796722D02*
G01*
X127464264Y-91798882D01*
X127478543Y-91802459D01*
X127492403Y-91807418D01*
X127505710Y-91813712D01*
X127518336Y-91821280D01*
X127530159Y-91830048D01*
X127541066Y-91839934D01*
X127550952Y-91850841D01*
X127559720Y-91862664D01*
X127567288Y-91875290D01*
X127573582Y-91888597D01*
X127578541Y-91902457D01*
X127582118Y-91916736D01*
X127584278Y-91931297D01*
X127585000Y-91946000D01*
X127585000Y-93246000D01*
X127584278Y-93260703D01*
X127582118Y-93275264D01*
X127578541Y-93289543D01*
X127573582Y-93303403D01*
X127567288Y-93316710D01*
X127559720Y-93329336D01*
X127550952Y-93341159D01*
X127541066Y-93352066D01*
X127530159Y-93361952D01*
X127518336Y-93370720D01*
X127505710Y-93378288D01*
X127492403Y-93384582D01*
X127478543Y-93389541D01*
X127464264Y-93393118D01*
X127449703Y-93395278D01*
X127435000Y-93396000D01*
X127135000Y-93396000D01*
X127120297Y-93395278D01*
X127105736Y-93393118D01*
X127091457Y-93389541D01*
X127077597Y-93384582D01*
X127064290Y-93378288D01*
X127051664Y-93370720D01*
X127039841Y-93361952D01*
X127028934Y-93352066D01*
X127019048Y-93341159D01*
X127010280Y-93329336D01*
X127002712Y-93316710D01*
X126996418Y-93303403D01*
X126991459Y-93289543D01*
X126987882Y-93275264D01*
X126985722Y-93260703D01*
X126985000Y-93246000D01*
X126985000Y-91946000D01*
X126985722Y-91931297D01*
X126987882Y-91916736D01*
X126991459Y-91902457D01*
X126996418Y-91888597D01*
X127002712Y-91875290D01*
X127010280Y-91862664D01*
X127019048Y-91850841D01*
X127028934Y-91839934D01*
X127039841Y-91830048D01*
X127051664Y-91821280D01*
X127064290Y-91813712D01*
X127077597Y-91807418D01*
X127091457Y-91802459D01*
X127105736Y-91798882D01*
X127120297Y-91796722D01*
X127135000Y-91796000D01*
X127435000Y-91796000D01*
X127449703Y-91796722D01*
G37*
G04 #@! TD.AperFunction*
G04 #@! TA.AperFunction,SMDPad,CuDef*
G36*
X128719703Y-91796722D02*
G01*
X128734264Y-91798882D01*
X128748543Y-91802459D01*
X128762403Y-91807418D01*
X128775710Y-91813712D01*
X128788336Y-91821280D01*
X128800159Y-91830048D01*
X128811066Y-91839934D01*
X128820952Y-91850841D01*
X128829720Y-91862664D01*
X128837288Y-91875290D01*
X128843582Y-91888597D01*
X128848541Y-91902457D01*
X128852118Y-91916736D01*
X128854278Y-91931297D01*
X128855000Y-91946000D01*
X128855000Y-93246000D01*
X128854278Y-93260703D01*
X128852118Y-93275264D01*
X128848541Y-93289543D01*
X128843582Y-93303403D01*
X128837288Y-93316710D01*
X128829720Y-93329336D01*
X128820952Y-93341159D01*
X128811066Y-93352066D01*
X128800159Y-93361952D01*
X128788336Y-93370720D01*
X128775710Y-93378288D01*
X128762403Y-93384582D01*
X128748543Y-93389541D01*
X128734264Y-93393118D01*
X128719703Y-93395278D01*
X128705000Y-93396000D01*
X128405000Y-93396000D01*
X128390297Y-93395278D01*
X128375736Y-93393118D01*
X128361457Y-93389541D01*
X128347597Y-93384582D01*
X128334290Y-93378288D01*
X128321664Y-93370720D01*
X128309841Y-93361952D01*
X128298934Y-93352066D01*
X128289048Y-93341159D01*
X128280280Y-93329336D01*
X128272712Y-93316710D01*
X128266418Y-93303403D01*
X128261459Y-93289543D01*
X128257882Y-93275264D01*
X128255722Y-93260703D01*
X128255000Y-93246000D01*
X128255000Y-91946000D01*
X128255722Y-91931297D01*
X128257882Y-91916736D01*
X128261459Y-91902457D01*
X128266418Y-91888597D01*
X128272712Y-91875290D01*
X128280280Y-91862664D01*
X128289048Y-91850841D01*
X128298934Y-91839934D01*
X128309841Y-91830048D01*
X128321664Y-91821280D01*
X128334290Y-91813712D01*
X128347597Y-91807418D01*
X128361457Y-91802459D01*
X128375736Y-91798882D01*
X128390297Y-91796722D01*
X128405000Y-91796000D01*
X128705000Y-91796000D01*
X128719703Y-91796722D01*
G37*
G04 #@! TD.AperFunction*
G04 #@! TA.AperFunction,SMDPad,CuDef*
G36*
X129989703Y-91796722D02*
G01*
X130004264Y-91798882D01*
X130018543Y-91802459D01*
X130032403Y-91807418D01*
X130045710Y-91813712D01*
X130058336Y-91821280D01*
X130070159Y-91830048D01*
X130081066Y-91839934D01*
X130090952Y-91850841D01*
X130099720Y-91862664D01*
X130107288Y-91875290D01*
X130113582Y-91888597D01*
X130118541Y-91902457D01*
X130122118Y-91916736D01*
X130124278Y-91931297D01*
X130125000Y-91946000D01*
X130125000Y-93246000D01*
X130124278Y-93260703D01*
X130122118Y-93275264D01*
X130118541Y-93289543D01*
X130113582Y-93303403D01*
X130107288Y-93316710D01*
X130099720Y-93329336D01*
X130090952Y-93341159D01*
X130081066Y-93352066D01*
X130070159Y-93361952D01*
X130058336Y-93370720D01*
X130045710Y-93378288D01*
X130032403Y-93384582D01*
X130018543Y-93389541D01*
X130004264Y-93393118D01*
X129989703Y-93395278D01*
X129975000Y-93396000D01*
X129675000Y-93396000D01*
X129660297Y-93395278D01*
X129645736Y-93393118D01*
X129631457Y-93389541D01*
X129617597Y-93384582D01*
X129604290Y-93378288D01*
X129591664Y-93370720D01*
X129579841Y-93361952D01*
X129568934Y-93352066D01*
X129559048Y-93341159D01*
X129550280Y-93329336D01*
X129542712Y-93316710D01*
X129536418Y-93303403D01*
X129531459Y-93289543D01*
X129527882Y-93275264D01*
X129525722Y-93260703D01*
X129525000Y-93246000D01*
X129525000Y-91946000D01*
X129525722Y-91931297D01*
X129527882Y-91916736D01*
X129531459Y-91902457D01*
X129536418Y-91888597D01*
X129542712Y-91875290D01*
X129550280Y-91862664D01*
X129559048Y-91850841D01*
X129568934Y-91839934D01*
X129579841Y-91830048D01*
X129591664Y-91821280D01*
X129604290Y-91813712D01*
X129617597Y-91807418D01*
X129631457Y-91802459D01*
X129645736Y-91798882D01*
X129660297Y-91796722D01*
X129675000Y-91796000D01*
X129975000Y-91796000D01*
X129989703Y-91796722D01*
G37*
G04 #@! TD.AperFunction*
G04 #@! TA.AperFunction,SMDPad,CuDef*
G36*
X131259703Y-91796722D02*
G01*
X131274264Y-91798882D01*
X131288543Y-91802459D01*
X131302403Y-91807418D01*
X131315710Y-91813712D01*
X131328336Y-91821280D01*
X131340159Y-91830048D01*
X131351066Y-91839934D01*
X131360952Y-91850841D01*
X131369720Y-91862664D01*
X131377288Y-91875290D01*
X131383582Y-91888597D01*
X131388541Y-91902457D01*
X131392118Y-91916736D01*
X131394278Y-91931297D01*
X131395000Y-91946000D01*
X131395000Y-93246000D01*
X131394278Y-93260703D01*
X131392118Y-93275264D01*
X131388541Y-93289543D01*
X131383582Y-93303403D01*
X131377288Y-93316710D01*
X131369720Y-93329336D01*
X131360952Y-93341159D01*
X131351066Y-93352066D01*
X131340159Y-93361952D01*
X131328336Y-93370720D01*
X131315710Y-93378288D01*
X131302403Y-93384582D01*
X131288543Y-93389541D01*
X131274264Y-93393118D01*
X131259703Y-93395278D01*
X131245000Y-93396000D01*
X130945000Y-93396000D01*
X130930297Y-93395278D01*
X130915736Y-93393118D01*
X130901457Y-93389541D01*
X130887597Y-93384582D01*
X130874290Y-93378288D01*
X130861664Y-93370720D01*
X130849841Y-93361952D01*
X130838934Y-93352066D01*
X130829048Y-93341159D01*
X130820280Y-93329336D01*
X130812712Y-93316710D01*
X130806418Y-93303403D01*
X130801459Y-93289543D01*
X130797882Y-93275264D01*
X130795722Y-93260703D01*
X130795000Y-93246000D01*
X130795000Y-91946000D01*
X130795722Y-91931297D01*
X130797882Y-91916736D01*
X130801459Y-91902457D01*
X130806418Y-91888597D01*
X130812712Y-91875290D01*
X130820280Y-91862664D01*
X130829048Y-91850841D01*
X130838934Y-91839934D01*
X130849841Y-91830048D01*
X130861664Y-91821280D01*
X130874290Y-91813712D01*
X130887597Y-91807418D01*
X130901457Y-91802459D01*
X130915736Y-91798882D01*
X130930297Y-91796722D01*
X130945000Y-91796000D01*
X131245000Y-91796000D01*
X131259703Y-91796722D01*
G37*
G04 #@! TD.AperFunction*
G04 #@! TA.AperFunction,SMDPad,CuDef*
G36*
X132529703Y-91796722D02*
G01*
X132544264Y-91798882D01*
X132558543Y-91802459D01*
X132572403Y-91807418D01*
X132585710Y-91813712D01*
X132598336Y-91821280D01*
X132610159Y-91830048D01*
X132621066Y-91839934D01*
X132630952Y-91850841D01*
X132639720Y-91862664D01*
X132647288Y-91875290D01*
X132653582Y-91888597D01*
X132658541Y-91902457D01*
X132662118Y-91916736D01*
X132664278Y-91931297D01*
X132665000Y-91946000D01*
X132665000Y-93246000D01*
X132664278Y-93260703D01*
X132662118Y-93275264D01*
X132658541Y-93289543D01*
X132653582Y-93303403D01*
X132647288Y-93316710D01*
X132639720Y-93329336D01*
X132630952Y-93341159D01*
X132621066Y-93352066D01*
X132610159Y-93361952D01*
X132598336Y-93370720D01*
X132585710Y-93378288D01*
X132572403Y-93384582D01*
X132558543Y-93389541D01*
X132544264Y-93393118D01*
X132529703Y-93395278D01*
X132515000Y-93396000D01*
X132215000Y-93396000D01*
X132200297Y-93395278D01*
X132185736Y-93393118D01*
X132171457Y-93389541D01*
X132157597Y-93384582D01*
X132144290Y-93378288D01*
X132131664Y-93370720D01*
X132119841Y-93361952D01*
X132108934Y-93352066D01*
X132099048Y-93341159D01*
X132090280Y-93329336D01*
X132082712Y-93316710D01*
X132076418Y-93303403D01*
X132071459Y-93289543D01*
X132067882Y-93275264D01*
X132065722Y-93260703D01*
X132065000Y-93246000D01*
X132065000Y-91946000D01*
X132065722Y-91931297D01*
X132067882Y-91916736D01*
X132071459Y-91902457D01*
X132076418Y-91888597D01*
X132082712Y-91875290D01*
X132090280Y-91862664D01*
X132099048Y-91850841D01*
X132108934Y-91839934D01*
X132119841Y-91830048D01*
X132131664Y-91821280D01*
X132144290Y-91813712D01*
X132157597Y-91807418D01*
X132171457Y-91802459D01*
X132185736Y-91798882D01*
X132200297Y-91796722D01*
X132215000Y-91796000D01*
X132515000Y-91796000D01*
X132529703Y-91796722D01*
G37*
G04 #@! TD.AperFunction*
G04 #@! TA.AperFunction,SMDPad,CuDef*
G36*
X133799703Y-91796722D02*
G01*
X133814264Y-91798882D01*
X133828543Y-91802459D01*
X133842403Y-91807418D01*
X133855710Y-91813712D01*
X133868336Y-91821280D01*
X133880159Y-91830048D01*
X133891066Y-91839934D01*
X133900952Y-91850841D01*
X133909720Y-91862664D01*
X133917288Y-91875290D01*
X133923582Y-91888597D01*
X133928541Y-91902457D01*
X133932118Y-91916736D01*
X133934278Y-91931297D01*
X133935000Y-91946000D01*
X133935000Y-93246000D01*
X133934278Y-93260703D01*
X133932118Y-93275264D01*
X133928541Y-93289543D01*
X133923582Y-93303403D01*
X133917288Y-93316710D01*
X133909720Y-93329336D01*
X133900952Y-93341159D01*
X133891066Y-93352066D01*
X133880159Y-93361952D01*
X133868336Y-93370720D01*
X133855710Y-93378288D01*
X133842403Y-93384582D01*
X133828543Y-93389541D01*
X133814264Y-93393118D01*
X133799703Y-93395278D01*
X133785000Y-93396000D01*
X133485000Y-93396000D01*
X133470297Y-93395278D01*
X133455736Y-93393118D01*
X133441457Y-93389541D01*
X133427597Y-93384582D01*
X133414290Y-93378288D01*
X133401664Y-93370720D01*
X133389841Y-93361952D01*
X133378934Y-93352066D01*
X133369048Y-93341159D01*
X133360280Y-93329336D01*
X133352712Y-93316710D01*
X133346418Y-93303403D01*
X133341459Y-93289543D01*
X133337882Y-93275264D01*
X133335722Y-93260703D01*
X133335000Y-93246000D01*
X133335000Y-91946000D01*
X133335722Y-91931297D01*
X133337882Y-91916736D01*
X133341459Y-91902457D01*
X133346418Y-91888597D01*
X133352712Y-91875290D01*
X133360280Y-91862664D01*
X133369048Y-91850841D01*
X133378934Y-91839934D01*
X133389841Y-91830048D01*
X133401664Y-91821280D01*
X133414290Y-91813712D01*
X133427597Y-91807418D01*
X133441457Y-91802459D01*
X133455736Y-91798882D01*
X133470297Y-91796722D01*
X133485000Y-91796000D01*
X133785000Y-91796000D01*
X133799703Y-91796722D01*
G37*
G04 #@! TD.AperFunction*
G04 #@! TA.AperFunction,SMDPad,CuDef*
G36*
X135069703Y-91796722D02*
G01*
X135084264Y-91798882D01*
X135098543Y-91802459D01*
X135112403Y-91807418D01*
X135125710Y-91813712D01*
X135138336Y-91821280D01*
X135150159Y-91830048D01*
X135161066Y-91839934D01*
X135170952Y-91850841D01*
X135179720Y-91862664D01*
X135187288Y-91875290D01*
X135193582Y-91888597D01*
X135198541Y-91902457D01*
X135202118Y-91916736D01*
X135204278Y-91931297D01*
X135205000Y-91946000D01*
X135205000Y-93246000D01*
X135204278Y-93260703D01*
X135202118Y-93275264D01*
X135198541Y-93289543D01*
X135193582Y-93303403D01*
X135187288Y-93316710D01*
X135179720Y-93329336D01*
X135170952Y-93341159D01*
X135161066Y-93352066D01*
X135150159Y-93361952D01*
X135138336Y-93370720D01*
X135125710Y-93378288D01*
X135112403Y-93384582D01*
X135098543Y-93389541D01*
X135084264Y-93393118D01*
X135069703Y-93395278D01*
X135055000Y-93396000D01*
X134755000Y-93396000D01*
X134740297Y-93395278D01*
X134725736Y-93393118D01*
X134711457Y-93389541D01*
X134697597Y-93384582D01*
X134684290Y-93378288D01*
X134671664Y-93370720D01*
X134659841Y-93361952D01*
X134648934Y-93352066D01*
X134639048Y-93341159D01*
X134630280Y-93329336D01*
X134622712Y-93316710D01*
X134616418Y-93303403D01*
X134611459Y-93289543D01*
X134607882Y-93275264D01*
X134605722Y-93260703D01*
X134605000Y-93246000D01*
X134605000Y-91946000D01*
X134605722Y-91931297D01*
X134607882Y-91916736D01*
X134611459Y-91902457D01*
X134616418Y-91888597D01*
X134622712Y-91875290D01*
X134630280Y-91862664D01*
X134639048Y-91850841D01*
X134648934Y-91839934D01*
X134659841Y-91830048D01*
X134671664Y-91821280D01*
X134684290Y-91813712D01*
X134697597Y-91807418D01*
X134711457Y-91802459D01*
X134725736Y-91798882D01*
X134740297Y-91796722D01*
X134755000Y-91796000D01*
X135055000Y-91796000D01*
X135069703Y-91796722D01*
G37*
G04 #@! TD.AperFunction*
G04 #@! TA.AperFunction,SMDPad,CuDef*
G36*
X136339703Y-91796722D02*
G01*
X136354264Y-91798882D01*
X136368543Y-91802459D01*
X136382403Y-91807418D01*
X136395710Y-91813712D01*
X136408336Y-91821280D01*
X136420159Y-91830048D01*
X136431066Y-91839934D01*
X136440952Y-91850841D01*
X136449720Y-91862664D01*
X136457288Y-91875290D01*
X136463582Y-91888597D01*
X136468541Y-91902457D01*
X136472118Y-91916736D01*
X136474278Y-91931297D01*
X136475000Y-91946000D01*
X136475000Y-93246000D01*
X136474278Y-93260703D01*
X136472118Y-93275264D01*
X136468541Y-93289543D01*
X136463582Y-93303403D01*
X136457288Y-93316710D01*
X136449720Y-93329336D01*
X136440952Y-93341159D01*
X136431066Y-93352066D01*
X136420159Y-93361952D01*
X136408336Y-93370720D01*
X136395710Y-93378288D01*
X136382403Y-93384582D01*
X136368543Y-93389541D01*
X136354264Y-93393118D01*
X136339703Y-93395278D01*
X136325000Y-93396000D01*
X136025000Y-93396000D01*
X136010297Y-93395278D01*
X135995736Y-93393118D01*
X135981457Y-93389541D01*
X135967597Y-93384582D01*
X135954290Y-93378288D01*
X135941664Y-93370720D01*
X135929841Y-93361952D01*
X135918934Y-93352066D01*
X135909048Y-93341159D01*
X135900280Y-93329336D01*
X135892712Y-93316710D01*
X135886418Y-93303403D01*
X135881459Y-93289543D01*
X135877882Y-93275264D01*
X135875722Y-93260703D01*
X135875000Y-93246000D01*
X135875000Y-91946000D01*
X135875722Y-91931297D01*
X135877882Y-91916736D01*
X135881459Y-91902457D01*
X135886418Y-91888597D01*
X135892712Y-91875290D01*
X135900280Y-91862664D01*
X135909048Y-91850841D01*
X135918934Y-91839934D01*
X135929841Y-91830048D01*
X135941664Y-91821280D01*
X135954290Y-91813712D01*
X135967597Y-91807418D01*
X135981457Y-91802459D01*
X135995736Y-91798882D01*
X136010297Y-91796722D01*
X136025000Y-91796000D01*
X136325000Y-91796000D01*
X136339703Y-91796722D01*
G37*
G04 #@! TD.AperFunction*
D16*
X121430000Y-107186000D03*
X122700000Y-107186000D03*
D17*
X120160000Y-107186000D03*
D18*
X129600000Y-80386000D03*
D19*
X129600000Y-82926000D03*
X129600000Y-85466000D03*
X129600000Y-88006000D03*
D20*
X142010000Y-86946000D03*
X137510000Y-86946000D03*
X142010000Y-80446000D03*
X137510000Y-80446000D03*
G04 #@! TA.AperFunction,SMDPad,CuDef*
D10*
G36*
X127141504Y-79229704D02*
G01*
X127165773Y-79233304D01*
X127189571Y-79239265D01*
X127212671Y-79247530D01*
X127234849Y-79258020D01*
X127255893Y-79270633D01*
X127275598Y-79285247D01*
X127293777Y-79301723D01*
X127310253Y-79319902D01*
X127324867Y-79339607D01*
X127337480Y-79360651D01*
X127347970Y-79382829D01*
X127356235Y-79405929D01*
X127362196Y-79429727D01*
X127365796Y-79453996D01*
X127367000Y-79478500D01*
X127367000Y-80403500D01*
X127365796Y-80428004D01*
X127362196Y-80452273D01*
X127356235Y-80476071D01*
X127347970Y-80499171D01*
X127337480Y-80521349D01*
X127324867Y-80542393D01*
X127310253Y-80562098D01*
X127293777Y-80580277D01*
X127275598Y-80596753D01*
X127255893Y-80611367D01*
X127234849Y-80623980D01*
X127212671Y-80634470D01*
X127189571Y-80642735D01*
X127165773Y-80648696D01*
X127141504Y-80652296D01*
X127117000Y-80653500D01*
X125867000Y-80653500D01*
X125842496Y-80652296D01*
X125818227Y-80648696D01*
X125794429Y-80642735D01*
X125771329Y-80634470D01*
X125749151Y-80623980D01*
X125728107Y-80611367D01*
X125708402Y-80596753D01*
X125690223Y-80580277D01*
X125673747Y-80562098D01*
X125659133Y-80542393D01*
X125646520Y-80521349D01*
X125636030Y-80499171D01*
X125627765Y-80476071D01*
X125621804Y-80452273D01*
X125618204Y-80428004D01*
X125617000Y-80403500D01*
X125617000Y-79478500D01*
X125618204Y-79453996D01*
X125621804Y-79429727D01*
X125627765Y-79405929D01*
X125636030Y-79382829D01*
X125646520Y-79360651D01*
X125659133Y-79339607D01*
X125673747Y-79319902D01*
X125690223Y-79301723D01*
X125708402Y-79285247D01*
X125728107Y-79270633D01*
X125749151Y-79258020D01*
X125771329Y-79247530D01*
X125794429Y-79239265D01*
X125818227Y-79233304D01*
X125842496Y-79229704D01*
X125867000Y-79228500D01*
X127117000Y-79228500D01*
X127141504Y-79229704D01*
G37*
G04 #@! TD.AperFunction*
G04 #@! TA.AperFunction,SMDPad,CuDef*
G36*
X127141504Y-82204704D02*
G01*
X127165773Y-82208304D01*
X127189571Y-82214265D01*
X127212671Y-82222530D01*
X127234849Y-82233020D01*
X127255893Y-82245633D01*
X127275598Y-82260247D01*
X127293777Y-82276723D01*
X127310253Y-82294902D01*
X127324867Y-82314607D01*
X127337480Y-82335651D01*
X127347970Y-82357829D01*
X127356235Y-82380929D01*
X127362196Y-82404727D01*
X127365796Y-82428996D01*
X127367000Y-82453500D01*
X127367000Y-83378500D01*
X127365796Y-83403004D01*
X127362196Y-83427273D01*
X127356235Y-83451071D01*
X127347970Y-83474171D01*
X127337480Y-83496349D01*
X127324867Y-83517393D01*
X127310253Y-83537098D01*
X127293777Y-83555277D01*
X127275598Y-83571753D01*
X127255893Y-83586367D01*
X127234849Y-83598980D01*
X127212671Y-83609470D01*
X127189571Y-83617735D01*
X127165773Y-83623696D01*
X127141504Y-83627296D01*
X127117000Y-83628500D01*
X125867000Y-83628500D01*
X125842496Y-83627296D01*
X125818227Y-83623696D01*
X125794429Y-83617735D01*
X125771329Y-83609470D01*
X125749151Y-83598980D01*
X125728107Y-83586367D01*
X125708402Y-83571753D01*
X125690223Y-83555277D01*
X125673747Y-83537098D01*
X125659133Y-83517393D01*
X125646520Y-83496349D01*
X125636030Y-83474171D01*
X125627765Y-83451071D01*
X125621804Y-83427273D01*
X125618204Y-83403004D01*
X125617000Y-83378500D01*
X125617000Y-82453500D01*
X125618204Y-82428996D01*
X125621804Y-82404727D01*
X125627765Y-82380929D01*
X125636030Y-82357829D01*
X125646520Y-82335651D01*
X125659133Y-82314607D01*
X125673747Y-82294902D01*
X125690223Y-82276723D01*
X125708402Y-82260247D01*
X125728107Y-82245633D01*
X125749151Y-82233020D01*
X125771329Y-82222530D01*
X125794429Y-82214265D01*
X125818227Y-82208304D01*
X125842496Y-82204704D01*
X125867000Y-82203500D01*
X127117000Y-82203500D01*
X127141504Y-82204704D01*
G37*
G04 #@! TD.AperFunction*
D21*
X146608800Y-99669600D03*
X129844800Y-94488000D03*
X128524000Y-94691200D03*
X135128000Y-96418400D03*
X141020800Y-93929200D03*
X143256000Y-90017600D03*
X166217600Y-98806000D03*
X166217600Y-96774000D03*
X161848800Y-92760800D03*
X161950400Y-90779600D03*
X145999200Y-105054400D03*
X148640800Y-105054400D03*
X132435600Y-96875600D03*
X146507200Y-90830400D03*
X146507200Y-92862400D03*
D22*
X131780000Y-103686000D02*
X131780000Y-101950800D01*
X132365000Y-101365800D02*
X132365000Y-99096000D01*
X131780000Y-101950800D02*
X132365000Y-101365800D01*
X137710000Y-99096000D02*
X138820000Y-97986000D01*
X136175000Y-99096000D02*
X137710000Y-99096000D01*
X123475000Y-107186000D02*
X122700000Y-107186000D01*
X127285000Y-103376000D02*
X123475000Y-107186000D01*
X127285000Y-99096000D02*
X127285000Y-103376000D01*
X127285000Y-99096000D02*
X128555000Y-99096000D01*
X128555000Y-99096000D02*
X129825000Y-99096000D01*
X129825000Y-99096000D02*
X131095000Y-99096000D01*
X131095000Y-99096000D02*
X132365000Y-99096000D01*
X134905000Y-99096000D02*
X136175000Y-99096000D01*
X132365000Y-101365800D02*
X133096000Y-100634800D01*
X134166200Y-100634800D02*
X134905000Y-99896000D01*
X134905000Y-99896000D02*
X134905000Y-99096000D01*
X133096000Y-100634800D02*
X134166200Y-100634800D01*
X127285000Y-92596000D02*
X127285000Y-92729800D01*
X136450000Y-88006000D02*
X137510000Y-86946000D01*
X129600000Y-88006000D02*
X136450000Y-88006000D01*
X106520999Y-85908001D02*
X111392598Y-90779600D01*
X106520999Y-80339001D02*
X106520999Y-85908001D01*
X107696000Y-80264000D02*
X106596000Y-80264000D01*
X106596000Y-80264000D02*
X106520999Y-80339001D01*
X125468600Y-90779600D02*
X127285000Y-92596000D01*
X111392598Y-90779600D02*
X125468600Y-90779600D01*
X157488500Y-99006000D02*
X158201000Y-99006000D01*
X151411190Y-99006000D02*
X157488500Y-99006000D01*
X149883990Y-100533200D02*
X151411190Y-99006000D01*
X141367200Y-100533200D02*
X149883990Y-100533200D01*
X138820000Y-97986000D02*
X141367200Y-100533200D01*
X138820000Y-97273500D02*
X138820000Y-97986000D01*
X129155000Y-79941000D02*
X129600000Y-80386000D01*
X126492000Y-79941000D02*
X129155000Y-79941000D01*
X125272999Y-79596999D02*
X113443001Y-79596999D01*
X125617000Y-79941000D02*
X125272999Y-79596999D01*
X108545999Y-84494001D02*
X107696000Y-85344000D01*
X113443001Y-79596999D02*
X108545999Y-84494001D01*
X126492000Y-79941000D02*
X125617000Y-79941000D01*
X137877500Y-94298500D02*
X136175000Y-92596000D01*
X138820000Y-94298500D02*
X137877500Y-94298500D01*
X154586000Y-90666000D02*
X154546000Y-90626000D01*
X154586000Y-93256000D02*
X154586000Y-90666000D01*
X154546000Y-88176000D02*
X154466000Y-88096000D01*
X154546000Y-90626000D02*
X154546000Y-88176000D01*
X155696000Y-93256000D02*
X155298500Y-93256000D01*
X155298500Y-93256000D02*
X154586000Y-93256000D01*
X158201000Y-95761000D02*
X155696000Y-93256000D01*
X158201000Y-96636000D02*
X158201000Y-95761000D01*
X139695000Y-94298500D02*
X140849700Y-95453200D01*
X138820000Y-94298500D02*
X139695000Y-94298500D01*
X154586000Y-94131000D02*
X154586000Y-93256000D01*
X153263800Y-95453200D02*
X154586000Y-94131000D01*
X140849700Y-95453200D02*
X153263800Y-95453200D01*
X168795991Y-79554401D02*
X168927795Y-79686205D01*
X163632599Y-79554401D02*
X168795991Y-79554401D01*
X154466000Y-88096000D02*
X155091000Y-88096000D01*
X155091000Y-88096000D02*
X163632599Y-79554401D01*
X145066100Y-99669600D02*
X140849700Y-95453200D01*
X146608800Y-99669600D02*
X145066100Y-99669600D01*
X170095999Y-80217999D02*
X169246000Y-79368000D01*
X169141000Y-92578000D02*
X170421001Y-91297999D01*
X170421001Y-80543001D02*
X170095999Y-80217999D01*
X170421001Y-91297999D02*
X170421001Y-80543001D01*
X168516000Y-92578000D02*
X169141000Y-92578000D01*
X161448801Y-93160799D02*
X161848800Y-92760800D01*
X160138490Y-94471110D02*
X161448801Y-93160799D01*
X160138490Y-99605610D02*
X160138490Y-94471110D01*
X154689700Y-105054400D02*
X160138490Y-99605610D01*
X148640800Y-105054400D02*
X154689700Y-105054400D01*
X158901680Y-100206010D02*
X159359600Y-99748090D01*
X145999200Y-105054400D02*
X150847590Y-100206010D01*
X150847590Y-100206010D02*
X158901680Y-100206010D01*
X159359600Y-93370400D02*
X161950400Y-90779600D01*
X159359600Y-99748090D02*
X159359600Y-93370400D01*
X170486000Y-96188000D02*
X169386000Y-96188000D01*
X171316000Y-95358000D02*
X170486000Y-96188000D01*
X171316000Y-92578000D02*
X171316000Y-95358000D01*
X122560200Y-83261200D02*
X131095000Y-91796000D01*
X118498800Y-83261200D02*
X122560200Y-83261200D01*
X118448000Y-83312000D02*
X118498800Y-83261200D01*
X131095000Y-91796000D02*
X131095000Y-92596000D01*
X117348000Y-83312000D02*
X118448000Y-83312000D01*
X118550081Y-80772000D02*
X117348000Y-80772000D01*
X129016411Y-89081001D02*
X120707410Y-80772000D01*
X120707410Y-80772000D02*
X118550081Y-80772000D01*
X132190001Y-89081001D02*
X129016411Y-89081001D01*
X134905000Y-91796000D02*
X132190001Y-89081001D01*
X134905000Y-92596000D02*
X134905000Y-91796000D01*
X143160000Y-88096000D02*
X142010000Y-86946000D01*
X151666000Y-88096000D02*
X143160000Y-88096000D01*
X142010000Y-86946000D02*
X142010000Y-80446000D01*
X151746000Y-90626000D02*
X146711600Y-90626000D01*
X146900800Y-93256000D02*
X146507200Y-92862400D01*
X151611000Y-93256000D02*
X146900800Y-93256000D01*
X166017600Y-99006000D02*
X166217600Y-98806000D01*
X161176000Y-99006000D02*
X166017600Y-99006000D01*
X166079600Y-96636000D02*
X166217600Y-96774000D01*
X161176000Y-96636000D02*
X166079600Y-96636000D01*
X134410000Y-106486000D02*
X135550000Y-105346000D01*
X131780000Y-106486000D02*
X134410000Y-106486000D01*
X133635000Y-92596000D02*
X133635000Y-94203000D01*
X132435600Y-95402400D02*
X132435600Y-96875600D01*
X133635000Y-94203000D02*
X132435600Y-95402400D01*
X134728001Y-96818399D02*
X135128000Y-96418400D01*
X133335000Y-98211400D02*
X134728001Y-96818399D01*
X133335000Y-98796000D02*
X133335000Y-98211400D01*
X133635000Y-99096000D02*
X133335000Y-98796000D01*
X141020800Y-92252800D02*
X143256000Y-90017600D01*
X141020800Y-93929200D02*
X141020800Y-92252800D01*
X129844800Y-92615800D02*
X129825000Y-92596000D01*
X129844800Y-94488000D02*
X129844800Y-92615800D01*
X129590000Y-82916000D02*
X129600000Y-82926000D01*
X126492000Y-82916000D02*
X129590000Y-82916000D01*
X128555000Y-94660200D02*
X128524000Y-94691200D01*
X128555000Y-92596000D02*
X128555000Y-94660200D01*
X121430000Y-107186000D02*
X121430000Y-98940400D01*
X121430000Y-98940400D02*
X124460000Y-95910400D01*
X129850600Y-95910400D02*
X132365000Y-93396000D01*
X132365000Y-93396000D02*
X132365000Y-92596000D01*
X124460000Y-95910400D02*
X129850600Y-95910400D01*
D23*
G36*
X172568000Y-91840588D02*
G01*
X172562008Y-91779746D01*
X172511472Y-91613150D01*
X172429405Y-91459614D01*
X172318962Y-91325038D01*
X172184386Y-91214595D01*
X172030850Y-91132528D01*
X171864254Y-91081992D01*
X171691000Y-91064928D01*
X171181001Y-91064928D01*
X171181001Y-80580323D01*
X171184677Y-80543000D01*
X171181001Y-80505677D01*
X171181001Y-80505668D01*
X171170004Y-80394015D01*
X171126547Y-80250754D01*
X171055975Y-80118725D01*
X170961002Y-80003000D01*
X170931998Y-79979197D01*
X170687209Y-79734408D01*
X170731000Y-79514260D01*
X170731000Y-79221740D01*
X170673932Y-78934842D01*
X170561990Y-78664589D01*
X170399475Y-78421368D01*
X170192632Y-78214525D01*
X169949411Y-78052010D01*
X169679158Y-77940068D01*
X169392260Y-77883000D01*
X169099740Y-77883000D01*
X168812842Y-77940068D01*
X168542589Y-78052010D01*
X168299368Y-78214525D01*
X168092525Y-78421368D01*
X167930010Y-78664589D01*
X167876240Y-78794401D01*
X163669921Y-78794401D01*
X163632598Y-78790725D01*
X163595275Y-78794401D01*
X163595266Y-78794401D01*
X163483613Y-78805398D01*
X163343042Y-78848039D01*
X163340352Y-78848855D01*
X163208322Y-78919427D01*
X163128283Y-78985114D01*
X163092598Y-79014400D01*
X163068800Y-79043398D01*
X155359222Y-86752977D01*
X155334386Y-86732595D01*
X155180850Y-86650528D01*
X155014254Y-86599992D01*
X154841000Y-86582928D01*
X154091000Y-86582928D01*
X153917746Y-86599992D01*
X153751150Y-86650528D01*
X153597614Y-86732595D01*
X153463038Y-86843038D01*
X153352595Y-86977614D01*
X153270528Y-87131150D01*
X153219992Y-87297746D01*
X153202928Y-87471000D01*
X153202928Y-88721000D01*
X153219992Y-88894254D01*
X153270528Y-89060850D01*
X153352595Y-89214386D01*
X153463038Y-89348962D01*
X153522649Y-89397883D01*
X153432595Y-89507614D01*
X153350528Y-89661150D01*
X153299992Y-89827746D01*
X153282928Y-90001000D01*
X153282928Y-91251000D01*
X153299992Y-91424254D01*
X153350528Y-91590850D01*
X153432595Y-91744386D01*
X153543038Y-91878962D01*
X153594882Y-91921509D01*
X153495538Y-92003038D01*
X153385095Y-92137614D01*
X153303028Y-92291150D01*
X153252492Y-92457746D01*
X153235428Y-92631000D01*
X153235428Y-93881000D01*
X153252492Y-94054254D01*
X153303028Y-94220850D01*
X153344242Y-94297956D01*
X152948999Y-94693200D01*
X152428826Y-94693200D01*
X152566886Y-94619405D01*
X152701462Y-94508962D01*
X152811905Y-94374386D01*
X152893972Y-94220850D01*
X152944508Y-94054254D01*
X152961572Y-93881000D01*
X152961572Y-92631000D01*
X152944508Y-92457746D01*
X152893972Y-92291150D01*
X152811905Y-92137614D01*
X152701462Y-92003038D01*
X152649618Y-91960491D01*
X152748962Y-91878962D01*
X152859405Y-91744386D01*
X152941472Y-91590850D01*
X152992008Y-91424254D01*
X153009072Y-91251000D01*
X153009072Y-90001000D01*
X152992008Y-89827746D01*
X152941472Y-89661150D01*
X152859405Y-89507614D01*
X152748962Y-89373038D01*
X152689351Y-89324117D01*
X152779405Y-89214386D01*
X152861472Y-89060850D01*
X152912008Y-88894254D01*
X152929072Y-88721000D01*
X152929072Y-87471000D01*
X152912008Y-87297746D01*
X152861472Y-87131150D01*
X152779405Y-86977614D01*
X152668962Y-86843038D01*
X152534386Y-86732595D01*
X152380850Y-86650528D01*
X152214254Y-86599992D01*
X152041000Y-86582928D01*
X151291000Y-86582928D01*
X151117746Y-86599992D01*
X150951150Y-86650528D01*
X150797614Y-86732595D01*
X150663038Y-86843038D01*
X150552595Y-86977614D01*
X150470528Y-87131150D01*
X150419992Y-87297746D01*
X150416224Y-87336000D01*
X143599456Y-87336000D01*
X143645000Y-87107033D01*
X143645000Y-86784967D01*
X143582168Y-86469088D01*
X143458918Y-86171537D01*
X143279987Y-85903748D01*
X143052252Y-85676013D01*
X142784463Y-85497082D01*
X142770000Y-85491091D01*
X142770000Y-81900909D01*
X142784463Y-81894918D01*
X143052252Y-81715987D01*
X143279987Y-81488252D01*
X143458918Y-81220463D01*
X143582168Y-80922912D01*
X143645000Y-80607033D01*
X143645000Y-80284967D01*
X143582168Y-79969088D01*
X143458918Y-79671537D01*
X143279987Y-79403748D01*
X143052252Y-79176013D01*
X142784463Y-78997082D01*
X142486912Y-78873832D01*
X142171033Y-78811000D01*
X141848967Y-78811000D01*
X141533088Y-78873832D01*
X141235537Y-78997082D01*
X140967748Y-79176013D01*
X140740013Y-79403748D01*
X140561082Y-79671537D01*
X140437832Y-79969088D01*
X140375000Y-80284967D01*
X140375000Y-80607033D01*
X140437832Y-80922912D01*
X140561082Y-81220463D01*
X140740013Y-81488252D01*
X140967748Y-81715987D01*
X141235537Y-81894918D01*
X141250001Y-81900909D01*
X141250000Y-85491091D01*
X141235537Y-85497082D01*
X140967748Y-85676013D01*
X140740013Y-85903748D01*
X140561082Y-86171537D01*
X140437832Y-86469088D01*
X140375000Y-86784967D01*
X140375000Y-87107033D01*
X140437832Y-87422912D01*
X140561082Y-87720463D01*
X140740013Y-87988252D01*
X140967748Y-88215987D01*
X141235537Y-88394918D01*
X141533088Y-88518168D01*
X141848967Y-88581000D01*
X142171033Y-88581000D01*
X142486912Y-88518168D01*
X142501375Y-88512177D01*
X142596200Y-88607002D01*
X142619999Y-88636001D01*
X142648997Y-88659799D01*
X142735724Y-88730974D01*
X142867753Y-88801546D01*
X143011014Y-88845003D01*
X143160000Y-88859677D01*
X143197333Y-88856000D01*
X150416224Y-88856000D01*
X150419992Y-88894254D01*
X150470528Y-89060850D01*
X150552595Y-89214386D01*
X150663038Y-89348962D01*
X150722649Y-89397883D01*
X150632595Y-89507614D01*
X150550528Y-89661150D01*
X150499992Y-89827746D01*
X150496224Y-89866000D01*
X146883518Y-89866000D01*
X146809098Y-89835174D01*
X146609139Y-89795400D01*
X146405261Y-89795400D01*
X146205302Y-89835174D01*
X146016944Y-89913195D01*
X145847426Y-90026463D01*
X145703263Y-90170626D01*
X145589995Y-90340144D01*
X145511974Y-90528502D01*
X145472200Y-90728461D01*
X145472200Y-90932339D01*
X145511974Y-91132298D01*
X145589995Y-91320656D01*
X145703263Y-91490174D01*
X145847426Y-91634337D01*
X146016944Y-91747605D01*
X146205302Y-91825626D01*
X146309741Y-91846400D01*
X146205302Y-91867174D01*
X146016944Y-91945195D01*
X145847426Y-92058463D01*
X145703263Y-92202626D01*
X145589995Y-92372144D01*
X145511974Y-92560502D01*
X145472200Y-92760461D01*
X145472200Y-92964339D01*
X145511974Y-93164298D01*
X145589995Y-93352656D01*
X145703263Y-93522174D01*
X145847426Y-93666337D01*
X146016944Y-93779605D01*
X146205302Y-93857626D01*
X146405261Y-93897400D01*
X146488546Y-93897400D01*
X146608553Y-93961546D01*
X146751814Y-94005003D01*
X146863467Y-94016000D01*
X146863476Y-94016000D01*
X146900799Y-94019676D01*
X146938122Y-94016000D01*
X150273724Y-94016000D01*
X150277492Y-94054254D01*
X150328028Y-94220850D01*
X150410095Y-94374386D01*
X150520538Y-94508962D01*
X150655114Y-94619405D01*
X150793174Y-94693200D01*
X141720511Y-94693200D01*
X141824737Y-94588974D01*
X141938005Y-94419456D01*
X142016026Y-94231098D01*
X142055800Y-94031139D01*
X142055800Y-93827261D01*
X142016026Y-93627302D01*
X141938005Y-93438944D01*
X141824737Y-93269426D01*
X141780800Y-93225489D01*
X141780800Y-92567601D01*
X143295802Y-91052600D01*
X143357939Y-91052600D01*
X143557898Y-91012826D01*
X143746256Y-90934805D01*
X143915774Y-90821537D01*
X144059937Y-90677374D01*
X144173205Y-90507856D01*
X144251226Y-90319498D01*
X144291000Y-90119539D01*
X144291000Y-89915661D01*
X144251226Y-89715702D01*
X144173205Y-89527344D01*
X144059937Y-89357826D01*
X143915774Y-89213663D01*
X143746256Y-89100395D01*
X143557898Y-89022374D01*
X143357939Y-88982600D01*
X143154061Y-88982600D01*
X142954102Y-89022374D01*
X142765744Y-89100395D01*
X142596226Y-89213663D01*
X142452063Y-89357826D01*
X142338795Y-89527344D01*
X142260774Y-89715702D01*
X142221000Y-89915661D01*
X142221000Y-89977798D01*
X140509798Y-91689001D01*
X140480800Y-91712799D01*
X140457002Y-91741797D01*
X140457001Y-91741798D01*
X140385826Y-91828524D01*
X140315254Y-91960554D01*
X140289031Y-92047002D01*
X140276521Y-92088246D01*
X140271798Y-92103815D01*
X140257124Y-92252800D01*
X140260801Y-92290132D01*
X140260800Y-93225489D01*
X140216863Y-93269426D01*
X140174892Y-93332241D01*
X140072962Y-93208038D01*
X139938386Y-93097595D01*
X139784850Y-93015528D01*
X139618254Y-92964992D01*
X139445000Y-92947928D01*
X138195000Y-92947928D01*
X138021746Y-92964992D01*
X137855150Y-93015528D01*
X137734056Y-93080254D01*
X137113072Y-92459271D01*
X137113072Y-91946000D01*
X137097929Y-91792255D01*
X137053084Y-91644418D01*
X136980258Y-91508171D01*
X136882251Y-91388749D01*
X136762829Y-91290742D01*
X136626582Y-91217916D01*
X136478745Y-91173071D01*
X136325000Y-91157928D01*
X136025000Y-91157928D01*
X135871255Y-91173071D01*
X135723418Y-91217916D01*
X135587171Y-91290742D01*
X135540000Y-91329454D01*
X135492829Y-91290742D01*
X135458420Y-91272350D01*
X135445001Y-91255999D01*
X135416008Y-91232205D01*
X132753805Y-88570004D01*
X132730002Y-88541000D01*
X132614277Y-88446027D01*
X132482248Y-88375455D01*
X132338987Y-88331998D01*
X132227334Y-88321001D01*
X132227323Y-88321001D01*
X132190001Y-88317325D01*
X132152679Y-88321001D01*
X130948823Y-88321001D01*
X130977250Y-88206040D01*
X130982994Y-88081413D01*
X136554192Y-88081413D01*
X136649956Y-88345814D01*
X136939571Y-88486704D01*
X137251108Y-88568384D01*
X137572595Y-88587718D01*
X137891675Y-88543961D01*
X138196088Y-88438795D01*
X138370044Y-88345814D01*
X138465808Y-88081413D01*
X137510000Y-87125605D01*
X136554192Y-88081413D01*
X130982994Y-88081413D01*
X130989812Y-87933508D01*
X130948965Y-87663762D01*
X130856277Y-87407168D01*
X130795860Y-87294137D01*
X130556993Y-87228612D01*
X129779605Y-88006000D01*
X129793748Y-88020143D01*
X129614143Y-88199748D01*
X129600000Y-88185605D01*
X129585858Y-88199748D01*
X129406253Y-88020143D01*
X129420395Y-88006000D01*
X128643007Y-87228612D01*
X128404140Y-87294137D01*
X128372268Y-87362056D01*
X121367210Y-80356999D01*
X124958198Y-80356999D01*
X124978928Y-80377729D01*
X124978928Y-80403500D01*
X124995992Y-80576754D01*
X125046528Y-80743350D01*
X125128595Y-80896886D01*
X125239038Y-81031462D01*
X125373614Y-81141905D01*
X125527150Y-81223972D01*
X125693746Y-81274508D01*
X125867000Y-81291572D01*
X127117000Y-81291572D01*
X127290254Y-81274508D01*
X127456850Y-81223972D01*
X127610386Y-81141905D01*
X127744962Y-81031462D01*
X127855405Y-80896886D01*
X127937472Y-80743350D01*
X127950319Y-80701000D01*
X128211928Y-80701000D01*
X128211928Y-81136000D01*
X128224188Y-81260482D01*
X128260498Y-81380180D01*
X128319463Y-81490494D01*
X128398815Y-81587185D01*
X128495506Y-81666537D01*
X128605820Y-81725502D01*
X128725518Y-81761812D01*
X128833483Y-81772445D01*
X128717114Y-81850201D01*
X128524201Y-82043114D01*
X128448773Y-82156000D01*
X127950319Y-82156000D01*
X127937472Y-82113650D01*
X127855405Y-81960114D01*
X127744962Y-81825538D01*
X127610386Y-81715095D01*
X127456850Y-81633028D01*
X127290254Y-81582492D01*
X127117000Y-81565428D01*
X125867000Y-81565428D01*
X125693746Y-81582492D01*
X125527150Y-81633028D01*
X125373614Y-81715095D01*
X125239038Y-81825538D01*
X125128595Y-81960114D01*
X125046528Y-82113650D01*
X124995992Y-82280246D01*
X124978928Y-82453500D01*
X124978928Y-83378500D01*
X124995992Y-83551754D01*
X125046528Y-83718350D01*
X125128595Y-83871886D01*
X125239038Y-84006462D01*
X125373614Y-84116905D01*
X125527150Y-84198972D01*
X125693746Y-84249508D01*
X125867000Y-84266572D01*
X127117000Y-84266572D01*
X127290254Y-84249508D01*
X127456850Y-84198972D01*
X127610386Y-84116905D01*
X127744962Y-84006462D01*
X127855405Y-83871886D01*
X127937472Y-83718350D01*
X127950319Y-83676000D01*
X128435409Y-83676000D01*
X128524201Y-83808886D01*
X128717114Y-84001799D01*
X128943957Y-84153371D01*
X129046873Y-84196000D01*
X128943957Y-84238629D01*
X128717114Y-84390201D01*
X128524201Y-84583114D01*
X128372629Y-84809957D01*
X128268225Y-85062011D01*
X128215000Y-85329589D01*
X128215000Y-85602411D01*
X128268225Y-85869989D01*
X128372629Y-86122043D01*
X128524201Y-86348886D01*
X128717114Y-86541799D01*
X128943957Y-86693371D01*
X129043279Y-86734511D01*
X129001168Y-86749723D01*
X128888137Y-86810140D01*
X128822612Y-87049007D01*
X129600000Y-87826395D01*
X130377388Y-87049007D01*
X130366303Y-87008595D01*
X135868282Y-87008595D01*
X135912039Y-87327675D01*
X136017205Y-87632088D01*
X136110186Y-87806044D01*
X136374587Y-87901808D01*
X137330395Y-86946000D01*
X137689605Y-86946000D01*
X138645413Y-87901808D01*
X138909814Y-87806044D01*
X139050704Y-87516429D01*
X139132384Y-87204892D01*
X139151718Y-86883405D01*
X139107961Y-86564325D01*
X139002795Y-86259912D01*
X138909814Y-86085956D01*
X138645413Y-85990192D01*
X137689605Y-86946000D01*
X137330395Y-86946000D01*
X136374587Y-85990192D01*
X136110186Y-86085956D01*
X135969296Y-86375571D01*
X135887616Y-86687108D01*
X135868282Y-87008595D01*
X130366303Y-87008595D01*
X130311863Y-86810140D01*
X130153523Y-86735836D01*
X130256043Y-86693371D01*
X130482886Y-86541799D01*
X130675799Y-86348886D01*
X130827371Y-86122043D01*
X130931775Y-85869989D01*
X130943590Y-85810587D01*
X136554192Y-85810587D01*
X137510000Y-86766395D01*
X138465808Y-85810587D01*
X138370044Y-85546186D01*
X138080429Y-85405296D01*
X137768892Y-85323616D01*
X137447405Y-85304282D01*
X137128325Y-85348039D01*
X136823912Y-85453205D01*
X136649956Y-85546186D01*
X136554192Y-85810587D01*
X130943590Y-85810587D01*
X130985000Y-85602411D01*
X130985000Y-85329589D01*
X130931775Y-85062011D01*
X130827371Y-84809957D01*
X130675799Y-84583114D01*
X130482886Y-84390201D01*
X130256043Y-84238629D01*
X130153127Y-84196000D01*
X130256043Y-84153371D01*
X130482886Y-84001799D01*
X130675799Y-83808886D01*
X130827371Y-83582043D01*
X130931775Y-83329989D01*
X130985000Y-83062411D01*
X130985000Y-82789589D01*
X130931775Y-82522011D01*
X130827371Y-82269957D01*
X130675799Y-82043114D01*
X130482886Y-81850201D01*
X130366517Y-81772445D01*
X130474482Y-81761812D01*
X130594180Y-81725502D01*
X130704494Y-81666537D01*
X130801185Y-81587185D01*
X130805921Y-81581413D01*
X136554192Y-81581413D01*
X136649956Y-81845814D01*
X136939571Y-81986704D01*
X137251108Y-82068384D01*
X137572595Y-82087718D01*
X137891675Y-82043961D01*
X138196088Y-81938795D01*
X138370044Y-81845814D01*
X138465808Y-81581413D01*
X137510000Y-80625605D01*
X136554192Y-81581413D01*
X130805921Y-81581413D01*
X130880537Y-81490494D01*
X130939502Y-81380180D01*
X130975812Y-81260482D01*
X130988072Y-81136000D01*
X130988072Y-80508595D01*
X135868282Y-80508595D01*
X135912039Y-80827675D01*
X136017205Y-81132088D01*
X136110186Y-81306044D01*
X136374587Y-81401808D01*
X137330395Y-80446000D01*
X137689605Y-80446000D01*
X138645413Y-81401808D01*
X138909814Y-81306044D01*
X139050704Y-81016429D01*
X139132384Y-80704892D01*
X139151718Y-80383405D01*
X139107961Y-80064325D01*
X139002795Y-79759912D01*
X138909814Y-79585956D01*
X138645413Y-79490192D01*
X137689605Y-80446000D01*
X137330395Y-80446000D01*
X136374587Y-79490192D01*
X136110186Y-79585956D01*
X135969296Y-79875571D01*
X135887616Y-80187108D01*
X135868282Y-80508595D01*
X130988072Y-80508595D01*
X130988072Y-79636000D01*
X130975812Y-79511518D01*
X130939502Y-79391820D01*
X130896082Y-79310587D01*
X136554192Y-79310587D01*
X137510000Y-80266395D01*
X138465808Y-79310587D01*
X138370044Y-79046186D01*
X138080429Y-78905296D01*
X137768892Y-78823616D01*
X137447405Y-78804282D01*
X137128325Y-78848039D01*
X136823912Y-78953205D01*
X136649956Y-79046186D01*
X136554192Y-79310587D01*
X130896082Y-79310587D01*
X130880537Y-79281506D01*
X130801185Y-79184815D01*
X130704494Y-79105463D01*
X130594180Y-79046498D01*
X130474482Y-79010188D01*
X130350000Y-78997928D01*
X128850000Y-78997928D01*
X128725518Y-79010188D01*
X128605820Y-79046498D01*
X128495506Y-79105463D01*
X128403464Y-79181000D01*
X127950319Y-79181000D01*
X127937472Y-79138650D01*
X127855405Y-78985114D01*
X127744962Y-78850538D01*
X127610386Y-78740095D01*
X127456850Y-78658028D01*
X127290254Y-78607492D01*
X127117000Y-78590428D01*
X125867000Y-78590428D01*
X125693746Y-78607492D01*
X125527150Y-78658028D01*
X125373614Y-78740095D01*
X125258244Y-78834776D01*
X125235677Y-78836999D01*
X113480326Y-78836999D01*
X113443001Y-78833323D01*
X113405676Y-78836999D01*
X113405668Y-78836999D01*
X113294015Y-78847996D01*
X113150754Y-78891453D01*
X113018725Y-78962025D01*
X112903000Y-79056998D01*
X112879202Y-79085996D01*
X109181000Y-82784199D01*
X109181000Y-82657740D01*
X109123932Y-82370842D01*
X109011990Y-82100589D01*
X108849475Y-81857368D01*
X108717620Y-81725513D01*
X108790180Y-81703502D01*
X108900494Y-81644537D01*
X108997185Y-81565185D01*
X109076537Y-81468494D01*
X109135502Y-81358180D01*
X109171812Y-81238482D01*
X109184072Y-81114000D01*
X109181000Y-80549750D01*
X109022250Y-80391000D01*
X107823000Y-80391000D01*
X107823000Y-80411000D01*
X107569000Y-80411000D01*
X107569000Y-80391000D01*
X106369750Y-80391000D01*
X106211000Y-80549750D01*
X106207928Y-81114000D01*
X106220188Y-81238482D01*
X106256498Y-81358180D01*
X106315463Y-81468494D01*
X106394815Y-81565185D01*
X106491506Y-81644537D01*
X106601820Y-81703502D01*
X106674380Y-81725513D01*
X106542525Y-81857368D01*
X106380010Y-82100589D01*
X106268068Y-82370842D01*
X106211000Y-82657740D01*
X106211000Y-82950260D01*
X106268068Y-83237158D01*
X106380010Y-83507411D01*
X106542525Y-83750632D01*
X106749368Y-83957475D01*
X106923760Y-84074000D01*
X106749368Y-84190525D01*
X106542525Y-84397368D01*
X106380010Y-84640589D01*
X106268068Y-84910842D01*
X106211000Y-85197740D01*
X106211000Y-85490260D01*
X106268068Y-85777158D01*
X106380010Y-86047411D01*
X106542525Y-86290632D01*
X106749368Y-86497475D01*
X106992589Y-86659990D01*
X107262842Y-86771932D01*
X107549740Y-86829000D01*
X107842260Y-86829000D01*
X108129158Y-86771932D01*
X108399411Y-86659990D01*
X108642632Y-86497475D01*
X108849475Y-86290632D01*
X109011990Y-86047411D01*
X109123932Y-85777158D01*
X109181000Y-85490260D01*
X109181000Y-85197740D01*
X109137209Y-84977592D01*
X113757803Y-80356999D01*
X115916456Y-80356999D01*
X115863000Y-80625740D01*
X115863000Y-80918260D01*
X115920068Y-81205158D01*
X116032010Y-81475411D01*
X116194525Y-81718632D01*
X116326380Y-81850487D01*
X116253820Y-81872498D01*
X116143506Y-81931463D01*
X116046815Y-82010815D01*
X115967463Y-82107506D01*
X115908498Y-82217820D01*
X115872188Y-82337518D01*
X115859928Y-82462000D01*
X115859928Y-84162000D01*
X115872188Y-84286482D01*
X115908498Y-84406180D01*
X115967463Y-84516494D01*
X116046815Y-84613185D01*
X116143506Y-84692537D01*
X116253820Y-84751502D01*
X116373518Y-84787812D01*
X116498000Y-84800072D01*
X118198000Y-84800072D01*
X118322482Y-84787812D01*
X118442180Y-84751502D01*
X118552494Y-84692537D01*
X118649185Y-84613185D01*
X118728537Y-84516494D01*
X118787502Y-84406180D01*
X118823812Y-84286482D01*
X118836072Y-84162000D01*
X118836072Y-84021200D01*
X122245399Y-84021200D01*
X129426126Y-91201928D01*
X129373418Y-91217916D01*
X129237171Y-91290742D01*
X129190000Y-91329454D01*
X129142829Y-91290742D01*
X129006582Y-91217916D01*
X128858745Y-91173071D01*
X128705000Y-91157928D01*
X128405000Y-91157928D01*
X128251255Y-91173071D01*
X128103418Y-91217916D01*
X127969064Y-91289730D01*
X127939494Y-91265463D01*
X127829180Y-91206498D01*
X127709482Y-91170188D01*
X127585000Y-91157928D01*
X127570750Y-91161000D01*
X127412000Y-91319750D01*
X127412000Y-92469000D01*
X127432000Y-92469000D01*
X127432000Y-92723000D01*
X127412000Y-92723000D01*
X127412000Y-93872250D01*
X127570750Y-94031000D01*
X127585000Y-94034072D01*
X127709482Y-94021812D01*
X127738471Y-94013018D01*
X127720063Y-94031426D01*
X127606795Y-94200944D01*
X127528774Y-94389302D01*
X127489000Y-94589261D01*
X127489000Y-94793139D01*
X127528774Y-94993098D01*
X127593931Y-95150400D01*
X124497322Y-95150400D01*
X124459999Y-95146724D01*
X124422676Y-95150400D01*
X124422667Y-95150400D01*
X124311014Y-95161397D01*
X124183092Y-95200201D01*
X124167753Y-95204854D01*
X124035723Y-95275426D01*
X124000644Y-95304215D01*
X123919999Y-95370399D01*
X123896201Y-95399397D01*
X120918998Y-98376601D01*
X120890000Y-98400399D01*
X120866202Y-98429397D01*
X120866201Y-98429398D01*
X120795026Y-98516124D01*
X120724454Y-98648154D01*
X120680998Y-98791415D01*
X120666324Y-98940400D01*
X120670001Y-98977732D01*
X120670000Y-105797928D01*
X119635000Y-105797928D01*
X119510518Y-105810188D01*
X119390820Y-105846498D01*
X119280506Y-105905463D01*
X119183815Y-105984815D01*
X119104463Y-106081506D01*
X119045498Y-106191820D01*
X119009188Y-106311518D01*
X118996928Y-106436000D01*
X118996928Y-107936000D01*
X119009188Y-108060482D01*
X119045498Y-108180180D01*
X119104463Y-108290494D01*
X119183815Y-108387185D01*
X119280506Y-108466537D01*
X119390820Y-108525502D01*
X119510518Y-108561812D01*
X119635000Y-108574072D01*
X120685000Y-108574072D01*
X120809482Y-108561812D01*
X120929180Y-108525502D01*
X120993902Y-108490907D01*
X121202601Y-108554215D01*
X121430000Y-108576612D01*
X121657400Y-108554215D01*
X121876060Y-108487885D01*
X122064669Y-108387071D01*
X122123118Y-108428275D01*
X122332663Y-108521272D01*
X122394190Y-108529964D01*
X122573000Y-108404163D01*
X122573000Y-107639108D01*
X122573215Y-107638399D01*
X122590000Y-107467978D01*
X122590000Y-107313000D01*
X122827000Y-107313000D01*
X122827000Y-108404163D01*
X123005810Y-108529964D01*
X123067337Y-108521272D01*
X123276882Y-108428275D01*
X123464258Y-108296184D01*
X123622264Y-108130076D01*
X123744828Y-107936334D01*
X123827239Y-107722404D01*
X123866331Y-107496507D01*
X123706598Y-107313000D01*
X122827000Y-107313000D01*
X122590000Y-107313000D01*
X122590000Y-106904021D01*
X122573215Y-106733600D01*
X122573000Y-106732891D01*
X122573000Y-105967837D01*
X122827000Y-105967837D01*
X122827000Y-107059000D01*
X123706598Y-107059000D01*
X123866331Y-106875493D01*
X123827239Y-106649596D01*
X123744828Y-106435666D01*
X123622264Y-106241924D01*
X123464258Y-106075816D01*
X123276882Y-105943725D01*
X123067337Y-105850728D01*
X123005810Y-105842036D01*
X122827000Y-105967837D01*
X122573000Y-105967837D01*
X122394190Y-105842036D01*
X122332663Y-105850728D01*
X122190000Y-105914042D01*
X122190000Y-105204665D01*
X126515000Y-105204665D01*
X126515000Y-105487335D01*
X126570147Y-105764574D01*
X126678320Y-106025727D01*
X126835363Y-106260759D01*
X127035241Y-106460637D01*
X127270273Y-106617680D01*
X127531426Y-106725853D01*
X127808665Y-106781000D01*
X128091335Y-106781000D01*
X128368574Y-106725853D01*
X128629727Y-106617680D01*
X128864759Y-106460637D01*
X129064637Y-106260759D01*
X129164702Y-106111000D01*
X130266928Y-106111000D01*
X130266928Y-106861000D01*
X130283992Y-107034254D01*
X130334528Y-107200850D01*
X130416595Y-107354386D01*
X130527038Y-107488962D01*
X130661614Y-107599405D01*
X130815150Y-107681472D01*
X130981746Y-107732008D01*
X131155000Y-107749072D01*
X132405000Y-107749072D01*
X132578254Y-107732008D01*
X132744850Y-107681472D01*
X132898386Y-107599405D01*
X133032962Y-107488962D01*
X133143405Y-107354386D01*
X133201339Y-107246000D01*
X134372678Y-107246000D01*
X134410000Y-107249676D01*
X134447322Y-107246000D01*
X134447333Y-107246000D01*
X134558986Y-107235003D01*
X134702247Y-107191546D01*
X134834276Y-107120974D01*
X134950001Y-107026001D01*
X134973803Y-106996998D01*
X135226114Y-106744688D01*
X135408665Y-106781000D01*
X135691335Y-106781000D01*
X135968574Y-106725853D01*
X136229727Y-106617680D01*
X136464759Y-106460637D01*
X136664637Y-106260759D01*
X136821680Y-106025727D01*
X136929853Y-105764574D01*
X136985000Y-105487335D01*
X136985000Y-105204665D01*
X136929853Y-104927426D01*
X136821680Y-104666273D01*
X136664637Y-104431241D01*
X136464759Y-104231363D01*
X136229727Y-104074320D01*
X135968574Y-103966147D01*
X135691335Y-103911000D01*
X135408665Y-103911000D01*
X135131426Y-103966147D01*
X134870273Y-104074320D01*
X134635241Y-104231363D01*
X134435363Y-104431241D01*
X134278320Y-104666273D01*
X134170147Y-104927426D01*
X134115000Y-105204665D01*
X134115000Y-105487335D01*
X134151312Y-105669886D01*
X134095199Y-105726000D01*
X133201339Y-105726000D01*
X133143405Y-105617614D01*
X133032962Y-105483038D01*
X132898386Y-105372595D01*
X132744850Y-105290528D01*
X132578254Y-105239992D01*
X132405000Y-105222928D01*
X131155000Y-105222928D01*
X130981746Y-105239992D01*
X130815150Y-105290528D01*
X130661614Y-105372595D01*
X130527038Y-105483038D01*
X130416595Y-105617614D01*
X130334528Y-105771150D01*
X130283992Y-105937746D01*
X130266928Y-106111000D01*
X129164702Y-106111000D01*
X129221680Y-106025727D01*
X129329853Y-105764574D01*
X129385000Y-105487335D01*
X129385000Y-105204665D01*
X129329853Y-104927426D01*
X129221680Y-104666273D01*
X129064637Y-104431241D01*
X128944396Y-104311000D01*
X130266928Y-104311000D01*
X130279188Y-104435482D01*
X130315498Y-104555180D01*
X130374463Y-104665494D01*
X130453815Y-104762185D01*
X130550506Y-104841537D01*
X130660820Y-104900502D01*
X130780518Y-104936812D01*
X130905000Y-104949072D01*
X131494250Y-104946000D01*
X131653000Y-104787250D01*
X131653000Y-103813000D01*
X131907000Y-103813000D01*
X131907000Y-104787250D01*
X132065750Y-104946000D01*
X132655000Y-104949072D01*
X132779482Y-104936812D01*
X132899180Y-104900502D01*
X133009494Y-104841537D01*
X133106185Y-104762185D01*
X133185537Y-104665494D01*
X133244502Y-104555180D01*
X133280812Y-104435482D01*
X133293072Y-104311000D01*
X133290000Y-103971750D01*
X133131250Y-103813000D01*
X131907000Y-103813000D01*
X131653000Y-103813000D01*
X130428750Y-103813000D01*
X130270000Y-103971750D01*
X130266928Y-104311000D01*
X128944396Y-104311000D01*
X128864759Y-104231363D01*
X128629727Y-104074320D01*
X128368574Y-103966147D01*
X128091335Y-103911000D01*
X127808665Y-103911000D01*
X127531426Y-103966147D01*
X127270273Y-104074320D01*
X127035241Y-104231363D01*
X126835363Y-104431241D01*
X126678320Y-104666273D01*
X126570147Y-104927426D01*
X126515000Y-105204665D01*
X122190000Y-105204665D01*
X122190000Y-103061000D01*
X130266928Y-103061000D01*
X130270000Y-103400250D01*
X130428750Y-103559000D01*
X131653000Y-103559000D01*
X131653000Y-102584750D01*
X131907000Y-102584750D01*
X131907000Y-103559000D01*
X133131250Y-103559000D01*
X133290000Y-103400250D01*
X133293072Y-103061000D01*
X133280812Y-102936518D01*
X133244502Y-102816820D01*
X133185537Y-102706506D01*
X133106185Y-102609815D01*
X133009494Y-102530463D01*
X132899180Y-102471498D01*
X132779482Y-102435188D01*
X132655000Y-102422928D01*
X132065750Y-102426000D01*
X131907000Y-102584750D01*
X131653000Y-102584750D01*
X131494250Y-102426000D01*
X130905000Y-102422928D01*
X130780518Y-102435188D01*
X130660820Y-102471498D01*
X130550506Y-102530463D01*
X130453815Y-102609815D01*
X130374463Y-102706506D01*
X130315498Y-102816820D01*
X130279188Y-102936518D01*
X130266928Y-103061000D01*
X122190000Y-103061000D01*
X122190000Y-99896000D01*
X126346928Y-99896000D01*
X126359188Y-100020482D01*
X126395498Y-100140180D01*
X126454463Y-100250494D01*
X126533815Y-100347185D01*
X126630506Y-100426537D01*
X126740820Y-100485502D01*
X126860518Y-100521812D01*
X126985000Y-100534072D01*
X126999250Y-100531000D01*
X127158000Y-100372250D01*
X127158000Y-99223000D01*
X127412000Y-99223000D01*
X127412000Y-100372250D01*
X127570750Y-100531000D01*
X127585000Y-100534072D01*
X127709482Y-100521812D01*
X127829180Y-100485502D01*
X127920000Y-100436957D01*
X128010820Y-100485502D01*
X128130518Y-100521812D01*
X128255000Y-100534072D01*
X128269250Y-100531000D01*
X128428000Y-100372250D01*
X128428000Y-99223000D01*
X128682000Y-99223000D01*
X128682000Y-100372250D01*
X128840750Y-100531000D01*
X128855000Y-100534072D01*
X128979482Y-100521812D01*
X129099180Y-100485502D01*
X129190000Y-100436957D01*
X129280820Y-100485502D01*
X129400518Y-100521812D01*
X129525000Y-100534072D01*
X129539250Y-100531000D01*
X129698000Y-100372250D01*
X129698000Y-99223000D01*
X129952000Y-99223000D01*
X129952000Y-100372250D01*
X130110750Y-100531000D01*
X130125000Y-100534072D01*
X130249482Y-100521812D01*
X130369180Y-100485502D01*
X130460000Y-100436957D01*
X130550820Y-100485502D01*
X130670518Y-100521812D01*
X130795000Y-100534072D01*
X130809250Y-100531000D01*
X130968000Y-100372250D01*
X130968000Y-99223000D01*
X131222000Y-99223000D01*
X131222000Y-100372250D01*
X131380750Y-100531000D01*
X131395000Y-100534072D01*
X131519482Y-100521812D01*
X131639180Y-100485502D01*
X131730000Y-100436957D01*
X131820820Y-100485502D01*
X131940518Y-100521812D01*
X132065000Y-100534072D01*
X132079250Y-100531000D01*
X132238000Y-100372250D01*
X132238000Y-99223000D01*
X131222000Y-99223000D01*
X130968000Y-99223000D01*
X129952000Y-99223000D01*
X129698000Y-99223000D01*
X128682000Y-99223000D01*
X128428000Y-99223000D01*
X127412000Y-99223000D01*
X127158000Y-99223000D01*
X126508750Y-99223000D01*
X126350000Y-99381750D01*
X126346928Y-99896000D01*
X122190000Y-99896000D01*
X122190000Y-99255201D01*
X123149201Y-98296000D01*
X126346928Y-98296000D01*
X126350000Y-98810250D01*
X126508750Y-98969000D01*
X127158000Y-98969000D01*
X127158000Y-97819750D01*
X127412000Y-97819750D01*
X127412000Y-98969000D01*
X128428000Y-98969000D01*
X128428000Y-97819750D01*
X128682000Y-97819750D01*
X128682000Y-98969000D01*
X129698000Y-98969000D01*
X129698000Y-97819750D01*
X129952000Y-97819750D01*
X129952000Y-98969000D01*
X130968000Y-98969000D01*
X130968000Y-97819750D01*
X130809250Y-97661000D01*
X130795000Y-97657928D01*
X130670518Y-97670188D01*
X130550820Y-97706498D01*
X130460000Y-97755043D01*
X130369180Y-97706498D01*
X130249482Y-97670188D01*
X130125000Y-97657928D01*
X130110750Y-97661000D01*
X129952000Y-97819750D01*
X129698000Y-97819750D01*
X129539250Y-97661000D01*
X129525000Y-97657928D01*
X129400518Y-97670188D01*
X129280820Y-97706498D01*
X129190000Y-97755043D01*
X129099180Y-97706498D01*
X128979482Y-97670188D01*
X128855000Y-97657928D01*
X128840750Y-97661000D01*
X128682000Y-97819750D01*
X128428000Y-97819750D01*
X128269250Y-97661000D01*
X128255000Y-97657928D01*
X128130518Y-97670188D01*
X128010820Y-97706498D01*
X127920000Y-97755043D01*
X127829180Y-97706498D01*
X127709482Y-97670188D01*
X127585000Y-97657928D01*
X127570750Y-97661000D01*
X127412000Y-97819750D01*
X127158000Y-97819750D01*
X126999250Y-97661000D01*
X126985000Y-97657928D01*
X126860518Y-97670188D01*
X126740820Y-97706498D01*
X126630506Y-97765463D01*
X126533815Y-97844815D01*
X126454463Y-97941506D01*
X126395498Y-98051820D01*
X126359188Y-98171518D01*
X126346928Y-98296000D01*
X123149201Y-98296000D01*
X124774802Y-96670400D01*
X129813278Y-96670400D01*
X129850600Y-96674076D01*
X129887922Y-96670400D01*
X129887933Y-96670400D01*
X129999586Y-96659403D01*
X130142847Y-96615946D01*
X130274876Y-96545374D01*
X130390601Y-96450401D01*
X130414404Y-96421397D01*
X131735114Y-95100688D01*
X131730054Y-95110154D01*
X131686597Y-95253415D01*
X131675600Y-95365068D01*
X131675600Y-95365078D01*
X131671924Y-95402400D01*
X131675600Y-95439723D01*
X131675601Y-96171888D01*
X131631663Y-96215826D01*
X131518395Y-96385344D01*
X131440374Y-96573702D01*
X131400600Y-96773661D01*
X131400600Y-96977539D01*
X131440374Y-97177498D01*
X131518395Y-97365856D01*
X131631663Y-97535374D01*
X131775826Y-97679537D01*
X131818240Y-97707877D01*
X131730000Y-97755043D01*
X131639180Y-97706498D01*
X131519482Y-97670188D01*
X131395000Y-97657928D01*
X131380750Y-97661000D01*
X131222000Y-97819750D01*
X131222000Y-98969000D01*
X132238000Y-98969000D01*
X132238000Y-98949000D01*
X132492000Y-98949000D01*
X132492000Y-98969000D01*
X132512000Y-98969000D01*
X132512000Y-99223000D01*
X132492000Y-99223000D01*
X132492000Y-100372250D01*
X132650750Y-100531000D01*
X132665000Y-100534072D01*
X132789482Y-100521812D01*
X132909180Y-100485502D01*
X133019494Y-100426537D01*
X133049064Y-100402270D01*
X133183418Y-100474084D01*
X133331255Y-100518929D01*
X133485000Y-100534072D01*
X133785000Y-100534072D01*
X133938745Y-100518929D01*
X134086582Y-100474084D01*
X134220936Y-100402270D01*
X134250506Y-100426537D01*
X134360820Y-100485502D01*
X134480518Y-100521812D01*
X134605000Y-100534072D01*
X134619250Y-100531000D01*
X134778000Y-100372250D01*
X134778000Y-99223000D01*
X135032000Y-99223000D01*
X135032000Y-100372250D01*
X135190750Y-100531000D01*
X135205000Y-100534072D01*
X135329482Y-100521812D01*
X135449180Y-100485502D01*
X135540000Y-100436957D01*
X135630820Y-100485502D01*
X135750518Y-100521812D01*
X135875000Y-100534072D01*
X135889250Y-100531000D01*
X136048000Y-100372250D01*
X136048000Y-99223000D01*
X136302000Y-99223000D01*
X136302000Y-100372250D01*
X136460750Y-100531000D01*
X136475000Y-100534072D01*
X136599482Y-100521812D01*
X136719180Y-100485502D01*
X136829494Y-100426537D01*
X136926185Y-100347185D01*
X137005537Y-100250494D01*
X137064502Y-100140180D01*
X137100812Y-100020482D01*
X137113072Y-99896000D01*
X137110000Y-99381750D01*
X136951250Y-99223000D01*
X136302000Y-99223000D01*
X136048000Y-99223000D01*
X135032000Y-99223000D01*
X134778000Y-99223000D01*
X134758000Y-99223000D01*
X134758000Y-98969000D01*
X134778000Y-98969000D01*
X134778000Y-98949000D01*
X135032000Y-98949000D01*
X135032000Y-98969000D01*
X136048000Y-98969000D01*
X136048000Y-97819750D01*
X136302000Y-97819750D01*
X136302000Y-98969000D01*
X136951250Y-98969000D01*
X137110000Y-98810250D01*
X137113072Y-98296000D01*
X137100812Y-98171518D01*
X137064502Y-98051820D01*
X137029320Y-97986000D01*
X137306928Y-97986000D01*
X137319188Y-98110482D01*
X137355498Y-98230180D01*
X137414463Y-98340494D01*
X137493815Y-98437185D01*
X137590506Y-98516537D01*
X137700820Y-98575502D01*
X137820518Y-98611812D01*
X137945000Y-98624072D01*
X138534250Y-98621000D01*
X138693000Y-98462250D01*
X138693000Y-97400500D01*
X138947000Y-97400500D01*
X138947000Y-98462250D01*
X139105750Y-98621000D01*
X139695000Y-98624072D01*
X139819482Y-98611812D01*
X139939180Y-98575502D01*
X140049494Y-98516537D01*
X140146185Y-98437185D01*
X140225537Y-98340494D01*
X140284502Y-98230180D01*
X140320812Y-98110482D01*
X140333072Y-97986000D01*
X140330000Y-97559250D01*
X140171250Y-97400500D01*
X138947000Y-97400500D01*
X138693000Y-97400500D01*
X137468750Y-97400500D01*
X137310000Y-97559250D01*
X137306928Y-97986000D01*
X137029320Y-97986000D01*
X137005537Y-97941506D01*
X136926185Y-97844815D01*
X136829494Y-97765463D01*
X136719180Y-97706498D01*
X136599482Y-97670188D01*
X136475000Y-97657928D01*
X136460750Y-97661000D01*
X136302000Y-97819750D01*
X136048000Y-97819750D01*
X135889250Y-97661000D01*
X135875000Y-97657928D01*
X135750518Y-97670188D01*
X135630820Y-97706498D01*
X135540000Y-97755043D01*
X135449180Y-97706498D01*
X135329482Y-97670188D01*
X135205000Y-97657928D01*
X135190750Y-97661000D01*
X135032002Y-97819748D01*
X135032002Y-97661000D01*
X134960202Y-97661000D01*
X135167802Y-97453400D01*
X135229939Y-97453400D01*
X135429898Y-97413626D01*
X135618256Y-97335605D01*
X135787774Y-97222337D01*
X135931937Y-97078174D01*
X136045205Y-96908656D01*
X136123226Y-96720298D01*
X136154912Y-96561000D01*
X137306928Y-96561000D01*
X137310000Y-96987750D01*
X137468750Y-97146500D01*
X138693000Y-97146500D01*
X138693000Y-96084750D01*
X138947000Y-96084750D01*
X138947000Y-97146500D01*
X140171250Y-97146500D01*
X140330000Y-96987750D01*
X140333072Y-96561000D01*
X140320812Y-96436518D01*
X140284502Y-96316820D01*
X140225537Y-96206506D01*
X140146185Y-96109815D01*
X140049494Y-96030463D01*
X139939180Y-95971498D01*
X139819482Y-95935188D01*
X139695000Y-95922928D01*
X139105750Y-95926000D01*
X138947000Y-96084750D01*
X138693000Y-96084750D01*
X138534250Y-95926000D01*
X137945000Y-95922928D01*
X137820518Y-95935188D01*
X137700820Y-95971498D01*
X137590506Y-96030463D01*
X137493815Y-96109815D01*
X137414463Y-96206506D01*
X137355498Y-96316820D01*
X137319188Y-96436518D01*
X137306928Y-96561000D01*
X136154912Y-96561000D01*
X136163000Y-96520339D01*
X136163000Y-96316461D01*
X136123226Y-96116502D01*
X136045205Y-95928144D01*
X135931937Y-95758626D01*
X135787774Y-95614463D01*
X135618256Y-95501195D01*
X135429898Y-95423174D01*
X135229939Y-95383400D01*
X135026061Y-95383400D01*
X134826102Y-95423174D01*
X134637744Y-95501195D01*
X134468226Y-95614463D01*
X134324063Y-95758626D01*
X134210795Y-95928144D01*
X134132774Y-96116502D01*
X134093000Y-96316461D01*
X134093000Y-96378598D01*
X133464775Y-97006824D01*
X133470600Y-96977539D01*
X133470600Y-96773661D01*
X133430826Y-96573702D01*
X133352805Y-96385344D01*
X133239537Y-96215826D01*
X133195600Y-96171889D01*
X133195600Y-95717201D01*
X134146003Y-94766799D01*
X134175001Y-94743001D01*
X134269974Y-94627276D01*
X134340546Y-94495247D01*
X134384003Y-94351986D01*
X134395000Y-94240333D01*
X134395000Y-94240325D01*
X134398676Y-94203000D01*
X134395000Y-94165675D01*
X134395000Y-93942859D01*
X134453418Y-93974084D01*
X134601255Y-94018929D01*
X134755000Y-94034072D01*
X135055000Y-94034072D01*
X135208745Y-94018929D01*
X135356582Y-93974084D01*
X135492829Y-93901258D01*
X135540000Y-93862546D01*
X135587171Y-93901258D01*
X135723418Y-93974084D01*
X135871255Y-94018929D01*
X136025000Y-94034072D01*
X136325000Y-94034072D01*
X136478745Y-94018929D01*
X136512798Y-94008599D01*
X137311487Y-94807289D01*
X137323992Y-94934254D01*
X137374528Y-95100850D01*
X137456595Y-95254386D01*
X137567038Y-95388962D01*
X137701614Y-95499405D01*
X137855150Y-95581472D01*
X138021746Y-95632008D01*
X138195000Y-95649072D01*
X139445000Y-95649072D01*
X139618254Y-95632008D01*
X139784850Y-95581472D01*
X139861956Y-95540258D01*
X140285905Y-95964208D01*
X140309699Y-95993201D01*
X140338692Y-96016995D01*
X140338696Y-96016999D01*
X140338707Y-96017008D01*
X144502301Y-100180603D01*
X144526099Y-100209601D01*
X144555097Y-100233399D01*
X144641823Y-100304574D01*
X144768435Y-100372250D01*
X144773853Y-100375146D01*
X144917114Y-100418603D01*
X145028767Y-100429600D01*
X145028776Y-100429600D01*
X145066099Y-100433276D01*
X145103422Y-100429600D01*
X145905089Y-100429600D01*
X145949026Y-100473537D01*
X146118544Y-100586805D01*
X146306902Y-100664826D01*
X146506861Y-100704600D01*
X146710739Y-100704600D01*
X146910698Y-100664826D01*
X147099056Y-100586805D01*
X147268574Y-100473537D01*
X147412737Y-100329374D01*
X147526005Y-100159856D01*
X147604026Y-99971498D01*
X147643800Y-99771539D01*
X147643800Y-99567661D01*
X147604026Y-99367702D01*
X147526005Y-99179344D01*
X147412737Y-99009826D01*
X147268574Y-98865663D01*
X147099056Y-98752395D01*
X146910698Y-98674374D01*
X146710739Y-98634600D01*
X146506861Y-98634600D01*
X146306902Y-98674374D01*
X146118544Y-98752395D01*
X145949026Y-98865663D01*
X145905089Y-98909600D01*
X145380902Y-98909600D01*
X142684501Y-96213200D01*
X153226478Y-96213200D01*
X153263800Y-96216876D01*
X153301122Y-96213200D01*
X153301133Y-96213200D01*
X153412786Y-96202203D01*
X153556047Y-96158746D01*
X153688076Y-96088174D01*
X153803801Y-95993201D01*
X153827604Y-95964197D01*
X155022730Y-94769072D01*
X155048500Y-94769072D01*
X155221754Y-94752008D01*
X155388350Y-94701472D01*
X155541886Y-94619405D01*
X155676462Y-94508962D01*
X155765575Y-94400377D01*
X156959242Y-95594044D01*
X156918028Y-95671150D01*
X156867492Y-95837746D01*
X156850428Y-96011000D01*
X156850428Y-97261000D01*
X156867492Y-97434254D01*
X156918028Y-97600850D01*
X156990637Y-97736692D01*
X156957963Y-97776506D01*
X156898998Y-97886820D01*
X156862688Y-98006518D01*
X156850428Y-98131000D01*
X156853500Y-98720250D01*
X157012250Y-98879000D01*
X158074000Y-98879000D01*
X158074000Y-98859000D01*
X158328000Y-98859000D01*
X158328000Y-98879000D01*
X158348000Y-98879000D01*
X158348000Y-99133000D01*
X158328000Y-99133000D01*
X158328000Y-99153000D01*
X158074000Y-99153000D01*
X158074000Y-99133000D01*
X157012250Y-99133000D01*
X156853500Y-99291750D01*
X156852696Y-99446010D01*
X150884913Y-99446010D01*
X150847590Y-99442334D01*
X150810267Y-99446010D01*
X150810257Y-99446010D01*
X150698604Y-99457007D01*
X150555343Y-99500464D01*
X150423313Y-99571036D01*
X150344154Y-99636001D01*
X150307589Y-99666009D01*
X150283791Y-99695007D01*
X145959399Y-104019400D01*
X145897261Y-104019400D01*
X145697302Y-104059174D01*
X145508944Y-104137195D01*
X145339426Y-104250463D01*
X145195263Y-104394626D01*
X145081995Y-104564144D01*
X145003974Y-104752502D01*
X144964200Y-104952461D01*
X144964200Y-105156339D01*
X145003974Y-105356298D01*
X145081995Y-105544656D01*
X145195263Y-105714174D01*
X145339426Y-105858337D01*
X145508944Y-105971605D01*
X145588909Y-106004728D01*
X145149200Y-106004728D01*
X145024718Y-106016988D01*
X144905020Y-106053298D01*
X144794706Y-106112263D01*
X144698015Y-106191615D01*
X144618663Y-106288306D01*
X144559698Y-106398620D01*
X144523388Y-106518318D01*
X144511128Y-106642800D01*
X144511128Y-108342800D01*
X144523388Y-108467282D01*
X144559698Y-108586980D01*
X144618663Y-108697294D01*
X144698015Y-108793985D01*
X144794706Y-108873337D01*
X144905020Y-108932302D01*
X145024718Y-108968612D01*
X145149200Y-108980872D01*
X146849200Y-108980872D01*
X146973682Y-108968612D01*
X147093380Y-108932302D01*
X147203694Y-108873337D01*
X147300385Y-108793985D01*
X147379737Y-108697294D01*
X147438702Y-108586980D01*
X147460713Y-108514420D01*
X147592568Y-108646275D01*
X147835789Y-108808790D01*
X148106042Y-108920732D01*
X148392940Y-108977800D01*
X148685460Y-108977800D01*
X148972358Y-108920732D01*
X149242611Y-108808790D01*
X149485832Y-108646275D01*
X149692675Y-108439432D01*
X149809200Y-108265040D01*
X149925725Y-108439432D01*
X150132568Y-108646275D01*
X150375789Y-108808790D01*
X150646042Y-108920732D01*
X150932940Y-108977800D01*
X151225460Y-108977800D01*
X151512358Y-108920732D01*
X151782611Y-108808790D01*
X152025832Y-108646275D01*
X152232675Y-108439432D01*
X152349200Y-108265040D01*
X152465725Y-108439432D01*
X152672568Y-108646275D01*
X152915789Y-108808790D01*
X153186042Y-108920732D01*
X153472940Y-108977800D01*
X153765460Y-108977800D01*
X154052358Y-108920732D01*
X154322611Y-108808790D01*
X154565832Y-108646275D01*
X154772675Y-108439432D01*
X154889200Y-108265040D01*
X155005725Y-108439432D01*
X155212568Y-108646275D01*
X155455789Y-108808790D01*
X155726042Y-108920732D01*
X156012940Y-108977800D01*
X156305460Y-108977800D01*
X156592358Y-108920732D01*
X156862611Y-108808790D01*
X157105832Y-108646275D01*
X157312675Y-108439432D01*
X157429200Y-108265040D01*
X157545725Y-108439432D01*
X157752568Y-108646275D01*
X157995789Y-108808790D01*
X158266042Y-108920732D01*
X158552940Y-108977800D01*
X158845460Y-108977800D01*
X159132358Y-108920732D01*
X159402611Y-108808790D01*
X159645832Y-108646275D01*
X159852675Y-108439432D01*
X159969200Y-108265040D01*
X160085725Y-108439432D01*
X160292568Y-108646275D01*
X160535789Y-108808790D01*
X160806042Y-108920732D01*
X161092940Y-108977800D01*
X161385460Y-108977800D01*
X161672358Y-108920732D01*
X161942611Y-108808790D01*
X162185832Y-108646275D01*
X162392675Y-108439432D01*
X162509200Y-108265040D01*
X162625725Y-108439432D01*
X162832568Y-108646275D01*
X163075789Y-108808790D01*
X163346042Y-108920732D01*
X163632940Y-108977800D01*
X163925460Y-108977800D01*
X164212358Y-108920732D01*
X164482611Y-108808790D01*
X164725832Y-108646275D01*
X164932675Y-108439432D01*
X165095190Y-108196211D01*
X165207132Y-107925958D01*
X165264200Y-107639060D01*
X165264200Y-107346540D01*
X165207132Y-107059642D01*
X165095190Y-106789389D01*
X164932675Y-106546168D01*
X164725832Y-106339325D01*
X164482611Y-106176810D01*
X164212358Y-106064868D01*
X163925460Y-106007800D01*
X163632940Y-106007800D01*
X163346042Y-106064868D01*
X163075789Y-106176810D01*
X162832568Y-106339325D01*
X162625725Y-106546168D01*
X162509200Y-106720560D01*
X162392675Y-106546168D01*
X162185832Y-106339325D01*
X161942611Y-106176810D01*
X161672358Y-106064868D01*
X161385460Y-106007800D01*
X161092940Y-106007800D01*
X160806042Y-106064868D01*
X160535789Y-106176810D01*
X160292568Y-106339325D01*
X160085725Y-106546168D01*
X159969200Y-106720560D01*
X159852675Y-106546168D01*
X159645832Y-106339325D01*
X159402611Y-106176810D01*
X159132358Y-106064868D01*
X158845460Y-106007800D01*
X158552940Y-106007800D01*
X158266042Y-106064868D01*
X157995789Y-106176810D01*
X157752568Y-106339325D01*
X157545725Y-106546168D01*
X157429200Y-106720560D01*
X157312675Y-106546168D01*
X157105832Y-106339325D01*
X156862611Y-106176810D01*
X156592358Y-106064868D01*
X156305460Y-106007800D01*
X156012940Y-106007800D01*
X155726042Y-106064868D01*
X155455789Y-106176810D01*
X155212568Y-106339325D01*
X155005725Y-106546168D01*
X154889200Y-106720560D01*
X154772675Y-106546168D01*
X154565832Y-106339325D01*
X154322611Y-106176810D01*
X154052358Y-106064868D01*
X153765460Y-106007800D01*
X153472940Y-106007800D01*
X153186042Y-106064868D01*
X152915789Y-106176810D01*
X152672568Y-106339325D01*
X152465725Y-106546168D01*
X152349200Y-106720560D01*
X152232675Y-106546168D01*
X152025832Y-106339325D01*
X151782611Y-106176810D01*
X151512358Y-106064868D01*
X151225460Y-106007800D01*
X150932940Y-106007800D01*
X150646042Y-106064868D01*
X150375789Y-106176810D01*
X150132568Y-106339325D01*
X149925725Y-106546168D01*
X149809200Y-106720560D01*
X149692675Y-106546168D01*
X149485832Y-106339325D01*
X149242611Y-106176810D01*
X148972358Y-106064868D01*
X148919215Y-106054297D01*
X148942698Y-106049626D01*
X149131056Y-105971605D01*
X149300574Y-105858337D01*
X149344511Y-105814400D01*
X154652378Y-105814400D01*
X154689700Y-105818076D01*
X154727022Y-105814400D01*
X154727033Y-105814400D01*
X154838686Y-105803403D01*
X154981947Y-105759946D01*
X155113976Y-105689374D01*
X155229701Y-105594401D01*
X155253504Y-105565397D01*
X159194011Y-101624890D01*
X167944524Y-101624890D01*
X167989175Y-101772099D01*
X168114359Y-102034920D01*
X168288412Y-102268269D01*
X168504645Y-102463178D01*
X168754748Y-102612157D01*
X169029109Y-102709481D01*
X169259000Y-102588814D01*
X169259000Y-101395000D01*
X169513000Y-101395000D01*
X169513000Y-102588814D01*
X169742891Y-102709481D01*
X170017252Y-102612157D01*
X170267355Y-102463178D01*
X170483588Y-102268269D01*
X170657641Y-102034920D01*
X170782825Y-101772099D01*
X170827476Y-101624890D01*
X170706155Y-101395000D01*
X169513000Y-101395000D01*
X169259000Y-101395000D01*
X168065845Y-101395000D01*
X167944524Y-101624890D01*
X159194011Y-101624890D01*
X160369597Y-100449305D01*
X160373650Y-100451472D01*
X160540246Y-100502008D01*
X160713500Y-100519072D01*
X161638500Y-100519072D01*
X161811754Y-100502008D01*
X161978350Y-100451472D01*
X162131886Y-100369405D01*
X162266462Y-100258962D01*
X162376905Y-100124386D01*
X162458972Y-99970850D01*
X162509508Y-99804254D01*
X162513276Y-99766000D01*
X165830660Y-99766000D01*
X165915702Y-99801226D01*
X166115661Y-99841000D01*
X166319539Y-99841000D01*
X166519498Y-99801226D01*
X166707856Y-99723205D01*
X166877374Y-99609937D01*
X167021537Y-99465774D01*
X167134805Y-99296256D01*
X167212826Y-99107898D01*
X167252600Y-98907939D01*
X167252600Y-98704061D01*
X167212826Y-98504102D01*
X167134805Y-98315744D01*
X167021537Y-98146226D01*
X166877374Y-98002063D01*
X166707856Y-97888795D01*
X166519498Y-97810774D01*
X166415059Y-97790000D01*
X166519498Y-97769226D01*
X166707856Y-97691205D01*
X166877374Y-97577937D01*
X167021537Y-97433774D01*
X167134805Y-97264256D01*
X167212826Y-97075898D01*
X167252600Y-96875939D01*
X167252600Y-96672061D01*
X167212826Y-96472102D01*
X167134805Y-96283744D01*
X167021537Y-96114226D01*
X166877374Y-95970063D01*
X166707856Y-95856795D01*
X166519498Y-95778774D01*
X166319539Y-95739000D01*
X166115661Y-95739000D01*
X165915702Y-95778774D01*
X165727344Y-95856795D01*
X165698602Y-95876000D01*
X162513276Y-95876000D01*
X162509508Y-95837746D01*
X162458972Y-95671150D01*
X162376905Y-95517614D01*
X162266462Y-95383038D01*
X162131886Y-95272595D01*
X161978350Y-95190528D01*
X161811754Y-95139992D01*
X161638500Y-95122928D01*
X160898490Y-95122928D01*
X160898490Y-94785911D01*
X161888602Y-93795800D01*
X161950739Y-93795800D01*
X162150698Y-93756026D01*
X162339056Y-93678005D01*
X162508574Y-93564737D01*
X162652737Y-93420574D01*
X162766005Y-93251056D01*
X162844026Y-93062698D01*
X162883800Y-92862739D01*
X162883800Y-92658861D01*
X162844026Y-92458902D01*
X162766005Y-92270544D01*
X162652737Y-92101026D01*
X162508574Y-91956863D01*
X162339056Y-91843595D01*
X162198749Y-91785477D01*
X162252298Y-91774826D01*
X162440656Y-91696805D01*
X162610174Y-91583537D01*
X162754337Y-91439374D01*
X162867605Y-91269856D01*
X162945626Y-91081498D01*
X162985400Y-90881539D01*
X162985400Y-90677661D01*
X162945626Y-90477702D01*
X162867605Y-90289344D01*
X162754337Y-90119826D01*
X162610174Y-89975663D01*
X162440656Y-89862395D01*
X162252298Y-89784374D01*
X162052339Y-89744600D01*
X161848461Y-89744600D01*
X161648502Y-89784374D01*
X161460144Y-89862395D01*
X161290626Y-89975663D01*
X161146463Y-90119826D01*
X161033195Y-90289344D01*
X160955174Y-90477702D01*
X160915400Y-90677661D01*
X160915400Y-90739797D01*
X158848598Y-92806601D01*
X158819600Y-92830399D01*
X158795802Y-92859397D01*
X158795801Y-92859398D01*
X158724626Y-92946124D01*
X158654054Y-93078154D01*
X158630501Y-93155800D01*
X158610598Y-93221414D01*
X158604170Y-93286676D01*
X158595924Y-93370400D01*
X158599601Y-93407732D01*
X158599601Y-95084799D01*
X156259804Y-92745003D01*
X156236001Y-92715999D01*
X156120276Y-92621026D01*
X155988247Y-92550454D01*
X155926803Y-92531816D01*
X155919508Y-92457746D01*
X155868972Y-92291150D01*
X155786905Y-92137614D01*
X155676462Y-92003038D01*
X155541886Y-91892595D01*
X155536111Y-91889508D01*
X155548962Y-91878962D01*
X155659405Y-91744386D01*
X155741472Y-91590850D01*
X155792008Y-91424254D01*
X155809072Y-91251000D01*
X155809072Y-90001000D01*
X155792008Y-89827746D01*
X155741472Y-89661150D01*
X155659405Y-89507614D01*
X155548962Y-89373038D01*
X155489351Y-89324117D01*
X155579405Y-89214386D01*
X155661472Y-89060850D01*
X155712008Y-88894254D01*
X155729072Y-88721000D01*
X155729072Y-88532729D01*
X163947401Y-80314401D01*
X168092371Y-80314401D01*
X168092525Y-80314632D01*
X168299368Y-80521475D01*
X168481534Y-80643195D01*
X168364645Y-80712822D01*
X168148412Y-80907731D01*
X167974359Y-81141080D01*
X167849175Y-81403901D01*
X167804524Y-81551110D01*
X167925845Y-81781000D01*
X169119000Y-81781000D01*
X169119000Y-81761000D01*
X169373000Y-81761000D01*
X169373000Y-81781000D01*
X169393000Y-81781000D01*
X169393000Y-82035000D01*
X169373000Y-82035000D01*
X169373000Y-82055000D01*
X169119000Y-82055000D01*
X169119000Y-82035000D01*
X167925845Y-82035000D01*
X167804524Y-82264890D01*
X167849175Y-82412099D01*
X167974359Y-82674920D01*
X168148412Y-82908269D01*
X168364645Y-83103178D01*
X168481534Y-83172805D01*
X168299368Y-83294525D01*
X168092525Y-83501368D01*
X167930010Y-83744589D01*
X167818068Y-84014842D01*
X167761000Y-84301740D01*
X167761000Y-84594260D01*
X167818068Y-84881158D01*
X167930010Y-85151411D01*
X168092525Y-85394632D01*
X168224380Y-85526487D01*
X168151820Y-85548498D01*
X168041506Y-85607463D01*
X167944815Y-85686815D01*
X167865463Y-85783506D01*
X167806498Y-85893820D01*
X167770188Y-86013518D01*
X167757928Y-86138000D01*
X167757928Y-87838000D01*
X167770188Y-87962482D01*
X167806498Y-88082180D01*
X167865463Y-88192494D01*
X167944815Y-88289185D01*
X168041506Y-88368537D01*
X168151820Y-88427502D01*
X168271518Y-88463812D01*
X168396000Y-88476072D01*
X169661001Y-88476072D01*
X169661001Y-90983197D01*
X169409222Y-91234977D01*
X169384386Y-91214595D01*
X169230850Y-91132528D01*
X169064254Y-91081992D01*
X168891000Y-91064928D01*
X168141000Y-91064928D01*
X167967746Y-91081992D01*
X167801150Y-91132528D01*
X167647614Y-91214595D01*
X167513038Y-91325038D01*
X167402595Y-91459614D01*
X167320528Y-91613150D01*
X167269992Y-91779746D01*
X167252928Y-91953000D01*
X167252928Y-93203000D01*
X167269992Y-93376254D01*
X167320528Y-93542850D01*
X167402595Y-93696386D01*
X167513038Y-93830962D01*
X167647614Y-93941405D01*
X167801150Y-94023472D01*
X167967746Y-94074008D01*
X168141000Y-94091072D01*
X168891000Y-94091072D01*
X169064254Y-94074008D01*
X169230850Y-94023472D01*
X169384386Y-93941405D01*
X169518962Y-93830962D01*
X169629405Y-93696386D01*
X169711472Y-93542850D01*
X169762008Y-93376254D01*
X169779072Y-93203000D01*
X169779072Y-93014729D01*
X170052928Y-92740873D01*
X170052928Y-93203000D01*
X170069992Y-93376254D01*
X170120528Y-93542850D01*
X170202595Y-93696386D01*
X170313038Y-93830962D01*
X170447614Y-93941405D01*
X170556001Y-93999339D01*
X170556001Y-94789026D01*
X170480180Y-94748498D01*
X170360482Y-94712188D01*
X170236000Y-94699928D01*
X168536000Y-94699928D01*
X168411518Y-94712188D01*
X168291820Y-94748498D01*
X168181506Y-94807463D01*
X168084815Y-94886815D01*
X168005463Y-94983506D01*
X167946498Y-95093820D01*
X167910188Y-95213518D01*
X167897928Y-95338000D01*
X167897928Y-97038000D01*
X167910188Y-97162482D01*
X167946498Y-97282180D01*
X168005463Y-97392494D01*
X168084815Y-97489185D01*
X168181506Y-97568537D01*
X168291820Y-97627502D01*
X168364380Y-97649513D01*
X168232525Y-97781368D01*
X168070010Y-98024589D01*
X167958068Y-98294842D01*
X167901000Y-98581740D01*
X167901000Y-98874260D01*
X167958068Y-99161158D01*
X168070010Y-99431411D01*
X168232525Y-99674632D01*
X168439368Y-99881475D01*
X168621534Y-100003195D01*
X168504645Y-100072822D01*
X168288412Y-100267731D01*
X168114359Y-100501080D01*
X167989175Y-100763901D01*
X167944524Y-100911110D01*
X168065845Y-101141000D01*
X169259000Y-101141000D01*
X169259000Y-101121000D01*
X169513000Y-101121000D01*
X169513000Y-101141000D01*
X170706155Y-101141000D01*
X170827476Y-100911110D01*
X170782825Y-100763901D01*
X170657641Y-100501080D01*
X170483588Y-100267731D01*
X170267355Y-100072822D01*
X170150466Y-100003195D01*
X170332632Y-99881475D01*
X170539475Y-99674632D01*
X170701990Y-99431411D01*
X170813932Y-99161158D01*
X170871000Y-98874260D01*
X170871000Y-98581740D01*
X170813932Y-98294842D01*
X170701990Y-98024589D01*
X170539475Y-97781368D01*
X170407620Y-97649513D01*
X170480180Y-97627502D01*
X170590494Y-97568537D01*
X170687185Y-97489185D01*
X170766537Y-97392494D01*
X170825502Y-97282180D01*
X170861812Y-97162482D01*
X170874072Y-97038000D01*
X170874072Y-96842326D01*
X170910276Y-96822974D01*
X171026001Y-96728001D01*
X171049803Y-96698998D01*
X171827002Y-95921799D01*
X171856001Y-95898001D01*
X171950974Y-95782276D01*
X172021546Y-95650247D01*
X172065003Y-95506986D01*
X172076000Y-95395333D01*
X172076000Y-95395324D01*
X172079676Y-95358001D01*
X172076000Y-95320678D01*
X172076000Y-93999339D01*
X172184386Y-93941405D01*
X172318962Y-93830962D01*
X172429405Y-93696386D01*
X172511472Y-93542850D01*
X172562008Y-93376254D01*
X172568000Y-93315411D01*
X172568001Y-111608000D01*
X102260000Y-111608000D01*
X102260000Y-98813002D01*
X102393768Y-98813002D01*
X102269038Y-99003609D01*
X102272909Y-99041282D01*
X102365079Y-99266533D01*
X102499422Y-99469474D01*
X102670775Y-99642307D01*
X102872554Y-99778390D01*
X103097004Y-99872493D01*
X103335500Y-99921000D01*
X103685500Y-99921000D01*
X103685500Y-98813000D01*
X103939500Y-98813000D01*
X103939500Y-99921000D01*
X104289500Y-99921000D01*
X104527996Y-99872493D01*
X104752446Y-99778390D01*
X104954225Y-99642307D01*
X105125578Y-99469474D01*
X105259921Y-99266533D01*
X105352091Y-99041282D01*
X105355962Y-99003609D01*
X105231231Y-98813000D01*
X103939500Y-98813000D01*
X103685500Y-98813000D01*
X103665500Y-98813000D01*
X103665500Y-98625133D01*
X105752972Y-98625133D01*
X105815465Y-98861450D01*
X106058178Y-98974850D01*
X106318349Y-99038719D01*
X106585982Y-99050604D01*
X106850791Y-99010048D01*
X107102600Y-98918609D01*
X107209535Y-98861450D01*
X107272028Y-98625133D01*
X106512500Y-97865605D01*
X105752972Y-98625133D01*
X103665500Y-98625133D01*
X103665500Y-98559000D01*
X103685500Y-98559000D01*
X103685500Y-97451000D01*
X103939500Y-97451000D01*
X103939500Y-98559000D01*
X105231231Y-98559000D01*
X105345003Y-98385138D01*
X105573367Y-98445528D01*
X106332895Y-97686000D01*
X106692105Y-97686000D01*
X107451633Y-98445528D01*
X107687950Y-98383035D01*
X107801350Y-98140322D01*
X107865219Y-97880151D01*
X107877104Y-97612518D01*
X107836548Y-97347709D01*
X107745109Y-97095900D01*
X107687950Y-96988965D01*
X107451633Y-96926472D01*
X106692105Y-97686000D01*
X106332895Y-97686000D01*
X105573367Y-96926472D01*
X105337050Y-96988965D01*
X105223650Y-97231678D01*
X105159781Y-97491849D01*
X105147896Y-97759482D01*
X105183115Y-97989442D01*
X105125578Y-97902526D01*
X104954225Y-97729693D01*
X104752446Y-97593610D01*
X104527996Y-97499507D01*
X104289500Y-97451000D01*
X103939500Y-97451000D01*
X103685500Y-97451000D01*
X103335500Y-97451000D01*
X103097004Y-97499507D01*
X102872554Y-97593610D01*
X102670775Y-97729693D01*
X102499422Y-97902526D01*
X102365079Y-98105467D01*
X102272909Y-98330718D01*
X102269038Y-98368391D01*
X102393768Y-98558998D01*
X102260000Y-98558998D01*
X102260000Y-96746867D01*
X105752972Y-96746867D01*
X106512500Y-97506395D01*
X107272028Y-96746867D01*
X107209535Y-96510550D01*
X106966822Y-96397150D01*
X106706651Y-96333281D01*
X106439018Y-96321396D01*
X106174209Y-96361952D01*
X105922400Y-96453391D01*
X105815465Y-96510550D01*
X105752972Y-96746867D01*
X102260000Y-96746867D01*
X102260000Y-93625133D01*
X105752972Y-93625133D01*
X105815465Y-93861450D01*
X106058178Y-93974850D01*
X106318349Y-94038719D01*
X106585982Y-94050604D01*
X106850791Y-94010048D01*
X107102600Y-93918609D01*
X107209535Y-93861450D01*
X107272028Y-93625133D01*
X106512500Y-92865605D01*
X105752972Y-93625133D01*
X102260000Y-93625133D01*
X102260000Y-91813002D01*
X102393768Y-91813002D01*
X102269038Y-92003609D01*
X102272909Y-92041282D01*
X102365079Y-92266533D01*
X102499422Y-92469474D01*
X102670775Y-92642307D01*
X102872554Y-92778390D01*
X103097004Y-92872493D01*
X103335500Y-92921000D01*
X103685500Y-92921000D01*
X103685500Y-91813000D01*
X103939500Y-91813000D01*
X103939500Y-92921000D01*
X104289500Y-92921000D01*
X104527996Y-92872493D01*
X104752446Y-92778390D01*
X104954225Y-92642307D01*
X105125578Y-92469474D01*
X105188671Y-92374164D01*
X105159781Y-92491849D01*
X105147896Y-92759482D01*
X105188452Y-93024291D01*
X105279891Y-93276100D01*
X105337050Y-93383035D01*
X105573367Y-93445528D01*
X106332895Y-92686000D01*
X106692105Y-92686000D01*
X107451633Y-93445528D01*
X107638922Y-93396000D01*
X126346928Y-93396000D01*
X126359188Y-93520482D01*
X126395498Y-93640180D01*
X126454463Y-93750494D01*
X126533815Y-93847185D01*
X126630506Y-93926537D01*
X126740820Y-93985502D01*
X126860518Y-94021812D01*
X126985000Y-94034072D01*
X126999250Y-94031000D01*
X127158000Y-93872250D01*
X127158000Y-92723000D01*
X126508750Y-92723000D01*
X126350000Y-92881750D01*
X126346928Y-93396000D01*
X107638922Y-93396000D01*
X107687950Y-93383035D01*
X107801350Y-93140322D01*
X107865219Y-92880151D01*
X107877104Y-92612518D01*
X107836548Y-92347709D01*
X107745109Y-92095900D01*
X107687950Y-91988965D01*
X107451633Y-91926472D01*
X106692105Y-92686000D01*
X106332895Y-92686000D01*
X105573367Y-91926472D01*
X105345003Y-91986862D01*
X105231231Y-91813000D01*
X103939500Y-91813000D01*
X103685500Y-91813000D01*
X103665500Y-91813000D01*
X103665500Y-91746867D01*
X105752972Y-91746867D01*
X106512500Y-92506395D01*
X107222895Y-91796000D01*
X126346928Y-91796000D01*
X126350000Y-92310250D01*
X126508750Y-92469000D01*
X127158000Y-92469000D01*
X127158000Y-91319750D01*
X126999250Y-91161000D01*
X126985000Y-91157928D01*
X126860518Y-91170188D01*
X126740820Y-91206498D01*
X126630506Y-91265463D01*
X126533815Y-91344815D01*
X126454463Y-91441506D01*
X126395498Y-91551820D01*
X126359188Y-91671518D01*
X126346928Y-91796000D01*
X107222895Y-91796000D01*
X107272028Y-91746867D01*
X107209535Y-91510550D01*
X106966822Y-91397150D01*
X106706651Y-91333281D01*
X106439018Y-91321396D01*
X106174209Y-91361952D01*
X105922400Y-91453391D01*
X105815465Y-91510550D01*
X105752972Y-91746867D01*
X103665500Y-91746867D01*
X103665500Y-91559000D01*
X103685500Y-91559000D01*
X103685500Y-90451000D01*
X103939500Y-90451000D01*
X103939500Y-91559000D01*
X105231231Y-91559000D01*
X105355962Y-91368391D01*
X105352091Y-91330718D01*
X105259921Y-91105467D01*
X105125578Y-90902526D01*
X104954225Y-90729693D01*
X104752446Y-90593610D01*
X104527996Y-90499507D01*
X104289500Y-90451000D01*
X103939500Y-90451000D01*
X103685500Y-90451000D01*
X103335500Y-90451000D01*
X103097004Y-90499507D01*
X102872554Y-90593610D01*
X102670775Y-90729693D01*
X102499422Y-90902526D01*
X102365079Y-91105467D01*
X102272909Y-91330718D01*
X102269038Y-91368391D01*
X102393768Y-91558998D01*
X102260000Y-91558998D01*
X102260000Y-79414000D01*
X106207928Y-79414000D01*
X106211000Y-79978250D01*
X106369750Y-80137000D01*
X107569000Y-80137000D01*
X107569000Y-78937750D01*
X107823000Y-78937750D01*
X107823000Y-80137000D01*
X109022250Y-80137000D01*
X109181000Y-79978250D01*
X109184072Y-79414000D01*
X109171812Y-79289518D01*
X109135502Y-79169820D01*
X109076537Y-79059506D01*
X108997185Y-78962815D01*
X108900494Y-78883463D01*
X108790180Y-78824498D01*
X108670482Y-78788188D01*
X108546000Y-78775928D01*
X107981750Y-78779000D01*
X107823000Y-78937750D01*
X107569000Y-78937750D01*
X107410250Y-78779000D01*
X106846000Y-78775928D01*
X106721518Y-78788188D01*
X106601820Y-78824498D01*
X106491506Y-78883463D01*
X106394815Y-78962815D01*
X106315463Y-79059506D01*
X106256498Y-79169820D01*
X106220188Y-79289518D01*
X106207928Y-79414000D01*
X102260000Y-79414000D01*
X102260000Y-76860000D01*
X172568000Y-76860000D01*
X172568000Y-91840588D01*
G37*
X172568000Y-91840588D02*
X172562008Y-91779746D01*
X172511472Y-91613150D01*
X172429405Y-91459614D01*
X172318962Y-91325038D01*
X172184386Y-91214595D01*
X172030850Y-91132528D01*
X171864254Y-91081992D01*
X171691000Y-91064928D01*
X171181001Y-91064928D01*
X171181001Y-80580323D01*
X171184677Y-80543000D01*
X171181001Y-80505677D01*
X171181001Y-80505668D01*
X171170004Y-80394015D01*
X171126547Y-80250754D01*
X171055975Y-80118725D01*
X170961002Y-80003000D01*
X170931998Y-79979197D01*
X170687209Y-79734408D01*
X170731000Y-79514260D01*
X170731000Y-79221740D01*
X170673932Y-78934842D01*
X170561990Y-78664589D01*
X170399475Y-78421368D01*
X170192632Y-78214525D01*
X169949411Y-78052010D01*
X169679158Y-77940068D01*
X169392260Y-77883000D01*
X169099740Y-77883000D01*
X168812842Y-77940068D01*
X168542589Y-78052010D01*
X168299368Y-78214525D01*
X168092525Y-78421368D01*
X167930010Y-78664589D01*
X167876240Y-78794401D01*
X163669921Y-78794401D01*
X163632598Y-78790725D01*
X163595275Y-78794401D01*
X163595266Y-78794401D01*
X163483613Y-78805398D01*
X163343042Y-78848039D01*
X163340352Y-78848855D01*
X163208322Y-78919427D01*
X163128283Y-78985114D01*
X163092598Y-79014400D01*
X163068800Y-79043398D01*
X155359222Y-86752977D01*
X155334386Y-86732595D01*
X155180850Y-86650528D01*
X155014254Y-86599992D01*
X154841000Y-86582928D01*
X154091000Y-86582928D01*
X153917746Y-86599992D01*
X153751150Y-86650528D01*
X153597614Y-86732595D01*
X153463038Y-86843038D01*
X153352595Y-86977614D01*
X153270528Y-87131150D01*
X153219992Y-87297746D01*
X153202928Y-87471000D01*
X153202928Y-88721000D01*
X153219992Y-88894254D01*
X153270528Y-89060850D01*
X153352595Y-89214386D01*
X153463038Y-89348962D01*
X153522649Y-89397883D01*
X153432595Y-89507614D01*
X153350528Y-89661150D01*
X153299992Y-89827746D01*
X153282928Y-90001000D01*
X153282928Y-91251000D01*
X153299992Y-91424254D01*
X153350528Y-91590850D01*
X153432595Y-91744386D01*
X153543038Y-91878962D01*
X153594882Y-91921509D01*
X153495538Y-92003038D01*
X153385095Y-92137614D01*
X153303028Y-92291150D01*
X153252492Y-92457746D01*
X153235428Y-92631000D01*
X153235428Y-93881000D01*
X153252492Y-94054254D01*
X153303028Y-94220850D01*
X153344242Y-94297956D01*
X152948999Y-94693200D01*
X152428826Y-94693200D01*
X152566886Y-94619405D01*
X152701462Y-94508962D01*
X152811905Y-94374386D01*
X152893972Y-94220850D01*
X152944508Y-94054254D01*
X152961572Y-93881000D01*
X152961572Y-92631000D01*
X152944508Y-92457746D01*
X152893972Y-92291150D01*
X152811905Y-92137614D01*
X152701462Y-92003038D01*
X152649618Y-91960491D01*
X152748962Y-91878962D01*
X152859405Y-91744386D01*
X152941472Y-91590850D01*
X152992008Y-91424254D01*
X153009072Y-91251000D01*
X153009072Y-90001000D01*
X152992008Y-89827746D01*
X152941472Y-89661150D01*
X152859405Y-89507614D01*
X152748962Y-89373038D01*
X152689351Y-89324117D01*
X152779405Y-89214386D01*
X152861472Y-89060850D01*
X152912008Y-88894254D01*
X152929072Y-88721000D01*
X152929072Y-87471000D01*
X152912008Y-87297746D01*
X152861472Y-87131150D01*
X152779405Y-86977614D01*
X152668962Y-86843038D01*
X152534386Y-86732595D01*
X152380850Y-86650528D01*
X152214254Y-86599992D01*
X152041000Y-86582928D01*
X151291000Y-86582928D01*
X151117746Y-86599992D01*
X150951150Y-86650528D01*
X150797614Y-86732595D01*
X150663038Y-86843038D01*
X150552595Y-86977614D01*
X150470528Y-87131150D01*
X150419992Y-87297746D01*
X150416224Y-87336000D01*
X143599456Y-87336000D01*
X143645000Y-87107033D01*
X143645000Y-86784967D01*
X143582168Y-86469088D01*
X143458918Y-86171537D01*
X143279987Y-85903748D01*
X143052252Y-85676013D01*
X142784463Y-85497082D01*
X142770000Y-85491091D01*
X142770000Y-81900909D01*
X142784463Y-81894918D01*
X143052252Y-81715987D01*
X143279987Y-81488252D01*
X143458918Y-81220463D01*
X143582168Y-80922912D01*
X143645000Y-80607033D01*
X143645000Y-80284967D01*
X143582168Y-79969088D01*
X143458918Y-79671537D01*
X143279987Y-79403748D01*
X143052252Y-79176013D01*
X142784463Y-78997082D01*
X142486912Y-78873832D01*
X142171033Y-78811000D01*
X141848967Y-78811000D01*
X141533088Y-78873832D01*
X141235537Y-78997082D01*
X140967748Y-79176013D01*
X140740013Y-79403748D01*
X140561082Y-79671537D01*
X140437832Y-79969088D01*
X140375000Y-80284967D01*
X140375000Y-80607033D01*
X140437832Y-80922912D01*
X140561082Y-81220463D01*
X140740013Y-81488252D01*
X140967748Y-81715987D01*
X141235537Y-81894918D01*
X141250001Y-81900909D01*
X141250000Y-85491091D01*
X141235537Y-85497082D01*
X140967748Y-85676013D01*
X140740013Y-85903748D01*
X140561082Y-86171537D01*
X140437832Y-86469088D01*
X140375000Y-86784967D01*
X140375000Y-87107033D01*
X140437832Y-87422912D01*
X140561082Y-87720463D01*
X140740013Y-87988252D01*
X140967748Y-88215987D01*
X141235537Y-88394918D01*
X141533088Y-88518168D01*
X141848967Y-88581000D01*
X142171033Y-88581000D01*
X142486912Y-88518168D01*
X142501375Y-88512177D01*
X142596200Y-88607002D01*
X142619999Y-88636001D01*
X142648997Y-88659799D01*
X142735724Y-88730974D01*
X142867753Y-88801546D01*
X143011014Y-88845003D01*
X143160000Y-88859677D01*
X143197333Y-88856000D01*
X150416224Y-88856000D01*
X150419992Y-88894254D01*
X150470528Y-89060850D01*
X150552595Y-89214386D01*
X150663038Y-89348962D01*
X150722649Y-89397883D01*
X150632595Y-89507614D01*
X150550528Y-89661150D01*
X150499992Y-89827746D01*
X150496224Y-89866000D01*
X146883518Y-89866000D01*
X146809098Y-89835174D01*
X146609139Y-89795400D01*
X146405261Y-89795400D01*
X146205302Y-89835174D01*
X146016944Y-89913195D01*
X145847426Y-90026463D01*
X145703263Y-90170626D01*
X145589995Y-90340144D01*
X145511974Y-90528502D01*
X145472200Y-90728461D01*
X145472200Y-90932339D01*
X145511974Y-91132298D01*
X145589995Y-91320656D01*
X145703263Y-91490174D01*
X145847426Y-91634337D01*
X146016944Y-91747605D01*
X146205302Y-91825626D01*
X146309741Y-91846400D01*
X146205302Y-91867174D01*
X146016944Y-91945195D01*
X145847426Y-92058463D01*
X145703263Y-92202626D01*
X145589995Y-92372144D01*
X145511974Y-92560502D01*
X145472200Y-92760461D01*
X145472200Y-92964339D01*
X145511974Y-93164298D01*
X145589995Y-93352656D01*
X145703263Y-93522174D01*
X145847426Y-93666337D01*
X146016944Y-93779605D01*
X146205302Y-93857626D01*
X146405261Y-93897400D01*
X146488546Y-93897400D01*
X146608553Y-93961546D01*
X146751814Y-94005003D01*
X146863467Y-94016000D01*
X146863476Y-94016000D01*
X146900799Y-94019676D01*
X146938122Y-94016000D01*
X150273724Y-94016000D01*
X150277492Y-94054254D01*
X150328028Y-94220850D01*
X150410095Y-94374386D01*
X150520538Y-94508962D01*
X150655114Y-94619405D01*
X150793174Y-94693200D01*
X141720511Y-94693200D01*
X141824737Y-94588974D01*
X141938005Y-94419456D01*
X142016026Y-94231098D01*
X142055800Y-94031139D01*
X142055800Y-93827261D01*
X142016026Y-93627302D01*
X141938005Y-93438944D01*
X141824737Y-93269426D01*
X141780800Y-93225489D01*
X141780800Y-92567601D01*
X143295802Y-91052600D01*
X143357939Y-91052600D01*
X143557898Y-91012826D01*
X143746256Y-90934805D01*
X143915774Y-90821537D01*
X144059937Y-90677374D01*
X144173205Y-90507856D01*
X144251226Y-90319498D01*
X144291000Y-90119539D01*
X144291000Y-89915661D01*
X144251226Y-89715702D01*
X144173205Y-89527344D01*
X144059937Y-89357826D01*
X143915774Y-89213663D01*
X143746256Y-89100395D01*
X143557898Y-89022374D01*
X143357939Y-88982600D01*
X143154061Y-88982600D01*
X142954102Y-89022374D01*
X142765744Y-89100395D01*
X142596226Y-89213663D01*
X142452063Y-89357826D01*
X142338795Y-89527344D01*
X142260774Y-89715702D01*
X142221000Y-89915661D01*
X142221000Y-89977798D01*
X140509798Y-91689001D01*
X140480800Y-91712799D01*
X140457002Y-91741797D01*
X140457001Y-91741798D01*
X140385826Y-91828524D01*
X140315254Y-91960554D01*
X140289031Y-92047002D01*
X140276521Y-92088246D01*
X140271798Y-92103815D01*
X140257124Y-92252800D01*
X140260801Y-92290132D01*
X140260800Y-93225489D01*
X140216863Y-93269426D01*
X140174892Y-93332241D01*
X140072962Y-93208038D01*
X139938386Y-93097595D01*
X139784850Y-93015528D01*
X139618254Y-92964992D01*
X139445000Y-92947928D01*
X138195000Y-92947928D01*
X138021746Y-92964992D01*
X137855150Y-93015528D01*
X137734056Y-93080254D01*
X137113072Y-92459271D01*
X137113072Y-91946000D01*
X137097929Y-91792255D01*
X137053084Y-91644418D01*
X136980258Y-91508171D01*
X136882251Y-91388749D01*
X136762829Y-91290742D01*
X136626582Y-91217916D01*
X136478745Y-91173071D01*
X136325000Y-91157928D01*
X136025000Y-91157928D01*
X135871255Y-91173071D01*
X135723418Y-91217916D01*
X135587171Y-91290742D01*
X135540000Y-91329454D01*
X135492829Y-91290742D01*
X135458420Y-91272350D01*
X135445001Y-91255999D01*
X135416008Y-91232205D01*
X132753805Y-88570004D01*
X132730002Y-88541000D01*
X132614277Y-88446027D01*
X132482248Y-88375455D01*
X132338987Y-88331998D01*
X132227334Y-88321001D01*
X132227323Y-88321001D01*
X132190001Y-88317325D01*
X132152679Y-88321001D01*
X130948823Y-88321001D01*
X130977250Y-88206040D01*
X130982994Y-88081413D01*
X136554192Y-88081413D01*
X136649956Y-88345814D01*
X136939571Y-88486704D01*
X137251108Y-88568384D01*
X137572595Y-88587718D01*
X137891675Y-88543961D01*
X138196088Y-88438795D01*
X138370044Y-88345814D01*
X138465808Y-88081413D01*
X137510000Y-87125605D01*
X136554192Y-88081413D01*
X130982994Y-88081413D01*
X130989812Y-87933508D01*
X130948965Y-87663762D01*
X130856277Y-87407168D01*
X130795860Y-87294137D01*
X130556993Y-87228612D01*
X129779605Y-88006000D01*
X129793748Y-88020143D01*
X129614143Y-88199748D01*
X129600000Y-88185605D01*
X129585858Y-88199748D01*
X129406253Y-88020143D01*
X129420395Y-88006000D01*
X128643007Y-87228612D01*
X128404140Y-87294137D01*
X128372268Y-87362056D01*
X121367210Y-80356999D01*
X124958198Y-80356999D01*
X124978928Y-80377729D01*
X124978928Y-80403500D01*
X124995992Y-80576754D01*
X125046528Y-80743350D01*
X125128595Y-80896886D01*
X125239038Y-81031462D01*
X125373614Y-81141905D01*
X125527150Y-81223972D01*
X125693746Y-81274508D01*
X125867000Y-81291572D01*
X127117000Y-81291572D01*
X127290254Y-81274508D01*
X127456850Y-81223972D01*
X127610386Y-81141905D01*
X127744962Y-81031462D01*
X127855405Y-80896886D01*
X127937472Y-80743350D01*
X127950319Y-80701000D01*
X128211928Y-80701000D01*
X128211928Y-81136000D01*
X128224188Y-81260482D01*
X128260498Y-81380180D01*
X128319463Y-81490494D01*
X128398815Y-81587185D01*
X128495506Y-81666537D01*
X128605820Y-81725502D01*
X128725518Y-81761812D01*
X128833483Y-81772445D01*
X128717114Y-81850201D01*
X128524201Y-82043114D01*
X128448773Y-82156000D01*
X127950319Y-82156000D01*
X127937472Y-82113650D01*
X127855405Y-81960114D01*
X127744962Y-81825538D01*
X127610386Y-81715095D01*
X127456850Y-81633028D01*
X127290254Y-81582492D01*
X127117000Y-81565428D01*
X125867000Y-81565428D01*
X125693746Y-81582492D01*
X125527150Y-81633028D01*
X125373614Y-81715095D01*
X125239038Y-81825538D01*
X125128595Y-81960114D01*
X125046528Y-82113650D01*
X124995992Y-82280246D01*
X124978928Y-82453500D01*
X124978928Y-83378500D01*
X124995992Y-83551754D01*
X125046528Y-83718350D01*
X125128595Y-83871886D01*
X125239038Y-84006462D01*
X125373614Y-84116905D01*
X125527150Y-84198972D01*
X125693746Y-84249508D01*
X125867000Y-84266572D01*
X127117000Y-84266572D01*
X127290254Y-84249508D01*
X127456850Y-84198972D01*
X127610386Y-84116905D01*
X127744962Y-84006462D01*
X127855405Y-83871886D01*
X127937472Y-83718350D01*
X127950319Y-83676000D01*
X128435409Y-83676000D01*
X128524201Y-83808886D01*
X128717114Y-84001799D01*
X128943957Y-84153371D01*
X129046873Y-84196000D01*
X128943957Y-84238629D01*
X128717114Y-84390201D01*
X128524201Y-84583114D01*
X128372629Y-84809957D01*
X128268225Y-85062011D01*
X128215000Y-85329589D01*
X128215000Y-85602411D01*
X128268225Y-85869989D01*
X128372629Y-86122043D01*
X128524201Y-86348886D01*
X128717114Y-86541799D01*
X128943957Y-86693371D01*
X129043279Y-86734511D01*
X129001168Y-86749723D01*
X128888137Y-86810140D01*
X128822612Y-87049007D01*
X129600000Y-87826395D01*
X130377388Y-87049007D01*
X130366303Y-87008595D01*
X135868282Y-87008595D01*
X135912039Y-87327675D01*
X136017205Y-87632088D01*
X136110186Y-87806044D01*
X136374587Y-87901808D01*
X137330395Y-86946000D01*
X137689605Y-86946000D01*
X138645413Y-87901808D01*
X138909814Y-87806044D01*
X139050704Y-87516429D01*
X139132384Y-87204892D01*
X139151718Y-86883405D01*
X139107961Y-86564325D01*
X139002795Y-86259912D01*
X138909814Y-86085956D01*
X138645413Y-85990192D01*
X137689605Y-86946000D01*
X137330395Y-86946000D01*
X136374587Y-85990192D01*
X136110186Y-86085956D01*
X135969296Y-86375571D01*
X135887616Y-86687108D01*
X135868282Y-87008595D01*
X130366303Y-87008595D01*
X130311863Y-86810140D01*
X130153523Y-86735836D01*
X130256043Y-86693371D01*
X130482886Y-86541799D01*
X130675799Y-86348886D01*
X130827371Y-86122043D01*
X130931775Y-85869989D01*
X130943590Y-85810587D01*
X136554192Y-85810587D01*
X137510000Y-86766395D01*
X138465808Y-85810587D01*
X138370044Y-85546186D01*
X138080429Y-85405296D01*
X137768892Y-85323616D01*
X137447405Y-85304282D01*
X137128325Y-85348039D01*
X136823912Y-85453205D01*
X136649956Y-85546186D01*
X136554192Y-85810587D01*
X130943590Y-85810587D01*
X130985000Y-85602411D01*
X130985000Y-85329589D01*
X130931775Y-85062011D01*
X130827371Y-84809957D01*
X130675799Y-84583114D01*
X130482886Y-84390201D01*
X130256043Y-84238629D01*
X130153127Y-84196000D01*
X130256043Y-84153371D01*
X130482886Y-84001799D01*
X130675799Y-83808886D01*
X130827371Y-83582043D01*
X130931775Y-83329989D01*
X130985000Y-83062411D01*
X130985000Y-82789589D01*
X130931775Y-82522011D01*
X130827371Y-82269957D01*
X130675799Y-82043114D01*
X130482886Y-81850201D01*
X130366517Y-81772445D01*
X130474482Y-81761812D01*
X130594180Y-81725502D01*
X130704494Y-81666537D01*
X130801185Y-81587185D01*
X130805921Y-81581413D01*
X136554192Y-81581413D01*
X136649956Y-81845814D01*
X136939571Y-81986704D01*
X137251108Y-82068384D01*
X137572595Y-82087718D01*
X137891675Y-82043961D01*
X138196088Y-81938795D01*
X138370044Y-81845814D01*
X138465808Y-81581413D01*
X137510000Y-80625605D01*
X136554192Y-81581413D01*
X130805921Y-81581413D01*
X130880537Y-81490494D01*
X130939502Y-81380180D01*
X130975812Y-81260482D01*
X130988072Y-81136000D01*
X130988072Y-80508595D01*
X135868282Y-80508595D01*
X135912039Y-80827675D01*
X136017205Y-81132088D01*
X136110186Y-81306044D01*
X136374587Y-81401808D01*
X137330395Y-80446000D01*
X137689605Y-80446000D01*
X138645413Y-81401808D01*
X138909814Y-81306044D01*
X139050704Y-81016429D01*
X139132384Y-80704892D01*
X139151718Y-80383405D01*
X139107961Y-80064325D01*
X139002795Y-79759912D01*
X138909814Y-79585956D01*
X138645413Y-79490192D01*
X137689605Y-80446000D01*
X137330395Y-80446000D01*
X136374587Y-79490192D01*
X136110186Y-79585956D01*
X135969296Y-79875571D01*
X135887616Y-80187108D01*
X135868282Y-80508595D01*
X130988072Y-80508595D01*
X130988072Y-79636000D01*
X130975812Y-79511518D01*
X130939502Y-79391820D01*
X130896082Y-79310587D01*
X136554192Y-79310587D01*
X137510000Y-80266395D01*
X138465808Y-79310587D01*
X138370044Y-79046186D01*
X138080429Y-78905296D01*
X137768892Y-78823616D01*
X137447405Y-78804282D01*
X137128325Y-78848039D01*
X136823912Y-78953205D01*
X136649956Y-79046186D01*
X136554192Y-79310587D01*
X130896082Y-79310587D01*
X130880537Y-79281506D01*
X130801185Y-79184815D01*
X130704494Y-79105463D01*
X130594180Y-79046498D01*
X130474482Y-79010188D01*
X130350000Y-78997928D01*
X128850000Y-78997928D01*
X128725518Y-79010188D01*
X128605820Y-79046498D01*
X128495506Y-79105463D01*
X128403464Y-79181000D01*
X127950319Y-79181000D01*
X127937472Y-79138650D01*
X127855405Y-78985114D01*
X127744962Y-78850538D01*
X127610386Y-78740095D01*
X127456850Y-78658028D01*
X127290254Y-78607492D01*
X127117000Y-78590428D01*
X125867000Y-78590428D01*
X125693746Y-78607492D01*
X125527150Y-78658028D01*
X125373614Y-78740095D01*
X125258244Y-78834776D01*
X125235677Y-78836999D01*
X113480326Y-78836999D01*
X113443001Y-78833323D01*
X113405676Y-78836999D01*
X113405668Y-78836999D01*
X113294015Y-78847996D01*
X113150754Y-78891453D01*
X113018725Y-78962025D01*
X112903000Y-79056998D01*
X112879202Y-79085996D01*
X109181000Y-82784199D01*
X109181000Y-82657740D01*
X109123932Y-82370842D01*
X109011990Y-82100589D01*
X108849475Y-81857368D01*
X108717620Y-81725513D01*
X108790180Y-81703502D01*
X108900494Y-81644537D01*
X108997185Y-81565185D01*
X109076537Y-81468494D01*
X109135502Y-81358180D01*
X109171812Y-81238482D01*
X109184072Y-81114000D01*
X109181000Y-80549750D01*
X109022250Y-80391000D01*
X107823000Y-80391000D01*
X107823000Y-80411000D01*
X107569000Y-80411000D01*
X107569000Y-80391000D01*
X106369750Y-80391000D01*
X106211000Y-80549750D01*
X106207928Y-81114000D01*
X106220188Y-81238482D01*
X106256498Y-81358180D01*
X106315463Y-81468494D01*
X106394815Y-81565185D01*
X106491506Y-81644537D01*
X106601820Y-81703502D01*
X106674380Y-81725513D01*
X106542525Y-81857368D01*
X106380010Y-82100589D01*
X106268068Y-82370842D01*
X106211000Y-82657740D01*
X106211000Y-82950260D01*
X106268068Y-83237158D01*
X106380010Y-83507411D01*
X106542525Y-83750632D01*
X106749368Y-83957475D01*
X106923760Y-84074000D01*
X106749368Y-84190525D01*
X106542525Y-84397368D01*
X106380010Y-84640589D01*
X106268068Y-84910842D01*
X106211000Y-85197740D01*
X106211000Y-85490260D01*
X106268068Y-85777158D01*
X106380010Y-86047411D01*
X106542525Y-86290632D01*
X106749368Y-86497475D01*
X106992589Y-86659990D01*
X107262842Y-86771932D01*
X107549740Y-86829000D01*
X107842260Y-86829000D01*
X108129158Y-86771932D01*
X108399411Y-86659990D01*
X108642632Y-86497475D01*
X108849475Y-86290632D01*
X109011990Y-86047411D01*
X109123932Y-85777158D01*
X109181000Y-85490260D01*
X109181000Y-85197740D01*
X109137209Y-84977592D01*
X113757803Y-80356999D01*
X115916456Y-80356999D01*
X115863000Y-80625740D01*
X115863000Y-80918260D01*
X115920068Y-81205158D01*
X116032010Y-81475411D01*
X116194525Y-81718632D01*
X116326380Y-81850487D01*
X116253820Y-81872498D01*
X116143506Y-81931463D01*
X116046815Y-82010815D01*
X115967463Y-82107506D01*
X115908498Y-82217820D01*
X115872188Y-82337518D01*
X115859928Y-82462000D01*
X115859928Y-84162000D01*
X115872188Y-84286482D01*
X115908498Y-84406180D01*
X115967463Y-84516494D01*
X116046815Y-84613185D01*
X116143506Y-84692537D01*
X116253820Y-84751502D01*
X116373518Y-84787812D01*
X116498000Y-84800072D01*
X118198000Y-84800072D01*
X118322482Y-84787812D01*
X118442180Y-84751502D01*
X118552494Y-84692537D01*
X118649185Y-84613185D01*
X118728537Y-84516494D01*
X118787502Y-84406180D01*
X118823812Y-84286482D01*
X118836072Y-84162000D01*
X118836072Y-84021200D01*
X122245399Y-84021200D01*
X129426126Y-91201928D01*
X129373418Y-91217916D01*
X129237171Y-91290742D01*
X129190000Y-91329454D01*
X129142829Y-91290742D01*
X129006582Y-91217916D01*
X128858745Y-91173071D01*
X128705000Y-91157928D01*
X128405000Y-91157928D01*
X128251255Y-91173071D01*
X128103418Y-91217916D01*
X127969064Y-91289730D01*
X127939494Y-91265463D01*
X127829180Y-91206498D01*
X127709482Y-91170188D01*
X127585000Y-91157928D01*
X127570750Y-91161000D01*
X127412000Y-91319750D01*
X127412000Y-92469000D01*
X127432000Y-92469000D01*
X127432000Y-92723000D01*
X127412000Y-92723000D01*
X127412000Y-93872250D01*
X127570750Y-94031000D01*
X127585000Y-94034072D01*
X127709482Y-94021812D01*
X127738471Y-94013018D01*
X127720063Y-94031426D01*
X127606795Y-94200944D01*
X127528774Y-94389302D01*
X127489000Y-94589261D01*
X127489000Y-94793139D01*
X127528774Y-94993098D01*
X127593931Y-95150400D01*
X124497322Y-95150400D01*
X124459999Y-95146724D01*
X124422676Y-95150400D01*
X124422667Y-95150400D01*
X124311014Y-95161397D01*
X124183092Y-95200201D01*
X124167753Y-95204854D01*
X124035723Y-95275426D01*
X124000644Y-95304215D01*
X123919999Y-95370399D01*
X123896201Y-95399397D01*
X120918998Y-98376601D01*
X120890000Y-98400399D01*
X120866202Y-98429397D01*
X120866201Y-98429398D01*
X120795026Y-98516124D01*
X120724454Y-98648154D01*
X120680998Y-98791415D01*
X120666324Y-98940400D01*
X120670001Y-98977732D01*
X120670000Y-105797928D01*
X119635000Y-105797928D01*
X119510518Y-105810188D01*
X119390820Y-105846498D01*
X119280506Y-105905463D01*
X119183815Y-105984815D01*
X119104463Y-106081506D01*
X119045498Y-106191820D01*
X119009188Y-106311518D01*
X118996928Y-106436000D01*
X118996928Y-107936000D01*
X119009188Y-108060482D01*
X119045498Y-108180180D01*
X119104463Y-108290494D01*
X119183815Y-108387185D01*
X119280506Y-108466537D01*
X119390820Y-108525502D01*
X119510518Y-108561812D01*
X119635000Y-108574072D01*
X120685000Y-108574072D01*
X120809482Y-108561812D01*
X120929180Y-108525502D01*
X120993902Y-108490907D01*
X121202601Y-108554215D01*
X121430000Y-108576612D01*
X121657400Y-108554215D01*
X121876060Y-108487885D01*
X122064669Y-108387071D01*
X122123118Y-108428275D01*
X122332663Y-108521272D01*
X122394190Y-108529964D01*
X122573000Y-108404163D01*
X122573000Y-107639108D01*
X122573215Y-107638399D01*
X122590000Y-107467978D01*
X122590000Y-107313000D01*
X122827000Y-107313000D01*
X122827000Y-108404163D01*
X123005810Y-108529964D01*
X123067337Y-108521272D01*
X123276882Y-108428275D01*
X123464258Y-108296184D01*
X123622264Y-108130076D01*
X123744828Y-107936334D01*
X123827239Y-107722404D01*
X123866331Y-107496507D01*
X123706598Y-107313000D01*
X122827000Y-107313000D01*
X122590000Y-107313000D01*
X122590000Y-106904021D01*
X122573215Y-106733600D01*
X122573000Y-106732891D01*
X122573000Y-105967837D01*
X122827000Y-105967837D01*
X122827000Y-107059000D01*
X123706598Y-107059000D01*
X123866331Y-106875493D01*
X123827239Y-106649596D01*
X123744828Y-106435666D01*
X123622264Y-106241924D01*
X123464258Y-106075816D01*
X123276882Y-105943725D01*
X123067337Y-105850728D01*
X123005810Y-105842036D01*
X122827000Y-105967837D01*
X122573000Y-105967837D01*
X122394190Y-105842036D01*
X122332663Y-105850728D01*
X122190000Y-105914042D01*
X122190000Y-105204665D01*
X126515000Y-105204665D01*
X126515000Y-105487335D01*
X126570147Y-105764574D01*
X126678320Y-106025727D01*
X126835363Y-106260759D01*
X127035241Y-106460637D01*
X127270273Y-106617680D01*
X127531426Y-106725853D01*
X127808665Y-106781000D01*
X128091335Y-106781000D01*
X128368574Y-106725853D01*
X128629727Y-106617680D01*
X128864759Y-106460637D01*
X129064637Y-106260759D01*
X129164702Y-106111000D01*
X130266928Y-106111000D01*
X130266928Y-106861000D01*
X130283992Y-107034254D01*
X130334528Y-107200850D01*
X130416595Y-107354386D01*
X130527038Y-107488962D01*
X130661614Y-107599405D01*
X130815150Y-107681472D01*
X130981746Y-107732008D01*
X131155000Y-107749072D01*
X132405000Y-107749072D01*
X132578254Y-107732008D01*
X132744850Y-107681472D01*
X132898386Y-107599405D01*
X133032962Y-107488962D01*
X133143405Y-107354386D01*
X133201339Y-107246000D01*
X134372678Y-107246000D01*
X134410000Y-107249676D01*
X134447322Y-107246000D01*
X134447333Y-107246000D01*
X134558986Y-107235003D01*
X134702247Y-107191546D01*
X134834276Y-107120974D01*
X134950001Y-107026001D01*
X134973803Y-106996998D01*
X135226114Y-106744688D01*
X135408665Y-106781000D01*
X135691335Y-106781000D01*
X135968574Y-106725853D01*
X136229727Y-106617680D01*
X136464759Y-106460637D01*
X136664637Y-106260759D01*
X136821680Y-106025727D01*
X136929853Y-105764574D01*
X136985000Y-105487335D01*
X136985000Y-105204665D01*
X136929853Y-104927426D01*
X136821680Y-104666273D01*
X136664637Y-104431241D01*
X136464759Y-104231363D01*
X136229727Y-104074320D01*
X135968574Y-103966147D01*
X135691335Y-103911000D01*
X135408665Y-103911000D01*
X135131426Y-103966147D01*
X134870273Y-104074320D01*
X134635241Y-104231363D01*
X134435363Y-104431241D01*
X134278320Y-104666273D01*
X134170147Y-104927426D01*
X134115000Y-105204665D01*
X134115000Y-105487335D01*
X134151312Y-105669886D01*
X134095199Y-105726000D01*
X133201339Y-105726000D01*
X133143405Y-105617614D01*
X133032962Y-105483038D01*
X132898386Y-105372595D01*
X132744850Y-105290528D01*
X132578254Y-105239992D01*
X132405000Y-105222928D01*
X131155000Y-105222928D01*
X130981746Y-105239992D01*
X130815150Y-105290528D01*
X130661614Y-105372595D01*
X130527038Y-105483038D01*
X130416595Y-105617614D01*
X130334528Y-105771150D01*
X130283992Y-105937746D01*
X130266928Y-106111000D01*
X129164702Y-106111000D01*
X129221680Y-106025727D01*
X129329853Y-105764574D01*
X129385000Y-105487335D01*
X129385000Y-105204665D01*
X129329853Y-104927426D01*
X129221680Y-104666273D01*
X129064637Y-104431241D01*
X128944396Y-104311000D01*
X130266928Y-104311000D01*
X130279188Y-104435482D01*
X130315498Y-104555180D01*
X130374463Y-104665494D01*
X130453815Y-104762185D01*
X130550506Y-104841537D01*
X130660820Y-104900502D01*
X130780518Y-104936812D01*
X130905000Y-104949072D01*
X131494250Y-104946000D01*
X131653000Y-104787250D01*
X131653000Y-103813000D01*
X131907000Y-103813000D01*
X131907000Y-104787250D01*
X132065750Y-104946000D01*
X132655000Y-104949072D01*
X132779482Y-104936812D01*
X132899180Y-104900502D01*
X133009494Y-104841537D01*
X133106185Y-104762185D01*
X133185537Y-104665494D01*
X133244502Y-104555180D01*
X133280812Y-104435482D01*
X133293072Y-104311000D01*
X133290000Y-103971750D01*
X133131250Y-103813000D01*
X131907000Y-103813000D01*
X131653000Y-103813000D01*
X130428750Y-103813000D01*
X130270000Y-103971750D01*
X130266928Y-104311000D01*
X128944396Y-104311000D01*
X128864759Y-104231363D01*
X128629727Y-104074320D01*
X128368574Y-103966147D01*
X128091335Y-103911000D01*
X127808665Y-103911000D01*
X127531426Y-103966147D01*
X127270273Y-104074320D01*
X127035241Y-104231363D01*
X126835363Y-104431241D01*
X126678320Y-104666273D01*
X126570147Y-104927426D01*
X126515000Y-105204665D01*
X122190000Y-105204665D01*
X122190000Y-103061000D01*
X130266928Y-103061000D01*
X130270000Y-103400250D01*
X130428750Y-103559000D01*
X131653000Y-103559000D01*
X131653000Y-102584750D01*
X131907000Y-102584750D01*
X131907000Y-103559000D01*
X133131250Y-103559000D01*
X133290000Y-103400250D01*
X133293072Y-103061000D01*
X133280812Y-102936518D01*
X133244502Y-102816820D01*
X133185537Y-102706506D01*
X133106185Y-102609815D01*
X133009494Y-102530463D01*
X132899180Y-102471498D01*
X132779482Y-102435188D01*
X132655000Y-102422928D01*
X132065750Y-102426000D01*
X131907000Y-102584750D01*
X131653000Y-102584750D01*
X131494250Y-102426000D01*
X130905000Y-102422928D01*
X130780518Y-102435188D01*
X130660820Y-102471498D01*
X130550506Y-102530463D01*
X130453815Y-102609815D01*
X130374463Y-102706506D01*
X130315498Y-102816820D01*
X130279188Y-102936518D01*
X130266928Y-103061000D01*
X122190000Y-103061000D01*
X122190000Y-99896000D01*
X126346928Y-99896000D01*
X126359188Y-100020482D01*
X126395498Y-100140180D01*
X126454463Y-100250494D01*
X126533815Y-100347185D01*
X126630506Y-100426537D01*
X126740820Y-100485502D01*
X126860518Y-100521812D01*
X126985000Y-100534072D01*
X126999250Y-100531000D01*
X127158000Y-100372250D01*
X127158000Y-99223000D01*
X127412000Y-99223000D01*
X127412000Y-100372250D01*
X127570750Y-100531000D01*
X127585000Y-100534072D01*
X127709482Y-100521812D01*
X127829180Y-100485502D01*
X127920000Y-100436957D01*
X128010820Y-100485502D01*
X128130518Y-100521812D01*
X128255000Y-100534072D01*
X128269250Y-100531000D01*
X128428000Y-100372250D01*
X128428000Y-99223000D01*
X128682000Y-99223000D01*
X128682000Y-100372250D01*
X128840750Y-100531000D01*
X128855000Y-100534072D01*
X128979482Y-100521812D01*
X129099180Y-100485502D01*
X129190000Y-100436957D01*
X129280820Y-100485502D01*
X129400518Y-100521812D01*
X129525000Y-100534072D01*
X129539250Y-100531000D01*
X129698000Y-100372250D01*
X129698000Y-99223000D01*
X129952000Y-99223000D01*
X129952000Y-100372250D01*
X130110750Y-100531000D01*
X130125000Y-100534072D01*
X130249482Y-100521812D01*
X130369180Y-100485502D01*
X130460000Y-100436957D01*
X130550820Y-100485502D01*
X130670518Y-100521812D01*
X130795000Y-100534072D01*
X130809250Y-100531000D01*
X130968000Y-100372250D01*
X130968000Y-99223000D01*
X131222000Y-99223000D01*
X131222000Y-100372250D01*
X131380750Y-100531000D01*
X131395000Y-100534072D01*
X131519482Y-100521812D01*
X131639180Y-100485502D01*
X131730000Y-100436957D01*
X131820820Y-100485502D01*
X131940518Y-100521812D01*
X132065000Y-100534072D01*
X132079250Y-100531000D01*
X132238000Y-100372250D01*
X132238000Y-99223000D01*
X131222000Y-99223000D01*
X130968000Y-99223000D01*
X129952000Y-99223000D01*
X129698000Y-99223000D01*
X128682000Y-99223000D01*
X128428000Y-99223000D01*
X127412000Y-99223000D01*
X127158000Y-99223000D01*
X126508750Y-99223000D01*
X126350000Y-99381750D01*
X126346928Y-99896000D01*
X122190000Y-99896000D01*
X122190000Y-99255201D01*
X123149201Y-98296000D01*
X126346928Y-98296000D01*
X126350000Y-98810250D01*
X126508750Y-98969000D01*
X127158000Y-98969000D01*
X127158000Y-97819750D01*
X127412000Y-97819750D01*
X127412000Y-98969000D01*
X128428000Y-98969000D01*
X128428000Y-97819750D01*
X128682000Y-97819750D01*
X128682000Y-98969000D01*
X129698000Y-98969000D01*
X129698000Y-97819750D01*
X129952000Y-97819750D01*
X129952000Y-98969000D01*
X130968000Y-98969000D01*
X130968000Y-97819750D01*
X130809250Y-97661000D01*
X130795000Y-97657928D01*
X130670518Y-97670188D01*
X130550820Y-97706498D01*
X130460000Y-97755043D01*
X130369180Y-97706498D01*
X130249482Y-97670188D01*
X130125000Y-97657928D01*
X130110750Y-97661000D01*
X129952000Y-97819750D01*
X129698000Y-97819750D01*
X129539250Y-97661000D01*
X129525000Y-97657928D01*
X129400518Y-97670188D01*
X129280820Y-97706498D01*
X129190000Y-97755043D01*
X129099180Y-97706498D01*
X128979482Y-97670188D01*
X128855000Y-97657928D01*
X128840750Y-97661000D01*
X128682000Y-97819750D01*
X128428000Y-97819750D01*
X128269250Y-97661000D01*
X128255000Y-97657928D01*
X128130518Y-97670188D01*
X128010820Y-97706498D01*
X127920000Y-97755043D01*
X127829180Y-97706498D01*
X127709482Y-97670188D01*
X127585000Y-97657928D01*
X127570750Y-97661000D01*
X127412000Y-97819750D01*
X127158000Y-97819750D01*
X126999250Y-97661000D01*
X126985000Y-97657928D01*
X126860518Y-97670188D01*
X126740820Y-97706498D01*
X126630506Y-97765463D01*
X126533815Y-97844815D01*
X126454463Y-97941506D01*
X126395498Y-98051820D01*
X126359188Y-98171518D01*
X126346928Y-98296000D01*
X123149201Y-98296000D01*
X124774802Y-96670400D01*
X129813278Y-96670400D01*
X129850600Y-96674076D01*
X129887922Y-96670400D01*
X129887933Y-96670400D01*
X129999586Y-96659403D01*
X130142847Y-96615946D01*
X130274876Y-96545374D01*
X130390601Y-96450401D01*
X130414404Y-96421397D01*
X131735114Y-95100688D01*
X131730054Y-95110154D01*
X131686597Y-95253415D01*
X131675600Y-95365068D01*
X131675600Y-95365078D01*
X131671924Y-95402400D01*
X131675600Y-95439723D01*
X131675601Y-96171888D01*
X131631663Y-96215826D01*
X131518395Y-96385344D01*
X131440374Y-96573702D01*
X131400600Y-96773661D01*
X131400600Y-96977539D01*
X131440374Y-97177498D01*
X131518395Y-97365856D01*
X131631663Y-97535374D01*
X131775826Y-97679537D01*
X131818240Y-97707877D01*
X131730000Y-97755043D01*
X131639180Y-97706498D01*
X131519482Y-97670188D01*
X131395000Y-97657928D01*
X131380750Y-97661000D01*
X131222000Y-97819750D01*
X131222000Y-98969000D01*
X132238000Y-98969000D01*
X132238000Y-98949000D01*
X132492000Y-98949000D01*
X132492000Y-98969000D01*
X132512000Y-98969000D01*
X132512000Y-99223000D01*
X132492000Y-99223000D01*
X132492000Y-100372250D01*
X132650750Y-100531000D01*
X132665000Y-100534072D01*
X132789482Y-100521812D01*
X132909180Y-100485502D01*
X133019494Y-100426537D01*
X133049064Y-100402270D01*
X133183418Y-100474084D01*
X133331255Y-100518929D01*
X133485000Y-100534072D01*
X133785000Y-100534072D01*
X133938745Y-100518929D01*
X134086582Y-100474084D01*
X134220936Y-100402270D01*
X134250506Y-100426537D01*
X134360820Y-100485502D01*
X134480518Y-100521812D01*
X134605000Y-100534072D01*
X134619250Y-100531000D01*
X134778000Y-100372250D01*
X134778000Y-99223000D01*
X135032000Y-99223000D01*
X135032000Y-100372250D01*
X135190750Y-100531000D01*
X135205000Y-100534072D01*
X135329482Y-100521812D01*
X135449180Y-100485502D01*
X135540000Y-100436957D01*
X135630820Y-100485502D01*
X135750518Y-100521812D01*
X135875000Y-100534072D01*
X135889250Y-100531000D01*
X136048000Y-100372250D01*
X136048000Y-99223000D01*
X136302000Y-99223000D01*
X136302000Y-100372250D01*
X136460750Y-100531000D01*
X136475000Y-100534072D01*
X136599482Y-100521812D01*
X136719180Y-100485502D01*
X136829494Y-100426537D01*
X136926185Y-100347185D01*
X137005537Y-100250494D01*
X137064502Y-100140180D01*
X137100812Y-100020482D01*
X137113072Y-99896000D01*
X137110000Y-99381750D01*
X136951250Y-99223000D01*
X136302000Y-99223000D01*
X136048000Y-99223000D01*
X135032000Y-99223000D01*
X134778000Y-99223000D01*
X134758000Y-99223000D01*
X134758000Y-98969000D01*
X134778000Y-98969000D01*
X134778000Y-98949000D01*
X135032000Y-98949000D01*
X135032000Y-98969000D01*
X136048000Y-98969000D01*
X136048000Y-97819750D01*
X136302000Y-97819750D01*
X136302000Y-98969000D01*
X136951250Y-98969000D01*
X137110000Y-98810250D01*
X137113072Y-98296000D01*
X137100812Y-98171518D01*
X137064502Y-98051820D01*
X137029320Y-97986000D01*
X137306928Y-97986000D01*
X137319188Y-98110482D01*
X137355498Y-98230180D01*
X137414463Y-98340494D01*
X137493815Y-98437185D01*
X137590506Y-98516537D01*
X137700820Y-98575502D01*
X137820518Y-98611812D01*
X137945000Y-98624072D01*
X138534250Y-98621000D01*
X138693000Y-98462250D01*
X138693000Y-97400500D01*
X138947000Y-97400500D01*
X138947000Y-98462250D01*
X139105750Y-98621000D01*
X139695000Y-98624072D01*
X139819482Y-98611812D01*
X139939180Y-98575502D01*
X140049494Y-98516537D01*
X140146185Y-98437185D01*
X140225537Y-98340494D01*
X140284502Y-98230180D01*
X140320812Y-98110482D01*
X140333072Y-97986000D01*
X140330000Y-97559250D01*
X140171250Y-97400500D01*
X138947000Y-97400500D01*
X138693000Y-97400500D01*
X137468750Y-97400500D01*
X137310000Y-97559250D01*
X137306928Y-97986000D01*
X137029320Y-97986000D01*
X137005537Y-97941506D01*
X136926185Y-97844815D01*
X136829494Y-97765463D01*
X136719180Y-97706498D01*
X136599482Y-97670188D01*
X136475000Y-97657928D01*
X136460750Y-97661000D01*
X136302000Y-97819750D01*
X136048000Y-97819750D01*
X135889250Y-97661000D01*
X135875000Y-97657928D01*
X135750518Y-97670188D01*
X135630820Y-97706498D01*
X135540000Y-97755043D01*
X135449180Y-97706498D01*
X135329482Y-97670188D01*
X135205000Y-97657928D01*
X135190750Y-97661000D01*
X135032002Y-97819748D01*
X135032002Y-97661000D01*
X134960202Y-97661000D01*
X135167802Y-97453400D01*
X135229939Y-97453400D01*
X135429898Y-97413626D01*
X135618256Y-97335605D01*
X135787774Y-97222337D01*
X135931937Y-97078174D01*
X136045205Y-96908656D01*
X136123226Y-96720298D01*
X136154912Y-96561000D01*
X137306928Y-96561000D01*
X137310000Y-96987750D01*
X137468750Y-97146500D01*
X138693000Y-97146500D01*
X138693000Y-96084750D01*
X138947000Y-96084750D01*
X138947000Y-97146500D01*
X140171250Y-97146500D01*
X140330000Y-96987750D01*
X140333072Y-96561000D01*
X140320812Y-96436518D01*
X140284502Y-96316820D01*
X140225537Y-96206506D01*
X140146185Y-96109815D01*
X140049494Y-96030463D01*
X139939180Y-95971498D01*
X139819482Y-95935188D01*
X139695000Y-95922928D01*
X139105750Y-95926000D01*
X138947000Y-96084750D01*
X138693000Y-96084750D01*
X138534250Y-95926000D01*
X137945000Y-95922928D01*
X137820518Y-95935188D01*
X137700820Y-95971498D01*
X137590506Y-96030463D01*
X137493815Y-96109815D01*
X137414463Y-96206506D01*
X137355498Y-96316820D01*
X137319188Y-96436518D01*
X137306928Y-96561000D01*
X136154912Y-96561000D01*
X136163000Y-96520339D01*
X136163000Y-96316461D01*
X136123226Y-96116502D01*
X136045205Y-95928144D01*
X135931937Y-95758626D01*
X135787774Y-95614463D01*
X135618256Y-95501195D01*
X135429898Y-95423174D01*
X135229939Y-95383400D01*
X135026061Y-95383400D01*
X134826102Y-95423174D01*
X134637744Y-95501195D01*
X134468226Y-95614463D01*
X134324063Y-95758626D01*
X134210795Y-95928144D01*
X134132774Y-96116502D01*
X134093000Y-96316461D01*
X134093000Y-96378598D01*
X133464775Y-97006824D01*
X133470600Y-96977539D01*
X133470600Y-96773661D01*
X133430826Y-96573702D01*
X133352805Y-96385344D01*
X133239537Y-96215826D01*
X133195600Y-96171889D01*
X133195600Y-95717201D01*
X134146003Y-94766799D01*
X134175001Y-94743001D01*
X134269974Y-94627276D01*
X134340546Y-94495247D01*
X134384003Y-94351986D01*
X134395000Y-94240333D01*
X134395000Y-94240325D01*
X134398676Y-94203000D01*
X134395000Y-94165675D01*
X134395000Y-93942859D01*
X134453418Y-93974084D01*
X134601255Y-94018929D01*
X134755000Y-94034072D01*
X135055000Y-94034072D01*
X135208745Y-94018929D01*
X135356582Y-93974084D01*
X135492829Y-93901258D01*
X135540000Y-93862546D01*
X135587171Y-93901258D01*
X135723418Y-93974084D01*
X135871255Y-94018929D01*
X136025000Y-94034072D01*
X136325000Y-94034072D01*
X136478745Y-94018929D01*
X136512798Y-94008599D01*
X137311487Y-94807289D01*
X137323992Y-94934254D01*
X137374528Y-95100850D01*
X137456595Y-95254386D01*
X137567038Y-95388962D01*
X137701614Y-95499405D01*
X137855150Y-95581472D01*
X138021746Y-95632008D01*
X138195000Y-95649072D01*
X139445000Y-95649072D01*
X139618254Y-95632008D01*
X139784850Y-95581472D01*
X139861956Y-95540258D01*
X140285905Y-95964208D01*
X140309699Y-95993201D01*
X140338692Y-96016995D01*
X140338696Y-96016999D01*
X140338707Y-96017008D01*
X144502301Y-100180603D01*
X144526099Y-100209601D01*
X144555097Y-100233399D01*
X144641823Y-100304574D01*
X144768435Y-100372250D01*
X144773853Y-100375146D01*
X144917114Y-100418603D01*
X145028767Y-100429600D01*
X145028776Y-100429600D01*
X145066099Y-100433276D01*
X145103422Y-100429600D01*
X145905089Y-100429600D01*
X145949026Y-100473537D01*
X146118544Y-100586805D01*
X146306902Y-100664826D01*
X146506861Y-100704600D01*
X146710739Y-100704600D01*
X146910698Y-100664826D01*
X147099056Y-100586805D01*
X147268574Y-100473537D01*
X147412737Y-100329374D01*
X147526005Y-100159856D01*
X147604026Y-99971498D01*
X147643800Y-99771539D01*
X147643800Y-99567661D01*
X147604026Y-99367702D01*
X147526005Y-99179344D01*
X147412737Y-99009826D01*
X147268574Y-98865663D01*
X147099056Y-98752395D01*
X146910698Y-98674374D01*
X146710739Y-98634600D01*
X146506861Y-98634600D01*
X146306902Y-98674374D01*
X146118544Y-98752395D01*
X145949026Y-98865663D01*
X145905089Y-98909600D01*
X145380902Y-98909600D01*
X142684501Y-96213200D01*
X153226478Y-96213200D01*
X153263800Y-96216876D01*
X153301122Y-96213200D01*
X153301133Y-96213200D01*
X153412786Y-96202203D01*
X153556047Y-96158746D01*
X153688076Y-96088174D01*
X153803801Y-95993201D01*
X153827604Y-95964197D01*
X155022730Y-94769072D01*
X155048500Y-94769072D01*
X155221754Y-94752008D01*
X155388350Y-94701472D01*
X155541886Y-94619405D01*
X155676462Y-94508962D01*
X155765575Y-94400377D01*
X156959242Y-95594044D01*
X156918028Y-95671150D01*
X156867492Y-95837746D01*
X156850428Y-96011000D01*
X156850428Y-97261000D01*
X156867492Y-97434254D01*
X156918028Y-97600850D01*
X156990637Y-97736692D01*
X156957963Y-97776506D01*
X156898998Y-97886820D01*
X156862688Y-98006518D01*
X156850428Y-98131000D01*
X156853500Y-98720250D01*
X157012250Y-98879000D01*
X158074000Y-98879000D01*
X158074000Y-98859000D01*
X158328000Y-98859000D01*
X158328000Y-98879000D01*
X158348000Y-98879000D01*
X158348000Y-99133000D01*
X158328000Y-99133000D01*
X158328000Y-99153000D01*
X158074000Y-99153000D01*
X158074000Y-99133000D01*
X157012250Y-99133000D01*
X156853500Y-99291750D01*
X156852696Y-99446010D01*
X150884913Y-99446010D01*
X150847590Y-99442334D01*
X150810267Y-99446010D01*
X150810257Y-99446010D01*
X150698604Y-99457007D01*
X150555343Y-99500464D01*
X150423313Y-99571036D01*
X150344154Y-99636001D01*
X150307589Y-99666009D01*
X150283791Y-99695007D01*
X145959399Y-104019400D01*
X145897261Y-104019400D01*
X145697302Y-104059174D01*
X145508944Y-104137195D01*
X145339426Y-104250463D01*
X145195263Y-104394626D01*
X145081995Y-104564144D01*
X145003974Y-104752502D01*
X144964200Y-104952461D01*
X144964200Y-105156339D01*
X145003974Y-105356298D01*
X145081995Y-105544656D01*
X145195263Y-105714174D01*
X145339426Y-105858337D01*
X145508944Y-105971605D01*
X145588909Y-106004728D01*
X145149200Y-106004728D01*
X145024718Y-106016988D01*
X144905020Y-106053298D01*
X144794706Y-106112263D01*
X144698015Y-106191615D01*
X144618663Y-106288306D01*
X144559698Y-106398620D01*
X144523388Y-106518318D01*
X144511128Y-106642800D01*
X144511128Y-108342800D01*
X144523388Y-108467282D01*
X144559698Y-108586980D01*
X144618663Y-108697294D01*
X144698015Y-108793985D01*
X144794706Y-108873337D01*
X144905020Y-108932302D01*
X145024718Y-108968612D01*
X145149200Y-108980872D01*
X146849200Y-108980872D01*
X146973682Y-108968612D01*
X147093380Y-108932302D01*
X147203694Y-108873337D01*
X147300385Y-108793985D01*
X147379737Y-108697294D01*
X147438702Y-108586980D01*
X147460713Y-108514420D01*
X147592568Y-108646275D01*
X147835789Y-108808790D01*
X148106042Y-108920732D01*
X148392940Y-108977800D01*
X148685460Y-108977800D01*
X148972358Y-108920732D01*
X149242611Y-108808790D01*
X149485832Y-108646275D01*
X149692675Y-108439432D01*
X149809200Y-108265040D01*
X149925725Y-108439432D01*
X150132568Y-108646275D01*
X150375789Y-108808790D01*
X150646042Y-108920732D01*
X150932940Y-108977800D01*
X151225460Y-108977800D01*
X151512358Y-108920732D01*
X151782611Y-108808790D01*
X152025832Y-108646275D01*
X152232675Y-108439432D01*
X152349200Y-108265040D01*
X152465725Y-108439432D01*
X152672568Y-108646275D01*
X152915789Y-108808790D01*
X153186042Y-108920732D01*
X153472940Y-108977800D01*
X153765460Y-108977800D01*
X154052358Y-108920732D01*
X154322611Y-108808790D01*
X154565832Y-108646275D01*
X154772675Y-108439432D01*
X154889200Y-108265040D01*
X155005725Y-108439432D01*
X155212568Y-108646275D01*
X155455789Y-108808790D01*
X155726042Y-108920732D01*
X156012940Y-108977800D01*
X156305460Y-108977800D01*
X156592358Y-108920732D01*
X156862611Y-108808790D01*
X157105832Y-108646275D01*
X157312675Y-108439432D01*
X157429200Y-108265040D01*
X157545725Y-108439432D01*
X157752568Y-108646275D01*
X157995789Y-108808790D01*
X158266042Y-108920732D01*
X158552940Y-108977800D01*
X158845460Y-108977800D01*
X159132358Y-108920732D01*
X159402611Y-108808790D01*
X159645832Y-108646275D01*
X159852675Y-108439432D01*
X159969200Y-108265040D01*
X160085725Y-108439432D01*
X160292568Y-108646275D01*
X160535789Y-108808790D01*
X160806042Y-108920732D01*
X161092940Y-108977800D01*
X161385460Y-108977800D01*
X161672358Y-108920732D01*
X161942611Y-108808790D01*
X162185832Y-108646275D01*
X162392675Y-108439432D01*
X162509200Y-108265040D01*
X162625725Y-108439432D01*
X162832568Y-108646275D01*
X163075789Y-108808790D01*
X163346042Y-108920732D01*
X163632940Y-108977800D01*
X163925460Y-108977800D01*
X164212358Y-108920732D01*
X164482611Y-108808790D01*
X164725832Y-108646275D01*
X164932675Y-108439432D01*
X165095190Y-108196211D01*
X165207132Y-107925958D01*
X165264200Y-107639060D01*
X165264200Y-107346540D01*
X165207132Y-107059642D01*
X165095190Y-106789389D01*
X164932675Y-106546168D01*
X164725832Y-106339325D01*
X164482611Y-106176810D01*
X164212358Y-106064868D01*
X163925460Y-106007800D01*
X163632940Y-106007800D01*
X163346042Y-106064868D01*
X163075789Y-106176810D01*
X162832568Y-106339325D01*
X162625725Y-106546168D01*
X162509200Y-106720560D01*
X162392675Y-106546168D01*
X162185832Y-106339325D01*
X161942611Y-106176810D01*
X161672358Y-106064868D01*
X161385460Y-106007800D01*
X161092940Y-106007800D01*
X160806042Y-106064868D01*
X160535789Y-106176810D01*
X160292568Y-106339325D01*
X160085725Y-106546168D01*
X159969200Y-106720560D01*
X159852675Y-106546168D01*
X159645832Y-106339325D01*
X159402611Y-106176810D01*
X159132358Y-106064868D01*
X158845460Y-106007800D01*
X158552940Y-106007800D01*
X158266042Y-106064868D01*
X157995789Y-106176810D01*
X157752568Y-106339325D01*
X157545725Y-106546168D01*
X157429200Y-106720560D01*
X157312675Y-106546168D01*
X157105832Y-106339325D01*
X156862611Y-106176810D01*
X156592358Y-106064868D01*
X156305460Y-106007800D01*
X156012940Y-106007800D01*
X155726042Y-106064868D01*
X155455789Y-106176810D01*
X155212568Y-106339325D01*
X155005725Y-106546168D01*
X154889200Y-106720560D01*
X154772675Y-106546168D01*
X154565832Y-106339325D01*
X154322611Y-106176810D01*
X154052358Y-106064868D01*
X153765460Y-106007800D01*
X153472940Y-106007800D01*
X153186042Y-106064868D01*
X152915789Y-106176810D01*
X152672568Y-106339325D01*
X152465725Y-106546168D01*
X152349200Y-106720560D01*
X152232675Y-106546168D01*
X152025832Y-106339325D01*
X151782611Y-106176810D01*
X151512358Y-106064868D01*
X151225460Y-106007800D01*
X150932940Y-106007800D01*
X150646042Y-106064868D01*
X150375789Y-106176810D01*
X150132568Y-106339325D01*
X149925725Y-106546168D01*
X149809200Y-106720560D01*
X149692675Y-106546168D01*
X149485832Y-106339325D01*
X149242611Y-106176810D01*
X148972358Y-106064868D01*
X148919215Y-106054297D01*
X148942698Y-106049626D01*
X149131056Y-105971605D01*
X149300574Y-105858337D01*
X149344511Y-105814400D01*
X154652378Y-105814400D01*
X154689700Y-105818076D01*
X154727022Y-105814400D01*
X154727033Y-105814400D01*
X154838686Y-105803403D01*
X154981947Y-105759946D01*
X155113976Y-105689374D01*
X155229701Y-105594401D01*
X155253504Y-105565397D01*
X159194011Y-101624890D01*
X167944524Y-101624890D01*
X167989175Y-101772099D01*
X168114359Y-102034920D01*
X168288412Y-102268269D01*
X168504645Y-102463178D01*
X168754748Y-102612157D01*
X169029109Y-102709481D01*
X169259000Y-102588814D01*
X169259000Y-101395000D01*
X169513000Y-101395000D01*
X169513000Y-102588814D01*
X169742891Y-102709481D01*
X170017252Y-102612157D01*
X170267355Y-102463178D01*
X170483588Y-102268269D01*
X170657641Y-102034920D01*
X170782825Y-101772099D01*
X170827476Y-101624890D01*
X170706155Y-101395000D01*
X169513000Y-101395000D01*
X169259000Y-101395000D01*
X168065845Y-101395000D01*
X167944524Y-101624890D01*
X159194011Y-101624890D01*
X160369597Y-100449305D01*
X160373650Y-100451472D01*
X160540246Y-100502008D01*
X160713500Y-100519072D01*
X161638500Y-100519072D01*
X161811754Y-100502008D01*
X161978350Y-100451472D01*
X162131886Y-100369405D01*
X162266462Y-100258962D01*
X162376905Y-100124386D01*
X162458972Y-99970850D01*
X162509508Y-99804254D01*
X162513276Y-99766000D01*
X165830660Y-99766000D01*
X165915702Y-99801226D01*
X166115661Y-99841000D01*
X166319539Y-99841000D01*
X166519498Y-99801226D01*
X166707856Y-99723205D01*
X166877374Y-99609937D01*
X167021537Y-99465774D01*
X167134805Y-99296256D01*
X167212826Y-99107898D01*
X167252600Y-98907939D01*
X167252600Y-98704061D01*
X167212826Y-98504102D01*
X167134805Y-98315744D01*
X167021537Y-98146226D01*
X166877374Y-98002063D01*
X166707856Y-97888795D01*
X166519498Y-97810774D01*
X166415059Y-97790000D01*
X166519498Y-97769226D01*
X166707856Y-97691205D01*
X166877374Y-97577937D01*
X167021537Y-97433774D01*
X167134805Y-97264256D01*
X167212826Y-97075898D01*
X167252600Y-96875939D01*
X167252600Y-96672061D01*
X167212826Y-96472102D01*
X167134805Y-96283744D01*
X167021537Y-96114226D01*
X166877374Y-95970063D01*
X166707856Y-95856795D01*
X166519498Y-95778774D01*
X166319539Y-95739000D01*
X166115661Y-95739000D01*
X165915702Y-95778774D01*
X165727344Y-95856795D01*
X165698602Y-95876000D01*
X162513276Y-95876000D01*
X162509508Y-95837746D01*
X162458972Y-95671150D01*
X162376905Y-95517614D01*
X162266462Y-95383038D01*
X162131886Y-95272595D01*
X161978350Y-95190528D01*
X161811754Y-95139992D01*
X161638500Y-95122928D01*
X160898490Y-95122928D01*
X160898490Y-94785911D01*
X161888602Y-93795800D01*
X161950739Y-93795800D01*
X162150698Y-93756026D01*
X162339056Y-93678005D01*
X162508574Y-93564737D01*
X162652737Y-93420574D01*
X162766005Y-93251056D01*
X162844026Y-93062698D01*
X162883800Y-92862739D01*
X162883800Y-92658861D01*
X162844026Y-92458902D01*
X162766005Y-92270544D01*
X162652737Y-92101026D01*
X162508574Y-91956863D01*
X162339056Y-91843595D01*
X162198749Y-91785477D01*
X162252298Y-91774826D01*
X162440656Y-91696805D01*
X162610174Y-91583537D01*
X162754337Y-91439374D01*
X162867605Y-91269856D01*
X162945626Y-91081498D01*
X162985400Y-90881539D01*
X162985400Y-90677661D01*
X162945626Y-90477702D01*
X162867605Y-90289344D01*
X162754337Y-90119826D01*
X162610174Y-89975663D01*
X162440656Y-89862395D01*
X162252298Y-89784374D01*
X162052339Y-89744600D01*
X161848461Y-89744600D01*
X161648502Y-89784374D01*
X161460144Y-89862395D01*
X161290626Y-89975663D01*
X161146463Y-90119826D01*
X161033195Y-90289344D01*
X160955174Y-90477702D01*
X160915400Y-90677661D01*
X160915400Y-90739797D01*
X158848598Y-92806601D01*
X158819600Y-92830399D01*
X158795802Y-92859397D01*
X158795801Y-92859398D01*
X158724626Y-92946124D01*
X158654054Y-93078154D01*
X158630501Y-93155800D01*
X158610598Y-93221414D01*
X158604170Y-93286676D01*
X158595924Y-93370400D01*
X158599601Y-93407732D01*
X158599601Y-95084799D01*
X156259804Y-92745003D01*
X156236001Y-92715999D01*
X156120276Y-92621026D01*
X155988247Y-92550454D01*
X155926803Y-92531816D01*
X155919508Y-92457746D01*
X155868972Y-92291150D01*
X155786905Y-92137614D01*
X155676462Y-92003038D01*
X155541886Y-91892595D01*
X155536111Y-91889508D01*
X155548962Y-91878962D01*
X155659405Y-91744386D01*
X155741472Y-91590850D01*
X155792008Y-91424254D01*
X155809072Y-91251000D01*
X155809072Y-90001000D01*
X155792008Y-89827746D01*
X155741472Y-89661150D01*
X155659405Y-89507614D01*
X155548962Y-89373038D01*
X155489351Y-89324117D01*
X155579405Y-89214386D01*
X155661472Y-89060850D01*
X155712008Y-88894254D01*
X155729072Y-88721000D01*
X155729072Y-88532729D01*
X163947401Y-80314401D01*
X168092371Y-80314401D01*
X168092525Y-80314632D01*
X168299368Y-80521475D01*
X168481534Y-80643195D01*
X168364645Y-80712822D01*
X168148412Y-80907731D01*
X167974359Y-81141080D01*
X167849175Y-81403901D01*
X167804524Y-81551110D01*
X167925845Y-81781000D01*
X169119000Y-81781000D01*
X169119000Y-81761000D01*
X169373000Y-81761000D01*
X169373000Y-81781000D01*
X169393000Y-81781000D01*
X169393000Y-82035000D01*
X169373000Y-82035000D01*
X169373000Y-82055000D01*
X169119000Y-82055000D01*
X169119000Y-82035000D01*
X167925845Y-82035000D01*
X167804524Y-82264890D01*
X167849175Y-82412099D01*
X167974359Y-82674920D01*
X168148412Y-82908269D01*
X168364645Y-83103178D01*
X168481534Y-83172805D01*
X168299368Y-83294525D01*
X168092525Y-83501368D01*
X167930010Y-83744589D01*
X167818068Y-84014842D01*
X167761000Y-84301740D01*
X167761000Y-84594260D01*
X167818068Y-84881158D01*
X167930010Y-85151411D01*
X168092525Y-85394632D01*
X168224380Y-85526487D01*
X168151820Y-85548498D01*
X168041506Y-85607463D01*
X167944815Y-85686815D01*
X167865463Y-85783506D01*
X167806498Y-85893820D01*
X167770188Y-86013518D01*
X167757928Y-86138000D01*
X167757928Y-87838000D01*
X167770188Y-87962482D01*
X167806498Y-88082180D01*
X167865463Y-88192494D01*
X167944815Y-88289185D01*
X168041506Y-88368537D01*
X168151820Y-88427502D01*
X168271518Y-88463812D01*
X168396000Y-88476072D01*
X169661001Y-88476072D01*
X169661001Y-90983197D01*
X169409222Y-91234977D01*
X169384386Y-91214595D01*
X169230850Y-91132528D01*
X169064254Y-91081992D01*
X168891000Y-91064928D01*
X168141000Y-91064928D01*
X167967746Y-91081992D01*
X167801150Y-91132528D01*
X167647614Y-91214595D01*
X167513038Y-91325038D01*
X167402595Y-91459614D01*
X167320528Y-91613150D01*
X167269992Y-91779746D01*
X167252928Y-91953000D01*
X167252928Y-93203000D01*
X167269992Y-93376254D01*
X167320528Y-93542850D01*
X167402595Y-93696386D01*
X167513038Y-93830962D01*
X167647614Y-93941405D01*
X167801150Y-94023472D01*
X167967746Y-94074008D01*
X168141000Y-94091072D01*
X168891000Y-94091072D01*
X169064254Y-94074008D01*
X169230850Y-94023472D01*
X169384386Y-93941405D01*
X169518962Y-93830962D01*
X169629405Y-93696386D01*
X169711472Y-93542850D01*
X169762008Y-93376254D01*
X169779072Y-93203000D01*
X169779072Y-93014729D01*
X170052928Y-92740873D01*
X170052928Y-93203000D01*
X170069992Y-93376254D01*
X170120528Y-93542850D01*
X170202595Y-93696386D01*
X170313038Y-93830962D01*
X170447614Y-93941405D01*
X170556001Y-93999339D01*
X170556001Y-94789026D01*
X170480180Y-94748498D01*
X170360482Y-94712188D01*
X170236000Y-94699928D01*
X168536000Y-94699928D01*
X168411518Y-94712188D01*
X168291820Y-94748498D01*
X168181506Y-94807463D01*
X168084815Y-94886815D01*
X168005463Y-94983506D01*
X167946498Y-95093820D01*
X167910188Y-95213518D01*
X167897928Y-95338000D01*
X167897928Y-97038000D01*
X167910188Y-97162482D01*
X167946498Y-97282180D01*
X168005463Y-97392494D01*
X168084815Y-97489185D01*
X168181506Y-97568537D01*
X168291820Y-97627502D01*
X168364380Y-97649513D01*
X168232525Y-97781368D01*
X168070010Y-98024589D01*
X167958068Y-98294842D01*
X167901000Y-98581740D01*
X167901000Y-98874260D01*
X167958068Y-99161158D01*
X168070010Y-99431411D01*
X168232525Y-99674632D01*
X168439368Y-99881475D01*
X168621534Y-100003195D01*
X168504645Y-100072822D01*
X168288412Y-100267731D01*
X168114359Y-100501080D01*
X167989175Y-100763901D01*
X167944524Y-100911110D01*
X168065845Y-101141000D01*
X169259000Y-101141000D01*
X169259000Y-101121000D01*
X169513000Y-101121000D01*
X169513000Y-101141000D01*
X170706155Y-101141000D01*
X170827476Y-100911110D01*
X170782825Y-100763901D01*
X170657641Y-100501080D01*
X170483588Y-100267731D01*
X170267355Y-100072822D01*
X170150466Y-100003195D01*
X170332632Y-99881475D01*
X170539475Y-99674632D01*
X170701990Y-99431411D01*
X170813932Y-99161158D01*
X170871000Y-98874260D01*
X170871000Y-98581740D01*
X170813932Y-98294842D01*
X170701990Y-98024589D01*
X170539475Y-97781368D01*
X170407620Y-97649513D01*
X170480180Y-97627502D01*
X170590494Y-97568537D01*
X170687185Y-97489185D01*
X170766537Y-97392494D01*
X170825502Y-97282180D01*
X170861812Y-97162482D01*
X170874072Y-97038000D01*
X170874072Y-96842326D01*
X170910276Y-96822974D01*
X171026001Y-96728001D01*
X171049803Y-96698998D01*
X171827002Y-95921799D01*
X171856001Y-95898001D01*
X171950974Y-95782276D01*
X172021546Y-95650247D01*
X172065003Y-95506986D01*
X172076000Y-95395333D01*
X172076000Y-95395324D01*
X172079676Y-95358001D01*
X172076000Y-95320678D01*
X172076000Y-93999339D01*
X172184386Y-93941405D01*
X172318962Y-93830962D01*
X172429405Y-93696386D01*
X172511472Y-93542850D01*
X172562008Y-93376254D01*
X172568000Y-93315411D01*
X172568001Y-111608000D01*
X102260000Y-111608000D01*
X102260000Y-98813002D01*
X102393768Y-98813002D01*
X102269038Y-99003609D01*
X102272909Y-99041282D01*
X102365079Y-99266533D01*
X102499422Y-99469474D01*
X102670775Y-99642307D01*
X102872554Y-99778390D01*
X103097004Y-99872493D01*
X103335500Y-99921000D01*
X103685500Y-99921000D01*
X103685500Y-98813000D01*
X103939500Y-98813000D01*
X103939500Y-99921000D01*
X104289500Y-99921000D01*
X104527996Y-99872493D01*
X104752446Y-99778390D01*
X104954225Y-99642307D01*
X105125578Y-99469474D01*
X105259921Y-99266533D01*
X105352091Y-99041282D01*
X105355962Y-99003609D01*
X105231231Y-98813000D01*
X103939500Y-98813000D01*
X103685500Y-98813000D01*
X103665500Y-98813000D01*
X103665500Y-98625133D01*
X105752972Y-98625133D01*
X105815465Y-98861450D01*
X106058178Y-98974850D01*
X106318349Y-99038719D01*
X106585982Y-99050604D01*
X106850791Y-99010048D01*
X107102600Y-98918609D01*
X107209535Y-98861450D01*
X107272028Y-98625133D01*
X106512500Y-97865605D01*
X105752972Y-98625133D01*
X103665500Y-98625133D01*
X103665500Y-98559000D01*
X103685500Y-98559000D01*
X103685500Y-97451000D01*
X103939500Y-97451000D01*
X103939500Y-98559000D01*
X105231231Y-98559000D01*
X105345003Y-98385138D01*
X105573367Y-98445528D01*
X106332895Y-97686000D01*
X106692105Y-97686000D01*
X107451633Y-98445528D01*
X107687950Y-98383035D01*
X107801350Y-98140322D01*
X107865219Y-97880151D01*
X107877104Y-97612518D01*
X107836548Y-97347709D01*
X107745109Y-97095900D01*
X107687950Y-96988965D01*
X107451633Y-96926472D01*
X106692105Y-97686000D01*
X106332895Y-97686000D01*
X105573367Y-96926472D01*
X105337050Y-96988965D01*
X105223650Y-97231678D01*
X105159781Y-97491849D01*
X105147896Y-97759482D01*
X105183115Y-97989442D01*
X105125578Y-97902526D01*
X104954225Y-97729693D01*
X104752446Y-97593610D01*
X104527996Y-97499507D01*
X104289500Y-97451000D01*
X103939500Y-97451000D01*
X103685500Y-97451000D01*
X103335500Y-97451000D01*
X103097004Y-97499507D01*
X102872554Y-97593610D01*
X102670775Y-97729693D01*
X102499422Y-97902526D01*
X102365079Y-98105467D01*
X102272909Y-98330718D01*
X102269038Y-98368391D01*
X102393768Y-98558998D01*
X102260000Y-98558998D01*
X102260000Y-96746867D01*
X105752972Y-96746867D01*
X106512500Y-97506395D01*
X107272028Y-96746867D01*
X107209535Y-96510550D01*
X106966822Y-96397150D01*
X106706651Y-96333281D01*
X106439018Y-96321396D01*
X106174209Y-96361952D01*
X105922400Y-96453391D01*
X105815465Y-96510550D01*
X105752972Y-96746867D01*
X102260000Y-96746867D01*
X102260000Y-93625133D01*
X105752972Y-93625133D01*
X105815465Y-93861450D01*
X106058178Y-93974850D01*
X106318349Y-94038719D01*
X106585982Y-94050604D01*
X106850791Y-94010048D01*
X107102600Y-93918609D01*
X107209535Y-93861450D01*
X107272028Y-93625133D01*
X106512500Y-92865605D01*
X105752972Y-93625133D01*
X102260000Y-93625133D01*
X102260000Y-91813002D01*
X102393768Y-91813002D01*
X102269038Y-92003609D01*
X102272909Y-92041282D01*
X102365079Y-92266533D01*
X102499422Y-92469474D01*
X102670775Y-92642307D01*
X102872554Y-92778390D01*
X103097004Y-92872493D01*
X103335500Y-92921000D01*
X103685500Y-92921000D01*
X103685500Y-91813000D01*
X103939500Y-91813000D01*
X103939500Y-92921000D01*
X104289500Y-92921000D01*
X104527996Y-92872493D01*
X104752446Y-92778390D01*
X104954225Y-92642307D01*
X105125578Y-92469474D01*
X105188671Y-92374164D01*
X105159781Y-92491849D01*
X105147896Y-92759482D01*
X105188452Y-93024291D01*
X105279891Y-93276100D01*
X105337050Y-93383035D01*
X105573367Y-93445528D01*
X106332895Y-92686000D01*
X106692105Y-92686000D01*
X107451633Y-93445528D01*
X107638922Y-93396000D01*
X126346928Y-93396000D01*
X126359188Y-93520482D01*
X126395498Y-93640180D01*
X126454463Y-93750494D01*
X126533815Y-93847185D01*
X126630506Y-93926537D01*
X126740820Y-93985502D01*
X126860518Y-94021812D01*
X126985000Y-94034072D01*
X126999250Y-94031000D01*
X127158000Y-93872250D01*
X127158000Y-92723000D01*
X126508750Y-92723000D01*
X126350000Y-92881750D01*
X126346928Y-93396000D01*
X107638922Y-93396000D01*
X107687950Y-93383035D01*
X107801350Y-93140322D01*
X107865219Y-92880151D01*
X107877104Y-92612518D01*
X107836548Y-92347709D01*
X107745109Y-92095900D01*
X107687950Y-91988965D01*
X107451633Y-91926472D01*
X106692105Y-92686000D01*
X106332895Y-92686000D01*
X105573367Y-91926472D01*
X105345003Y-91986862D01*
X105231231Y-91813000D01*
X103939500Y-91813000D01*
X103685500Y-91813000D01*
X103665500Y-91813000D01*
X103665500Y-91746867D01*
X105752972Y-91746867D01*
X106512500Y-92506395D01*
X107222895Y-91796000D01*
X126346928Y-91796000D01*
X126350000Y-92310250D01*
X126508750Y-92469000D01*
X127158000Y-92469000D01*
X127158000Y-91319750D01*
X126999250Y-91161000D01*
X126985000Y-91157928D01*
X126860518Y-91170188D01*
X126740820Y-91206498D01*
X126630506Y-91265463D01*
X126533815Y-91344815D01*
X126454463Y-91441506D01*
X126395498Y-91551820D01*
X126359188Y-91671518D01*
X126346928Y-91796000D01*
X107222895Y-91796000D01*
X107272028Y-91746867D01*
X107209535Y-91510550D01*
X106966822Y-91397150D01*
X106706651Y-91333281D01*
X106439018Y-91321396D01*
X106174209Y-91361952D01*
X105922400Y-91453391D01*
X105815465Y-91510550D01*
X105752972Y-91746867D01*
X103665500Y-91746867D01*
X103665500Y-91559000D01*
X103685500Y-91559000D01*
X103685500Y-90451000D01*
X103939500Y-90451000D01*
X103939500Y-91559000D01*
X105231231Y-91559000D01*
X105355962Y-91368391D01*
X105352091Y-91330718D01*
X105259921Y-91105467D01*
X105125578Y-90902526D01*
X104954225Y-90729693D01*
X104752446Y-90593610D01*
X104527996Y-90499507D01*
X104289500Y-90451000D01*
X103939500Y-90451000D01*
X103685500Y-90451000D01*
X103335500Y-90451000D01*
X103097004Y-90499507D01*
X102872554Y-90593610D01*
X102670775Y-90729693D01*
X102499422Y-90902526D01*
X102365079Y-91105467D01*
X102272909Y-91330718D01*
X102269038Y-91368391D01*
X102393768Y-91558998D01*
X102260000Y-91558998D01*
X102260000Y-79414000D01*
X106207928Y-79414000D01*
X106211000Y-79978250D01*
X106369750Y-80137000D01*
X107569000Y-80137000D01*
X107569000Y-78937750D01*
X107823000Y-78937750D01*
X107823000Y-80137000D01*
X109022250Y-80137000D01*
X109181000Y-79978250D01*
X109184072Y-79414000D01*
X109171812Y-79289518D01*
X109135502Y-79169820D01*
X109076537Y-79059506D01*
X108997185Y-78962815D01*
X108900494Y-78883463D01*
X108790180Y-78824498D01*
X108670482Y-78788188D01*
X108546000Y-78775928D01*
X107981750Y-78779000D01*
X107823000Y-78937750D01*
X107569000Y-78937750D01*
X107410250Y-78779000D01*
X106846000Y-78775928D01*
X106721518Y-78788188D01*
X106601820Y-78824498D01*
X106491506Y-78883463D01*
X106394815Y-78962815D01*
X106315463Y-79059506D01*
X106256498Y-79169820D01*
X106220188Y-79289518D01*
X106207928Y-79414000D01*
X102260000Y-79414000D01*
X102260000Y-76860000D01*
X172568000Y-76860000D01*
X172568000Y-91840588D01*
M02*
