G04 #@! TF.GenerationSoftware,KiCad,Pcbnew,(5.1.5)-3*
G04 #@! TF.CreationDate,2020-12-22T19:25:10+13:00*
G04 #@! TF.ProjectId,SensorNodeCircuit,53656e73-6f72-44e6-9f64-654369726375,rev?*
G04 #@! TF.SameCoordinates,Original*
G04 #@! TF.FileFunction,Legend,Bot*
G04 #@! TF.FilePolarity,Positive*
%FSLAX46Y46*%
G04 Gerber Fmt 4.6, Leading zero omitted, Abs format (unit mm)*
G04 Created by KiCad (PCBNEW (5.1.5)-3) date 2020-12-22 19:25:10*
%MOMM*%
%LPD*%
G04 APERTURE LIST*
%ADD10C,0.120000*%
%ADD11C,0.150000*%
G04 APERTURE END LIST*
D10*
X137910000Y-95183936D02*
X137910000Y-96388064D01*
X139730000Y-95183936D02*
X139730000Y-96388064D01*
X153668064Y-89006000D02*
X152463936Y-89006000D01*
X153668064Y-87186000D02*
X152463936Y-87186000D01*
X152543936Y-91536000D02*
X153748064Y-91536000D01*
X152543936Y-89716000D02*
X153748064Y-89716000D01*
X152496436Y-94166000D02*
X153700564Y-94166000D01*
X152496436Y-92346000D02*
X153700564Y-92346000D01*
X160290564Y-99916000D02*
X159086436Y-99916000D01*
X160290564Y-98096000D02*
X159086436Y-98096000D01*
X159086436Y-97546000D02*
X160290564Y-97546000D01*
X159086436Y-95726000D02*
X160290564Y-95726000D01*
X132690000Y-105688064D02*
X132690000Y-104483936D01*
X130870000Y-105688064D02*
X130870000Y-104483936D01*
X169313936Y-91668000D02*
X170518064Y-91668000D01*
X169313936Y-93488000D02*
X170518064Y-93488000D01*
X126470000Y-95846000D02*
X126470000Y-93461000D01*
X126470000Y-93461000D02*
X126725000Y-93461000D01*
X126470000Y-95846000D02*
X126470000Y-98231000D01*
X126470000Y-98231000D02*
X126725000Y-98231000D01*
X136990000Y-95846000D02*
X136990000Y-93461000D01*
X136990000Y-93461000D02*
X136735000Y-93461000D01*
X136990000Y-95846000D02*
X136990000Y-98231000D01*
X136990000Y-98231000D02*
X136735000Y-98231000D01*
X136735000Y-98231000D02*
X136735000Y-99896000D01*
X125582000Y-80826436D02*
X125582000Y-82030564D01*
X127402000Y-80826436D02*
X127402000Y-82030564D01*
D11*
X138986666Y-99380642D02*
X139034285Y-99428261D01*
X139177142Y-99475880D01*
X139272380Y-99475880D01*
X139415238Y-99428261D01*
X139510476Y-99333023D01*
X139558095Y-99237785D01*
X139605714Y-99047309D01*
X139605714Y-98904452D01*
X139558095Y-98713976D01*
X139510476Y-98618738D01*
X139415238Y-98523500D01*
X139272380Y-98475880D01*
X139177142Y-98475880D01*
X139034285Y-98523500D01*
X138986666Y-98571119D01*
X138081904Y-98475880D02*
X138558095Y-98475880D01*
X138605714Y-98952071D01*
X138558095Y-98904452D01*
X138462857Y-98856833D01*
X138224761Y-98856833D01*
X138129523Y-98904452D01*
X138081904Y-98952071D01*
X138034285Y-99047309D01*
X138034285Y-99285404D01*
X138081904Y-99380642D01*
X138129523Y-99428261D01*
X138224761Y-99475880D01*
X138462857Y-99475880D01*
X138558095Y-99428261D01*
X138605714Y-99380642D01*
X153232666Y-86728380D02*
X153566000Y-86252190D01*
X153804095Y-86728380D02*
X153804095Y-85728380D01*
X153423142Y-85728380D01*
X153327904Y-85776000D01*
X153280285Y-85823619D01*
X153232666Y-85918857D01*
X153232666Y-86061714D01*
X153280285Y-86156952D01*
X153327904Y-86204571D01*
X153423142Y-86252190D01*
X153804095Y-86252190D01*
X152280285Y-86728380D02*
X152851714Y-86728380D01*
X152566000Y-86728380D02*
X152566000Y-85728380D01*
X152661238Y-85871238D01*
X152756476Y-85966476D01*
X152851714Y-86014095D01*
X156053619Y-90892666D02*
X156529809Y-91226000D01*
X156053619Y-91464095D02*
X157053619Y-91464095D01*
X157053619Y-91083142D01*
X157006000Y-90987904D01*
X156958380Y-90940285D01*
X156863142Y-90892666D01*
X156720285Y-90892666D01*
X156625047Y-90940285D01*
X156577428Y-90987904D01*
X156529809Y-91083142D01*
X156529809Y-91464095D01*
X156958380Y-90511714D02*
X157006000Y-90464095D01*
X157053619Y-90368857D01*
X157053619Y-90130761D01*
X157006000Y-90035523D01*
X156958380Y-89987904D01*
X156863142Y-89940285D01*
X156767904Y-89940285D01*
X156625047Y-89987904D01*
X156053619Y-90559333D01*
X156053619Y-89940285D01*
X156173619Y-93382666D02*
X156649809Y-93716000D01*
X156173619Y-93954095D02*
X157173619Y-93954095D01*
X157173619Y-93573142D01*
X157126000Y-93477904D01*
X157078380Y-93430285D01*
X156983142Y-93382666D01*
X156840285Y-93382666D01*
X156745047Y-93430285D01*
X156697428Y-93477904D01*
X156649809Y-93573142D01*
X156649809Y-93954095D01*
X157173619Y-93049333D02*
X157173619Y-92430285D01*
X156792666Y-92763619D01*
X156792666Y-92620761D01*
X156745047Y-92525523D01*
X156697428Y-92477904D01*
X156602190Y-92430285D01*
X156364095Y-92430285D01*
X156268857Y-92477904D01*
X156221238Y-92525523D01*
X156173619Y-92620761D01*
X156173619Y-92906476D01*
X156221238Y-93001714D01*
X156268857Y-93049333D01*
X156840880Y-98769333D02*
X156364690Y-98436000D01*
X156840880Y-98197904D02*
X155840880Y-98197904D01*
X155840880Y-98578857D01*
X155888500Y-98674095D01*
X155936119Y-98721714D01*
X156031357Y-98769333D01*
X156174214Y-98769333D01*
X156269452Y-98721714D01*
X156317071Y-98674095D01*
X156364690Y-98578857D01*
X156364690Y-98197904D01*
X156174214Y-99626476D02*
X156840880Y-99626476D01*
X155793261Y-99388380D02*
X156507547Y-99150285D01*
X156507547Y-99769333D01*
X156800880Y-96469333D02*
X156324690Y-96136000D01*
X156800880Y-95897904D02*
X155800880Y-95897904D01*
X155800880Y-96278857D01*
X155848500Y-96374095D01*
X155896119Y-96421714D01*
X155991357Y-96469333D01*
X156134214Y-96469333D01*
X156229452Y-96421714D01*
X156277071Y-96374095D01*
X156324690Y-96278857D01*
X156324690Y-95897904D01*
X155800880Y-97374095D02*
X155800880Y-96897904D01*
X156277071Y-96850285D01*
X156229452Y-96897904D01*
X156181833Y-96993142D01*
X156181833Y-97231238D01*
X156229452Y-97326476D01*
X156277071Y-97374095D01*
X156372309Y-97421714D01*
X156610404Y-97421714D01*
X156705642Y-97374095D01*
X156753261Y-97326476D01*
X156800880Y-97231238D01*
X156800880Y-96993142D01*
X156753261Y-96897904D01*
X156705642Y-96850285D01*
X131966666Y-108498380D02*
X132300000Y-108022190D01*
X132538095Y-108498380D02*
X132538095Y-107498380D01*
X132157142Y-107498380D01*
X132061904Y-107546000D01*
X132014285Y-107593619D01*
X131966666Y-107688857D01*
X131966666Y-107831714D01*
X132014285Y-107926952D01*
X132061904Y-107974571D01*
X132157142Y-108022190D01*
X132538095Y-108022190D01*
X131633333Y-107498380D02*
X130966666Y-107498380D01*
X131395238Y-108498380D01*
X170082666Y-94850380D02*
X170416000Y-94374190D01*
X170654095Y-94850380D02*
X170654095Y-93850380D01*
X170273142Y-93850380D01*
X170177904Y-93898000D01*
X170130285Y-93945619D01*
X170082666Y-94040857D01*
X170082666Y-94183714D01*
X170130285Y-94278952D01*
X170177904Y-94326571D01*
X170273142Y-94374190D01*
X170654095Y-94374190D01*
X169511238Y-94278952D02*
X169606476Y-94231333D01*
X169654095Y-94183714D01*
X169701714Y-94088476D01*
X169701714Y-94040857D01*
X169654095Y-93945619D01*
X169606476Y-93898000D01*
X169511238Y-93850380D01*
X169320761Y-93850380D01*
X169225523Y-93898000D01*
X169177904Y-93945619D01*
X169130285Y-94040857D01*
X169130285Y-94088476D01*
X169177904Y-94183714D01*
X169225523Y-94231333D01*
X169320761Y-94278952D01*
X169511238Y-94278952D01*
X169606476Y-94326571D01*
X169654095Y-94374190D01*
X169701714Y-94469428D01*
X169701714Y-94659904D01*
X169654095Y-94755142D01*
X169606476Y-94802761D01*
X169511238Y-94850380D01*
X169320761Y-94850380D01*
X169225523Y-94802761D01*
X169177904Y-94755142D01*
X169130285Y-94659904D01*
X169130285Y-94469428D01*
X169177904Y-94374190D01*
X169225523Y-94326571D01*
X169320761Y-94278952D01*
X132527619Y-96797904D02*
X131718095Y-96797904D01*
X131622857Y-96750285D01*
X131575238Y-96702666D01*
X131527619Y-96607428D01*
X131527619Y-96416952D01*
X131575238Y-96321714D01*
X131622857Y-96274095D01*
X131718095Y-96226476D01*
X132527619Y-96226476D01*
X132527619Y-95845523D02*
X132527619Y-95226476D01*
X132146666Y-95559809D01*
X132146666Y-95416952D01*
X132099047Y-95321714D01*
X132051428Y-95274095D01*
X131956190Y-95226476D01*
X131718095Y-95226476D01*
X131622857Y-95274095D01*
X131575238Y-95321714D01*
X131527619Y-95416952D01*
X131527619Y-95702666D01*
X131575238Y-95797904D01*
X131622857Y-95845523D01*
X126944380Y-77714333D02*
X126468190Y-77381000D01*
X126944380Y-77142904D02*
X125944380Y-77142904D01*
X125944380Y-77523857D01*
X125992000Y-77619095D01*
X126039619Y-77666714D01*
X126134857Y-77714333D01*
X126277714Y-77714333D01*
X126372952Y-77666714D01*
X126420571Y-77619095D01*
X126468190Y-77523857D01*
X126468190Y-77142904D01*
X126944380Y-78190523D02*
X126944380Y-78381000D01*
X126896761Y-78476238D01*
X126849142Y-78523857D01*
X126706285Y-78619095D01*
X126515809Y-78666714D01*
X126134857Y-78666714D01*
X126039619Y-78619095D01*
X125992000Y-78571476D01*
X125944380Y-78476238D01*
X125944380Y-78285761D01*
X125992000Y-78190523D01*
X126039619Y-78142904D01*
X126134857Y-78095285D01*
X126372952Y-78095285D01*
X126468190Y-78142904D01*
X126515809Y-78190523D01*
X126563428Y-78285761D01*
X126563428Y-78476238D01*
X126515809Y-78571476D01*
X126468190Y-78619095D01*
X126372952Y-78666714D01*
M02*
