M48
; DRILL file {KiCad (5.1.5)-3} date 22-Dec-20 7:26:15 PM
; FORMAT={-:-/ absolute / inch / decimal}
; #@! TF.CreationDate,2020-12-22T19:26:15+13:00
; #@! TF.GenerationSoftware,Kicad,Pcbnew,(5.1.5)-3
FMAT,2
INCH
T1C0.0157
T2C0.0236
T3C0.0295
T4C0.0315
T5C0.0335
T6C0.0394
T7C0.0433
%
G90
G05
T1
X5.06Y-3.728
X5.112Y-3.72
X5.214Y-3.814
X5.32Y-3.796
X5.552Y-3.698
X5.64Y-3.544
X5.748Y-4.136
X5.768Y-3.576
X5.768Y-3.656
X5.772Y-3.924
X5.852Y-4.136
X6.372Y-3.652
X6.376Y-3.574
X6.544Y-3.81
X6.544Y-3.89
T3
X4.7307Y-4.2199
X4.7807Y-4.2199
X4.8307Y-4.2199
T4
X5.1024Y-3.1648
X5.1024Y-3.2648
X5.1024Y-3.3648
X5.1024Y-3.4648
X5.0374Y-4.1475
X5.3366Y-4.1475
T5
X4.1934Y-3.6491
X4.1934Y-3.8459
T6
X6.6632Y-3.1247
X6.6632Y-3.2247
X6.6632Y-3.3247
X6.6632Y-3.4247
X5.748Y-4.232
X5.848Y-4.232
X5.948Y-4.232
X6.048Y-4.232
X6.148Y-4.232
X6.248Y-4.232
X6.348Y-4.232
X6.448Y-4.232
X4.62Y-3.18
X4.62Y-3.28
X6.6687Y-3.7869
X6.6687Y-3.8869
X6.6687Y-3.9869
X4.24Y-3.16
X4.24Y-3.26
X4.24Y-3.36
T7
X5.4138Y-3.1672
X5.4138Y-3.4231
X5.5909Y-3.1672
X5.5909Y-3.4231
T2
G00X4.0733Y-3.6097
M15
G01X4.1009Y-3.6097
M16
G05
G00X4.1009Y-3.8853
M15
G01X4.0733Y-3.8853
M16
G05
T0
M30
