G04 #@! TF.GenerationSoftware,KiCad,Pcbnew,(5.1.5)-3*
G04 #@! TF.CreationDate,2020-12-22T19:25:10+13:00*
G04 #@! TF.ProjectId,SensorNodeCircuit,53656e73-6f72-44e6-9f64-654369726375,rev?*
G04 #@! TF.SameCoordinates,Original*
G04 #@! TF.FileFunction,Copper,L1,Top*
G04 #@! TF.FilePolarity,Positive*
%FSLAX46Y46*%
G04 Gerber Fmt 4.6, Leading zero omitted, Abs format (unit mm)*
G04 Created by KiCad (PCBNEW (5.1.5)-3) date 2020-12-22 19:25:10*
%MOMM*%
%LPD*%
G04 APERTURE LIST*
%ADD10C,0.100000*%
%ADD11R,1.900000X1.500000*%
%ADD12C,1.450000*%
%ADD13R,1.350000X0.400000*%
%ADD14O,1.900000X1.200000*%
%ADD15R,1.900000X1.200000*%
%ADD16R,1.700000X1.700000*%
%ADD17O,1.700000X1.700000*%
%ADD18C,1.600000*%
%ADD19R,2.000000X3.800000*%
%ADD20R,2.000000X1.500000*%
%ADD21R,2.500000X1.000000*%
%ADD22R,1.000000X1.800000*%
%ADD23O,1.050000X1.500000*%
%ADD24R,1.050000X1.500000*%
%ADD25R,1.500000X1.500000*%
%ADD26C,1.500000*%
%ADD27C,2.000000*%
%ADD28C,0.800000*%
%ADD29C,0.250000*%
%ADD30C,0.254000*%
G04 APERTURE END LIST*
G04 #@! TA.AperFunction,SMDPad,CuDef*
D10*
G36*
X115476504Y-97658204D02*
G01*
X115500773Y-97661804D01*
X115524571Y-97667765D01*
X115547671Y-97676030D01*
X115569849Y-97686520D01*
X115590893Y-97699133D01*
X115610598Y-97713747D01*
X115628777Y-97730223D01*
X115645253Y-97748402D01*
X115659867Y-97768107D01*
X115672480Y-97789151D01*
X115682970Y-97811329D01*
X115691235Y-97834429D01*
X115697196Y-97858227D01*
X115700796Y-97882496D01*
X115702000Y-97907000D01*
X115702000Y-99157000D01*
X115700796Y-99181504D01*
X115697196Y-99205773D01*
X115691235Y-99229571D01*
X115682970Y-99252671D01*
X115672480Y-99274849D01*
X115659867Y-99295893D01*
X115645253Y-99315598D01*
X115628777Y-99333777D01*
X115610598Y-99350253D01*
X115590893Y-99364867D01*
X115569849Y-99377480D01*
X115547671Y-99387970D01*
X115524571Y-99396235D01*
X115500773Y-99402196D01*
X115476504Y-99405796D01*
X115452000Y-99407000D01*
X114527000Y-99407000D01*
X114502496Y-99405796D01*
X114478227Y-99402196D01*
X114454429Y-99396235D01*
X114431329Y-99387970D01*
X114409151Y-99377480D01*
X114388107Y-99364867D01*
X114368402Y-99350253D01*
X114350223Y-99333777D01*
X114333747Y-99315598D01*
X114319133Y-99295893D01*
X114306520Y-99274849D01*
X114296030Y-99252671D01*
X114287765Y-99229571D01*
X114281804Y-99205773D01*
X114278204Y-99181504D01*
X114277000Y-99157000D01*
X114277000Y-97907000D01*
X114278204Y-97882496D01*
X114281804Y-97858227D01*
X114287765Y-97834429D01*
X114296030Y-97811329D01*
X114306520Y-97789151D01*
X114319133Y-97768107D01*
X114333747Y-97748402D01*
X114350223Y-97730223D01*
X114368402Y-97713747D01*
X114388107Y-97699133D01*
X114409151Y-97686520D01*
X114431329Y-97676030D01*
X114454429Y-97667765D01*
X114478227Y-97661804D01*
X114502496Y-97658204D01*
X114527000Y-97657000D01*
X115452000Y-97657000D01*
X115476504Y-97658204D01*
G37*
G04 #@! TD.AperFunction*
G04 #@! TA.AperFunction,SMDPad,CuDef*
G36*
X112501504Y-97658204D02*
G01*
X112525773Y-97661804D01*
X112549571Y-97667765D01*
X112572671Y-97676030D01*
X112594849Y-97686520D01*
X112615893Y-97699133D01*
X112635598Y-97713747D01*
X112653777Y-97730223D01*
X112670253Y-97748402D01*
X112684867Y-97768107D01*
X112697480Y-97789151D01*
X112707970Y-97811329D01*
X112716235Y-97834429D01*
X112722196Y-97858227D01*
X112725796Y-97882496D01*
X112727000Y-97907000D01*
X112727000Y-99157000D01*
X112725796Y-99181504D01*
X112722196Y-99205773D01*
X112716235Y-99229571D01*
X112707970Y-99252671D01*
X112697480Y-99274849D01*
X112684867Y-99295893D01*
X112670253Y-99315598D01*
X112653777Y-99333777D01*
X112635598Y-99350253D01*
X112615893Y-99364867D01*
X112594849Y-99377480D01*
X112572671Y-99387970D01*
X112549571Y-99396235D01*
X112525773Y-99402196D01*
X112501504Y-99405796D01*
X112477000Y-99407000D01*
X111552000Y-99407000D01*
X111527496Y-99405796D01*
X111503227Y-99402196D01*
X111479429Y-99396235D01*
X111456329Y-99387970D01*
X111434151Y-99377480D01*
X111413107Y-99364867D01*
X111393402Y-99350253D01*
X111375223Y-99333777D01*
X111358747Y-99315598D01*
X111344133Y-99295893D01*
X111331520Y-99274849D01*
X111321030Y-99252671D01*
X111312765Y-99229571D01*
X111306804Y-99205773D01*
X111303204Y-99181504D01*
X111302000Y-99157000D01*
X111302000Y-97907000D01*
X111303204Y-97882496D01*
X111306804Y-97858227D01*
X111312765Y-97834429D01*
X111321030Y-97811329D01*
X111331520Y-97789151D01*
X111344133Y-97768107D01*
X111358747Y-97748402D01*
X111375223Y-97730223D01*
X111393402Y-97713747D01*
X111413107Y-97699133D01*
X111434151Y-97686520D01*
X111456329Y-97676030D01*
X111479429Y-97667765D01*
X111503227Y-97661804D01*
X111527496Y-97658204D01*
X111552000Y-97657000D01*
X112477000Y-97657000D01*
X112501504Y-97658204D01*
G37*
G04 #@! TD.AperFunction*
G04 #@! TA.AperFunction,SMDPad,CuDef*
G36*
X112539004Y-100158204D02*
G01*
X112563273Y-100161804D01*
X112587071Y-100167765D01*
X112610171Y-100176030D01*
X112632349Y-100186520D01*
X112653393Y-100199133D01*
X112673098Y-100213747D01*
X112691277Y-100230223D01*
X112707753Y-100248402D01*
X112722367Y-100268107D01*
X112734980Y-100289151D01*
X112745470Y-100311329D01*
X112753735Y-100334429D01*
X112759696Y-100358227D01*
X112763296Y-100382496D01*
X112764500Y-100407000D01*
X112764500Y-101657000D01*
X112763296Y-101681504D01*
X112759696Y-101705773D01*
X112753735Y-101729571D01*
X112745470Y-101752671D01*
X112734980Y-101774849D01*
X112722367Y-101795893D01*
X112707753Y-101815598D01*
X112691277Y-101833777D01*
X112673098Y-101850253D01*
X112653393Y-101864867D01*
X112632349Y-101877480D01*
X112610171Y-101887970D01*
X112587071Y-101896235D01*
X112563273Y-101902196D01*
X112539004Y-101905796D01*
X112514500Y-101907000D01*
X111589500Y-101907000D01*
X111564996Y-101905796D01*
X111540727Y-101902196D01*
X111516929Y-101896235D01*
X111493829Y-101887970D01*
X111471651Y-101877480D01*
X111450607Y-101864867D01*
X111430902Y-101850253D01*
X111412723Y-101833777D01*
X111396247Y-101815598D01*
X111381633Y-101795893D01*
X111369020Y-101774849D01*
X111358530Y-101752671D01*
X111350265Y-101729571D01*
X111344304Y-101705773D01*
X111340704Y-101681504D01*
X111339500Y-101657000D01*
X111339500Y-100407000D01*
X111340704Y-100382496D01*
X111344304Y-100358227D01*
X111350265Y-100334429D01*
X111358530Y-100311329D01*
X111369020Y-100289151D01*
X111381633Y-100268107D01*
X111396247Y-100248402D01*
X111412723Y-100230223D01*
X111430902Y-100213747D01*
X111450607Y-100199133D01*
X111471651Y-100186520D01*
X111493829Y-100176030D01*
X111516929Y-100167765D01*
X111540727Y-100161804D01*
X111564996Y-100158204D01*
X111589500Y-100157000D01*
X112514500Y-100157000D01*
X112539004Y-100158204D01*
G37*
G04 #@! TD.AperFunction*
G04 #@! TA.AperFunction,SMDPad,CuDef*
G36*
X115514004Y-100158204D02*
G01*
X115538273Y-100161804D01*
X115562071Y-100167765D01*
X115585171Y-100176030D01*
X115607349Y-100186520D01*
X115628393Y-100199133D01*
X115648098Y-100213747D01*
X115666277Y-100230223D01*
X115682753Y-100248402D01*
X115697367Y-100268107D01*
X115709980Y-100289151D01*
X115720470Y-100311329D01*
X115728735Y-100334429D01*
X115734696Y-100358227D01*
X115738296Y-100382496D01*
X115739500Y-100407000D01*
X115739500Y-101657000D01*
X115738296Y-101681504D01*
X115734696Y-101705773D01*
X115728735Y-101729571D01*
X115720470Y-101752671D01*
X115709980Y-101774849D01*
X115697367Y-101795893D01*
X115682753Y-101815598D01*
X115666277Y-101833777D01*
X115648098Y-101850253D01*
X115628393Y-101864867D01*
X115607349Y-101877480D01*
X115585171Y-101887970D01*
X115562071Y-101896235D01*
X115538273Y-101902196D01*
X115514004Y-101905796D01*
X115489500Y-101907000D01*
X114564500Y-101907000D01*
X114539996Y-101905796D01*
X114515727Y-101902196D01*
X114491929Y-101896235D01*
X114468829Y-101887970D01*
X114446651Y-101877480D01*
X114425607Y-101864867D01*
X114405902Y-101850253D01*
X114387723Y-101833777D01*
X114371247Y-101815598D01*
X114356633Y-101795893D01*
X114344020Y-101774849D01*
X114333530Y-101752671D01*
X114325265Y-101729571D01*
X114319304Y-101705773D01*
X114315704Y-101681504D01*
X114314500Y-101657000D01*
X114314500Y-100407000D01*
X114315704Y-100382496D01*
X114319304Y-100358227D01*
X114325265Y-100334429D01*
X114333530Y-100311329D01*
X114344020Y-100289151D01*
X114356633Y-100268107D01*
X114371247Y-100248402D01*
X114387723Y-100230223D01*
X114405902Y-100213747D01*
X114425607Y-100199133D01*
X114446651Y-100186520D01*
X114468829Y-100176030D01*
X114491929Y-100167765D01*
X114515727Y-100161804D01*
X114539996Y-100158204D01*
X114564500Y-100157000D01*
X115489500Y-100157000D01*
X115514004Y-100158204D01*
G37*
G04 #@! TD.AperFunction*
G04 #@! TA.AperFunction,SMDPad,CuDef*
G36*
X141629504Y-103309704D02*
G01*
X141653773Y-103313304D01*
X141677571Y-103319265D01*
X141700671Y-103327530D01*
X141722849Y-103338020D01*
X141743893Y-103350633D01*
X141763598Y-103365247D01*
X141781777Y-103381723D01*
X141798253Y-103399902D01*
X141812867Y-103419607D01*
X141825480Y-103440651D01*
X141835970Y-103462829D01*
X141844235Y-103485929D01*
X141850196Y-103509727D01*
X141853796Y-103533996D01*
X141855000Y-103558500D01*
X141855000Y-104483500D01*
X141853796Y-104508004D01*
X141850196Y-104532273D01*
X141844235Y-104556071D01*
X141835970Y-104579171D01*
X141825480Y-104601349D01*
X141812867Y-104622393D01*
X141798253Y-104642098D01*
X141781777Y-104660277D01*
X141763598Y-104676753D01*
X141743893Y-104691367D01*
X141722849Y-104703980D01*
X141700671Y-104714470D01*
X141677571Y-104722735D01*
X141653773Y-104728696D01*
X141629504Y-104732296D01*
X141605000Y-104733500D01*
X140355000Y-104733500D01*
X140330496Y-104732296D01*
X140306227Y-104728696D01*
X140282429Y-104722735D01*
X140259329Y-104714470D01*
X140237151Y-104703980D01*
X140216107Y-104691367D01*
X140196402Y-104676753D01*
X140178223Y-104660277D01*
X140161747Y-104642098D01*
X140147133Y-104622393D01*
X140134520Y-104601349D01*
X140124030Y-104579171D01*
X140115765Y-104556071D01*
X140109804Y-104532273D01*
X140106204Y-104508004D01*
X140105000Y-104483500D01*
X140105000Y-103558500D01*
X140106204Y-103533996D01*
X140109804Y-103509727D01*
X140115765Y-103485929D01*
X140124030Y-103462829D01*
X140134520Y-103440651D01*
X140147133Y-103419607D01*
X140161747Y-103399902D01*
X140178223Y-103381723D01*
X140196402Y-103365247D01*
X140216107Y-103350633D01*
X140237151Y-103338020D01*
X140259329Y-103327530D01*
X140282429Y-103319265D01*
X140306227Y-103313304D01*
X140330496Y-103309704D01*
X140355000Y-103308500D01*
X141605000Y-103308500D01*
X141629504Y-103309704D01*
G37*
G04 #@! TD.AperFunction*
G04 #@! TA.AperFunction,SMDPad,CuDef*
G36*
X141629504Y-100334704D02*
G01*
X141653773Y-100338304D01*
X141677571Y-100344265D01*
X141700671Y-100352530D01*
X141722849Y-100363020D01*
X141743893Y-100375633D01*
X141763598Y-100390247D01*
X141781777Y-100406723D01*
X141798253Y-100424902D01*
X141812867Y-100444607D01*
X141825480Y-100465651D01*
X141835970Y-100487829D01*
X141844235Y-100510929D01*
X141850196Y-100534727D01*
X141853796Y-100558996D01*
X141855000Y-100583500D01*
X141855000Y-101508500D01*
X141853796Y-101533004D01*
X141850196Y-101557273D01*
X141844235Y-101581071D01*
X141835970Y-101604171D01*
X141825480Y-101626349D01*
X141812867Y-101647393D01*
X141798253Y-101667098D01*
X141781777Y-101685277D01*
X141763598Y-101701753D01*
X141743893Y-101716367D01*
X141722849Y-101728980D01*
X141700671Y-101739470D01*
X141677571Y-101747735D01*
X141653773Y-101753696D01*
X141629504Y-101757296D01*
X141605000Y-101758500D01*
X140355000Y-101758500D01*
X140330496Y-101757296D01*
X140306227Y-101753696D01*
X140282429Y-101747735D01*
X140259329Y-101739470D01*
X140237151Y-101728980D01*
X140216107Y-101716367D01*
X140196402Y-101701753D01*
X140178223Y-101685277D01*
X140161747Y-101667098D01*
X140147133Y-101647393D01*
X140134520Y-101626349D01*
X140124030Y-101604171D01*
X140115765Y-101581071D01*
X140109804Y-101557273D01*
X140106204Y-101533004D01*
X140105000Y-101508500D01*
X140105000Y-100583500D01*
X140106204Y-100558996D01*
X140109804Y-100534727D01*
X140115765Y-100510929D01*
X140124030Y-100487829D01*
X140134520Y-100465651D01*
X140147133Y-100444607D01*
X140161747Y-100424902D01*
X140178223Y-100406723D01*
X140196402Y-100390247D01*
X140216107Y-100375633D01*
X140237151Y-100363020D01*
X140259329Y-100352530D01*
X140282429Y-100344265D01*
X140306227Y-100338304D01*
X140330496Y-100334704D01*
X140355000Y-100333500D01*
X141605000Y-100333500D01*
X141629504Y-100334704D01*
G37*
G04 #@! TD.AperFunction*
G04 #@! TA.AperFunction,SMDPad,CuDef*
G36*
X144139504Y-100314704D02*
G01*
X144163773Y-100318304D01*
X144187571Y-100324265D01*
X144210671Y-100332530D01*
X144232849Y-100343020D01*
X144253893Y-100355633D01*
X144273598Y-100370247D01*
X144291777Y-100386723D01*
X144308253Y-100404902D01*
X144322867Y-100424607D01*
X144335480Y-100445651D01*
X144345970Y-100467829D01*
X144354235Y-100490929D01*
X144360196Y-100514727D01*
X144363796Y-100538996D01*
X144365000Y-100563500D01*
X144365000Y-101488500D01*
X144363796Y-101513004D01*
X144360196Y-101537273D01*
X144354235Y-101561071D01*
X144345970Y-101584171D01*
X144335480Y-101606349D01*
X144322867Y-101627393D01*
X144308253Y-101647098D01*
X144291777Y-101665277D01*
X144273598Y-101681753D01*
X144253893Y-101696367D01*
X144232849Y-101708980D01*
X144210671Y-101719470D01*
X144187571Y-101727735D01*
X144163773Y-101733696D01*
X144139504Y-101737296D01*
X144115000Y-101738500D01*
X142865000Y-101738500D01*
X142840496Y-101737296D01*
X142816227Y-101733696D01*
X142792429Y-101727735D01*
X142769329Y-101719470D01*
X142747151Y-101708980D01*
X142726107Y-101696367D01*
X142706402Y-101681753D01*
X142688223Y-101665277D01*
X142671747Y-101647098D01*
X142657133Y-101627393D01*
X142644520Y-101606349D01*
X142634030Y-101584171D01*
X142625765Y-101561071D01*
X142619804Y-101537273D01*
X142616204Y-101513004D01*
X142615000Y-101488500D01*
X142615000Y-100563500D01*
X142616204Y-100538996D01*
X142619804Y-100514727D01*
X142625765Y-100490929D01*
X142634030Y-100467829D01*
X142644520Y-100445651D01*
X142657133Y-100424607D01*
X142671747Y-100404902D01*
X142688223Y-100386723D01*
X142706402Y-100370247D01*
X142726107Y-100355633D01*
X142747151Y-100343020D01*
X142769329Y-100332530D01*
X142792429Y-100324265D01*
X142816227Y-100318304D01*
X142840496Y-100314704D01*
X142865000Y-100313500D01*
X144115000Y-100313500D01*
X144139504Y-100314704D01*
G37*
G04 #@! TD.AperFunction*
G04 #@! TA.AperFunction,SMDPad,CuDef*
G36*
X144139504Y-103289704D02*
G01*
X144163773Y-103293304D01*
X144187571Y-103299265D01*
X144210671Y-103307530D01*
X144232849Y-103318020D01*
X144253893Y-103330633D01*
X144273598Y-103345247D01*
X144291777Y-103361723D01*
X144308253Y-103379902D01*
X144322867Y-103399607D01*
X144335480Y-103420651D01*
X144345970Y-103442829D01*
X144354235Y-103465929D01*
X144360196Y-103489727D01*
X144363796Y-103513996D01*
X144365000Y-103538500D01*
X144365000Y-104463500D01*
X144363796Y-104488004D01*
X144360196Y-104512273D01*
X144354235Y-104536071D01*
X144345970Y-104559171D01*
X144335480Y-104581349D01*
X144322867Y-104602393D01*
X144308253Y-104622098D01*
X144291777Y-104640277D01*
X144273598Y-104656753D01*
X144253893Y-104671367D01*
X144232849Y-104683980D01*
X144210671Y-104694470D01*
X144187571Y-104702735D01*
X144163773Y-104708696D01*
X144139504Y-104712296D01*
X144115000Y-104713500D01*
X142865000Y-104713500D01*
X142840496Y-104712296D01*
X142816227Y-104708696D01*
X142792429Y-104702735D01*
X142769329Y-104694470D01*
X142747151Y-104683980D01*
X142726107Y-104671367D01*
X142706402Y-104656753D01*
X142688223Y-104640277D01*
X142671747Y-104622098D01*
X142657133Y-104602393D01*
X142644520Y-104581349D01*
X142634030Y-104559171D01*
X142625765Y-104536071D01*
X142619804Y-104512273D01*
X142616204Y-104488004D01*
X142615000Y-104463500D01*
X142615000Y-103538500D01*
X142616204Y-103513996D01*
X142619804Y-103489727D01*
X142625765Y-103465929D01*
X142634030Y-103442829D01*
X142644520Y-103420651D01*
X142657133Y-103399607D01*
X142671747Y-103379902D01*
X142688223Y-103361723D01*
X142706402Y-103345247D01*
X142726107Y-103330633D01*
X142747151Y-103318020D01*
X142769329Y-103307530D01*
X142792429Y-103299265D01*
X142816227Y-103293304D01*
X142840496Y-103289704D01*
X142865000Y-103288500D01*
X144115000Y-103288500D01*
X144139504Y-103289704D01*
G37*
G04 #@! TD.AperFunction*
D11*
X103812500Y-96186000D03*
D12*
X106512500Y-92686000D03*
D13*
X106512500Y-94536000D03*
X106512500Y-93886000D03*
X106512500Y-96486000D03*
X106512500Y-95836000D03*
X106512500Y-95186000D03*
D12*
X106512500Y-97686000D03*
D11*
X103812500Y-94186000D03*
D14*
X103812500Y-91686000D03*
X103812500Y-98686000D03*
D15*
X103812500Y-98086000D03*
X103812500Y-92286000D03*
D16*
X169246000Y-86988000D03*
D17*
X169246000Y-84448000D03*
X169246000Y-81908000D03*
X169246000Y-79368000D03*
D16*
X145999200Y-107492800D03*
D17*
X148539200Y-107492800D03*
X151079200Y-107492800D03*
X153619200Y-107492800D03*
X156159200Y-107492800D03*
X158699200Y-107492800D03*
X161239200Y-107492800D03*
X163779200Y-107492800D03*
D16*
X169386000Y-96188000D03*
D17*
X169386000Y-98728000D03*
X169386000Y-101268000D03*
D16*
X107696000Y-80264000D03*
D17*
X107696000Y-82804000D03*
X107696000Y-85344000D03*
D16*
X117348000Y-83312000D03*
D17*
X117348000Y-80772000D03*
D18*
X127950000Y-105346000D03*
X135550000Y-105346000D03*
D19*
X118466000Y-92964000D03*
D20*
X112166000Y-92964000D03*
X112166000Y-95264000D03*
X112166000Y-90664000D03*
D21*
X148891001Y-86771001D03*
X148891001Y-88771001D03*
X148891001Y-90771001D03*
X148891001Y-92771001D03*
X148891001Y-94771001D03*
X148891001Y-96771001D03*
X148891001Y-98771001D03*
X148891001Y-100771001D03*
D22*
X151491001Y-102271001D03*
X153491001Y-102271001D03*
X155491001Y-102271001D03*
X157491001Y-102271001D03*
X159491001Y-102271001D03*
X161491001Y-102271001D03*
D21*
X164091001Y-100771001D03*
X164091001Y-98771001D03*
X164091001Y-96771001D03*
X164091001Y-94771001D03*
X164091001Y-92771001D03*
X164091001Y-90771001D03*
X164091001Y-88771001D03*
X164091001Y-86771001D03*
D23*
X121430000Y-107186000D03*
X122700000Y-107186000D03*
D24*
X120160000Y-107186000D03*
D25*
X129600000Y-80386000D03*
D26*
X129600000Y-82926000D03*
X129600000Y-85466000D03*
X129600000Y-88006000D03*
D27*
X142010000Y-86946000D03*
X137510000Y-86946000D03*
X142010000Y-80446000D03*
X137510000Y-80446000D03*
D28*
X146608800Y-99669600D03*
X129844800Y-94488000D03*
X128524000Y-94691200D03*
X135128000Y-96418400D03*
X141020800Y-93929200D03*
X143256000Y-90017600D03*
X166217600Y-98806000D03*
X166217600Y-96774000D03*
X161848800Y-92760800D03*
X161950400Y-90779600D03*
X145999200Y-105054400D03*
X148640800Y-105054400D03*
X132435600Y-96875600D03*
X146507200Y-90830400D03*
X146507200Y-92862400D03*
D29*
X115027000Y-98569500D02*
X114989500Y-98532000D01*
X115027000Y-101032000D02*
X115027000Y-98569500D01*
X122700000Y-106186000D02*
X122700000Y-107186000D01*
X117546000Y-101032000D02*
X122700000Y-106186000D01*
X115027000Y-101032000D02*
X117546000Y-101032000D01*
X168889001Y-100771001D02*
X169386000Y-101268000D01*
X164091001Y-100771001D02*
X168889001Y-100771001D01*
X103812500Y-94186000D02*
X103812500Y-92286000D01*
X103812500Y-96186000D02*
X103812500Y-94186000D01*
X103812500Y-98086000D02*
X103812500Y-96186000D01*
X103812500Y-92536000D02*
X103812500Y-91686000D01*
X103962500Y-92686000D02*
X103812500Y-92536000D01*
X106512500Y-92686000D02*
X103962500Y-92686000D01*
X106112500Y-98086000D02*
X106512500Y-97686000D01*
X103812500Y-98086000D02*
X106112500Y-98086000D01*
X103812500Y-92286000D02*
X103812500Y-91436000D01*
X122624990Y-108261010D02*
X122700000Y-108186000D01*
X115187510Y-108261010D02*
X122624990Y-108261010D01*
X122700000Y-108186000D02*
X122700000Y-107186000D01*
X105012500Y-98086000D02*
X115187510Y-108261010D01*
X103812500Y-98086000D02*
X105012500Y-98086000D01*
X140980000Y-104733500D02*
X140980000Y-104021000D01*
X138527500Y-107186000D02*
X140980000Y-104733500D01*
X122700000Y-107186000D02*
X138527500Y-107186000D01*
X106596000Y-80264000D02*
X107696000Y-80264000D01*
X103812500Y-83047500D02*
X106596000Y-80264000D01*
X103812500Y-92286000D02*
X103812500Y-83047500D01*
X108796000Y-80264000D02*
X107696000Y-80264000D01*
X112166000Y-83634000D02*
X108796000Y-80264000D01*
X112166000Y-90664000D02*
X112166000Y-83634000D01*
X106512500Y-97686000D02*
X106512500Y-96486000D01*
X137510000Y-86946000D02*
X137510000Y-80446000D01*
X108796000Y-80264000D02*
X110320000Y-78740000D01*
X135804000Y-78740000D02*
X137510000Y-80446000D01*
X110320000Y-78740000D02*
X135804000Y-78740000D01*
X170561001Y-83223001D02*
X170095999Y-82757999D01*
X170095999Y-82757999D02*
X169246000Y-81908000D01*
X170561001Y-100092999D02*
X170561001Y-83223001D01*
X169386000Y-101268000D02*
X170561001Y-100092999D01*
X143470000Y-104021000D02*
X143490000Y-104001000D01*
X140980000Y-104021000D02*
X143470000Y-104021000D01*
X106512500Y-93886000D02*
X109075200Y-93886000D01*
X110453200Y-95264000D02*
X112166000Y-95264000D01*
X109075200Y-93886000D02*
X110453200Y-95264000D01*
X112014500Y-95415500D02*
X112166000Y-95264000D01*
X112014500Y-98532000D02*
X112014500Y-95415500D01*
X112052000Y-98569500D02*
X112014500Y-98532000D01*
X112052000Y-101032000D02*
X112052000Y-98569500D01*
X120160000Y-107186000D02*
X116482400Y-107186000D01*
X112052000Y-102755600D02*
X112052000Y-101032000D01*
X116482400Y-107186000D02*
X112052000Y-102755600D01*
X109075200Y-86723200D02*
X107696000Y-85344000D01*
X109075200Y-93886000D02*
X109075200Y-86723200D01*
X143470000Y-101046000D02*
X143490000Y-101026000D01*
X140980000Y-101046000D02*
X143470000Y-101046000D01*
X143744999Y-100771001D02*
X143490000Y-101026000D01*
X148891001Y-100771001D02*
X143744999Y-100771001D01*
X112166000Y-92964000D02*
X118466000Y-92964000D01*
X118466000Y-96993370D02*
X118466000Y-95114000D01*
X118466000Y-95114000D02*
X118466000Y-92964000D01*
X126818630Y-105346000D02*
X118466000Y-96993370D01*
X127950000Y-105346000D02*
X126818630Y-105346000D01*
X109525210Y-84633210D02*
X108545999Y-83653999D01*
X110916000Y-92964000D02*
X109525210Y-91573210D01*
X108545999Y-83653999D02*
X107696000Y-82804000D01*
X109525210Y-91573210D02*
X109525210Y-84633210D01*
X112166000Y-92964000D02*
X110916000Y-92964000D01*
X140980000Y-101758500D02*
X140980000Y-101046000D01*
X136267499Y-106471001D02*
X140980000Y-101758500D01*
X127950000Y-105346000D02*
X129075001Y-106471001D01*
X129075001Y-106471001D02*
X136267499Y-106471001D01*
X147710201Y-100771001D02*
X148891001Y-100771001D01*
X146608800Y-99669600D02*
X147710201Y-100771001D01*
X167374002Y-86988000D02*
X169246000Y-86988000D01*
X164091001Y-88771001D02*
X165591001Y-88771001D01*
X165591001Y-88771001D02*
X167374002Y-86988000D01*
X166922999Y-86771001D02*
X169246000Y-84448000D01*
X164091001Y-86771001D02*
X166922999Y-86771001D01*
X145999200Y-107492800D02*
X145999200Y-105054400D01*
X148539200Y-105156000D02*
X148640800Y-105054400D01*
X148539200Y-107492800D02*
X148539200Y-105156000D01*
X164080800Y-92760800D02*
X164091001Y-92771001D01*
X161848800Y-92760800D02*
X164080800Y-92760800D01*
X164082402Y-90779600D02*
X164091001Y-90771001D01*
X161950400Y-90779600D02*
X164082402Y-90779600D01*
X151079200Y-107492800D02*
X151079200Y-104343200D01*
X151491001Y-103931399D02*
X151491001Y-102271001D01*
X151079200Y-104343200D02*
X151491001Y-103931399D01*
X153619200Y-102399200D02*
X153491001Y-102271001D01*
X153619200Y-107492800D02*
X153619200Y-102399200D01*
X155491001Y-105622520D02*
X155491001Y-102271001D01*
X156159200Y-107492800D02*
X156159200Y-106290719D01*
X156159200Y-106290719D02*
X155491001Y-105622520D01*
X158699200Y-107492800D02*
X158699200Y-105867200D01*
X157491001Y-104659001D02*
X157491001Y-102271001D01*
X158699200Y-105867200D02*
X157491001Y-104659001D01*
X161239200Y-107492800D02*
X161239200Y-106290719D01*
X159491001Y-104542520D02*
X159491001Y-102271001D01*
X161239200Y-106290719D02*
X159491001Y-104542520D01*
X161491001Y-105204601D02*
X161491001Y-102271001D01*
X163779200Y-107492800D02*
X161491001Y-105204601D01*
X165429001Y-94771001D02*
X164091001Y-94771001D01*
X169386000Y-98728000D02*
X165429001Y-94771001D01*
X142184999Y-86771001D02*
X142010000Y-86946000D01*
X148891001Y-86771001D02*
X142184999Y-86771001D01*
X146566599Y-90771001D02*
X146507200Y-90830400D01*
X148891001Y-90771001D02*
X146566599Y-90771001D01*
X146598599Y-92771001D02*
X146507200Y-92862400D01*
X148891001Y-92771001D02*
X146598599Y-92771001D01*
X166182601Y-98771001D02*
X166217600Y-98806000D01*
X164091001Y-98771001D02*
X166182601Y-98771001D01*
X166214601Y-96771001D02*
X166217600Y-96774000D01*
X164091001Y-96771001D02*
X166214601Y-96771001D01*
X133705600Y-103501600D02*
X135550000Y-105346000D01*
X133705600Y-98145600D02*
X132435600Y-96875600D01*
X133705600Y-103501600D02*
X133705600Y-98145600D01*
X144502599Y-88771001D02*
X143256000Y-90017600D01*
X148891001Y-88771001D02*
X144502599Y-88771001D01*
X138531600Y-96418400D02*
X141020800Y-93929200D01*
X135128000Y-96418400D02*
X138531600Y-96418400D01*
X147391001Y-94771001D02*
X148891001Y-94771001D01*
X132124598Y-94488000D02*
X134779999Y-97143401D01*
X145018601Y-97143401D02*
X147391001Y-94771001D01*
X134779999Y-97143401D02*
X145018601Y-97143401D01*
X129844800Y-94488000D02*
X132124598Y-94488000D01*
X140536000Y-89916000D02*
X136590000Y-89916000D01*
X136590000Y-89916000D02*
X129600000Y-82926000D01*
X150391001Y-96771001D02*
X151028400Y-96133602D01*
X148891001Y-96771001D02*
X150391001Y-96771001D01*
X140536000Y-89916000D02*
X144396800Y-93776800D01*
X151028400Y-94573398D02*
X151028400Y-96133602D01*
X150231802Y-93776800D02*
X151028400Y-94573398D01*
X144396800Y-93776800D02*
X150231802Y-93776800D01*
X129983399Y-96150599D02*
X128524000Y-94691200D01*
X148891001Y-98771001D02*
X135905801Y-98771001D01*
X135404003Y-98771001D02*
X135905801Y-98771001D01*
X132783601Y-96150599D02*
X135404003Y-98771001D01*
X129983399Y-96150599D02*
X132783601Y-96150599D01*
D30*
G36*
X172568001Y-111608000D02*
G01*
X102260000Y-111608000D01*
X102260000Y-98887331D01*
X102272998Y-98930180D01*
X102292821Y-98967265D01*
X102269038Y-99003609D01*
X102272909Y-99041282D01*
X102365079Y-99266533D01*
X102499422Y-99469474D01*
X102670775Y-99642307D01*
X102872554Y-99778390D01*
X103097004Y-99872493D01*
X103335500Y-99921000D01*
X103685500Y-99921000D01*
X103685500Y-96313000D01*
X103665500Y-96313000D01*
X103665500Y-96059000D01*
X103685500Y-96059000D01*
X103685500Y-94313000D01*
X103665500Y-94313000D01*
X103665500Y-94059000D01*
X103685500Y-94059000D01*
X103685500Y-90451000D01*
X103939500Y-90451000D01*
X103939500Y-94059000D01*
X103959500Y-94059000D01*
X103959500Y-94313000D01*
X103939500Y-94313000D01*
X103939500Y-96059000D01*
X103959500Y-96059000D01*
X103959500Y-96313000D01*
X103939500Y-96313000D01*
X103939500Y-99921000D01*
X104289500Y-99921000D01*
X104527996Y-99872493D01*
X104752446Y-99778390D01*
X104954225Y-99642307D01*
X105125578Y-99469474D01*
X105259921Y-99266533D01*
X105352091Y-99041282D01*
X105355962Y-99003609D01*
X105332179Y-98967265D01*
X105352002Y-98930180D01*
X105387548Y-98813002D01*
X105397500Y-98813002D01*
X105397500Y-98717192D01*
X105400572Y-98686000D01*
X105399977Y-98625133D01*
X105752972Y-98625133D01*
X105815465Y-98861450D01*
X106058178Y-98974850D01*
X106318349Y-99038719D01*
X106585982Y-99050604D01*
X106850791Y-99010048D01*
X107102600Y-98918609D01*
X107209535Y-98861450D01*
X107272028Y-98625133D01*
X106512500Y-97865605D01*
X105752972Y-98625133D01*
X105399977Y-98625133D01*
X105397767Y-98399091D01*
X105573367Y-98445528D01*
X106332895Y-97686000D01*
X106318753Y-97671858D01*
X106498358Y-97492253D01*
X106512500Y-97506395D01*
X106526643Y-97492253D01*
X106706248Y-97671858D01*
X106692105Y-97686000D01*
X107451633Y-98445528D01*
X107687950Y-98383035D01*
X107801350Y-98140322D01*
X107865219Y-97880151D01*
X107877104Y-97612518D01*
X107836548Y-97347709D01*
X107745109Y-97095900D01*
X107716225Y-97041864D01*
X107773021Y-96939576D01*
X107811241Y-96820474D01*
X107822500Y-96717750D01*
X107663750Y-96559000D01*
X107551178Y-96559000D01*
X107638685Y-96487185D01*
X107718037Y-96390494D01*
X107754532Y-96322218D01*
X107822500Y-96254250D01*
X107812512Y-96163120D01*
X107813312Y-96160482D01*
X107825572Y-96036000D01*
X107825572Y-95636000D01*
X107813312Y-95511518D01*
X107813155Y-95511000D01*
X107813312Y-95510482D01*
X107825572Y-95386000D01*
X107825572Y-94986000D01*
X107813312Y-94861518D01*
X107813155Y-94861000D01*
X107813312Y-94860482D01*
X107825572Y-94736000D01*
X107825572Y-94646000D01*
X108760399Y-94646000D01*
X109889400Y-95775002D01*
X109913199Y-95804001D01*
X110028924Y-95898974D01*
X110160953Y-95969546D01*
X110304214Y-96013003D01*
X110415867Y-96024000D01*
X110415876Y-96024000D01*
X110453199Y-96027676D01*
X110490522Y-96024000D01*
X110528913Y-96024000D01*
X110540188Y-96138482D01*
X110576498Y-96258180D01*
X110635463Y-96368494D01*
X110714815Y-96465185D01*
X110811506Y-96544537D01*
X110921820Y-96603502D01*
X111041518Y-96639812D01*
X111166000Y-96652072D01*
X111254501Y-96652072D01*
X111254500Y-97073681D01*
X111212150Y-97086528D01*
X111058614Y-97168595D01*
X110924038Y-97279038D01*
X110813595Y-97413614D01*
X110731528Y-97567150D01*
X110680992Y-97733746D01*
X110663928Y-97907000D01*
X110663928Y-99157000D01*
X110680992Y-99330254D01*
X110731528Y-99496850D01*
X110813595Y-99650386D01*
X110924038Y-99784962D01*
X110943541Y-99800968D01*
X110851095Y-99913614D01*
X110769028Y-100067150D01*
X110718492Y-100233746D01*
X110701428Y-100407000D01*
X110701428Y-101657000D01*
X110718492Y-101830254D01*
X110769028Y-101996850D01*
X110851095Y-102150386D01*
X110961538Y-102284962D01*
X111096114Y-102395405D01*
X111249650Y-102477472D01*
X111292000Y-102490319D01*
X111292000Y-102718277D01*
X111288324Y-102755600D01*
X111292000Y-102792922D01*
X111292000Y-102792932D01*
X111302997Y-102904585D01*
X111342307Y-103034174D01*
X111346454Y-103047846D01*
X111417026Y-103179876D01*
X111454759Y-103225853D01*
X111511999Y-103295601D01*
X111541003Y-103319404D01*
X115918601Y-107697003D01*
X115942399Y-107726001D01*
X116058124Y-107820974D01*
X116190153Y-107891546D01*
X116333414Y-107935003D01*
X116445067Y-107946000D01*
X116445075Y-107946000D01*
X116482400Y-107949676D01*
X116519725Y-107946000D01*
X118997913Y-107946000D01*
X119009188Y-108060482D01*
X119045498Y-108180180D01*
X119104463Y-108290494D01*
X119183815Y-108387185D01*
X119280506Y-108466537D01*
X119390820Y-108525502D01*
X119510518Y-108561812D01*
X119635000Y-108574072D01*
X120685000Y-108574072D01*
X120809482Y-108561812D01*
X120929180Y-108525502D01*
X120993902Y-108490907D01*
X121202601Y-108554215D01*
X121430000Y-108576612D01*
X121657400Y-108554215D01*
X121876060Y-108487885D01*
X122064669Y-108387071D01*
X122123118Y-108428275D01*
X122332663Y-108521272D01*
X122394190Y-108529964D01*
X122573000Y-108404163D01*
X122573000Y-107639108D01*
X122573215Y-107638399D01*
X122590000Y-107467978D01*
X122590000Y-107313000D01*
X122827000Y-107313000D01*
X122827000Y-108404163D01*
X123005810Y-108529964D01*
X123067337Y-108521272D01*
X123276882Y-108428275D01*
X123464258Y-108296184D01*
X123622264Y-108130076D01*
X123744828Y-107936334D01*
X123827239Y-107722404D01*
X123866331Y-107496507D01*
X123706598Y-107313000D01*
X122827000Y-107313000D01*
X122590000Y-107313000D01*
X122590000Y-106904021D01*
X122573215Y-106733600D01*
X122573000Y-106732891D01*
X122573000Y-105967837D01*
X122827000Y-105967837D01*
X122827000Y-107059000D01*
X123706598Y-107059000D01*
X123866331Y-106875493D01*
X123827239Y-106649596D01*
X123744828Y-106435666D01*
X123622264Y-106241924D01*
X123464258Y-106075816D01*
X123276882Y-105943725D01*
X123067337Y-105850728D01*
X123005810Y-105842036D01*
X122827000Y-105967837D01*
X122573000Y-105967837D01*
X122394190Y-105842036D01*
X122332663Y-105850728D01*
X122123118Y-105943725D01*
X122064669Y-105984929D01*
X121876059Y-105884115D01*
X121657399Y-105817785D01*
X121430000Y-105795388D01*
X121202600Y-105817785D01*
X120993902Y-105881093D01*
X120929180Y-105846498D01*
X120809482Y-105810188D01*
X120685000Y-105797928D01*
X119635000Y-105797928D01*
X119510518Y-105810188D01*
X119390820Y-105846498D01*
X119280506Y-105905463D01*
X119183815Y-105984815D01*
X119104463Y-106081506D01*
X119045498Y-106191820D01*
X119009188Y-106311518D01*
X118997913Y-106426000D01*
X116797202Y-106426000D01*
X112849994Y-102478793D01*
X112854350Y-102477472D01*
X113007886Y-102395405D01*
X113142462Y-102284962D01*
X113252905Y-102150386D01*
X113334972Y-101996850D01*
X113362227Y-101907000D01*
X113676428Y-101907000D01*
X113688688Y-102031482D01*
X113724998Y-102151180D01*
X113783963Y-102261494D01*
X113863315Y-102358185D01*
X113960006Y-102437537D01*
X114070320Y-102496502D01*
X114190018Y-102532812D01*
X114314500Y-102545072D01*
X114741250Y-102542000D01*
X114900000Y-102383250D01*
X114900000Y-101159000D01*
X115154000Y-101159000D01*
X115154000Y-102383250D01*
X115312750Y-102542000D01*
X115739500Y-102545072D01*
X115863982Y-102532812D01*
X115983680Y-102496502D01*
X116093994Y-102437537D01*
X116190685Y-102358185D01*
X116270037Y-102261494D01*
X116329002Y-102151180D01*
X116365312Y-102031482D01*
X116377572Y-101907000D01*
X116374500Y-101317750D01*
X116215750Y-101159000D01*
X115154000Y-101159000D01*
X114900000Y-101159000D01*
X113838250Y-101159000D01*
X113679500Y-101317750D01*
X113676428Y-101907000D01*
X113362227Y-101907000D01*
X113385508Y-101830254D01*
X113402572Y-101657000D01*
X113402572Y-100407000D01*
X113385508Y-100233746D01*
X113334972Y-100067150D01*
X113252905Y-99913614D01*
X113142462Y-99779038D01*
X113122959Y-99763032D01*
X113215405Y-99650386D01*
X113297472Y-99496850D01*
X113324727Y-99407000D01*
X113638928Y-99407000D01*
X113651188Y-99531482D01*
X113687498Y-99651180D01*
X113746463Y-99761494D01*
X113782447Y-99805341D01*
X113724998Y-99912820D01*
X113688688Y-100032518D01*
X113676428Y-100157000D01*
X113679500Y-100746250D01*
X113838250Y-100905000D01*
X114900000Y-100905000D01*
X114900000Y-99680750D01*
X114862500Y-99643250D01*
X114862500Y-98659000D01*
X115116500Y-98659000D01*
X115116500Y-99883250D01*
X115154000Y-99920750D01*
X115154000Y-100905000D01*
X116215750Y-100905000D01*
X116374500Y-100746250D01*
X116377572Y-100157000D01*
X116365312Y-100032518D01*
X116329002Y-99912820D01*
X116270037Y-99802506D01*
X116234053Y-99758659D01*
X116291502Y-99651180D01*
X116327812Y-99531482D01*
X116340072Y-99407000D01*
X116337000Y-98817750D01*
X116178250Y-98659000D01*
X115116500Y-98659000D01*
X114862500Y-98659000D01*
X113800750Y-98659000D01*
X113642000Y-98817750D01*
X113638928Y-99407000D01*
X113324727Y-99407000D01*
X113348008Y-99330254D01*
X113365072Y-99157000D01*
X113365072Y-97907000D01*
X113348008Y-97733746D01*
X113324728Y-97657000D01*
X113638928Y-97657000D01*
X113642000Y-98246250D01*
X113800750Y-98405000D01*
X114862500Y-98405000D01*
X114862500Y-97180750D01*
X115116500Y-97180750D01*
X115116500Y-98405000D01*
X116178250Y-98405000D01*
X116337000Y-98246250D01*
X116340072Y-97657000D01*
X116327812Y-97532518D01*
X116291502Y-97412820D01*
X116232537Y-97302506D01*
X116153185Y-97205815D01*
X116056494Y-97126463D01*
X115946180Y-97067498D01*
X115826482Y-97031188D01*
X115702000Y-97018928D01*
X115275250Y-97022000D01*
X115116500Y-97180750D01*
X114862500Y-97180750D01*
X114703750Y-97022000D01*
X114277000Y-97018928D01*
X114152518Y-97031188D01*
X114032820Y-97067498D01*
X113922506Y-97126463D01*
X113825815Y-97205815D01*
X113746463Y-97302506D01*
X113687498Y-97412820D01*
X113651188Y-97532518D01*
X113638928Y-97657000D01*
X113324728Y-97657000D01*
X113297472Y-97567150D01*
X113215405Y-97413614D01*
X113104962Y-97279038D01*
X112970386Y-97168595D01*
X112816850Y-97086528D01*
X112774500Y-97073681D01*
X112774500Y-96652072D01*
X113166000Y-96652072D01*
X113290482Y-96639812D01*
X113410180Y-96603502D01*
X113520494Y-96544537D01*
X113617185Y-96465185D01*
X113696537Y-96368494D01*
X113755502Y-96258180D01*
X113791812Y-96138482D01*
X113804072Y-96014000D01*
X113804072Y-94514000D01*
X113791812Y-94389518D01*
X113755502Y-94269820D01*
X113696537Y-94159506D01*
X113659191Y-94114000D01*
X113696537Y-94068494D01*
X113755502Y-93958180D01*
X113791812Y-93838482D01*
X113803087Y-93724000D01*
X116827928Y-93724000D01*
X116827928Y-94864000D01*
X116840188Y-94988482D01*
X116876498Y-95108180D01*
X116935463Y-95218494D01*
X117014815Y-95315185D01*
X117111506Y-95394537D01*
X117221820Y-95453502D01*
X117341518Y-95489812D01*
X117466000Y-95502072D01*
X117706001Y-95502072D01*
X117706000Y-96956047D01*
X117702324Y-96993370D01*
X117706000Y-97030692D01*
X117706000Y-97030702D01*
X117716997Y-97142355D01*
X117759358Y-97282003D01*
X117760454Y-97285616D01*
X117831026Y-97417646D01*
X117849416Y-97440054D01*
X117925999Y-97533371D01*
X117955003Y-97557174D01*
X126254830Y-105857002D01*
X126278629Y-105886001D01*
X126319662Y-105919676D01*
X126394354Y-105980974D01*
X126526383Y-106051546D01*
X126669644Y-106095003D01*
X126728481Y-106100798D01*
X126835363Y-106260759D01*
X127035241Y-106460637D01*
X127270273Y-106617680D01*
X127531426Y-106725853D01*
X127808665Y-106781000D01*
X128091335Y-106781000D01*
X128273886Y-106744688D01*
X128511202Y-106982004D01*
X128535000Y-107011002D01*
X128650725Y-107105975D01*
X128782754Y-107176547D01*
X128926015Y-107220004D01*
X129037668Y-107231001D01*
X129037676Y-107231001D01*
X129075001Y-107234677D01*
X129112326Y-107231001D01*
X136230177Y-107231001D01*
X136267499Y-107234677D01*
X136304821Y-107231001D01*
X136304832Y-107231001D01*
X136416485Y-107220004D01*
X136559746Y-107176547D01*
X136691775Y-107105975D01*
X136807500Y-107011002D01*
X136831303Y-106981998D01*
X139469735Y-104343567D01*
X139466928Y-104733500D01*
X139479188Y-104857982D01*
X139515498Y-104977680D01*
X139574463Y-105087994D01*
X139653815Y-105184685D01*
X139750506Y-105264037D01*
X139860820Y-105323002D01*
X139980518Y-105359312D01*
X140105000Y-105371572D01*
X140694250Y-105368500D01*
X140853000Y-105209750D01*
X140853000Y-104148000D01*
X141107000Y-104148000D01*
X141107000Y-105209750D01*
X141265750Y-105368500D01*
X141855000Y-105371572D01*
X141979482Y-105359312D01*
X142099180Y-105323002D01*
X142209494Y-105264037D01*
X142247185Y-105233105D01*
X142260506Y-105244037D01*
X142370820Y-105303002D01*
X142490518Y-105339312D01*
X142615000Y-105351572D01*
X143204250Y-105348500D01*
X143363000Y-105189750D01*
X143363000Y-104128000D01*
X142138750Y-104128000D01*
X142118750Y-104148000D01*
X141107000Y-104148000D01*
X140853000Y-104148000D01*
X140833000Y-104148000D01*
X140833000Y-103894000D01*
X140853000Y-103894000D01*
X140853000Y-103874000D01*
X141107000Y-103874000D01*
X141107000Y-103894000D01*
X142331250Y-103894000D01*
X142351250Y-103874000D01*
X143363000Y-103874000D01*
X143363000Y-102812250D01*
X143617000Y-102812250D01*
X143617000Y-103874000D01*
X144841250Y-103874000D01*
X145000000Y-103715250D01*
X145003072Y-103288500D01*
X144990812Y-103164018D01*
X144954502Y-103044320D01*
X144895537Y-102934006D01*
X144816185Y-102837315D01*
X144719494Y-102757963D01*
X144609180Y-102698998D01*
X144489482Y-102662688D01*
X144365000Y-102650428D01*
X143775750Y-102653500D01*
X143617000Y-102812250D01*
X143363000Y-102812250D01*
X143204250Y-102653500D01*
X142615000Y-102650428D01*
X142490518Y-102662688D01*
X142370820Y-102698998D01*
X142260506Y-102757963D01*
X142222815Y-102788895D01*
X142209494Y-102777963D01*
X142099180Y-102718998D01*
X141979482Y-102682688D01*
X141855000Y-102670428D01*
X141265750Y-102673500D01*
X141107002Y-102832248D01*
X141107002Y-102706300D01*
X141416730Y-102396572D01*
X141605000Y-102396572D01*
X141778254Y-102379508D01*
X141944850Y-102328972D01*
X142098386Y-102246905D01*
X142232962Y-102136462D01*
X142244410Y-102122512D01*
X142371614Y-102226905D01*
X142525150Y-102308972D01*
X142691746Y-102359508D01*
X142865000Y-102376572D01*
X144115000Y-102376572D01*
X144288254Y-102359508D01*
X144454850Y-102308972D01*
X144608386Y-102226905D01*
X144742962Y-102116462D01*
X144853405Y-101981886D01*
X144935472Y-101828350D01*
X144986008Y-101661754D01*
X144998886Y-101531001D01*
X147059955Y-101531001D01*
X147110464Y-101625495D01*
X147189816Y-101722186D01*
X147286507Y-101801538D01*
X147396821Y-101860503D01*
X147516519Y-101896813D01*
X147641001Y-101909073D01*
X150141001Y-101909073D01*
X150265483Y-101896813D01*
X150352929Y-101870287D01*
X150352929Y-103171001D01*
X150365189Y-103295483D01*
X150401499Y-103415181D01*
X150460464Y-103525495D01*
X150539816Y-103622186D01*
X150636507Y-103701538D01*
X150642733Y-103704866D01*
X150568198Y-103779401D01*
X150539200Y-103803199D01*
X150515402Y-103832197D01*
X150515401Y-103832198D01*
X150444226Y-103918924D01*
X150373654Y-104050954D01*
X150350283Y-104128000D01*
X150330198Y-104194214D01*
X150319247Y-104305397D01*
X150315524Y-104343200D01*
X150319201Y-104380532D01*
X150319200Y-106214621D01*
X150132568Y-106339325D01*
X149925725Y-106546168D01*
X149809200Y-106720560D01*
X149692675Y-106546168D01*
X149485832Y-106339325D01*
X149299200Y-106214622D01*
X149299200Y-105859255D01*
X149300574Y-105858337D01*
X149444737Y-105714174D01*
X149558005Y-105544656D01*
X149636026Y-105356298D01*
X149675800Y-105156339D01*
X149675800Y-104952461D01*
X149636026Y-104752502D01*
X149558005Y-104564144D01*
X149444737Y-104394626D01*
X149300574Y-104250463D01*
X149131056Y-104137195D01*
X148942698Y-104059174D01*
X148742739Y-104019400D01*
X148538861Y-104019400D01*
X148338902Y-104059174D01*
X148150544Y-104137195D01*
X147981026Y-104250463D01*
X147836863Y-104394626D01*
X147723595Y-104564144D01*
X147645574Y-104752502D01*
X147605800Y-104952461D01*
X147605800Y-105156339D01*
X147645574Y-105356298D01*
X147723595Y-105544656D01*
X147779201Y-105627876D01*
X147779201Y-106214621D01*
X147592568Y-106339325D01*
X147460713Y-106471180D01*
X147438702Y-106398620D01*
X147379737Y-106288306D01*
X147300385Y-106191615D01*
X147203694Y-106112263D01*
X147093380Y-106053298D01*
X146973682Y-106016988D01*
X146849200Y-106004728D01*
X146759200Y-106004728D01*
X146759200Y-105758111D01*
X146803137Y-105714174D01*
X146916405Y-105544656D01*
X146994426Y-105356298D01*
X147034200Y-105156339D01*
X147034200Y-104952461D01*
X146994426Y-104752502D01*
X146916405Y-104564144D01*
X146803137Y-104394626D01*
X146658974Y-104250463D01*
X146489456Y-104137195D01*
X146301098Y-104059174D01*
X146101139Y-104019400D01*
X145897261Y-104019400D01*
X145697302Y-104059174D01*
X145508944Y-104137195D01*
X145339426Y-104250463D01*
X145195263Y-104394626D01*
X145081995Y-104564144D01*
X145003974Y-104752502D01*
X144994579Y-104799735D01*
X145003072Y-104713500D01*
X145000000Y-104286750D01*
X144841250Y-104128000D01*
X143617000Y-104128000D01*
X143617000Y-105189750D01*
X143775750Y-105348500D01*
X144365000Y-105351572D01*
X144489482Y-105339312D01*
X144609180Y-105303002D01*
X144719494Y-105244037D01*
X144816185Y-105164685D01*
X144895537Y-105067994D01*
X144954502Y-104957680D01*
X144979656Y-104874759D01*
X144964200Y-104952461D01*
X144964200Y-105156339D01*
X145003974Y-105356298D01*
X145081995Y-105544656D01*
X145195263Y-105714174D01*
X145239201Y-105758112D01*
X145239201Y-106004728D01*
X145149200Y-106004728D01*
X145024718Y-106016988D01*
X144905020Y-106053298D01*
X144794706Y-106112263D01*
X144698015Y-106191615D01*
X144618663Y-106288306D01*
X144559698Y-106398620D01*
X144523388Y-106518318D01*
X144511128Y-106642800D01*
X144511128Y-108342800D01*
X144523388Y-108467282D01*
X144559698Y-108586980D01*
X144618663Y-108697294D01*
X144698015Y-108793985D01*
X144794706Y-108873337D01*
X144905020Y-108932302D01*
X145024718Y-108968612D01*
X145149200Y-108980872D01*
X146849200Y-108980872D01*
X146973682Y-108968612D01*
X147093380Y-108932302D01*
X147203694Y-108873337D01*
X147300385Y-108793985D01*
X147379737Y-108697294D01*
X147438702Y-108586980D01*
X147460713Y-108514420D01*
X147592568Y-108646275D01*
X147835789Y-108808790D01*
X148106042Y-108920732D01*
X148392940Y-108977800D01*
X148685460Y-108977800D01*
X148972358Y-108920732D01*
X149242611Y-108808790D01*
X149485832Y-108646275D01*
X149692675Y-108439432D01*
X149809200Y-108265040D01*
X149925725Y-108439432D01*
X150132568Y-108646275D01*
X150375789Y-108808790D01*
X150646042Y-108920732D01*
X150932940Y-108977800D01*
X151225460Y-108977800D01*
X151512358Y-108920732D01*
X151782611Y-108808790D01*
X152025832Y-108646275D01*
X152232675Y-108439432D01*
X152349200Y-108265040D01*
X152465725Y-108439432D01*
X152672568Y-108646275D01*
X152915789Y-108808790D01*
X153186042Y-108920732D01*
X153472940Y-108977800D01*
X153765460Y-108977800D01*
X154052358Y-108920732D01*
X154322611Y-108808790D01*
X154565832Y-108646275D01*
X154772675Y-108439432D01*
X154889200Y-108265040D01*
X155005725Y-108439432D01*
X155212568Y-108646275D01*
X155455789Y-108808790D01*
X155726042Y-108920732D01*
X156012940Y-108977800D01*
X156305460Y-108977800D01*
X156592358Y-108920732D01*
X156862611Y-108808790D01*
X157105832Y-108646275D01*
X157312675Y-108439432D01*
X157429200Y-108265040D01*
X157545725Y-108439432D01*
X157752568Y-108646275D01*
X157995789Y-108808790D01*
X158266042Y-108920732D01*
X158552940Y-108977800D01*
X158845460Y-108977800D01*
X159132358Y-108920732D01*
X159402611Y-108808790D01*
X159645832Y-108646275D01*
X159852675Y-108439432D01*
X159969200Y-108265040D01*
X160085725Y-108439432D01*
X160292568Y-108646275D01*
X160535789Y-108808790D01*
X160806042Y-108920732D01*
X161092940Y-108977800D01*
X161385460Y-108977800D01*
X161672358Y-108920732D01*
X161942611Y-108808790D01*
X162185832Y-108646275D01*
X162392675Y-108439432D01*
X162509200Y-108265040D01*
X162625725Y-108439432D01*
X162832568Y-108646275D01*
X163075789Y-108808790D01*
X163346042Y-108920732D01*
X163632940Y-108977800D01*
X163925460Y-108977800D01*
X164212358Y-108920732D01*
X164482611Y-108808790D01*
X164725832Y-108646275D01*
X164932675Y-108439432D01*
X165095190Y-108196211D01*
X165207132Y-107925958D01*
X165264200Y-107639060D01*
X165264200Y-107346540D01*
X165207132Y-107059642D01*
X165095190Y-106789389D01*
X164932675Y-106546168D01*
X164725832Y-106339325D01*
X164482611Y-106176810D01*
X164212358Y-106064868D01*
X163925460Y-106007800D01*
X163632940Y-106007800D01*
X163412792Y-106051590D01*
X162251001Y-104889800D01*
X162251001Y-103752047D01*
X162345495Y-103701538D01*
X162442186Y-103622186D01*
X162521538Y-103525495D01*
X162580503Y-103415181D01*
X162616813Y-103295483D01*
X162629073Y-103171001D01*
X162629073Y-101870287D01*
X162716519Y-101896813D01*
X162841001Y-101909073D01*
X163805251Y-101906001D01*
X163964001Y-101747251D01*
X163964001Y-100898001D01*
X164218001Y-100898001D01*
X164218001Y-101747251D01*
X164376751Y-101906001D01*
X165341001Y-101909073D01*
X165465483Y-101896813D01*
X165585181Y-101860503D01*
X165695495Y-101801538D01*
X165792186Y-101722186D01*
X165871538Y-101625495D01*
X165871861Y-101624890D01*
X167944524Y-101624890D01*
X167989175Y-101772099D01*
X168114359Y-102034920D01*
X168288412Y-102268269D01*
X168504645Y-102463178D01*
X168754748Y-102612157D01*
X169029109Y-102709481D01*
X169259000Y-102588814D01*
X169259000Y-101395000D01*
X169513000Y-101395000D01*
X169513000Y-102588814D01*
X169742891Y-102709481D01*
X170017252Y-102612157D01*
X170267355Y-102463178D01*
X170483588Y-102268269D01*
X170657641Y-102034920D01*
X170782825Y-101772099D01*
X170827476Y-101624890D01*
X170706155Y-101395000D01*
X169513000Y-101395000D01*
X169259000Y-101395000D01*
X168065845Y-101395000D01*
X167944524Y-101624890D01*
X165871861Y-101624890D01*
X165930503Y-101515181D01*
X165966813Y-101395483D01*
X165979073Y-101271001D01*
X165976001Y-101056751D01*
X165817251Y-100898001D01*
X164218001Y-100898001D01*
X163964001Y-100898001D01*
X162415604Y-100898001D01*
X162345495Y-100840464D01*
X162235181Y-100781499D01*
X162115483Y-100745189D01*
X161991001Y-100732929D01*
X160991001Y-100732929D01*
X160866519Y-100745189D01*
X160746821Y-100781499D01*
X160636507Y-100840464D01*
X160539816Y-100919816D01*
X160491001Y-100979297D01*
X160442186Y-100919816D01*
X160345495Y-100840464D01*
X160235181Y-100781499D01*
X160115483Y-100745189D01*
X159991001Y-100732929D01*
X158991001Y-100732929D01*
X158866519Y-100745189D01*
X158746821Y-100781499D01*
X158636507Y-100840464D01*
X158539816Y-100919816D01*
X158491001Y-100979297D01*
X158442186Y-100919816D01*
X158345495Y-100840464D01*
X158235181Y-100781499D01*
X158115483Y-100745189D01*
X157991001Y-100732929D01*
X156991001Y-100732929D01*
X156866519Y-100745189D01*
X156746821Y-100781499D01*
X156636507Y-100840464D01*
X156539816Y-100919816D01*
X156491001Y-100979297D01*
X156442186Y-100919816D01*
X156345495Y-100840464D01*
X156235181Y-100781499D01*
X156115483Y-100745189D01*
X155991001Y-100732929D01*
X154991001Y-100732929D01*
X154866519Y-100745189D01*
X154746821Y-100781499D01*
X154636507Y-100840464D01*
X154539816Y-100919816D01*
X154491001Y-100979297D01*
X154442186Y-100919816D01*
X154345495Y-100840464D01*
X154235181Y-100781499D01*
X154115483Y-100745189D01*
X153991001Y-100732929D01*
X152991001Y-100732929D01*
X152866519Y-100745189D01*
X152746821Y-100781499D01*
X152636507Y-100840464D01*
X152539816Y-100919816D01*
X152491001Y-100979297D01*
X152442186Y-100919816D01*
X152345495Y-100840464D01*
X152235181Y-100781499D01*
X152115483Y-100745189D01*
X151991001Y-100732929D01*
X150991001Y-100732929D01*
X150866519Y-100745189D01*
X150779073Y-100771715D01*
X150779073Y-100271001D01*
X150766813Y-100146519D01*
X150730503Y-100026821D01*
X150671538Y-99916507D01*
X150592186Y-99819816D01*
X150532705Y-99771001D01*
X150592186Y-99722186D01*
X150671538Y-99625495D01*
X150730503Y-99515181D01*
X150766813Y-99395483D01*
X150779073Y-99271001D01*
X150779073Y-98271001D01*
X150766813Y-98146519D01*
X150730503Y-98026821D01*
X150671538Y-97916507D01*
X150592186Y-97819816D01*
X150532705Y-97771001D01*
X150592186Y-97722186D01*
X150671538Y-97625495D01*
X150730503Y-97515181D01*
X150753635Y-97438924D01*
X150815277Y-97405975D01*
X150931002Y-97311002D01*
X150954804Y-97281999D01*
X151539402Y-96697402D01*
X151568401Y-96673603D01*
X151663374Y-96557878D01*
X151733946Y-96425849D01*
X151777403Y-96282588D01*
X151788400Y-96170935D01*
X151788400Y-96170926D01*
X151792076Y-96133603D01*
X151788400Y-96096280D01*
X151788400Y-94610723D01*
X151792076Y-94573398D01*
X151788400Y-94536073D01*
X151788400Y-94536065D01*
X151777403Y-94424412D01*
X151733946Y-94281151D01*
X151663374Y-94149122D01*
X151568401Y-94033397D01*
X151539404Y-94009600D01*
X150795605Y-93265802D01*
X150779073Y-93245658D01*
X150779073Y-92658861D01*
X160813800Y-92658861D01*
X160813800Y-92862739D01*
X160853574Y-93062698D01*
X160931595Y-93251056D01*
X161044863Y-93420574D01*
X161189026Y-93564737D01*
X161358544Y-93678005D01*
X161546902Y-93756026D01*
X161746861Y-93795800D01*
X161950739Y-93795800D01*
X162150698Y-93756026D01*
X162339056Y-93678005D01*
X162348422Y-93671747D01*
X162389816Y-93722186D01*
X162449297Y-93771001D01*
X162389816Y-93819816D01*
X162310464Y-93916507D01*
X162251499Y-94026821D01*
X162215189Y-94146519D01*
X162202929Y-94271001D01*
X162202929Y-95271001D01*
X162215189Y-95395483D01*
X162251499Y-95515181D01*
X162310464Y-95625495D01*
X162389816Y-95722186D01*
X162449297Y-95771001D01*
X162389816Y-95819816D01*
X162310464Y-95916507D01*
X162251499Y-96026821D01*
X162215189Y-96146519D01*
X162202929Y-96271001D01*
X162202929Y-97271001D01*
X162215189Y-97395483D01*
X162251499Y-97515181D01*
X162310464Y-97625495D01*
X162389816Y-97722186D01*
X162449297Y-97771001D01*
X162389816Y-97819816D01*
X162310464Y-97916507D01*
X162251499Y-98026821D01*
X162215189Y-98146519D01*
X162202929Y-98271001D01*
X162202929Y-99271001D01*
X162215189Y-99395483D01*
X162251499Y-99515181D01*
X162310464Y-99625495D01*
X162389816Y-99722186D01*
X162449297Y-99771001D01*
X162389816Y-99819816D01*
X162310464Y-99916507D01*
X162251499Y-100026821D01*
X162215189Y-100146519D01*
X162202929Y-100271001D01*
X162206001Y-100485251D01*
X162364751Y-100644001D01*
X163964001Y-100644001D01*
X163964001Y-100624001D01*
X164218001Y-100624001D01*
X164218001Y-100644001D01*
X165817251Y-100644001D01*
X165976001Y-100485251D01*
X165979073Y-100271001D01*
X165966813Y-100146519D01*
X165930503Y-100026821D01*
X165871538Y-99916507D01*
X165792186Y-99819816D01*
X165732705Y-99771001D01*
X165769611Y-99740713D01*
X165915702Y-99801226D01*
X166115661Y-99841000D01*
X166319539Y-99841000D01*
X166519498Y-99801226D01*
X166707856Y-99723205D01*
X166877374Y-99609937D01*
X167021537Y-99465774D01*
X167134805Y-99296256D01*
X167212826Y-99107898D01*
X167252600Y-98907939D01*
X167252600Y-98704061D01*
X167212826Y-98504102D01*
X167134805Y-98315744D01*
X167021537Y-98146226D01*
X166877374Y-98002063D01*
X166707856Y-97888795D01*
X166519498Y-97810774D01*
X166415059Y-97790000D01*
X166519498Y-97769226D01*
X166707856Y-97691205D01*
X166877374Y-97577937D01*
X167019255Y-97436056D01*
X167944790Y-98361592D01*
X167901000Y-98581740D01*
X167901000Y-98874260D01*
X167958068Y-99161158D01*
X168070010Y-99431411D01*
X168232525Y-99674632D01*
X168439368Y-99881475D01*
X168621534Y-100003195D01*
X168504645Y-100072822D01*
X168288412Y-100267731D01*
X168114359Y-100501080D01*
X167989175Y-100763901D01*
X167944524Y-100911110D01*
X168065845Y-101141000D01*
X169259000Y-101141000D01*
X169259000Y-101121000D01*
X169513000Y-101121000D01*
X169513000Y-101141000D01*
X170706155Y-101141000D01*
X170827476Y-100911110D01*
X170782825Y-100763901D01*
X170657641Y-100501080D01*
X170483588Y-100267731D01*
X170267355Y-100072822D01*
X170150466Y-100003195D01*
X170332632Y-99881475D01*
X170539475Y-99674632D01*
X170701990Y-99431411D01*
X170813932Y-99161158D01*
X170871000Y-98874260D01*
X170871000Y-98581740D01*
X170813932Y-98294842D01*
X170701990Y-98024589D01*
X170539475Y-97781368D01*
X170407620Y-97649513D01*
X170480180Y-97627502D01*
X170590494Y-97568537D01*
X170687185Y-97489185D01*
X170766537Y-97392494D01*
X170825502Y-97282180D01*
X170861812Y-97162482D01*
X170874072Y-97038000D01*
X170874072Y-95338000D01*
X170861812Y-95213518D01*
X170825502Y-95093820D01*
X170766537Y-94983506D01*
X170687185Y-94886815D01*
X170590494Y-94807463D01*
X170480180Y-94748498D01*
X170360482Y-94712188D01*
X170236000Y-94699928D01*
X168536000Y-94699928D01*
X168411518Y-94712188D01*
X168291820Y-94748498D01*
X168181506Y-94807463D01*
X168084815Y-94886815D01*
X168005463Y-94983506D01*
X167946498Y-95093820D01*
X167910188Y-95213518D01*
X167897928Y-95338000D01*
X167897928Y-96165127D01*
X165992805Y-94260004D01*
X165975970Y-94239490D01*
X165966813Y-94146519D01*
X165930503Y-94026821D01*
X165871538Y-93916507D01*
X165792186Y-93819816D01*
X165732705Y-93771001D01*
X165792186Y-93722186D01*
X165871538Y-93625495D01*
X165930503Y-93515181D01*
X165966813Y-93395483D01*
X165979073Y-93271001D01*
X165979073Y-92271001D01*
X165966813Y-92146519D01*
X165930503Y-92026821D01*
X165871538Y-91916507D01*
X165792186Y-91819816D01*
X165732705Y-91771001D01*
X165792186Y-91722186D01*
X165871538Y-91625495D01*
X165930503Y-91515181D01*
X165966813Y-91395483D01*
X165979073Y-91271001D01*
X165979073Y-90271001D01*
X165966813Y-90146519D01*
X165930503Y-90026821D01*
X165871538Y-89916507D01*
X165792186Y-89819816D01*
X165732705Y-89771001D01*
X165792186Y-89722186D01*
X165871538Y-89625495D01*
X165930503Y-89515181D01*
X165953635Y-89438924D01*
X166015277Y-89405975D01*
X166131002Y-89311002D01*
X166154805Y-89281998D01*
X167688804Y-87748000D01*
X167757928Y-87748000D01*
X167757928Y-87838000D01*
X167770188Y-87962482D01*
X167806498Y-88082180D01*
X167865463Y-88192494D01*
X167944815Y-88289185D01*
X168041506Y-88368537D01*
X168151820Y-88427502D01*
X168271518Y-88463812D01*
X168396000Y-88476072D01*
X170096000Y-88476072D01*
X170220482Y-88463812D01*
X170340180Y-88427502D01*
X170450494Y-88368537D01*
X170547185Y-88289185D01*
X170626537Y-88192494D01*
X170685502Y-88082180D01*
X170721812Y-87962482D01*
X170734072Y-87838000D01*
X170734072Y-86138000D01*
X170721812Y-86013518D01*
X170685502Y-85893820D01*
X170626537Y-85783506D01*
X170547185Y-85686815D01*
X170450494Y-85607463D01*
X170340180Y-85548498D01*
X170267620Y-85526487D01*
X170399475Y-85394632D01*
X170561990Y-85151411D01*
X170673932Y-84881158D01*
X170731000Y-84594260D01*
X170731000Y-84301740D01*
X170673932Y-84014842D01*
X170561990Y-83744589D01*
X170399475Y-83501368D01*
X170192632Y-83294525D01*
X170010466Y-83172805D01*
X170127355Y-83103178D01*
X170343588Y-82908269D01*
X170517641Y-82674920D01*
X170642825Y-82412099D01*
X170687476Y-82264890D01*
X170566155Y-82035000D01*
X169373000Y-82035000D01*
X169373000Y-82055000D01*
X169119000Y-82055000D01*
X169119000Y-82035000D01*
X167925845Y-82035000D01*
X167804524Y-82264890D01*
X167849175Y-82412099D01*
X167974359Y-82674920D01*
X168148412Y-82908269D01*
X168364645Y-83103178D01*
X168481534Y-83172805D01*
X168299368Y-83294525D01*
X168092525Y-83501368D01*
X167930010Y-83744589D01*
X167818068Y-84014842D01*
X167761000Y-84301740D01*
X167761000Y-84594260D01*
X167804790Y-84814408D01*
X166608198Y-86011001D01*
X165922047Y-86011001D01*
X165871538Y-85916507D01*
X165792186Y-85819816D01*
X165695495Y-85740464D01*
X165585181Y-85681499D01*
X165465483Y-85645189D01*
X165341001Y-85632929D01*
X162841001Y-85632929D01*
X162716519Y-85645189D01*
X162596821Y-85681499D01*
X162486507Y-85740464D01*
X162389816Y-85819816D01*
X162310464Y-85916507D01*
X162251499Y-86026821D01*
X162215189Y-86146519D01*
X162202929Y-86271001D01*
X162202929Y-87271001D01*
X162215189Y-87395483D01*
X162251499Y-87515181D01*
X162310464Y-87625495D01*
X162389816Y-87722186D01*
X162449297Y-87771001D01*
X162389816Y-87819816D01*
X162310464Y-87916507D01*
X162251499Y-88026821D01*
X162215189Y-88146519D01*
X162202929Y-88271001D01*
X162202929Y-89271001D01*
X162215189Y-89395483D01*
X162251499Y-89515181D01*
X162310464Y-89625495D01*
X162389816Y-89722186D01*
X162449297Y-89771001D01*
X162389816Y-89819816D01*
X162376635Y-89835877D01*
X162252298Y-89784374D01*
X162052339Y-89744600D01*
X161848461Y-89744600D01*
X161648502Y-89784374D01*
X161460144Y-89862395D01*
X161290626Y-89975663D01*
X161146463Y-90119826D01*
X161033195Y-90289344D01*
X160955174Y-90477702D01*
X160915400Y-90677661D01*
X160915400Y-90881539D01*
X160955174Y-91081498D01*
X161033195Y-91269856D01*
X161146463Y-91439374D01*
X161290626Y-91583537D01*
X161460144Y-91696805D01*
X161600451Y-91754923D01*
X161546902Y-91765574D01*
X161358544Y-91843595D01*
X161189026Y-91956863D01*
X161044863Y-92101026D01*
X160931595Y-92270544D01*
X160853574Y-92458902D01*
X160813800Y-92658861D01*
X150779073Y-92658861D01*
X150779073Y-92271001D01*
X150766813Y-92146519D01*
X150730503Y-92026821D01*
X150671538Y-91916507D01*
X150592186Y-91819816D01*
X150532705Y-91771001D01*
X150592186Y-91722186D01*
X150671538Y-91625495D01*
X150730503Y-91515181D01*
X150766813Y-91395483D01*
X150779073Y-91271001D01*
X150779073Y-90271001D01*
X150766813Y-90146519D01*
X150730503Y-90026821D01*
X150671538Y-89916507D01*
X150592186Y-89819816D01*
X150532705Y-89771001D01*
X150592186Y-89722186D01*
X150671538Y-89625495D01*
X150730503Y-89515181D01*
X150766813Y-89395483D01*
X150779073Y-89271001D01*
X150779073Y-88271001D01*
X150766813Y-88146519D01*
X150730503Y-88026821D01*
X150671538Y-87916507D01*
X150592186Y-87819816D01*
X150532705Y-87771001D01*
X150592186Y-87722186D01*
X150671538Y-87625495D01*
X150730503Y-87515181D01*
X150766813Y-87395483D01*
X150779073Y-87271001D01*
X150779073Y-86271001D01*
X150766813Y-86146519D01*
X150730503Y-86026821D01*
X150671538Y-85916507D01*
X150592186Y-85819816D01*
X150495495Y-85740464D01*
X150385181Y-85681499D01*
X150265483Y-85645189D01*
X150141001Y-85632929D01*
X147641001Y-85632929D01*
X147516519Y-85645189D01*
X147396821Y-85681499D01*
X147286507Y-85740464D01*
X147189816Y-85819816D01*
X147110464Y-85916507D01*
X147059955Y-86011001D01*
X143351651Y-86011001D01*
X143279987Y-85903748D01*
X143052252Y-85676013D01*
X142784463Y-85497082D01*
X142486912Y-85373832D01*
X142171033Y-85311000D01*
X141848967Y-85311000D01*
X141533088Y-85373832D01*
X141235537Y-85497082D01*
X140967748Y-85676013D01*
X140740013Y-85903748D01*
X140561082Y-86171537D01*
X140437832Y-86469088D01*
X140375000Y-86784967D01*
X140375000Y-87107033D01*
X140437832Y-87422912D01*
X140561082Y-87720463D01*
X140740013Y-87988252D01*
X140967748Y-88215987D01*
X141235537Y-88394918D01*
X141533088Y-88518168D01*
X141848967Y-88581000D01*
X142171033Y-88581000D01*
X142486912Y-88518168D01*
X142784463Y-88394918D01*
X143052252Y-88215987D01*
X143279987Y-87988252D01*
X143458918Y-87720463D01*
X143537396Y-87531001D01*
X147059955Y-87531001D01*
X147110464Y-87625495D01*
X147189816Y-87722186D01*
X147249297Y-87771001D01*
X147189816Y-87819816D01*
X147110464Y-87916507D01*
X147059955Y-88011001D01*
X144539921Y-88011001D01*
X144502598Y-88007325D01*
X144465275Y-88011001D01*
X144465266Y-88011001D01*
X144353613Y-88021998D01*
X144210352Y-88065455D01*
X144078323Y-88136027D01*
X143962598Y-88231000D01*
X143938800Y-88259998D01*
X143216199Y-88982600D01*
X143154061Y-88982600D01*
X142954102Y-89022374D01*
X142765744Y-89100395D01*
X142596226Y-89213663D01*
X142452063Y-89357826D01*
X142338795Y-89527344D01*
X142260774Y-89715702D01*
X142221000Y-89915661D01*
X142221000Y-90119539D01*
X142260774Y-90319498D01*
X142338795Y-90507856D01*
X142452063Y-90677374D01*
X142596226Y-90821537D01*
X142765744Y-90934805D01*
X142954102Y-91012826D01*
X143154061Y-91052600D01*
X143357939Y-91052600D01*
X143557898Y-91012826D01*
X143746256Y-90934805D01*
X143915774Y-90821537D01*
X144059937Y-90677374D01*
X144173205Y-90507856D01*
X144251226Y-90319498D01*
X144291000Y-90119539D01*
X144291000Y-90057401D01*
X144817401Y-89531001D01*
X147059955Y-89531001D01*
X147110464Y-89625495D01*
X147189816Y-89722186D01*
X147249297Y-89771001D01*
X147189816Y-89819816D01*
X147110464Y-89916507D01*
X147082029Y-89969705D01*
X146997456Y-89913195D01*
X146809098Y-89835174D01*
X146609139Y-89795400D01*
X146405261Y-89795400D01*
X146205302Y-89835174D01*
X146016944Y-89913195D01*
X145847426Y-90026463D01*
X145703263Y-90170626D01*
X145589995Y-90340144D01*
X145511974Y-90528502D01*
X145472200Y-90728461D01*
X145472200Y-90932339D01*
X145511974Y-91132298D01*
X145589995Y-91320656D01*
X145703263Y-91490174D01*
X145847426Y-91634337D01*
X146016944Y-91747605D01*
X146205302Y-91825626D01*
X146309741Y-91846400D01*
X146205302Y-91867174D01*
X146016944Y-91945195D01*
X145847426Y-92058463D01*
X145703263Y-92202626D01*
X145589995Y-92372144D01*
X145511974Y-92560502D01*
X145472200Y-92760461D01*
X145472200Y-92964339D01*
X145482635Y-93016800D01*
X144711602Y-93016800D01*
X141099804Y-89405003D01*
X141076001Y-89375999D01*
X140960276Y-89281026D01*
X140828247Y-89210454D01*
X140684986Y-89166997D01*
X140573333Y-89156000D01*
X140573322Y-89156000D01*
X140536000Y-89152324D01*
X140498678Y-89156000D01*
X136904802Y-89156000D01*
X135830215Y-88081413D01*
X136554192Y-88081413D01*
X136649956Y-88345814D01*
X136939571Y-88486704D01*
X137251108Y-88568384D01*
X137572595Y-88587718D01*
X137891675Y-88543961D01*
X138196088Y-88438795D01*
X138370044Y-88345814D01*
X138465808Y-88081413D01*
X137510000Y-87125605D01*
X136554192Y-88081413D01*
X135830215Y-88081413D01*
X134757397Y-87008595D01*
X135868282Y-87008595D01*
X135912039Y-87327675D01*
X136017205Y-87632088D01*
X136110186Y-87806044D01*
X136374587Y-87901808D01*
X137330395Y-86946000D01*
X137689605Y-86946000D01*
X138645413Y-87901808D01*
X138909814Y-87806044D01*
X139050704Y-87516429D01*
X139132384Y-87204892D01*
X139151718Y-86883405D01*
X139107961Y-86564325D01*
X139002795Y-86259912D01*
X138909814Y-86085956D01*
X138645413Y-85990192D01*
X137689605Y-86946000D01*
X137330395Y-86946000D01*
X136374587Y-85990192D01*
X136110186Y-86085956D01*
X135969296Y-86375571D01*
X135887616Y-86687108D01*
X135868282Y-87008595D01*
X134757397Y-87008595D01*
X133559389Y-85810587D01*
X136554192Y-85810587D01*
X137510000Y-86766395D01*
X138465808Y-85810587D01*
X138370044Y-85546186D01*
X138080429Y-85405296D01*
X137768892Y-85323616D01*
X137447405Y-85304282D01*
X137128325Y-85348039D01*
X136823912Y-85453205D01*
X136649956Y-85546186D01*
X136554192Y-85810587D01*
X133559389Y-85810587D01*
X130956167Y-83207365D01*
X130985000Y-83062411D01*
X130985000Y-82789589D01*
X130931775Y-82522011D01*
X130827371Y-82269957D01*
X130675799Y-82043114D01*
X130482886Y-81850201D01*
X130366517Y-81772445D01*
X130474482Y-81761812D01*
X130594180Y-81725502D01*
X130704494Y-81666537D01*
X130801185Y-81587185D01*
X130805921Y-81581413D01*
X136554192Y-81581413D01*
X136649956Y-81845814D01*
X136939571Y-81986704D01*
X137251108Y-82068384D01*
X137572595Y-82087718D01*
X137891675Y-82043961D01*
X138196088Y-81938795D01*
X138370044Y-81845814D01*
X138465808Y-81581413D01*
X137510000Y-80625605D01*
X136554192Y-81581413D01*
X130805921Y-81581413D01*
X130880537Y-81490494D01*
X130939502Y-81380180D01*
X130975812Y-81260482D01*
X130988072Y-81136000D01*
X130988072Y-80508595D01*
X135868282Y-80508595D01*
X135912039Y-80827675D01*
X136017205Y-81132088D01*
X136110186Y-81306044D01*
X136374587Y-81401808D01*
X137330395Y-80446000D01*
X137689605Y-80446000D01*
X138645413Y-81401808D01*
X138909814Y-81306044D01*
X139050704Y-81016429D01*
X139132384Y-80704892D01*
X139151718Y-80383405D01*
X139138219Y-80284967D01*
X140375000Y-80284967D01*
X140375000Y-80607033D01*
X140437832Y-80922912D01*
X140561082Y-81220463D01*
X140740013Y-81488252D01*
X140967748Y-81715987D01*
X141235537Y-81894918D01*
X141533088Y-82018168D01*
X141848967Y-82081000D01*
X142171033Y-82081000D01*
X142486912Y-82018168D01*
X142784463Y-81894918D01*
X143052252Y-81715987D01*
X143279987Y-81488252D01*
X143458918Y-81220463D01*
X143582168Y-80922912D01*
X143645000Y-80607033D01*
X143645000Y-80284967D01*
X143582168Y-79969088D01*
X143458918Y-79671537D01*
X143279987Y-79403748D01*
X143097979Y-79221740D01*
X167761000Y-79221740D01*
X167761000Y-79514260D01*
X167818068Y-79801158D01*
X167930010Y-80071411D01*
X168092525Y-80314632D01*
X168299368Y-80521475D01*
X168481534Y-80643195D01*
X168364645Y-80712822D01*
X168148412Y-80907731D01*
X167974359Y-81141080D01*
X167849175Y-81403901D01*
X167804524Y-81551110D01*
X167925845Y-81781000D01*
X169119000Y-81781000D01*
X169119000Y-81761000D01*
X169373000Y-81761000D01*
X169373000Y-81781000D01*
X170566155Y-81781000D01*
X170687476Y-81551110D01*
X170642825Y-81403901D01*
X170517641Y-81141080D01*
X170343588Y-80907731D01*
X170127355Y-80712822D01*
X170010466Y-80643195D01*
X170192632Y-80521475D01*
X170399475Y-80314632D01*
X170561990Y-80071411D01*
X170673932Y-79801158D01*
X170731000Y-79514260D01*
X170731000Y-79221740D01*
X170673932Y-78934842D01*
X170561990Y-78664589D01*
X170399475Y-78421368D01*
X170192632Y-78214525D01*
X169949411Y-78052010D01*
X169679158Y-77940068D01*
X169392260Y-77883000D01*
X169099740Y-77883000D01*
X168812842Y-77940068D01*
X168542589Y-78052010D01*
X168299368Y-78214525D01*
X168092525Y-78421368D01*
X167930010Y-78664589D01*
X167818068Y-78934842D01*
X167761000Y-79221740D01*
X143097979Y-79221740D01*
X143052252Y-79176013D01*
X142784463Y-78997082D01*
X142486912Y-78873832D01*
X142171033Y-78811000D01*
X141848967Y-78811000D01*
X141533088Y-78873832D01*
X141235537Y-78997082D01*
X140967748Y-79176013D01*
X140740013Y-79403748D01*
X140561082Y-79671537D01*
X140437832Y-79969088D01*
X140375000Y-80284967D01*
X139138219Y-80284967D01*
X139107961Y-80064325D01*
X139002795Y-79759912D01*
X138909814Y-79585956D01*
X138645413Y-79490192D01*
X137689605Y-80446000D01*
X137330395Y-80446000D01*
X136374587Y-79490192D01*
X136110186Y-79585956D01*
X135969296Y-79875571D01*
X135887616Y-80187108D01*
X135868282Y-80508595D01*
X130988072Y-80508595D01*
X130988072Y-79636000D01*
X130975812Y-79511518D01*
X130939502Y-79391820D01*
X130896082Y-79310587D01*
X136554192Y-79310587D01*
X137510000Y-80266395D01*
X138465808Y-79310587D01*
X138370044Y-79046186D01*
X138080429Y-78905296D01*
X137768892Y-78823616D01*
X137447405Y-78804282D01*
X137128325Y-78848039D01*
X136823912Y-78953205D01*
X136649956Y-79046186D01*
X136554192Y-79310587D01*
X130896082Y-79310587D01*
X130880537Y-79281506D01*
X130801185Y-79184815D01*
X130704494Y-79105463D01*
X130594180Y-79046498D01*
X130474482Y-79010188D01*
X130350000Y-78997928D01*
X128850000Y-78997928D01*
X128725518Y-79010188D01*
X128605820Y-79046498D01*
X128495506Y-79105463D01*
X128398815Y-79184815D01*
X128319463Y-79281506D01*
X128260498Y-79391820D01*
X128224188Y-79511518D01*
X128211928Y-79636000D01*
X128211928Y-81136000D01*
X128224188Y-81260482D01*
X128260498Y-81380180D01*
X128319463Y-81490494D01*
X128398815Y-81587185D01*
X128495506Y-81666537D01*
X128605820Y-81725502D01*
X128725518Y-81761812D01*
X128833483Y-81772445D01*
X128717114Y-81850201D01*
X128524201Y-82043114D01*
X128372629Y-82269957D01*
X128268225Y-82522011D01*
X128215000Y-82789589D01*
X128215000Y-83062411D01*
X128268225Y-83329989D01*
X128372629Y-83582043D01*
X128524201Y-83808886D01*
X128717114Y-84001799D01*
X128943957Y-84153371D01*
X129046873Y-84196000D01*
X128943957Y-84238629D01*
X128717114Y-84390201D01*
X128524201Y-84583114D01*
X128372629Y-84809957D01*
X128268225Y-85062011D01*
X128215000Y-85329589D01*
X128215000Y-85602411D01*
X128268225Y-85869989D01*
X128372629Y-86122043D01*
X128524201Y-86348886D01*
X128717114Y-86541799D01*
X128943957Y-86693371D01*
X129043279Y-86734511D01*
X129001168Y-86749723D01*
X128888137Y-86810140D01*
X128822612Y-87049007D01*
X129600000Y-87826395D01*
X130377388Y-87049007D01*
X130311863Y-86810140D01*
X130153523Y-86735836D01*
X130256043Y-86693371D01*
X130482886Y-86541799D01*
X130675799Y-86348886D01*
X130827371Y-86122043D01*
X130931775Y-85869989D01*
X130985000Y-85602411D01*
X130985000Y-85385801D01*
X136026200Y-90427002D01*
X136049999Y-90456001D01*
X136165724Y-90550974D01*
X136297753Y-90621546D01*
X136441014Y-90665003D01*
X136552667Y-90676000D01*
X136552677Y-90676000D01*
X136590000Y-90679676D01*
X136627323Y-90676000D01*
X140221199Y-90676000D01*
X143833000Y-94287802D01*
X143856799Y-94316801D01*
X143972524Y-94411774D01*
X144104553Y-94482346D01*
X144247814Y-94525803D01*
X144359467Y-94536800D01*
X144359475Y-94536800D01*
X144396800Y-94540476D01*
X144434125Y-94536800D01*
X146550400Y-94536800D01*
X144703800Y-96383401D01*
X139641400Y-96383401D01*
X141060603Y-94964200D01*
X141122739Y-94964200D01*
X141322698Y-94924426D01*
X141511056Y-94846405D01*
X141680574Y-94733137D01*
X141824737Y-94588974D01*
X141938005Y-94419456D01*
X142016026Y-94231098D01*
X142055800Y-94031139D01*
X142055800Y-93827261D01*
X142016026Y-93627302D01*
X141938005Y-93438944D01*
X141824737Y-93269426D01*
X141680574Y-93125263D01*
X141511056Y-93011995D01*
X141322698Y-92933974D01*
X141122739Y-92894200D01*
X140918861Y-92894200D01*
X140718902Y-92933974D01*
X140530544Y-93011995D01*
X140361026Y-93125263D01*
X140216863Y-93269426D01*
X140103595Y-93438944D01*
X140025574Y-93627302D01*
X139985800Y-93827261D01*
X139985800Y-93889397D01*
X138216799Y-95658400D01*
X135831711Y-95658400D01*
X135787774Y-95614463D01*
X135618256Y-95501195D01*
X135429898Y-95423174D01*
X135229939Y-95383400D01*
X135026061Y-95383400D01*
X134826102Y-95423174D01*
X134637744Y-95501195D01*
X134468226Y-95614463D01*
X134397044Y-95685645D01*
X132688402Y-93977003D01*
X132664599Y-93947999D01*
X132548874Y-93853026D01*
X132416845Y-93782454D01*
X132273584Y-93738997D01*
X132161931Y-93728000D01*
X132161920Y-93728000D01*
X132124598Y-93724324D01*
X132087276Y-93728000D01*
X130548511Y-93728000D01*
X130504574Y-93684063D01*
X130335056Y-93570795D01*
X130146698Y-93492774D01*
X129946739Y-93453000D01*
X129742861Y-93453000D01*
X129542902Y-93492774D01*
X129354544Y-93570795D01*
X129185026Y-93684063D01*
X129062715Y-93806374D01*
X129014256Y-93773995D01*
X128825898Y-93695974D01*
X128625939Y-93656200D01*
X128422061Y-93656200D01*
X128222102Y-93695974D01*
X128033744Y-93773995D01*
X127864226Y-93887263D01*
X127720063Y-94031426D01*
X127606795Y-94200944D01*
X127528774Y-94389302D01*
X127489000Y-94589261D01*
X127489000Y-94793139D01*
X127528774Y-94993098D01*
X127606795Y-95181456D01*
X127720063Y-95350974D01*
X127864226Y-95495137D01*
X128033744Y-95608405D01*
X128222102Y-95686426D01*
X128422061Y-95726200D01*
X128484199Y-95726200D01*
X129419599Y-96661601D01*
X129443398Y-96690600D01*
X129559123Y-96785573D01*
X129691152Y-96856145D01*
X129834413Y-96899602D01*
X129946066Y-96910599D01*
X129946076Y-96910599D01*
X129983399Y-96914275D01*
X130020722Y-96910599D01*
X131400600Y-96910599D01*
X131400600Y-96977539D01*
X131440374Y-97177498D01*
X131518395Y-97365856D01*
X131631663Y-97535374D01*
X131775826Y-97679537D01*
X131945344Y-97792805D01*
X132133702Y-97870826D01*
X132333661Y-97910600D01*
X132395799Y-97910600D01*
X132945601Y-98460403D01*
X132945600Y-103464277D01*
X132941924Y-103501600D01*
X132945600Y-103538922D01*
X132945600Y-103538932D01*
X132956597Y-103650585D01*
X132989940Y-103760503D01*
X133000054Y-103793846D01*
X133070626Y-103925876D01*
X133110471Y-103974426D01*
X133165599Y-104041601D01*
X133194602Y-104065403D01*
X134151312Y-105022114D01*
X134115000Y-105204665D01*
X134115000Y-105487335D01*
X134159491Y-105711001D01*
X129389803Y-105711001D01*
X129348688Y-105669886D01*
X129385000Y-105487335D01*
X129385000Y-105204665D01*
X129329853Y-104927426D01*
X129221680Y-104666273D01*
X129064637Y-104431241D01*
X128864759Y-104231363D01*
X128629727Y-104074320D01*
X128368574Y-103966147D01*
X128091335Y-103911000D01*
X127808665Y-103911000D01*
X127531426Y-103966147D01*
X127270273Y-104074320D01*
X127035241Y-104231363D01*
X126907018Y-104359586D01*
X119226000Y-96678569D01*
X119226000Y-95502072D01*
X119466000Y-95502072D01*
X119590482Y-95489812D01*
X119710180Y-95453502D01*
X119820494Y-95394537D01*
X119917185Y-95315185D01*
X119996537Y-95218494D01*
X120055502Y-95108180D01*
X120091812Y-94988482D01*
X120104072Y-94864000D01*
X120104072Y-91064000D01*
X120091812Y-90939518D01*
X120055502Y-90819820D01*
X119996537Y-90709506D01*
X119917185Y-90612815D01*
X119820494Y-90533463D01*
X119710180Y-90474498D01*
X119590482Y-90438188D01*
X119466000Y-90425928D01*
X117466000Y-90425928D01*
X117341518Y-90438188D01*
X117221820Y-90474498D01*
X117111506Y-90533463D01*
X117014815Y-90612815D01*
X116935463Y-90709506D01*
X116876498Y-90819820D01*
X116840188Y-90939518D01*
X116827928Y-91064000D01*
X116827928Y-92204000D01*
X113803087Y-92204000D01*
X113791812Y-92089518D01*
X113755502Y-91969820D01*
X113696537Y-91859506D01*
X113659191Y-91814000D01*
X113696537Y-91768494D01*
X113755502Y-91658180D01*
X113791812Y-91538482D01*
X113804072Y-91414000D01*
X113801000Y-90949750D01*
X113642250Y-90791000D01*
X112293000Y-90791000D01*
X112293000Y-90811000D01*
X112039000Y-90811000D01*
X112039000Y-90791000D01*
X110689750Y-90791000D01*
X110531000Y-90949750D01*
X110527928Y-91414000D01*
X110537446Y-91510645D01*
X110285210Y-91258409D01*
X110285210Y-89914000D01*
X110527928Y-89914000D01*
X110531000Y-90378250D01*
X110689750Y-90537000D01*
X112039000Y-90537000D01*
X112039000Y-89437750D01*
X112293000Y-89437750D01*
X112293000Y-90537000D01*
X113642250Y-90537000D01*
X113801000Y-90378250D01*
X113804072Y-89914000D01*
X113791812Y-89789518D01*
X113755502Y-89669820D01*
X113696537Y-89559506D01*
X113617185Y-89462815D01*
X113520494Y-89383463D01*
X113410180Y-89324498D01*
X113290482Y-89288188D01*
X113166000Y-89275928D01*
X112451750Y-89279000D01*
X112293000Y-89437750D01*
X112039000Y-89437750D01*
X111880250Y-89279000D01*
X111166000Y-89275928D01*
X111041518Y-89288188D01*
X110921820Y-89324498D01*
X110811506Y-89383463D01*
X110714815Y-89462815D01*
X110635463Y-89559506D01*
X110576498Y-89669820D01*
X110540188Y-89789518D01*
X110527928Y-89914000D01*
X110285210Y-89914000D01*
X110285210Y-88962993D01*
X128822612Y-88962993D01*
X128888137Y-89201860D01*
X129135116Y-89317760D01*
X129399960Y-89383250D01*
X129672492Y-89395812D01*
X129942238Y-89354965D01*
X130198832Y-89262277D01*
X130311863Y-89201860D01*
X130377388Y-88962993D01*
X129600000Y-88185605D01*
X128822612Y-88962993D01*
X110285210Y-88962993D01*
X110285210Y-88078492D01*
X128210188Y-88078492D01*
X128251035Y-88348238D01*
X128343723Y-88604832D01*
X128404140Y-88717863D01*
X128643007Y-88783388D01*
X129420395Y-88006000D01*
X129779605Y-88006000D01*
X130556993Y-88783388D01*
X130795860Y-88717863D01*
X130911760Y-88470884D01*
X130977250Y-88206040D01*
X130989812Y-87933508D01*
X130948965Y-87663762D01*
X130856277Y-87407168D01*
X130795860Y-87294137D01*
X130556993Y-87228612D01*
X129779605Y-88006000D01*
X129420395Y-88006000D01*
X128643007Y-87228612D01*
X128404140Y-87294137D01*
X128288240Y-87541116D01*
X128222750Y-87805960D01*
X128210188Y-88078492D01*
X110285210Y-88078492D01*
X110285210Y-84670532D01*
X110288886Y-84633209D01*
X110285210Y-84595886D01*
X110285210Y-84595877D01*
X110274213Y-84484224D01*
X110230756Y-84340963D01*
X110160184Y-84208934D01*
X110124129Y-84165001D01*
X110089009Y-84122206D01*
X110089005Y-84122202D01*
X110065211Y-84093209D01*
X110036218Y-84069415D01*
X109137209Y-83170408D01*
X109181000Y-82950260D01*
X109181000Y-82657740D01*
X109142065Y-82462000D01*
X115859928Y-82462000D01*
X115859928Y-84162000D01*
X115872188Y-84286482D01*
X115908498Y-84406180D01*
X115967463Y-84516494D01*
X116046815Y-84613185D01*
X116143506Y-84692537D01*
X116253820Y-84751502D01*
X116373518Y-84787812D01*
X116498000Y-84800072D01*
X118198000Y-84800072D01*
X118322482Y-84787812D01*
X118442180Y-84751502D01*
X118552494Y-84692537D01*
X118649185Y-84613185D01*
X118728537Y-84516494D01*
X118787502Y-84406180D01*
X118823812Y-84286482D01*
X118836072Y-84162000D01*
X118836072Y-82462000D01*
X118823812Y-82337518D01*
X118787502Y-82217820D01*
X118728537Y-82107506D01*
X118649185Y-82010815D01*
X118552494Y-81931463D01*
X118442180Y-81872498D01*
X118369620Y-81850487D01*
X118501475Y-81718632D01*
X118663990Y-81475411D01*
X118775932Y-81205158D01*
X118833000Y-80918260D01*
X118833000Y-80625740D01*
X118775932Y-80338842D01*
X118663990Y-80068589D01*
X118501475Y-79825368D01*
X118294632Y-79618525D01*
X118051411Y-79456010D01*
X117781158Y-79344068D01*
X117494260Y-79287000D01*
X117201740Y-79287000D01*
X116914842Y-79344068D01*
X116644589Y-79456010D01*
X116401368Y-79618525D01*
X116194525Y-79825368D01*
X116032010Y-80068589D01*
X115920068Y-80338842D01*
X115863000Y-80625740D01*
X115863000Y-80918260D01*
X115920068Y-81205158D01*
X116032010Y-81475411D01*
X116194525Y-81718632D01*
X116326380Y-81850487D01*
X116253820Y-81872498D01*
X116143506Y-81931463D01*
X116046815Y-82010815D01*
X115967463Y-82107506D01*
X115908498Y-82217820D01*
X115872188Y-82337518D01*
X115859928Y-82462000D01*
X109142065Y-82462000D01*
X109123932Y-82370842D01*
X109011990Y-82100589D01*
X108849475Y-81857368D01*
X108717620Y-81725513D01*
X108790180Y-81703502D01*
X108900494Y-81644537D01*
X108997185Y-81565185D01*
X109076537Y-81468494D01*
X109135502Y-81358180D01*
X109171812Y-81238482D01*
X109184072Y-81114000D01*
X109181000Y-80549750D01*
X109022250Y-80391000D01*
X107823000Y-80391000D01*
X107823000Y-80411000D01*
X107569000Y-80411000D01*
X107569000Y-80391000D01*
X106369750Y-80391000D01*
X106211000Y-80549750D01*
X106207928Y-81114000D01*
X106220188Y-81238482D01*
X106256498Y-81358180D01*
X106315463Y-81468494D01*
X106394815Y-81565185D01*
X106491506Y-81644537D01*
X106601820Y-81703502D01*
X106674380Y-81725513D01*
X106542525Y-81857368D01*
X106380010Y-82100589D01*
X106268068Y-82370842D01*
X106211000Y-82657740D01*
X106211000Y-82950260D01*
X106268068Y-83237158D01*
X106380010Y-83507411D01*
X106542525Y-83750632D01*
X106749368Y-83957475D01*
X106923760Y-84074000D01*
X106749368Y-84190525D01*
X106542525Y-84397368D01*
X106380010Y-84640589D01*
X106268068Y-84910842D01*
X106211000Y-85197740D01*
X106211000Y-85490260D01*
X106268068Y-85777158D01*
X106380010Y-86047411D01*
X106542525Y-86290632D01*
X106749368Y-86497475D01*
X106992589Y-86659990D01*
X107262842Y-86771932D01*
X107549740Y-86829000D01*
X107842260Y-86829000D01*
X108062408Y-86785210D01*
X108315201Y-87038003D01*
X108315200Y-93126000D01*
X107804866Y-93126000D01*
X107865219Y-92880151D01*
X107877104Y-92612518D01*
X107836548Y-92347709D01*
X107745109Y-92095900D01*
X107687950Y-91988965D01*
X107451633Y-91926472D01*
X106692105Y-92686000D01*
X106706248Y-92700143D01*
X106526643Y-92879748D01*
X106512500Y-92865605D01*
X106498358Y-92879748D01*
X106318753Y-92700143D01*
X106332895Y-92686000D01*
X105573367Y-91926472D01*
X105397767Y-91972909D01*
X105399976Y-91746867D01*
X105752972Y-91746867D01*
X106512500Y-92506395D01*
X107272028Y-91746867D01*
X107209535Y-91510550D01*
X106966822Y-91397150D01*
X106706651Y-91333281D01*
X106439018Y-91321396D01*
X106174209Y-91361952D01*
X105922400Y-91453391D01*
X105815465Y-91510550D01*
X105752972Y-91746867D01*
X105399976Y-91746867D01*
X105400572Y-91686000D01*
X105397500Y-91654808D01*
X105397500Y-91558998D01*
X105387548Y-91558998D01*
X105352002Y-91441820D01*
X105332179Y-91404735D01*
X105355962Y-91368391D01*
X105352091Y-91330718D01*
X105259921Y-91105467D01*
X105125578Y-90902526D01*
X104954225Y-90729693D01*
X104752446Y-90593610D01*
X104527996Y-90499507D01*
X104289500Y-90451000D01*
X103939500Y-90451000D01*
X103685500Y-90451000D01*
X103335500Y-90451000D01*
X103097004Y-90499507D01*
X102872554Y-90593610D01*
X102670775Y-90729693D01*
X102499422Y-90902526D01*
X102365079Y-91105467D01*
X102272909Y-91330718D01*
X102269038Y-91368391D01*
X102292821Y-91404735D01*
X102272998Y-91441820D01*
X102260000Y-91484669D01*
X102260000Y-79414000D01*
X106207928Y-79414000D01*
X106211000Y-79978250D01*
X106369750Y-80137000D01*
X107569000Y-80137000D01*
X107569000Y-78937750D01*
X107823000Y-78937750D01*
X107823000Y-80137000D01*
X109022250Y-80137000D01*
X109181000Y-79978250D01*
X109184072Y-79414000D01*
X109171812Y-79289518D01*
X109135502Y-79169820D01*
X109076537Y-79059506D01*
X108997185Y-78962815D01*
X108900494Y-78883463D01*
X108790180Y-78824498D01*
X108670482Y-78788188D01*
X108546000Y-78775928D01*
X107981750Y-78779000D01*
X107823000Y-78937750D01*
X107569000Y-78937750D01*
X107410250Y-78779000D01*
X106846000Y-78775928D01*
X106721518Y-78788188D01*
X106601820Y-78824498D01*
X106491506Y-78883463D01*
X106394815Y-78962815D01*
X106315463Y-79059506D01*
X106256498Y-79169820D01*
X106220188Y-79289518D01*
X106207928Y-79414000D01*
X102260000Y-79414000D01*
X102260000Y-76860000D01*
X172568000Y-76860000D01*
X172568001Y-111608000D01*
G37*
X172568001Y-111608000D02*
X102260000Y-111608000D01*
X102260000Y-98887331D01*
X102272998Y-98930180D01*
X102292821Y-98967265D01*
X102269038Y-99003609D01*
X102272909Y-99041282D01*
X102365079Y-99266533D01*
X102499422Y-99469474D01*
X102670775Y-99642307D01*
X102872554Y-99778390D01*
X103097004Y-99872493D01*
X103335500Y-99921000D01*
X103685500Y-99921000D01*
X103685500Y-96313000D01*
X103665500Y-96313000D01*
X103665500Y-96059000D01*
X103685500Y-96059000D01*
X103685500Y-94313000D01*
X103665500Y-94313000D01*
X103665500Y-94059000D01*
X103685500Y-94059000D01*
X103685500Y-90451000D01*
X103939500Y-90451000D01*
X103939500Y-94059000D01*
X103959500Y-94059000D01*
X103959500Y-94313000D01*
X103939500Y-94313000D01*
X103939500Y-96059000D01*
X103959500Y-96059000D01*
X103959500Y-96313000D01*
X103939500Y-96313000D01*
X103939500Y-99921000D01*
X104289500Y-99921000D01*
X104527996Y-99872493D01*
X104752446Y-99778390D01*
X104954225Y-99642307D01*
X105125578Y-99469474D01*
X105259921Y-99266533D01*
X105352091Y-99041282D01*
X105355962Y-99003609D01*
X105332179Y-98967265D01*
X105352002Y-98930180D01*
X105387548Y-98813002D01*
X105397500Y-98813002D01*
X105397500Y-98717192D01*
X105400572Y-98686000D01*
X105399977Y-98625133D01*
X105752972Y-98625133D01*
X105815465Y-98861450D01*
X106058178Y-98974850D01*
X106318349Y-99038719D01*
X106585982Y-99050604D01*
X106850791Y-99010048D01*
X107102600Y-98918609D01*
X107209535Y-98861450D01*
X107272028Y-98625133D01*
X106512500Y-97865605D01*
X105752972Y-98625133D01*
X105399977Y-98625133D01*
X105397767Y-98399091D01*
X105573367Y-98445528D01*
X106332895Y-97686000D01*
X106318753Y-97671858D01*
X106498358Y-97492253D01*
X106512500Y-97506395D01*
X106526643Y-97492253D01*
X106706248Y-97671858D01*
X106692105Y-97686000D01*
X107451633Y-98445528D01*
X107687950Y-98383035D01*
X107801350Y-98140322D01*
X107865219Y-97880151D01*
X107877104Y-97612518D01*
X107836548Y-97347709D01*
X107745109Y-97095900D01*
X107716225Y-97041864D01*
X107773021Y-96939576D01*
X107811241Y-96820474D01*
X107822500Y-96717750D01*
X107663750Y-96559000D01*
X107551178Y-96559000D01*
X107638685Y-96487185D01*
X107718037Y-96390494D01*
X107754532Y-96322218D01*
X107822500Y-96254250D01*
X107812512Y-96163120D01*
X107813312Y-96160482D01*
X107825572Y-96036000D01*
X107825572Y-95636000D01*
X107813312Y-95511518D01*
X107813155Y-95511000D01*
X107813312Y-95510482D01*
X107825572Y-95386000D01*
X107825572Y-94986000D01*
X107813312Y-94861518D01*
X107813155Y-94861000D01*
X107813312Y-94860482D01*
X107825572Y-94736000D01*
X107825572Y-94646000D01*
X108760399Y-94646000D01*
X109889400Y-95775002D01*
X109913199Y-95804001D01*
X110028924Y-95898974D01*
X110160953Y-95969546D01*
X110304214Y-96013003D01*
X110415867Y-96024000D01*
X110415876Y-96024000D01*
X110453199Y-96027676D01*
X110490522Y-96024000D01*
X110528913Y-96024000D01*
X110540188Y-96138482D01*
X110576498Y-96258180D01*
X110635463Y-96368494D01*
X110714815Y-96465185D01*
X110811506Y-96544537D01*
X110921820Y-96603502D01*
X111041518Y-96639812D01*
X111166000Y-96652072D01*
X111254501Y-96652072D01*
X111254500Y-97073681D01*
X111212150Y-97086528D01*
X111058614Y-97168595D01*
X110924038Y-97279038D01*
X110813595Y-97413614D01*
X110731528Y-97567150D01*
X110680992Y-97733746D01*
X110663928Y-97907000D01*
X110663928Y-99157000D01*
X110680992Y-99330254D01*
X110731528Y-99496850D01*
X110813595Y-99650386D01*
X110924038Y-99784962D01*
X110943541Y-99800968D01*
X110851095Y-99913614D01*
X110769028Y-100067150D01*
X110718492Y-100233746D01*
X110701428Y-100407000D01*
X110701428Y-101657000D01*
X110718492Y-101830254D01*
X110769028Y-101996850D01*
X110851095Y-102150386D01*
X110961538Y-102284962D01*
X111096114Y-102395405D01*
X111249650Y-102477472D01*
X111292000Y-102490319D01*
X111292000Y-102718277D01*
X111288324Y-102755600D01*
X111292000Y-102792922D01*
X111292000Y-102792932D01*
X111302997Y-102904585D01*
X111342307Y-103034174D01*
X111346454Y-103047846D01*
X111417026Y-103179876D01*
X111454759Y-103225853D01*
X111511999Y-103295601D01*
X111541003Y-103319404D01*
X115918601Y-107697003D01*
X115942399Y-107726001D01*
X116058124Y-107820974D01*
X116190153Y-107891546D01*
X116333414Y-107935003D01*
X116445067Y-107946000D01*
X116445075Y-107946000D01*
X116482400Y-107949676D01*
X116519725Y-107946000D01*
X118997913Y-107946000D01*
X119009188Y-108060482D01*
X119045498Y-108180180D01*
X119104463Y-108290494D01*
X119183815Y-108387185D01*
X119280506Y-108466537D01*
X119390820Y-108525502D01*
X119510518Y-108561812D01*
X119635000Y-108574072D01*
X120685000Y-108574072D01*
X120809482Y-108561812D01*
X120929180Y-108525502D01*
X120993902Y-108490907D01*
X121202601Y-108554215D01*
X121430000Y-108576612D01*
X121657400Y-108554215D01*
X121876060Y-108487885D01*
X122064669Y-108387071D01*
X122123118Y-108428275D01*
X122332663Y-108521272D01*
X122394190Y-108529964D01*
X122573000Y-108404163D01*
X122573000Y-107639108D01*
X122573215Y-107638399D01*
X122590000Y-107467978D01*
X122590000Y-107313000D01*
X122827000Y-107313000D01*
X122827000Y-108404163D01*
X123005810Y-108529964D01*
X123067337Y-108521272D01*
X123276882Y-108428275D01*
X123464258Y-108296184D01*
X123622264Y-108130076D01*
X123744828Y-107936334D01*
X123827239Y-107722404D01*
X123866331Y-107496507D01*
X123706598Y-107313000D01*
X122827000Y-107313000D01*
X122590000Y-107313000D01*
X122590000Y-106904021D01*
X122573215Y-106733600D01*
X122573000Y-106732891D01*
X122573000Y-105967837D01*
X122827000Y-105967837D01*
X122827000Y-107059000D01*
X123706598Y-107059000D01*
X123866331Y-106875493D01*
X123827239Y-106649596D01*
X123744828Y-106435666D01*
X123622264Y-106241924D01*
X123464258Y-106075816D01*
X123276882Y-105943725D01*
X123067337Y-105850728D01*
X123005810Y-105842036D01*
X122827000Y-105967837D01*
X122573000Y-105967837D01*
X122394190Y-105842036D01*
X122332663Y-105850728D01*
X122123118Y-105943725D01*
X122064669Y-105984929D01*
X121876059Y-105884115D01*
X121657399Y-105817785D01*
X121430000Y-105795388D01*
X121202600Y-105817785D01*
X120993902Y-105881093D01*
X120929180Y-105846498D01*
X120809482Y-105810188D01*
X120685000Y-105797928D01*
X119635000Y-105797928D01*
X119510518Y-105810188D01*
X119390820Y-105846498D01*
X119280506Y-105905463D01*
X119183815Y-105984815D01*
X119104463Y-106081506D01*
X119045498Y-106191820D01*
X119009188Y-106311518D01*
X118997913Y-106426000D01*
X116797202Y-106426000D01*
X112849994Y-102478793D01*
X112854350Y-102477472D01*
X113007886Y-102395405D01*
X113142462Y-102284962D01*
X113252905Y-102150386D01*
X113334972Y-101996850D01*
X113362227Y-101907000D01*
X113676428Y-101907000D01*
X113688688Y-102031482D01*
X113724998Y-102151180D01*
X113783963Y-102261494D01*
X113863315Y-102358185D01*
X113960006Y-102437537D01*
X114070320Y-102496502D01*
X114190018Y-102532812D01*
X114314500Y-102545072D01*
X114741250Y-102542000D01*
X114900000Y-102383250D01*
X114900000Y-101159000D01*
X115154000Y-101159000D01*
X115154000Y-102383250D01*
X115312750Y-102542000D01*
X115739500Y-102545072D01*
X115863982Y-102532812D01*
X115983680Y-102496502D01*
X116093994Y-102437537D01*
X116190685Y-102358185D01*
X116270037Y-102261494D01*
X116329002Y-102151180D01*
X116365312Y-102031482D01*
X116377572Y-101907000D01*
X116374500Y-101317750D01*
X116215750Y-101159000D01*
X115154000Y-101159000D01*
X114900000Y-101159000D01*
X113838250Y-101159000D01*
X113679500Y-101317750D01*
X113676428Y-101907000D01*
X113362227Y-101907000D01*
X113385508Y-101830254D01*
X113402572Y-101657000D01*
X113402572Y-100407000D01*
X113385508Y-100233746D01*
X113334972Y-100067150D01*
X113252905Y-99913614D01*
X113142462Y-99779038D01*
X113122959Y-99763032D01*
X113215405Y-99650386D01*
X113297472Y-99496850D01*
X113324727Y-99407000D01*
X113638928Y-99407000D01*
X113651188Y-99531482D01*
X113687498Y-99651180D01*
X113746463Y-99761494D01*
X113782447Y-99805341D01*
X113724998Y-99912820D01*
X113688688Y-100032518D01*
X113676428Y-100157000D01*
X113679500Y-100746250D01*
X113838250Y-100905000D01*
X114900000Y-100905000D01*
X114900000Y-99680750D01*
X114862500Y-99643250D01*
X114862500Y-98659000D01*
X115116500Y-98659000D01*
X115116500Y-99883250D01*
X115154000Y-99920750D01*
X115154000Y-100905000D01*
X116215750Y-100905000D01*
X116374500Y-100746250D01*
X116377572Y-100157000D01*
X116365312Y-100032518D01*
X116329002Y-99912820D01*
X116270037Y-99802506D01*
X116234053Y-99758659D01*
X116291502Y-99651180D01*
X116327812Y-99531482D01*
X116340072Y-99407000D01*
X116337000Y-98817750D01*
X116178250Y-98659000D01*
X115116500Y-98659000D01*
X114862500Y-98659000D01*
X113800750Y-98659000D01*
X113642000Y-98817750D01*
X113638928Y-99407000D01*
X113324727Y-99407000D01*
X113348008Y-99330254D01*
X113365072Y-99157000D01*
X113365072Y-97907000D01*
X113348008Y-97733746D01*
X113324728Y-97657000D01*
X113638928Y-97657000D01*
X113642000Y-98246250D01*
X113800750Y-98405000D01*
X114862500Y-98405000D01*
X114862500Y-97180750D01*
X115116500Y-97180750D01*
X115116500Y-98405000D01*
X116178250Y-98405000D01*
X116337000Y-98246250D01*
X116340072Y-97657000D01*
X116327812Y-97532518D01*
X116291502Y-97412820D01*
X116232537Y-97302506D01*
X116153185Y-97205815D01*
X116056494Y-97126463D01*
X115946180Y-97067498D01*
X115826482Y-97031188D01*
X115702000Y-97018928D01*
X115275250Y-97022000D01*
X115116500Y-97180750D01*
X114862500Y-97180750D01*
X114703750Y-97022000D01*
X114277000Y-97018928D01*
X114152518Y-97031188D01*
X114032820Y-97067498D01*
X113922506Y-97126463D01*
X113825815Y-97205815D01*
X113746463Y-97302506D01*
X113687498Y-97412820D01*
X113651188Y-97532518D01*
X113638928Y-97657000D01*
X113324728Y-97657000D01*
X113297472Y-97567150D01*
X113215405Y-97413614D01*
X113104962Y-97279038D01*
X112970386Y-97168595D01*
X112816850Y-97086528D01*
X112774500Y-97073681D01*
X112774500Y-96652072D01*
X113166000Y-96652072D01*
X113290482Y-96639812D01*
X113410180Y-96603502D01*
X113520494Y-96544537D01*
X113617185Y-96465185D01*
X113696537Y-96368494D01*
X113755502Y-96258180D01*
X113791812Y-96138482D01*
X113804072Y-96014000D01*
X113804072Y-94514000D01*
X113791812Y-94389518D01*
X113755502Y-94269820D01*
X113696537Y-94159506D01*
X113659191Y-94114000D01*
X113696537Y-94068494D01*
X113755502Y-93958180D01*
X113791812Y-93838482D01*
X113803087Y-93724000D01*
X116827928Y-93724000D01*
X116827928Y-94864000D01*
X116840188Y-94988482D01*
X116876498Y-95108180D01*
X116935463Y-95218494D01*
X117014815Y-95315185D01*
X117111506Y-95394537D01*
X117221820Y-95453502D01*
X117341518Y-95489812D01*
X117466000Y-95502072D01*
X117706001Y-95502072D01*
X117706000Y-96956047D01*
X117702324Y-96993370D01*
X117706000Y-97030692D01*
X117706000Y-97030702D01*
X117716997Y-97142355D01*
X117759358Y-97282003D01*
X117760454Y-97285616D01*
X117831026Y-97417646D01*
X117849416Y-97440054D01*
X117925999Y-97533371D01*
X117955003Y-97557174D01*
X126254830Y-105857002D01*
X126278629Y-105886001D01*
X126319662Y-105919676D01*
X126394354Y-105980974D01*
X126526383Y-106051546D01*
X126669644Y-106095003D01*
X126728481Y-106100798D01*
X126835363Y-106260759D01*
X127035241Y-106460637D01*
X127270273Y-106617680D01*
X127531426Y-106725853D01*
X127808665Y-106781000D01*
X128091335Y-106781000D01*
X128273886Y-106744688D01*
X128511202Y-106982004D01*
X128535000Y-107011002D01*
X128650725Y-107105975D01*
X128782754Y-107176547D01*
X128926015Y-107220004D01*
X129037668Y-107231001D01*
X129037676Y-107231001D01*
X129075001Y-107234677D01*
X129112326Y-107231001D01*
X136230177Y-107231001D01*
X136267499Y-107234677D01*
X136304821Y-107231001D01*
X136304832Y-107231001D01*
X136416485Y-107220004D01*
X136559746Y-107176547D01*
X136691775Y-107105975D01*
X136807500Y-107011002D01*
X136831303Y-106981998D01*
X139469735Y-104343567D01*
X139466928Y-104733500D01*
X139479188Y-104857982D01*
X139515498Y-104977680D01*
X139574463Y-105087994D01*
X139653815Y-105184685D01*
X139750506Y-105264037D01*
X139860820Y-105323002D01*
X139980518Y-105359312D01*
X140105000Y-105371572D01*
X140694250Y-105368500D01*
X140853000Y-105209750D01*
X140853000Y-104148000D01*
X141107000Y-104148000D01*
X141107000Y-105209750D01*
X141265750Y-105368500D01*
X141855000Y-105371572D01*
X141979482Y-105359312D01*
X142099180Y-105323002D01*
X142209494Y-105264037D01*
X142247185Y-105233105D01*
X142260506Y-105244037D01*
X142370820Y-105303002D01*
X142490518Y-105339312D01*
X142615000Y-105351572D01*
X143204250Y-105348500D01*
X143363000Y-105189750D01*
X143363000Y-104128000D01*
X142138750Y-104128000D01*
X142118750Y-104148000D01*
X141107000Y-104148000D01*
X140853000Y-104148000D01*
X140833000Y-104148000D01*
X140833000Y-103894000D01*
X140853000Y-103894000D01*
X140853000Y-103874000D01*
X141107000Y-103874000D01*
X141107000Y-103894000D01*
X142331250Y-103894000D01*
X142351250Y-103874000D01*
X143363000Y-103874000D01*
X143363000Y-102812250D01*
X143617000Y-102812250D01*
X143617000Y-103874000D01*
X144841250Y-103874000D01*
X145000000Y-103715250D01*
X145003072Y-103288500D01*
X144990812Y-103164018D01*
X144954502Y-103044320D01*
X144895537Y-102934006D01*
X144816185Y-102837315D01*
X144719494Y-102757963D01*
X144609180Y-102698998D01*
X144489482Y-102662688D01*
X144365000Y-102650428D01*
X143775750Y-102653500D01*
X143617000Y-102812250D01*
X143363000Y-102812250D01*
X143204250Y-102653500D01*
X142615000Y-102650428D01*
X142490518Y-102662688D01*
X142370820Y-102698998D01*
X142260506Y-102757963D01*
X142222815Y-102788895D01*
X142209494Y-102777963D01*
X142099180Y-102718998D01*
X141979482Y-102682688D01*
X141855000Y-102670428D01*
X141265750Y-102673500D01*
X141107002Y-102832248D01*
X141107002Y-102706300D01*
X141416730Y-102396572D01*
X141605000Y-102396572D01*
X141778254Y-102379508D01*
X141944850Y-102328972D01*
X142098386Y-102246905D01*
X142232962Y-102136462D01*
X142244410Y-102122512D01*
X142371614Y-102226905D01*
X142525150Y-102308972D01*
X142691746Y-102359508D01*
X142865000Y-102376572D01*
X144115000Y-102376572D01*
X144288254Y-102359508D01*
X144454850Y-102308972D01*
X144608386Y-102226905D01*
X144742962Y-102116462D01*
X144853405Y-101981886D01*
X144935472Y-101828350D01*
X144986008Y-101661754D01*
X144998886Y-101531001D01*
X147059955Y-101531001D01*
X147110464Y-101625495D01*
X147189816Y-101722186D01*
X147286507Y-101801538D01*
X147396821Y-101860503D01*
X147516519Y-101896813D01*
X147641001Y-101909073D01*
X150141001Y-101909073D01*
X150265483Y-101896813D01*
X150352929Y-101870287D01*
X150352929Y-103171001D01*
X150365189Y-103295483D01*
X150401499Y-103415181D01*
X150460464Y-103525495D01*
X150539816Y-103622186D01*
X150636507Y-103701538D01*
X150642733Y-103704866D01*
X150568198Y-103779401D01*
X150539200Y-103803199D01*
X150515402Y-103832197D01*
X150515401Y-103832198D01*
X150444226Y-103918924D01*
X150373654Y-104050954D01*
X150350283Y-104128000D01*
X150330198Y-104194214D01*
X150319247Y-104305397D01*
X150315524Y-104343200D01*
X150319201Y-104380532D01*
X150319200Y-106214621D01*
X150132568Y-106339325D01*
X149925725Y-106546168D01*
X149809200Y-106720560D01*
X149692675Y-106546168D01*
X149485832Y-106339325D01*
X149299200Y-106214622D01*
X149299200Y-105859255D01*
X149300574Y-105858337D01*
X149444737Y-105714174D01*
X149558005Y-105544656D01*
X149636026Y-105356298D01*
X149675800Y-105156339D01*
X149675800Y-104952461D01*
X149636026Y-104752502D01*
X149558005Y-104564144D01*
X149444737Y-104394626D01*
X149300574Y-104250463D01*
X149131056Y-104137195D01*
X148942698Y-104059174D01*
X148742739Y-104019400D01*
X148538861Y-104019400D01*
X148338902Y-104059174D01*
X148150544Y-104137195D01*
X147981026Y-104250463D01*
X147836863Y-104394626D01*
X147723595Y-104564144D01*
X147645574Y-104752502D01*
X147605800Y-104952461D01*
X147605800Y-105156339D01*
X147645574Y-105356298D01*
X147723595Y-105544656D01*
X147779201Y-105627876D01*
X147779201Y-106214621D01*
X147592568Y-106339325D01*
X147460713Y-106471180D01*
X147438702Y-106398620D01*
X147379737Y-106288306D01*
X147300385Y-106191615D01*
X147203694Y-106112263D01*
X147093380Y-106053298D01*
X146973682Y-106016988D01*
X146849200Y-106004728D01*
X146759200Y-106004728D01*
X146759200Y-105758111D01*
X146803137Y-105714174D01*
X146916405Y-105544656D01*
X146994426Y-105356298D01*
X147034200Y-105156339D01*
X147034200Y-104952461D01*
X146994426Y-104752502D01*
X146916405Y-104564144D01*
X146803137Y-104394626D01*
X146658974Y-104250463D01*
X146489456Y-104137195D01*
X146301098Y-104059174D01*
X146101139Y-104019400D01*
X145897261Y-104019400D01*
X145697302Y-104059174D01*
X145508944Y-104137195D01*
X145339426Y-104250463D01*
X145195263Y-104394626D01*
X145081995Y-104564144D01*
X145003974Y-104752502D01*
X144994579Y-104799735D01*
X145003072Y-104713500D01*
X145000000Y-104286750D01*
X144841250Y-104128000D01*
X143617000Y-104128000D01*
X143617000Y-105189750D01*
X143775750Y-105348500D01*
X144365000Y-105351572D01*
X144489482Y-105339312D01*
X144609180Y-105303002D01*
X144719494Y-105244037D01*
X144816185Y-105164685D01*
X144895537Y-105067994D01*
X144954502Y-104957680D01*
X144979656Y-104874759D01*
X144964200Y-104952461D01*
X144964200Y-105156339D01*
X145003974Y-105356298D01*
X145081995Y-105544656D01*
X145195263Y-105714174D01*
X145239201Y-105758112D01*
X145239201Y-106004728D01*
X145149200Y-106004728D01*
X145024718Y-106016988D01*
X144905020Y-106053298D01*
X144794706Y-106112263D01*
X144698015Y-106191615D01*
X144618663Y-106288306D01*
X144559698Y-106398620D01*
X144523388Y-106518318D01*
X144511128Y-106642800D01*
X144511128Y-108342800D01*
X144523388Y-108467282D01*
X144559698Y-108586980D01*
X144618663Y-108697294D01*
X144698015Y-108793985D01*
X144794706Y-108873337D01*
X144905020Y-108932302D01*
X145024718Y-108968612D01*
X145149200Y-108980872D01*
X146849200Y-108980872D01*
X146973682Y-108968612D01*
X147093380Y-108932302D01*
X147203694Y-108873337D01*
X147300385Y-108793985D01*
X147379737Y-108697294D01*
X147438702Y-108586980D01*
X147460713Y-108514420D01*
X147592568Y-108646275D01*
X147835789Y-108808790D01*
X148106042Y-108920732D01*
X148392940Y-108977800D01*
X148685460Y-108977800D01*
X148972358Y-108920732D01*
X149242611Y-108808790D01*
X149485832Y-108646275D01*
X149692675Y-108439432D01*
X149809200Y-108265040D01*
X149925725Y-108439432D01*
X150132568Y-108646275D01*
X150375789Y-108808790D01*
X150646042Y-108920732D01*
X150932940Y-108977800D01*
X151225460Y-108977800D01*
X151512358Y-108920732D01*
X151782611Y-108808790D01*
X152025832Y-108646275D01*
X152232675Y-108439432D01*
X152349200Y-108265040D01*
X152465725Y-108439432D01*
X152672568Y-108646275D01*
X152915789Y-108808790D01*
X153186042Y-108920732D01*
X153472940Y-108977800D01*
X153765460Y-108977800D01*
X154052358Y-108920732D01*
X154322611Y-108808790D01*
X154565832Y-108646275D01*
X154772675Y-108439432D01*
X154889200Y-108265040D01*
X155005725Y-108439432D01*
X155212568Y-108646275D01*
X155455789Y-108808790D01*
X155726042Y-108920732D01*
X156012940Y-108977800D01*
X156305460Y-108977800D01*
X156592358Y-108920732D01*
X156862611Y-108808790D01*
X157105832Y-108646275D01*
X157312675Y-108439432D01*
X157429200Y-108265040D01*
X157545725Y-108439432D01*
X157752568Y-108646275D01*
X157995789Y-108808790D01*
X158266042Y-108920732D01*
X158552940Y-108977800D01*
X158845460Y-108977800D01*
X159132358Y-108920732D01*
X159402611Y-108808790D01*
X159645832Y-108646275D01*
X159852675Y-108439432D01*
X159969200Y-108265040D01*
X160085725Y-108439432D01*
X160292568Y-108646275D01*
X160535789Y-108808790D01*
X160806042Y-108920732D01*
X161092940Y-108977800D01*
X161385460Y-108977800D01*
X161672358Y-108920732D01*
X161942611Y-108808790D01*
X162185832Y-108646275D01*
X162392675Y-108439432D01*
X162509200Y-108265040D01*
X162625725Y-108439432D01*
X162832568Y-108646275D01*
X163075789Y-108808790D01*
X163346042Y-108920732D01*
X163632940Y-108977800D01*
X163925460Y-108977800D01*
X164212358Y-108920732D01*
X164482611Y-108808790D01*
X164725832Y-108646275D01*
X164932675Y-108439432D01*
X165095190Y-108196211D01*
X165207132Y-107925958D01*
X165264200Y-107639060D01*
X165264200Y-107346540D01*
X165207132Y-107059642D01*
X165095190Y-106789389D01*
X164932675Y-106546168D01*
X164725832Y-106339325D01*
X164482611Y-106176810D01*
X164212358Y-106064868D01*
X163925460Y-106007800D01*
X163632940Y-106007800D01*
X163412792Y-106051590D01*
X162251001Y-104889800D01*
X162251001Y-103752047D01*
X162345495Y-103701538D01*
X162442186Y-103622186D01*
X162521538Y-103525495D01*
X162580503Y-103415181D01*
X162616813Y-103295483D01*
X162629073Y-103171001D01*
X162629073Y-101870287D01*
X162716519Y-101896813D01*
X162841001Y-101909073D01*
X163805251Y-101906001D01*
X163964001Y-101747251D01*
X163964001Y-100898001D01*
X164218001Y-100898001D01*
X164218001Y-101747251D01*
X164376751Y-101906001D01*
X165341001Y-101909073D01*
X165465483Y-101896813D01*
X165585181Y-101860503D01*
X165695495Y-101801538D01*
X165792186Y-101722186D01*
X165871538Y-101625495D01*
X165871861Y-101624890D01*
X167944524Y-101624890D01*
X167989175Y-101772099D01*
X168114359Y-102034920D01*
X168288412Y-102268269D01*
X168504645Y-102463178D01*
X168754748Y-102612157D01*
X169029109Y-102709481D01*
X169259000Y-102588814D01*
X169259000Y-101395000D01*
X169513000Y-101395000D01*
X169513000Y-102588814D01*
X169742891Y-102709481D01*
X170017252Y-102612157D01*
X170267355Y-102463178D01*
X170483588Y-102268269D01*
X170657641Y-102034920D01*
X170782825Y-101772099D01*
X170827476Y-101624890D01*
X170706155Y-101395000D01*
X169513000Y-101395000D01*
X169259000Y-101395000D01*
X168065845Y-101395000D01*
X167944524Y-101624890D01*
X165871861Y-101624890D01*
X165930503Y-101515181D01*
X165966813Y-101395483D01*
X165979073Y-101271001D01*
X165976001Y-101056751D01*
X165817251Y-100898001D01*
X164218001Y-100898001D01*
X163964001Y-100898001D01*
X162415604Y-100898001D01*
X162345495Y-100840464D01*
X162235181Y-100781499D01*
X162115483Y-100745189D01*
X161991001Y-100732929D01*
X160991001Y-100732929D01*
X160866519Y-100745189D01*
X160746821Y-100781499D01*
X160636507Y-100840464D01*
X160539816Y-100919816D01*
X160491001Y-100979297D01*
X160442186Y-100919816D01*
X160345495Y-100840464D01*
X160235181Y-100781499D01*
X160115483Y-100745189D01*
X159991001Y-100732929D01*
X158991001Y-100732929D01*
X158866519Y-100745189D01*
X158746821Y-100781499D01*
X158636507Y-100840464D01*
X158539816Y-100919816D01*
X158491001Y-100979297D01*
X158442186Y-100919816D01*
X158345495Y-100840464D01*
X158235181Y-100781499D01*
X158115483Y-100745189D01*
X157991001Y-100732929D01*
X156991001Y-100732929D01*
X156866519Y-100745189D01*
X156746821Y-100781499D01*
X156636507Y-100840464D01*
X156539816Y-100919816D01*
X156491001Y-100979297D01*
X156442186Y-100919816D01*
X156345495Y-100840464D01*
X156235181Y-100781499D01*
X156115483Y-100745189D01*
X155991001Y-100732929D01*
X154991001Y-100732929D01*
X154866519Y-100745189D01*
X154746821Y-100781499D01*
X154636507Y-100840464D01*
X154539816Y-100919816D01*
X154491001Y-100979297D01*
X154442186Y-100919816D01*
X154345495Y-100840464D01*
X154235181Y-100781499D01*
X154115483Y-100745189D01*
X153991001Y-100732929D01*
X152991001Y-100732929D01*
X152866519Y-100745189D01*
X152746821Y-100781499D01*
X152636507Y-100840464D01*
X152539816Y-100919816D01*
X152491001Y-100979297D01*
X152442186Y-100919816D01*
X152345495Y-100840464D01*
X152235181Y-100781499D01*
X152115483Y-100745189D01*
X151991001Y-100732929D01*
X150991001Y-100732929D01*
X150866519Y-100745189D01*
X150779073Y-100771715D01*
X150779073Y-100271001D01*
X150766813Y-100146519D01*
X150730503Y-100026821D01*
X150671538Y-99916507D01*
X150592186Y-99819816D01*
X150532705Y-99771001D01*
X150592186Y-99722186D01*
X150671538Y-99625495D01*
X150730503Y-99515181D01*
X150766813Y-99395483D01*
X150779073Y-99271001D01*
X150779073Y-98271001D01*
X150766813Y-98146519D01*
X150730503Y-98026821D01*
X150671538Y-97916507D01*
X150592186Y-97819816D01*
X150532705Y-97771001D01*
X150592186Y-97722186D01*
X150671538Y-97625495D01*
X150730503Y-97515181D01*
X150753635Y-97438924D01*
X150815277Y-97405975D01*
X150931002Y-97311002D01*
X150954804Y-97281999D01*
X151539402Y-96697402D01*
X151568401Y-96673603D01*
X151663374Y-96557878D01*
X151733946Y-96425849D01*
X151777403Y-96282588D01*
X151788400Y-96170935D01*
X151788400Y-96170926D01*
X151792076Y-96133603D01*
X151788400Y-96096280D01*
X151788400Y-94610723D01*
X151792076Y-94573398D01*
X151788400Y-94536073D01*
X151788400Y-94536065D01*
X151777403Y-94424412D01*
X151733946Y-94281151D01*
X151663374Y-94149122D01*
X151568401Y-94033397D01*
X151539404Y-94009600D01*
X150795605Y-93265802D01*
X150779073Y-93245658D01*
X150779073Y-92658861D01*
X160813800Y-92658861D01*
X160813800Y-92862739D01*
X160853574Y-93062698D01*
X160931595Y-93251056D01*
X161044863Y-93420574D01*
X161189026Y-93564737D01*
X161358544Y-93678005D01*
X161546902Y-93756026D01*
X161746861Y-93795800D01*
X161950739Y-93795800D01*
X162150698Y-93756026D01*
X162339056Y-93678005D01*
X162348422Y-93671747D01*
X162389816Y-93722186D01*
X162449297Y-93771001D01*
X162389816Y-93819816D01*
X162310464Y-93916507D01*
X162251499Y-94026821D01*
X162215189Y-94146519D01*
X162202929Y-94271001D01*
X162202929Y-95271001D01*
X162215189Y-95395483D01*
X162251499Y-95515181D01*
X162310464Y-95625495D01*
X162389816Y-95722186D01*
X162449297Y-95771001D01*
X162389816Y-95819816D01*
X162310464Y-95916507D01*
X162251499Y-96026821D01*
X162215189Y-96146519D01*
X162202929Y-96271001D01*
X162202929Y-97271001D01*
X162215189Y-97395483D01*
X162251499Y-97515181D01*
X162310464Y-97625495D01*
X162389816Y-97722186D01*
X162449297Y-97771001D01*
X162389816Y-97819816D01*
X162310464Y-97916507D01*
X162251499Y-98026821D01*
X162215189Y-98146519D01*
X162202929Y-98271001D01*
X162202929Y-99271001D01*
X162215189Y-99395483D01*
X162251499Y-99515181D01*
X162310464Y-99625495D01*
X162389816Y-99722186D01*
X162449297Y-99771001D01*
X162389816Y-99819816D01*
X162310464Y-99916507D01*
X162251499Y-100026821D01*
X162215189Y-100146519D01*
X162202929Y-100271001D01*
X162206001Y-100485251D01*
X162364751Y-100644001D01*
X163964001Y-100644001D01*
X163964001Y-100624001D01*
X164218001Y-100624001D01*
X164218001Y-100644001D01*
X165817251Y-100644001D01*
X165976001Y-100485251D01*
X165979073Y-100271001D01*
X165966813Y-100146519D01*
X165930503Y-100026821D01*
X165871538Y-99916507D01*
X165792186Y-99819816D01*
X165732705Y-99771001D01*
X165769611Y-99740713D01*
X165915702Y-99801226D01*
X166115661Y-99841000D01*
X166319539Y-99841000D01*
X166519498Y-99801226D01*
X166707856Y-99723205D01*
X166877374Y-99609937D01*
X167021537Y-99465774D01*
X167134805Y-99296256D01*
X167212826Y-99107898D01*
X167252600Y-98907939D01*
X167252600Y-98704061D01*
X167212826Y-98504102D01*
X167134805Y-98315744D01*
X167021537Y-98146226D01*
X166877374Y-98002063D01*
X166707856Y-97888795D01*
X166519498Y-97810774D01*
X166415059Y-97790000D01*
X166519498Y-97769226D01*
X166707856Y-97691205D01*
X166877374Y-97577937D01*
X167019255Y-97436056D01*
X167944790Y-98361592D01*
X167901000Y-98581740D01*
X167901000Y-98874260D01*
X167958068Y-99161158D01*
X168070010Y-99431411D01*
X168232525Y-99674632D01*
X168439368Y-99881475D01*
X168621534Y-100003195D01*
X168504645Y-100072822D01*
X168288412Y-100267731D01*
X168114359Y-100501080D01*
X167989175Y-100763901D01*
X167944524Y-100911110D01*
X168065845Y-101141000D01*
X169259000Y-101141000D01*
X169259000Y-101121000D01*
X169513000Y-101121000D01*
X169513000Y-101141000D01*
X170706155Y-101141000D01*
X170827476Y-100911110D01*
X170782825Y-100763901D01*
X170657641Y-100501080D01*
X170483588Y-100267731D01*
X170267355Y-100072822D01*
X170150466Y-100003195D01*
X170332632Y-99881475D01*
X170539475Y-99674632D01*
X170701990Y-99431411D01*
X170813932Y-99161158D01*
X170871000Y-98874260D01*
X170871000Y-98581740D01*
X170813932Y-98294842D01*
X170701990Y-98024589D01*
X170539475Y-97781368D01*
X170407620Y-97649513D01*
X170480180Y-97627502D01*
X170590494Y-97568537D01*
X170687185Y-97489185D01*
X170766537Y-97392494D01*
X170825502Y-97282180D01*
X170861812Y-97162482D01*
X170874072Y-97038000D01*
X170874072Y-95338000D01*
X170861812Y-95213518D01*
X170825502Y-95093820D01*
X170766537Y-94983506D01*
X170687185Y-94886815D01*
X170590494Y-94807463D01*
X170480180Y-94748498D01*
X170360482Y-94712188D01*
X170236000Y-94699928D01*
X168536000Y-94699928D01*
X168411518Y-94712188D01*
X168291820Y-94748498D01*
X168181506Y-94807463D01*
X168084815Y-94886815D01*
X168005463Y-94983506D01*
X167946498Y-95093820D01*
X167910188Y-95213518D01*
X167897928Y-95338000D01*
X167897928Y-96165127D01*
X165992805Y-94260004D01*
X165975970Y-94239490D01*
X165966813Y-94146519D01*
X165930503Y-94026821D01*
X165871538Y-93916507D01*
X165792186Y-93819816D01*
X165732705Y-93771001D01*
X165792186Y-93722186D01*
X165871538Y-93625495D01*
X165930503Y-93515181D01*
X165966813Y-93395483D01*
X165979073Y-93271001D01*
X165979073Y-92271001D01*
X165966813Y-92146519D01*
X165930503Y-92026821D01*
X165871538Y-91916507D01*
X165792186Y-91819816D01*
X165732705Y-91771001D01*
X165792186Y-91722186D01*
X165871538Y-91625495D01*
X165930503Y-91515181D01*
X165966813Y-91395483D01*
X165979073Y-91271001D01*
X165979073Y-90271001D01*
X165966813Y-90146519D01*
X165930503Y-90026821D01*
X165871538Y-89916507D01*
X165792186Y-89819816D01*
X165732705Y-89771001D01*
X165792186Y-89722186D01*
X165871538Y-89625495D01*
X165930503Y-89515181D01*
X165953635Y-89438924D01*
X166015277Y-89405975D01*
X166131002Y-89311002D01*
X166154805Y-89281998D01*
X167688804Y-87748000D01*
X167757928Y-87748000D01*
X167757928Y-87838000D01*
X167770188Y-87962482D01*
X167806498Y-88082180D01*
X167865463Y-88192494D01*
X167944815Y-88289185D01*
X168041506Y-88368537D01*
X168151820Y-88427502D01*
X168271518Y-88463812D01*
X168396000Y-88476072D01*
X170096000Y-88476072D01*
X170220482Y-88463812D01*
X170340180Y-88427502D01*
X170450494Y-88368537D01*
X170547185Y-88289185D01*
X170626537Y-88192494D01*
X170685502Y-88082180D01*
X170721812Y-87962482D01*
X170734072Y-87838000D01*
X170734072Y-86138000D01*
X170721812Y-86013518D01*
X170685502Y-85893820D01*
X170626537Y-85783506D01*
X170547185Y-85686815D01*
X170450494Y-85607463D01*
X170340180Y-85548498D01*
X170267620Y-85526487D01*
X170399475Y-85394632D01*
X170561990Y-85151411D01*
X170673932Y-84881158D01*
X170731000Y-84594260D01*
X170731000Y-84301740D01*
X170673932Y-84014842D01*
X170561990Y-83744589D01*
X170399475Y-83501368D01*
X170192632Y-83294525D01*
X170010466Y-83172805D01*
X170127355Y-83103178D01*
X170343588Y-82908269D01*
X170517641Y-82674920D01*
X170642825Y-82412099D01*
X170687476Y-82264890D01*
X170566155Y-82035000D01*
X169373000Y-82035000D01*
X169373000Y-82055000D01*
X169119000Y-82055000D01*
X169119000Y-82035000D01*
X167925845Y-82035000D01*
X167804524Y-82264890D01*
X167849175Y-82412099D01*
X167974359Y-82674920D01*
X168148412Y-82908269D01*
X168364645Y-83103178D01*
X168481534Y-83172805D01*
X168299368Y-83294525D01*
X168092525Y-83501368D01*
X167930010Y-83744589D01*
X167818068Y-84014842D01*
X167761000Y-84301740D01*
X167761000Y-84594260D01*
X167804790Y-84814408D01*
X166608198Y-86011001D01*
X165922047Y-86011001D01*
X165871538Y-85916507D01*
X165792186Y-85819816D01*
X165695495Y-85740464D01*
X165585181Y-85681499D01*
X165465483Y-85645189D01*
X165341001Y-85632929D01*
X162841001Y-85632929D01*
X162716519Y-85645189D01*
X162596821Y-85681499D01*
X162486507Y-85740464D01*
X162389816Y-85819816D01*
X162310464Y-85916507D01*
X162251499Y-86026821D01*
X162215189Y-86146519D01*
X162202929Y-86271001D01*
X162202929Y-87271001D01*
X162215189Y-87395483D01*
X162251499Y-87515181D01*
X162310464Y-87625495D01*
X162389816Y-87722186D01*
X162449297Y-87771001D01*
X162389816Y-87819816D01*
X162310464Y-87916507D01*
X162251499Y-88026821D01*
X162215189Y-88146519D01*
X162202929Y-88271001D01*
X162202929Y-89271001D01*
X162215189Y-89395483D01*
X162251499Y-89515181D01*
X162310464Y-89625495D01*
X162389816Y-89722186D01*
X162449297Y-89771001D01*
X162389816Y-89819816D01*
X162376635Y-89835877D01*
X162252298Y-89784374D01*
X162052339Y-89744600D01*
X161848461Y-89744600D01*
X161648502Y-89784374D01*
X161460144Y-89862395D01*
X161290626Y-89975663D01*
X161146463Y-90119826D01*
X161033195Y-90289344D01*
X160955174Y-90477702D01*
X160915400Y-90677661D01*
X160915400Y-90881539D01*
X160955174Y-91081498D01*
X161033195Y-91269856D01*
X161146463Y-91439374D01*
X161290626Y-91583537D01*
X161460144Y-91696805D01*
X161600451Y-91754923D01*
X161546902Y-91765574D01*
X161358544Y-91843595D01*
X161189026Y-91956863D01*
X161044863Y-92101026D01*
X160931595Y-92270544D01*
X160853574Y-92458902D01*
X160813800Y-92658861D01*
X150779073Y-92658861D01*
X150779073Y-92271001D01*
X150766813Y-92146519D01*
X150730503Y-92026821D01*
X150671538Y-91916507D01*
X150592186Y-91819816D01*
X150532705Y-91771001D01*
X150592186Y-91722186D01*
X150671538Y-91625495D01*
X150730503Y-91515181D01*
X150766813Y-91395483D01*
X150779073Y-91271001D01*
X150779073Y-90271001D01*
X150766813Y-90146519D01*
X150730503Y-90026821D01*
X150671538Y-89916507D01*
X150592186Y-89819816D01*
X150532705Y-89771001D01*
X150592186Y-89722186D01*
X150671538Y-89625495D01*
X150730503Y-89515181D01*
X150766813Y-89395483D01*
X150779073Y-89271001D01*
X150779073Y-88271001D01*
X150766813Y-88146519D01*
X150730503Y-88026821D01*
X150671538Y-87916507D01*
X150592186Y-87819816D01*
X150532705Y-87771001D01*
X150592186Y-87722186D01*
X150671538Y-87625495D01*
X150730503Y-87515181D01*
X150766813Y-87395483D01*
X150779073Y-87271001D01*
X150779073Y-86271001D01*
X150766813Y-86146519D01*
X150730503Y-86026821D01*
X150671538Y-85916507D01*
X150592186Y-85819816D01*
X150495495Y-85740464D01*
X150385181Y-85681499D01*
X150265483Y-85645189D01*
X150141001Y-85632929D01*
X147641001Y-85632929D01*
X147516519Y-85645189D01*
X147396821Y-85681499D01*
X147286507Y-85740464D01*
X147189816Y-85819816D01*
X147110464Y-85916507D01*
X147059955Y-86011001D01*
X143351651Y-86011001D01*
X143279987Y-85903748D01*
X143052252Y-85676013D01*
X142784463Y-85497082D01*
X142486912Y-85373832D01*
X142171033Y-85311000D01*
X141848967Y-85311000D01*
X141533088Y-85373832D01*
X141235537Y-85497082D01*
X140967748Y-85676013D01*
X140740013Y-85903748D01*
X140561082Y-86171537D01*
X140437832Y-86469088D01*
X140375000Y-86784967D01*
X140375000Y-87107033D01*
X140437832Y-87422912D01*
X140561082Y-87720463D01*
X140740013Y-87988252D01*
X140967748Y-88215987D01*
X141235537Y-88394918D01*
X141533088Y-88518168D01*
X141848967Y-88581000D01*
X142171033Y-88581000D01*
X142486912Y-88518168D01*
X142784463Y-88394918D01*
X143052252Y-88215987D01*
X143279987Y-87988252D01*
X143458918Y-87720463D01*
X143537396Y-87531001D01*
X147059955Y-87531001D01*
X147110464Y-87625495D01*
X147189816Y-87722186D01*
X147249297Y-87771001D01*
X147189816Y-87819816D01*
X147110464Y-87916507D01*
X147059955Y-88011001D01*
X144539921Y-88011001D01*
X144502598Y-88007325D01*
X144465275Y-88011001D01*
X144465266Y-88011001D01*
X144353613Y-88021998D01*
X144210352Y-88065455D01*
X144078323Y-88136027D01*
X143962598Y-88231000D01*
X143938800Y-88259998D01*
X143216199Y-88982600D01*
X143154061Y-88982600D01*
X142954102Y-89022374D01*
X142765744Y-89100395D01*
X142596226Y-89213663D01*
X142452063Y-89357826D01*
X142338795Y-89527344D01*
X142260774Y-89715702D01*
X142221000Y-89915661D01*
X142221000Y-90119539D01*
X142260774Y-90319498D01*
X142338795Y-90507856D01*
X142452063Y-90677374D01*
X142596226Y-90821537D01*
X142765744Y-90934805D01*
X142954102Y-91012826D01*
X143154061Y-91052600D01*
X143357939Y-91052600D01*
X143557898Y-91012826D01*
X143746256Y-90934805D01*
X143915774Y-90821537D01*
X144059937Y-90677374D01*
X144173205Y-90507856D01*
X144251226Y-90319498D01*
X144291000Y-90119539D01*
X144291000Y-90057401D01*
X144817401Y-89531001D01*
X147059955Y-89531001D01*
X147110464Y-89625495D01*
X147189816Y-89722186D01*
X147249297Y-89771001D01*
X147189816Y-89819816D01*
X147110464Y-89916507D01*
X147082029Y-89969705D01*
X146997456Y-89913195D01*
X146809098Y-89835174D01*
X146609139Y-89795400D01*
X146405261Y-89795400D01*
X146205302Y-89835174D01*
X146016944Y-89913195D01*
X145847426Y-90026463D01*
X145703263Y-90170626D01*
X145589995Y-90340144D01*
X145511974Y-90528502D01*
X145472200Y-90728461D01*
X145472200Y-90932339D01*
X145511974Y-91132298D01*
X145589995Y-91320656D01*
X145703263Y-91490174D01*
X145847426Y-91634337D01*
X146016944Y-91747605D01*
X146205302Y-91825626D01*
X146309741Y-91846400D01*
X146205302Y-91867174D01*
X146016944Y-91945195D01*
X145847426Y-92058463D01*
X145703263Y-92202626D01*
X145589995Y-92372144D01*
X145511974Y-92560502D01*
X145472200Y-92760461D01*
X145472200Y-92964339D01*
X145482635Y-93016800D01*
X144711602Y-93016800D01*
X141099804Y-89405003D01*
X141076001Y-89375999D01*
X140960276Y-89281026D01*
X140828247Y-89210454D01*
X140684986Y-89166997D01*
X140573333Y-89156000D01*
X140573322Y-89156000D01*
X140536000Y-89152324D01*
X140498678Y-89156000D01*
X136904802Y-89156000D01*
X135830215Y-88081413D01*
X136554192Y-88081413D01*
X136649956Y-88345814D01*
X136939571Y-88486704D01*
X137251108Y-88568384D01*
X137572595Y-88587718D01*
X137891675Y-88543961D01*
X138196088Y-88438795D01*
X138370044Y-88345814D01*
X138465808Y-88081413D01*
X137510000Y-87125605D01*
X136554192Y-88081413D01*
X135830215Y-88081413D01*
X134757397Y-87008595D01*
X135868282Y-87008595D01*
X135912039Y-87327675D01*
X136017205Y-87632088D01*
X136110186Y-87806044D01*
X136374587Y-87901808D01*
X137330395Y-86946000D01*
X137689605Y-86946000D01*
X138645413Y-87901808D01*
X138909814Y-87806044D01*
X139050704Y-87516429D01*
X139132384Y-87204892D01*
X139151718Y-86883405D01*
X139107961Y-86564325D01*
X139002795Y-86259912D01*
X138909814Y-86085956D01*
X138645413Y-85990192D01*
X137689605Y-86946000D01*
X137330395Y-86946000D01*
X136374587Y-85990192D01*
X136110186Y-86085956D01*
X135969296Y-86375571D01*
X135887616Y-86687108D01*
X135868282Y-87008595D01*
X134757397Y-87008595D01*
X133559389Y-85810587D01*
X136554192Y-85810587D01*
X137510000Y-86766395D01*
X138465808Y-85810587D01*
X138370044Y-85546186D01*
X138080429Y-85405296D01*
X137768892Y-85323616D01*
X137447405Y-85304282D01*
X137128325Y-85348039D01*
X136823912Y-85453205D01*
X136649956Y-85546186D01*
X136554192Y-85810587D01*
X133559389Y-85810587D01*
X130956167Y-83207365D01*
X130985000Y-83062411D01*
X130985000Y-82789589D01*
X130931775Y-82522011D01*
X130827371Y-82269957D01*
X130675799Y-82043114D01*
X130482886Y-81850201D01*
X130366517Y-81772445D01*
X130474482Y-81761812D01*
X130594180Y-81725502D01*
X130704494Y-81666537D01*
X130801185Y-81587185D01*
X130805921Y-81581413D01*
X136554192Y-81581413D01*
X136649956Y-81845814D01*
X136939571Y-81986704D01*
X137251108Y-82068384D01*
X137572595Y-82087718D01*
X137891675Y-82043961D01*
X138196088Y-81938795D01*
X138370044Y-81845814D01*
X138465808Y-81581413D01*
X137510000Y-80625605D01*
X136554192Y-81581413D01*
X130805921Y-81581413D01*
X130880537Y-81490494D01*
X130939502Y-81380180D01*
X130975812Y-81260482D01*
X130988072Y-81136000D01*
X130988072Y-80508595D01*
X135868282Y-80508595D01*
X135912039Y-80827675D01*
X136017205Y-81132088D01*
X136110186Y-81306044D01*
X136374587Y-81401808D01*
X137330395Y-80446000D01*
X137689605Y-80446000D01*
X138645413Y-81401808D01*
X138909814Y-81306044D01*
X139050704Y-81016429D01*
X139132384Y-80704892D01*
X139151718Y-80383405D01*
X139138219Y-80284967D01*
X140375000Y-80284967D01*
X140375000Y-80607033D01*
X140437832Y-80922912D01*
X140561082Y-81220463D01*
X140740013Y-81488252D01*
X140967748Y-81715987D01*
X141235537Y-81894918D01*
X141533088Y-82018168D01*
X141848967Y-82081000D01*
X142171033Y-82081000D01*
X142486912Y-82018168D01*
X142784463Y-81894918D01*
X143052252Y-81715987D01*
X143279987Y-81488252D01*
X143458918Y-81220463D01*
X143582168Y-80922912D01*
X143645000Y-80607033D01*
X143645000Y-80284967D01*
X143582168Y-79969088D01*
X143458918Y-79671537D01*
X143279987Y-79403748D01*
X143097979Y-79221740D01*
X167761000Y-79221740D01*
X167761000Y-79514260D01*
X167818068Y-79801158D01*
X167930010Y-80071411D01*
X168092525Y-80314632D01*
X168299368Y-80521475D01*
X168481534Y-80643195D01*
X168364645Y-80712822D01*
X168148412Y-80907731D01*
X167974359Y-81141080D01*
X167849175Y-81403901D01*
X167804524Y-81551110D01*
X167925845Y-81781000D01*
X169119000Y-81781000D01*
X169119000Y-81761000D01*
X169373000Y-81761000D01*
X169373000Y-81781000D01*
X170566155Y-81781000D01*
X170687476Y-81551110D01*
X170642825Y-81403901D01*
X170517641Y-81141080D01*
X170343588Y-80907731D01*
X170127355Y-80712822D01*
X170010466Y-80643195D01*
X170192632Y-80521475D01*
X170399475Y-80314632D01*
X170561990Y-80071411D01*
X170673932Y-79801158D01*
X170731000Y-79514260D01*
X170731000Y-79221740D01*
X170673932Y-78934842D01*
X170561990Y-78664589D01*
X170399475Y-78421368D01*
X170192632Y-78214525D01*
X169949411Y-78052010D01*
X169679158Y-77940068D01*
X169392260Y-77883000D01*
X169099740Y-77883000D01*
X168812842Y-77940068D01*
X168542589Y-78052010D01*
X168299368Y-78214525D01*
X168092525Y-78421368D01*
X167930010Y-78664589D01*
X167818068Y-78934842D01*
X167761000Y-79221740D01*
X143097979Y-79221740D01*
X143052252Y-79176013D01*
X142784463Y-78997082D01*
X142486912Y-78873832D01*
X142171033Y-78811000D01*
X141848967Y-78811000D01*
X141533088Y-78873832D01*
X141235537Y-78997082D01*
X140967748Y-79176013D01*
X140740013Y-79403748D01*
X140561082Y-79671537D01*
X140437832Y-79969088D01*
X140375000Y-80284967D01*
X139138219Y-80284967D01*
X139107961Y-80064325D01*
X139002795Y-79759912D01*
X138909814Y-79585956D01*
X138645413Y-79490192D01*
X137689605Y-80446000D01*
X137330395Y-80446000D01*
X136374587Y-79490192D01*
X136110186Y-79585956D01*
X135969296Y-79875571D01*
X135887616Y-80187108D01*
X135868282Y-80508595D01*
X130988072Y-80508595D01*
X130988072Y-79636000D01*
X130975812Y-79511518D01*
X130939502Y-79391820D01*
X130896082Y-79310587D01*
X136554192Y-79310587D01*
X137510000Y-80266395D01*
X138465808Y-79310587D01*
X138370044Y-79046186D01*
X138080429Y-78905296D01*
X137768892Y-78823616D01*
X137447405Y-78804282D01*
X137128325Y-78848039D01*
X136823912Y-78953205D01*
X136649956Y-79046186D01*
X136554192Y-79310587D01*
X130896082Y-79310587D01*
X130880537Y-79281506D01*
X130801185Y-79184815D01*
X130704494Y-79105463D01*
X130594180Y-79046498D01*
X130474482Y-79010188D01*
X130350000Y-78997928D01*
X128850000Y-78997928D01*
X128725518Y-79010188D01*
X128605820Y-79046498D01*
X128495506Y-79105463D01*
X128398815Y-79184815D01*
X128319463Y-79281506D01*
X128260498Y-79391820D01*
X128224188Y-79511518D01*
X128211928Y-79636000D01*
X128211928Y-81136000D01*
X128224188Y-81260482D01*
X128260498Y-81380180D01*
X128319463Y-81490494D01*
X128398815Y-81587185D01*
X128495506Y-81666537D01*
X128605820Y-81725502D01*
X128725518Y-81761812D01*
X128833483Y-81772445D01*
X128717114Y-81850201D01*
X128524201Y-82043114D01*
X128372629Y-82269957D01*
X128268225Y-82522011D01*
X128215000Y-82789589D01*
X128215000Y-83062411D01*
X128268225Y-83329989D01*
X128372629Y-83582043D01*
X128524201Y-83808886D01*
X128717114Y-84001799D01*
X128943957Y-84153371D01*
X129046873Y-84196000D01*
X128943957Y-84238629D01*
X128717114Y-84390201D01*
X128524201Y-84583114D01*
X128372629Y-84809957D01*
X128268225Y-85062011D01*
X128215000Y-85329589D01*
X128215000Y-85602411D01*
X128268225Y-85869989D01*
X128372629Y-86122043D01*
X128524201Y-86348886D01*
X128717114Y-86541799D01*
X128943957Y-86693371D01*
X129043279Y-86734511D01*
X129001168Y-86749723D01*
X128888137Y-86810140D01*
X128822612Y-87049007D01*
X129600000Y-87826395D01*
X130377388Y-87049007D01*
X130311863Y-86810140D01*
X130153523Y-86735836D01*
X130256043Y-86693371D01*
X130482886Y-86541799D01*
X130675799Y-86348886D01*
X130827371Y-86122043D01*
X130931775Y-85869989D01*
X130985000Y-85602411D01*
X130985000Y-85385801D01*
X136026200Y-90427002D01*
X136049999Y-90456001D01*
X136165724Y-90550974D01*
X136297753Y-90621546D01*
X136441014Y-90665003D01*
X136552667Y-90676000D01*
X136552677Y-90676000D01*
X136590000Y-90679676D01*
X136627323Y-90676000D01*
X140221199Y-90676000D01*
X143833000Y-94287802D01*
X143856799Y-94316801D01*
X143972524Y-94411774D01*
X144104553Y-94482346D01*
X144247814Y-94525803D01*
X144359467Y-94536800D01*
X144359475Y-94536800D01*
X144396800Y-94540476D01*
X144434125Y-94536800D01*
X146550400Y-94536800D01*
X144703800Y-96383401D01*
X139641400Y-96383401D01*
X141060603Y-94964200D01*
X141122739Y-94964200D01*
X141322698Y-94924426D01*
X141511056Y-94846405D01*
X141680574Y-94733137D01*
X141824737Y-94588974D01*
X141938005Y-94419456D01*
X142016026Y-94231098D01*
X142055800Y-94031139D01*
X142055800Y-93827261D01*
X142016026Y-93627302D01*
X141938005Y-93438944D01*
X141824737Y-93269426D01*
X141680574Y-93125263D01*
X141511056Y-93011995D01*
X141322698Y-92933974D01*
X141122739Y-92894200D01*
X140918861Y-92894200D01*
X140718902Y-92933974D01*
X140530544Y-93011995D01*
X140361026Y-93125263D01*
X140216863Y-93269426D01*
X140103595Y-93438944D01*
X140025574Y-93627302D01*
X139985800Y-93827261D01*
X139985800Y-93889397D01*
X138216799Y-95658400D01*
X135831711Y-95658400D01*
X135787774Y-95614463D01*
X135618256Y-95501195D01*
X135429898Y-95423174D01*
X135229939Y-95383400D01*
X135026061Y-95383400D01*
X134826102Y-95423174D01*
X134637744Y-95501195D01*
X134468226Y-95614463D01*
X134397044Y-95685645D01*
X132688402Y-93977003D01*
X132664599Y-93947999D01*
X132548874Y-93853026D01*
X132416845Y-93782454D01*
X132273584Y-93738997D01*
X132161931Y-93728000D01*
X132161920Y-93728000D01*
X132124598Y-93724324D01*
X132087276Y-93728000D01*
X130548511Y-93728000D01*
X130504574Y-93684063D01*
X130335056Y-93570795D01*
X130146698Y-93492774D01*
X129946739Y-93453000D01*
X129742861Y-93453000D01*
X129542902Y-93492774D01*
X129354544Y-93570795D01*
X129185026Y-93684063D01*
X129062715Y-93806374D01*
X129014256Y-93773995D01*
X128825898Y-93695974D01*
X128625939Y-93656200D01*
X128422061Y-93656200D01*
X128222102Y-93695974D01*
X128033744Y-93773995D01*
X127864226Y-93887263D01*
X127720063Y-94031426D01*
X127606795Y-94200944D01*
X127528774Y-94389302D01*
X127489000Y-94589261D01*
X127489000Y-94793139D01*
X127528774Y-94993098D01*
X127606795Y-95181456D01*
X127720063Y-95350974D01*
X127864226Y-95495137D01*
X128033744Y-95608405D01*
X128222102Y-95686426D01*
X128422061Y-95726200D01*
X128484199Y-95726200D01*
X129419599Y-96661601D01*
X129443398Y-96690600D01*
X129559123Y-96785573D01*
X129691152Y-96856145D01*
X129834413Y-96899602D01*
X129946066Y-96910599D01*
X129946076Y-96910599D01*
X129983399Y-96914275D01*
X130020722Y-96910599D01*
X131400600Y-96910599D01*
X131400600Y-96977539D01*
X131440374Y-97177498D01*
X131518395Y-97365856D01*
X131631663Y-97535374D01*
X131775826Y-97679537D01*
X131945344Y-97792805D01*
X132133702Y-97870826D01*
X132333661Y-97910600D01*
X132395799Y-97910600D01*
X132945601Y-98460403D01*
X132945600Y-103464277D01*
X132941924Y-103501600D01*
X132945600Y-103538922D01*
X132945600Y-103538932D01*
X132956597Y-103650585D01*
X132989940Y-103760503D01*
X133000054Y-103793846D01*
X133070626Y-103925876D01*
X133110471Y-103974426D01*
X133165599Y-104041601D01*
X133194602Y-104065403D01*
X134151312Y-105022114D01*
X134115000Y-105204665D01*
X134115000Y-105487335D01*
X134159491Y-105711001D01*
X129389803Y-105711001D01*
X129348688Y-105669886D01*
X129385000Y-105487335D01*
X129385000Y-105204665D01*
X129329853Y-104927426D01*
X129221680Y-104666273D01*
X129064637Y-104431241D01*
X128864759Y-104231363D01*
X128629727Y-104074320D01*
X128368574Y-103966147D01*
X128091335Y-103911000D01*
X127808665Y-103911000D01*
X127531426Y-103966147D01*
X127270273Y-104074320D01*
X127035241Y-104231363D01*
X126907018Y-104359586D01*
X119226000Y-96678569D01*
X119226000Y-95502072D01*
X119466000Y-95502072D01*
X119590482Y-95489812D01*
X119710180Y-95453502D01*
X119820494Y-95394537D01*
X119917185Y-95315185D01*
X119996537Y-95218494D01*
X120055502Y-95108180D01*
X120091812Y-94988482D01*
X120104072Y-94864000D01*
X120104072Y-91064000D01*
X120091812Y-90939518D01*
X120055502Y-90819820D01*
X119996537Y-90709506D01*
X119917185Y-90612815D01*
X119820494Y-90533463D01*
X119710180Y-90474498D01*
X119590482Y-90438188D01*
X119466000Y-90425928D01*
X117466000Y-90425928D01*
X117341518Y-90438188D01*
X117221820Y-90474498D01*
X117111506Y-90533463D01*
X117014815Y-90612815D01*
X116935463Y-90709506D01*
X116876498Y-90819820D01*
X116840188Y-90939518D01*
X116827928Y-91064000D01*
X116827928Y-92204000D01*
X113803087Y-92204000D01*
X113791812Y-92089518D01*
X113755502Y-91969820D01*
X113696537Y-91859506D01*
X113659191Y-91814000D01*
X113696537Y-91768494D01*
X113755502Y-91658180D01*
X113791812Y-91538482D01*
X113804072Y-91414000D01*
X113801000Y-90949750D01*
X113642250Y-90791000D01*
X112293000Y-90791000D01*
X112293000Y-90811000D01*
X112039000Y-90811000D01*
X112039000Y-90791000D01*
X110689750Y-90791000D01*
X110531000Y-90949750D01*
X110527928Y-91414000D01*
X110537446Y-91510645D01*
X110285210Y-91258409D01*
X110285210Y-89914000D01*
X110527928Y-89914000D01*
X110531000Y-90378250D01*
X110689750Y-90537000D01*
X112039000Y-90537000D01*
X112039000Y-89437750D01*
X112293000Y-89437750D01*
X112293000Y-90537000D01*
X113642250Y-90537000D01*
X113801000Y-90378250D01*
X113804072Y-89914000D01*
X113791812Y-89789518D01*
X113755502Y-89669820D01*
X113696537Y-89559506D01*
X113617185Y-89462815D01*
X113520494Y-89383463D01*
X113410180Y-89324498D01*
X113290482Y-89288188D01*
X113166000Y-89275928D01*
X112451750Y-89279000D01*
X112293000Y-89437750D01*
X112039000Y-89437750D01*
X111880250Y-89279000D01*
X111166000Y-89275928D01*
X111041518Y-89288188D01*
X110921820Y-89324498D01*
X110811506Y-89383463D01*
X110714815Y-89462815D01*
X110635463Y-89559506D01*
X110576498Y-89669820D01*
X110540188Y-89789518D01*
X110527928Y-89914000D01*
X110285210Y-89914000D01*
X110285210Y-88962993D01*
X128822612Y-88962993D01*
X128888137Y-89201860D01*
X129135116Y-89317760D01*
X129399960Y-89383250D01*
X129672492Y-89395812D01*
X129942238Y-89354965D01*
X130198832Y-89262277D01*
X130311863Y-89201860D01*
X130377388Y-88962993D01*
X129600000Y-88185605D01*
X128822612Y-88962993D01*
X110285210Y-88962993D01*
X110285210Y-88078492D01*
X128210188Y-88078492D01*
X128251035Y-88348238D01*
X128343723Y-88604832D01*
X128404140Y-88717863D01*
X128643007Y-88783388D01*
X129420395Y-88006000D01*
X129779605Y-88006000D01*
X130556993Y-88783388D01*
X130795860Y-88717863D01*
X130911760Y-88470884D01*
X130977250Y-88206040D01*
X130989812Y-87933508D01*
X130948965Y-87663762D01*
X130856277Y-87407168D01*
X130795860Y-87294137D01*
X130556993Y-87228612D01*
X129779605Y-88006000D01*
X129420395Y-88006000D01*
X128643007Y-87228612D01*
X128404140Y-87294137D01*
X128288240Y-87541116D01*
X128222750Y-87805960D01*
X128210188Y-88078492D01*
X110285210Y-88078492D01*
X110285210Y-84670532D01*
X110288886Y-84633209D01*
X110285210Y-84595886D01*
X110285210Y-84595877D01*
X110274213Y-84484224D01*
X110230756Y-84340963D01*
X110160184Y-84208934D01*
X110124129Y-84165001D01*
X110089009Y-84122206D01*
X110089005Y-84122202D01*
X110065211Y-84093209D01*
X110036218Y-84069415D01*
X109137209Y-83170408D01*
X109181000Y-82950260D01*
X109181000Y-82657740D01*
X109142065Y-82462000D01*
X115859928Y-82462000D01*
X115859928Y-84162000D01*
X115872188Y-84286482D01*
X115908498Y-84406180D01*
X115967463Y-84516494D01*
X116046815Y-84613185D01*
X116143506Y-84692537D01*
X116253820Y-84751502D01*
X116373518Y-84787812D01*
X116498000Y-84800072D01*
X118198000Y-84800072D01*
X118322482Y-84787812D01*
X118442180Y-84751502D01*
X118552494Y-84692537D01*
X118649185Y-84613185D01*
X118728537Y-84516494D01*
X118787502Y-84406180D01*
X118823812Y-84286482D01*
X118836072Y-84162000D01*
X118836072Y-82462000D01*
X118823812Y-82337518D01*
X118787502Y-82217820D01*
X118728537Y-82107506D01*
X118649185Y-82010815D01*
X118552494Y-81931463D01*
X118442180Y-81872498D01*
X118369620Y-81850487D01*
X118501475Y-81718632D01*
X118663990Y-81475411D01*
X118775932Y-81205158D01*
X118833000Y-80918260D01*
X118833000Y-80625740D01*
X118775932Y-80338842D01*
X118663990Y-80068589D01*
X118501475Y-79825368D01*
X118294632Y-79618525D01*
X118051411Y-79456010D01*
X117781158Y-79344068D01*
X117494260Y-79287000D01*
X117201740Y-79287000D01*
X116914842Y-79344068D01*
X116644589Y-79456010D01*
X116401368Y-79618525D01*
X116194525Y-79825368D01*
X116032010Y-80068589D01*
X115920068Y-80338842D01*
X115863000Y-80625740D01*
X115863000Y-80918260D01*
X115920068Y-81205158D01*
X116032010Y-81475411D01*
X116194525Y-81718632D01*
X116326380Y-81850487D01*
X116253820Y-81872498D01*
X116143506Y-81931463D01*
X116046815Y-82010815D01*
X115967463Y-82107506D01*
X115908498Y-82217820D01*
X115872188Y-82337518D01*
X115859928Y-82462000D01*
X109142065Y-82462000D01*
X109123932Y-82370842D01*
X109011990Y-82100589D01*
X108849475Y-81857368D01*
X108717620Y-81725513D01*
X108790180Y-81703502D01*
X108900494Y-81644537D01*
X108997185Y-81565185D01*
X109076537Y-81468494D01*
X109135502Y-81358180D01*
X109171812Y-81238482D01*
X109184072Y-81114000D01*
X109181000Y-80549750D01*
X109022250Y-80391000D01*
X107823000Y-80391000D01*
X107823000Y-80411000D01*
X107569000Y-80411000D01*
X107569000Y-80391000D01*
X106369750Y-80391000D01*
X106211000Y-80549750D01*
X106207928Y-81114000D01*
X106220188Y-81238482D01*
X106256498Y-81358180D01*
X106315463Y-81468494D01*
X106394815Y-81565185D01*
X106491506Y-81644537D01*
X106601820Y-81703502D01*
X106674380Y-81725513D01*
X106542525Y-81857368D01*
X106380010Y-82100589D01*
X106268068Y-82370842D01*
X106211000Y-82657740D01*
X106211000Y-82950260D01*
X106268068Y-83237158D01*
X106380010Y-83507411D01*
X106542525Y-83750632D01*
X106749368Y-83957475D01*
X106923760Y-84074000D01*
X106749368Y-84190525D01*
X106542525Y-84397368D01*
X106380010Y-84640589D01*
X106268068Y-84910842D01*
X106211000Y-85197740D01*
X106211000Y-85490260D01*
X106268068Y-85777158D01*
X106380010Y-86047411D01*
X106542525Y-86290632D01*
X106749368Y-86497475D01*
X106992589Y-86659990D01*
X107262842Y-86771932D01*
X107549740Y-86829000D01*
X107842260Y-86829000D01*
X108062408Y-86785210D01*
X108315201Y-87038003D01*
X108315200Y-93126000D01*
X107804866Y-93126000D01*
X107865219Y-92880151D01*
X107877104Y-92612518D01*
X107836548Y-92347709D01*
X107745109Y-92095900D01*
X107687950Y-91988965D01*
X107451633Y-91926472D01*
X106692105Y-92686000D01*
X106706248Y-92700143D01*
X106526643Y-92879748D01*
X106512500Y-92865605D01*
X106498358Y-92879748D01*
X106318753Y-92700143D01*
X106332895Y-92686000D01*
X105573367Y-91926472D01*
X105397767Y-91972909D01*
X105399976Y-91746867D01*
X105752972Y-91746867D01*
X106512500Y-92506395D01*
X107272028Y-91746867D01*
X107209535Y-91510550D01*
X106966822Y-91397150D01*
X106706651Y-91333281D01*
X106439018Y-91321396D01*
X106174209Y-91361952D01*
X105922400Y-91453391D01*
X105815465Y-91510550D01*
X105752972Y-91746867D01*
X105399976Y-91746867D01*
X105400572Y-91686000D01*
X105397500Y-91654808D01*
X105397500Y-91558998D01*
X105387548Y-91558998D01*
X105352002Y-91441820D01*
X105332179Y-91404735D01*
X105355962Y-91368391D01*
X105352091Y-91330718D01*
X105259921Y-91105467D01*
X105125578Y-90902526D01*
X104954225Y-90729693D01*
X104752446Y-90593610D01*
X104527996Y-90499507D01*
X104289500Y-90451000D01*
X103939500Y-90451000D01*
X103685500Y-90451000D01*
X103335500Y-90451000D01*
X103097004Y-90499507D01*
X102872554Y-90593610D01*
X102670775Y-90729693D01*
X102499422Y-90902526D01*
X102365079Y-91105467D01*
X102272909Y-91330718D01*
X102269038Y-91368391D01*
X102292821Y-91404735D01*
X102272998Y-91441820D01*
X102260000Y-91484669D01*
X102260000Y-79414000D01*
X106207928Y-79414000D01*
X106211000Y-79978250D01*
X106369750Y-80137000D01*
X107569000Y-80137000D01*
X107569000Y-78937750D01*
X107823000Y-78937750D01*
X107823000Y-80137000D01*
X109022250Y-80137000D01*
X109181000Y-79978250D01*
X109184072Y-79414000D01*
X109171812Y-79289518D01*
X109135502Y-79169820D01*
X109076537Y-79059506D01*
X108997185Y-78962815D01*
X108900494Y-78883463D01*
X108790180Y-78824498D01*
X108670482Y-78788188D01*
X108546000Y-78775928D01*
X107981750Y-78779000D01*
X107823000Y-78937750D01*
X107569000Y-78937750D01*
X107410250Y-78779000D01*
X106846000Y-78775928D01*
X106721518Y-78788188D01*
X106601820Y-78824498D01*
X106491506Y-78883463D01*
X106394815Y-78962815D01*
X106315463Y-79059506D01*
X106256498Y-79169820D01*
X106220188Y-79289518D01*
X106207928Y-79414000D01*
X102260000Y-79414000D01*
X102260000Y-76860000D01*
X172568000Y-76860000D01*
X172568001Y-111608000D01*
M02*
