%TF.GenerationSoftware,KiCad,Pcbnew,(5.1.5)-3*%
%TF.CreationDate,2021-01-03T14:47:40+13:00*%
%TF.ProjectId,SensorNodeCircuit,53656e73-6f72-44e6-9f64-654369726375,rev?*%
%TF.SameCoordinates,Original*%
%TF.FileFunction,Soldermask,Top*%
%TF.FilePolarity,Negative*%
%FSLAX46Y46*%
G04 Gerber Fmt 4.6, Leading zero omitted, Abs format (unit mm)*
G04 Created by KiCad (PCBNEW (5.1.5)-3) date 2021-01-03 14:47:40*
%MOMM*%
%LPD*%
G04 APERTURE LIST*
%ADD10C,0.100000*%
G04 APERTURE END LIST*
D10*
G36*
X166744098Y-104547033D02*
G01*
X167208350Y-104739332D01*
X167208352Y-104739333D01*
X167626168Y-105018509D01*
X167981491Y-105373832D01*
X168260667Y-105791648D01*
X168260668Y-105791650D01*
X168452967Y-106255902D01*
X168551000Y-106748747D01*
X168551000Y-107251253D01*
X168452967Y-107744098D01*
X168260668Y-108208350D01*
X168260667Y-108208352D01*
X167981491Y-108626168D01*
X167626168Y-108981491D01*
X167208352Y-109260667D01*
X167208351Y-109260668D01*
X167208350Y-109260668D01*
X166744098Y-109452967D01*
X166251253Y-109551000D01*
X165748747Y-109551000D01*
X165255902Y-109452967D01*
X164791650Y-109260668D01*
X164791649Y-109260668D01*
X164791648Y-109260667D01*
X164373832Y-108981491D01*
X164018509Y-108626168D01*
X163739333Y-108208352D01*
X163739332Y-108208350D01*
X163547033Y-107744098D01*
X163449000Y-107251253D01*
X163449000Y-106748747D01*
X163547033Y-106255902D01*
X163739332Y-105791650D01*
X163739333Y-105791648D01*
X164018509Y-105373832D01*
X164373832Y-105018509D01*
X164791648Y-104739333D01*
X164791650Y-104739332D01*
X165255902Y-104547033D01*
X165748747Y-104449000D01*
X166251253Y-104449000D01*
X166744098Y-104547033D01*
G37*
G36*
X106244098Y-104547033D02*
G01*
X106708350Y-104739332D01*
X106708352Y-104739333D01*
X107126168Y-105018509D01*
X107481491Y-105373832D01*
X107760667Y-105791648D01*
X107760668Y-105791650D01*
X107952967Y-106255902D01*
X108051000Y-106748747D01*
X108051000Y-107251253D01*
X107952967Y-107744098D01*
X107760668Y-108208350D01*
X107760667Y-108208352D01*
X107481491Y-108626168D01*
X107126168Y-108981491D01*
X106708352Y-109260667D01*
X106708351Y-109260668D01*
X106708350Y-109260668D01*
X106244098Y-109452967D01*
X105751253Y-109551000D01*
X105248747Y-109551000D01*
X104755902Y-109452967D01*
X104291650Y-109260668D01*
X104291649Y-109260668D01*
X104291648Y-109260667D01*
X103873832Y-108981491D01*
X103518509Y-108626168D01*
X103239333Y-108208352D01*
X103239332Y-108208350D01*
X103047033Y-107744098D01*
X102949000Y-107251253D01*
X102949000Y-106748747D01*
X103047033Y-106255902D01*
X103239332Y-105791650D01*
X103239333Y-105791648D01*
X103518509Y-105373832D01*
X103873832Y-105018509D01*
X104291648Y-104739333D01*
X104291650Y-104739332D01*
X104755902Y-104547033D01*
X105248747Y-104449000D01*
X105751253Y-104449000D01*
X106244098Y-104547033D01*
G37*
G36*
X153773512Y-104903927D02*
G01*
X153922812Y-104933624D01*
X154086784Y-105001544D01*
X154234354Y-105100147D01*
X154359853Y-105225646D01*
X154458456Y-105373216D01*
X154526376Y-105537188D01*
X154561000Y-105711259D01*
X154561000Y-105888741D01*
X154526376Y-106062812D01*
X154458456Y-106226784D01*
X154359853Y-106374354D01*
X154234354Y-106499853D01*
X154086784Y-106598456D01*
X153922812Y-106666376D01*
X153773512Y-106696073D01*
X153748742Y-106701000D01*
X153571258Y-106701000D01*
X153546488Y-106696073D01*
X153397188Y-106666376D01*
X153233216Y-106598456D01*
X153085646Y-106499853D01*
X152960147Y-106374354D01*
X152861544Y-106226784D01*
X152793624Y-106062812D01*
X152759000Y-105888741D01*
X152759000Y-105711259D01*
X152793624Y-105537188D01*
X152861544Y-105373216D01*
X152960147Y-105225646D01*
X153085646Y-105100147D01*
X153233216Y-105001544D01*
X153397188Y-104933624D01*
X153546488Y-104903927D01*
X153571258Y-104899000D01*
X153748742Y-104899000D01*
X153773512Y-104903927D01*
G37*
G36*
X158853512Y-104903927D02*
G01*
X159002812Y-104933624D01*
X159166784Y-105001544D01*
X159314354Y-105100147D01*
X159439853Y-105225646D01*
X159538456Y-105373216D01*
X159606376Y-105537188D01*
X159641000Y-105711259D01*
X159641000Y-105888741D01*
X159606376Y-106062812D01*
X159538456Y-106226784D01*
X159439853Y-106374354D01*
X159314354Y-106499853D01*
X159166784Y-106598456D01*
X159002812Y-106666376D01*
X158853512Y-106696073D01*
X158828742Y-106701000D01*
X158651258Y-106701000D01*
X158626488Y-106696073D01*
X158477188Y-106666376D01*
X158313216Y-106598456D01*
X158165646Y-106499853D01*
X158040147Y-106374354D01*
X157941544Y-106226784D01*
X157873624Y-106062812D01*
X157839000Y-105888741D01*
X157839000Y-105711259D01*
X157873624Y-105537188D01*
X157941544Y-105373216D01*
X158040147Y-105225646D01*
X158165646Y-105100147D01*
X158313216Y-105001544D01*
X158477188Y-104933624D01*
X158626488Y-104903927D01*
X158651258Y-104899000D01*
X158828742Y-104899000D01*
X158853512Y-104903927D01*
G37*
G36*
X156313512Y-104903927D02*
G01*
X156462812Y-104933624D01*
X156626784Y-105001544D01*
X156774354Y-105100147D01*
X156899853Y-105225646D01*
X156998456Y-105373216D01*
X157066376Y-105537188D01*
X157101000Y-105711259D01*
X157101000Y-105888741D01*
X157066376Y-106062812D01*
X156998456Y-106226784D01*
X156899853Y-106374354D01*
X156774354Y-106499853D01*
X156626784Y-106598456D01*
X156462812Y-106666376D01*
X156313512Y-106696073D01*
X156288742Y-106701000D01*
X156111258Y-106701000D01*
X156086488Y-106696073D01*
X155937188Y-106666376D01*
X155773216Y-106598456D01*
X155625646Y-106499853D01*
X155500147Y-106374354D01*
X155401544Y-106226784D01*
X155333624Y-106062812D01*
X155299000Y-105888741D01*
X155299000Y-105711259D01*
X155333624Y-105537188D01*
X155401544Y-105373216D01*
X155500147Y-105225646D01*
X155625646Y-105100147D01*
X155773216Y-105001544D01*
X155937188Y-104933624D01*
X156086488Y-104903927D01*
X156111258Y-104899000D01*
X156288742Y-104899000D01*
X156313512Y-104903927D01*
G37*
G36*
X148693512Y-104903927D02*
G01*
X148842812Y-104933624D01*
X149006784Y-105001544D01*
X149154354Y-105100147D01*
X149279853Y-105225646D01*
X149378456Y-105373216D01*
X149446376Y-105537188D01*
X149481000Y-105711259D01*
X149481000Y-105888741D01*
X149446376Y-106062812D01*
X149378456Y-106226784D01*
X149279853Y-106374354D01*
X149154354Y-106499853D01*
X149006784Y-106598456D01*
X148842812Y-106666376D01*
X148693512Y-106696073D01*
X148668742Y-106701000D01*
X148491258Y-106701000D01*
X148466488Y-106696073D01*
X148317188Y-106666376D01*
X148153216Y-106598456D01*
X148005646Y-106499853D01*
X147880147Y-106374354D01*
X147781544Y-106226784D01*
X147713624Y-106062812D01*
X147679000Y-105888741D01*
X147679000Y-105711259D01*
X147713624Y-105537188D01*
X147781544Y-105373216D01*
X147880147Y-105225646D01*
X148005646Y-105100147D01*
X148153216Y-105001544D01*
X148317188Y-104933624D01*
X148466488Y-104903927D01*
X148491258Y-104899000D01*
X148668742Y-104899000D01*
X148693512Y-104903927D01*
G37*
G36*
X146153512Y-104903927D02*
G01*
X146302812Y-104933624D01*
X146466784Y-105001544D01*
X146614354Y-105100147D01*
X146739853Y-105225646D01*
X146838456Y-105373216D01*
X146906376Y-105537188D01*
X146941000Y-105711259D01*
X146941000Y-105888741D01*
X146906376Y-106062812D01*
X146838456Y-106226784D01*
X146739853Y-106374354D01*
X146614354Y-106499853D01*
X146466784Y-106598456D01*
X146302812Y-106666376D01*
X146153512Y-106696073D01*
X146128742Y-106701000D01*
X145951258Y-106701000D01*
X145926488Y-106696073D01*
X145777188Y-106666376D01*
X145613216Y-106598456D01*
X145465646Y-106499853D01*
X145340147Y-106374354D01*
X145241544Y-106226784D01*
X145173624Y-106062812D01*
X145139000Y-105888741D01*
X145139000Y-105711259D01*
X145173624Y-105537188D01*
X145241544Y-105373216D01*
X145340147Y-105225646D01*
X145465646Y-105100147D01*
X145613216Y-105001544D01*
X145777188Y-104933624D01*
X145926488Y-104903927D01*
X145951258Y-104899000D01*
X146128742Y-104899000D01*
X146153512Y-104903927D01*
G37*
G36*
X143613512Y-104903927D02*
G01*
X143762812Y-104933624D01*
X143926784Y-105001544D01*
X144074354Y-105100147D01*
X144199853Y-105225646D01*
X144298456Y-105373216D01*
X144366376Y-105537188D01*
X144401000Y-105711259D01*
X144401000Y-105888741D01*
X144366376Y-106062812D01*
X144298456Y-106226784D01*
X144199853Y-106374354D01*
X144074354Y-106499853D01*
X143926784Y-106598456D01*
X143762812Y-106666376D01*
X143613512Y-106696073D01*
X143588742Y-106701000D01*
X143411258Y-106701000D01*
X143386488Y-106696073D01*
X143237188Y-106666376D01*
X143073216Y-106598456D01*
X142925646Y-106499853D01*
X142800147Y-106374354D01*
X142701544Y-106226784D01*
X142633624Y-106062812D01*
X142599000Y-105888741D01*
X142599000Y-105711259D01*
X142633624Y-105537188D01*
X142701544Y-105373216D01*
X142800147Y-105225646D01*
X142925646Y-105100147D01*
X143073216Y-105001544D01*
X143237188Y-104933624D01*
X143386488Y-104903927D01*
X143411258Y-104899000D01*
X143588742Y-104899000D01*
X143613512Y-104903927D01*
G37*
G36*
X141861000Y-106701000D02*
G01*
X140059000Y-106701000D01*
X140059000Y-104899000D01*
X141861000Y-104899000D01*
X141861000Y-106701000D01*
G37*
G36*
X151233512Y-104903927D02*
G01*
X151382812Y-104933624D01*
X151546784Y-105001544D01*
X151694354Y-105100147D01*
X151819853Y-105225646D01*
X151918456Y-105373216D01*
X151986376Y-105537188D01*
X152021000Y-105711259D01*
X152021000Y-105888741D01*
X151986376Y-106062812D01*
X151918456Y-106226784D01*
X151819853Y-106374354D01*
X151694354Y-106499853D01*
X151546784Y-106598456D01*
X151382812Y-106666376D01*
X151233512Y-106696073D01*
X151208742Y-106701000D01*
X151031258Y-106701000D01*
X151006488Y-106696073D01*
X150857188Y-106666376D01*
X150693216Y-106598456D01*
X150545646Y-106499853D01*
X150420147Y-106374354D01*
X150321544Y-106226784D01*
X150253624Y-106062812D01*
X150219000Y-105888741D01*
X150219000Y-105711259D01*
X150253624Y-105537188D01*
X150321544Y-105373216D01*
X150420147Y-105225646D01*
X150545646Y-105100147D01*
X150693216Y-105001544D01*
X150857188Y-104933624D01*
X151006488Y-104903927D01*
X151031258Y-104899000D01*
X151208742Y-104899000D01*
X151233512Y-104903927D01*
G37*
G36*
X118348228Y-104381703D02*
G01*
X118503100Y-104445853D01*
X118642481Y-104538985D01*
X118761015Y-104657519D01*
X118854147Y-104796900D01*
X118918297Y-104951772D01*
X118951000Y-105116184D01*
X118951000Y-105283816D01*
X118918297Y-105448228D01*
X118854147Y-105603100D01*
X118761015Y-105742481D01*
X118642481Y-105861015D01*
X118503100Y-105954147D01*
X118348228Y-106018297D01*
X118183816Y-106051000D01*
X118016184Y-106051000D01*
X117851772Y-106018297D01*
X117696900Y-105954147D01*
X117557519Y-105861015D01*
X117438985Y-105742481D01*
X117345853Y-105603100D01*
X117281703Y-105448228D01*
X117249000Y-105283816D01*
X117249000Y-105116184D01*
X117281703Y-104951772D01*
X117345853Y-104796900D01*
X117438985Y-104657519D01*
X117557519Y-104538985D01*
X117696900Y-104445853D01*
X117851772Y-104381703D01*
X118016184Y-104349000D01*
X118183816Y-104349000D01*
X118348228Y-104381703D01*
G37*
G36*
X125948228Y-104381703D02*
G01*
X126103100Y-104445853D01*
X126242481Y-104538985D01*
X126361015Y-104657519D01*
X126454147Y-104796900D01*
X126518297Y-104951772D01*
X126551000Y-105116184D01*
X126551000Y-105283816D01*
X126518297Y-105448228D01*
X126454147Y-105603100D01*
X126361015Y-105742481D01*
X126242481Y-105861015D01*
X126103100Y-105954147D01*
X125948228Y-106018297D01*
X125783816Y-106051000D01*
X125616184Y-106051000D01*
X125451772Y-106018297D01*
X125296900Y-105954147D01*
X125157519Y-105861015D01*
X125038985Y-105742481D01*
X124945853Y-105603100D01*
X124881703Y-105448228D01*
X124849000Y-105283816D01*
X124849000Y-105116184D01*
X124881703Y-104951772D01*
X124945853Y-104796900D01*
X125038985Y-104657519D01*
X125157519Y-104538985D01*
X125296900Y-104445853D01*
X125451772Y-104381703D01*
X125616184Y-104349000D01*
X125783816Y-104349000D01*
X125948228Y-104381703D01*
G37*
G36*
X112282915Y-103107334D02*
G01*
X112391491Y-103140271D01*
X112391494Y-103140272D01*
X112427600Y-103159571D01*
X112491556Y-103193756D01*
X112579264Y-103265736D01*
X112651244Y-103353443D01*
X112685429Y-103417399D01*
X112704728Y-103453505D01*
X112704729Y-103453508D01*
X112737666Y-103562084D01*
X112746000Y-103646702D01*
X112746000Y-104153297D01*
X112737666Y-104237916D01*
X112705252Y-104344767D01*
X112704728Y-104346495D01*
X112694761Y-104365141D01*
X112651244Y-104446557D01*
X112579264Y-104534264D01*
X112491557Y-104606244D01*
X112427601Y-104640429D01*
X112391495Y-104659728D01*
X112391492Y-104659729D01*
X112282916Y-104692666D01*
X112170000Y-104703787D01*
X112057085Y-104692666D01*
X111948509Y-104659729D01*
X111948506Y-104659728D01*
X111912400Y-104640429D01*
X111848444Y-104606244D01*
X111760737Y-104534264D01*
X111688757Y-104446557D01*
X111645239Y-104365141D01*
X111631625Y-104344766D01*
X111614298Y-104327439D01*
X111593924Y-104313826D01*
X111571285Y-104304448D01*
X111547252Y-104299668D01*
X111522748Y-104299668D01*
X111498715Y-104304448D01*
X111476076Y-104313826D01*
X111455701Y-104327440D01*
X111438374Y-104344767D01*
X111424761Y-104365141D01*
X111381244Y-104446557D01*
X111309264Y-104534264D01*
X111221557Y-104606244D01*
X111157601Y-104640429D01*
X111121495Y-104659728D01*
X111121492Y-104659729D01*
X111012916Y-104692666D01*
X110900000Y-104703787D01*
X110787085Y-104692666D01*
X110678509Y-104659729D01*
X110678506Y-104659728D01*
X110642400Y-104640429D01*
X110578444Y-104606244D01*
X110490737Y-104534264D01*
X110427622Y-104457359D01*
X110410297Y-104440034D01*
X110389923Y-104426420D01*
X110367284Y-104417043D01*
X110343250Y-104412263D01*
X110318746Y-104412263D01*
X110294713Y-104417044D01*
X110272074Y-104426421D01*
X110251700Y-104440035D01*
X110234373Y-104457362D01*
X110220759Y-104477736D01*
X110211382Y-104500375D01*
X110206000Y-104536660D01*
X110206000Y-104701000D01*
X109054000Y-104701000D01*
X109054000Y-103099000D01*
X110206000Y-103099000D01*
X110206000Y-103263341D01*
X110208402Y-103287727D01*
X110215515Y-103311176D01*
X110227066Y-103332787D01*
X110242611Y-103351729D01*
X110261553Y-103367274D01*
X110283164Y-103378825D01*
X110306613Y-103385938D01*
X110330999Y-103388340D01*
X110355385Y-103385938D01*
X110378834Y-103378825D01*
X110400445Y-103367274D01*
X110419387Y-103351729D01*
X110427608Y-103342657D01*
X110490736Y-103265736D01*
X110578443Y-103193756D01*
X110642399Y-103159571D01*
X110678505Y-103140272D01*
X110678508Y-103140271D01*
X110787084Y-103107334D01*
X110900000Y-103096213D01*
X111012915Y-103107334D01*
X111121491Y-103140271D01*
X111121494Y-103140272D01*
X111157600Y-103159571D01*
X111221556Y-103193756D01*
X111309264Y-103265736D01*
X111381244Y-103353443D01*
X111424761Y-103434859D01*
X111438375Y-103455234D01*
X111455702Y-103472561D01*
X111476076Y-103486174D01*
X111498715Y-103495552D01*
X111522748Y-103500332D01*
X111547252Y-103500332D01*
X111571285Y-103495552D01*
X111593924Y-103486174D01*
X111614299Y-103472560D01*
X111631626Y-103455233D01*
X111645239Y-103434860D01*
X111688756Y-103353444D01*
X111760736Y-103265736D01*
X111848443Y-103193756D01*
X111912399Y-103159571D01*
X111948505Y-103140272D01*
X111948508Y-103140271D01*
X112057084Y-103107334D01*
X112170000Y-103096213D01*
X112282915Y-103107334D01*
G37*
G36*
X140788062Y-100878181D02*
G01*
X140822981Y-100888774D01*
X140855163Y-100905976D01*
X140883373Y-100929127D01*
X140906524Y-100957337D01*
X140923726Y-100989519D01*
X140934319Y-101024438D01*
X140938500Y-101066895D01*
X140938500Y-102533105D01*
X140934319Y-102575562D01*
X140923726Y-102610481D01*
X140906524Y-102642663D01*
X140883373Y-102670873D01*
X140855163Y-102694024D01*
X140822981Y-102711226D01*
X140788062Y-102721819D01*
X140745605Y-102726000D01*
X139604395Y-102726000D01*
X139561938Y-102721819D01*
X139527019Y-102711226D01*
X139494837Y-102694024D01*
X139466627Y-102670873D01*
X139443476Y-102642663D01*
X139426274Y-102610481D01*
X139415681Y-102575562D01*
X139411500Y-102533105D01*
X139411500Y-101066895D01*
X139415681Y-101024438D01*
X139426274Y-100989519D01*
X139443476Y-100957337D01*
X139466627Y-100929127D01*
X139494837Y-100905976D01*
X139527019Y-100888774D01*
X139561938Y-100878181D01*
X139604395Y-100874000D01*
X140745605Y-100874000D01*
X140788062Y-100878181D01*
G37*
G36*
X137813062Y-100878181D02*
G01*
X137847981Y-100888774D01*
X137880163Y-100905976D01*
X137908373Y-100929127D01*
X137931524Y-100957337D01*
X137948726Y-100989519D01*
X137959319Y-101024438D01*
X137963500Y-101066895D01*
X137963500Y-102533105D01*
X137959319Y-102575562D01*
X137948726Y-102610481D01*
X137931524Y-102642663D01*
X137908373Y-102670873D01*
X137880163Y-102694024D01*
X137847981Y-102711226D01*
X137813062Y-102721819D01*
X137770605Y-102726000D01*
X136629395Y-102726000D01*
X136586938Y-102721819D01*
X136552019Y-102711226D01*
X136519837Y-102694024D01*
X136491627Y-102670873D01*
X136468476Y-102642663D01*
X136451274Y-102610481D01*
X136440681Y-102575562D01*
X136436500Y-102533105D01*
X136436500Y-101066895D01*
X136440681Y-101024438D01*
X136451274Y-100989519D01*
X136468476Y-100957337D01*
X136491627Y-100929127D01*
X136519837Y-100905976D01*
X136552019Y-100888774D01*
X136586938Y-100878181D01*
X136629395Y-100874000D01*
X137770605Y-100874000D01*
X137813062Y-100878181D01*
G37*
G36*
X166149512Y-99971927D02*
G01*
X166298812Y-100001624D01*
X166462784Y-100069544D01*
X166610354Y-100168147D01*
X166735853Y-100293646D01*
X166834456Y-100441216D01*
X166902376Y-100605188D01*
X166932073Y-100754488D01*
X166937000Y-100779258D01*
X166937000Y-100956742D01*
X166932073Y-100981512D01*
X166902376Y-101130812D01*
X166834456Y-101294784D01*
X166735853Y-101442354D01*
X166610354Y-101567853D01*
X166462784Y-101666456D01*
X166298812Y-101734376D01*
X166149512Y-101764073D01*
X166124742Y-101769000D01*
X165947258Y-101769000D01*
X165922488Y-101764073D01*
X165773188Y-101734376D01*
X165609216Y-101666456D01*
X165461646Y-101567853D01*
X165336147Y-101442354D01*
X165237544Y-101294784D01*
X165169624Y-101130812D01*
X165139927Y-100981512D01*
X165135000Y-100956742D01*
X165135000Y-100779258D01*
X165139927Y-100754488D01*
X165169624Y-100605188D01*
X165237544Y-100441216D01*
X165336147Y-100293646D01*
X165461646Y-100168147D01*
X165609216Y-100069544D01*
X165773188Y-100001624D01*
X165922488Y-99971927D01*
X165947258Y-99967000D01*
X166124742Y-99967000D01*
X166149512Y-99971927D01*
G37*
G36*
X153442001Y-101522001D02*
G01*
X152340001Y-101522001D01*
X152340001Y-99620001D01*
X153442001Y-99620001D01*
X153442001Y-101522001D01*
G37*
G36*
X157442001Y-101522001D02*
G01*
X156340001Y-101522001D01*
X156340001Y-99620001D01*
X157442001Y-99620001D01*
X157442001Y-101522001D01*
G37*
G36*
X149442001Y-101522001D02*
G01*
X148340001Y-101522001D01*
X148340001Y-99620001D01*
X149442001Y-99620001D01*
X149442001Y-101522001D01*
G37*
G36*
X147442001Y-101522001D02*
G01*
X146340001Y-101522001D01*
X146340001Y-99620001D01*
X147442001Y-99620001D01*
X147442001Y-101522001D01*
G37*
G36*
X155442001Y-101522001D02*
G01*
X154340001Y-101522001D01*
X154340001Y-99620001D01*
X155442001Y-99620001D01*
X155442001Y-101522001D01*
G37*
G36*
X151442001Y-101522001D02*
G01*
X150340001Y-101522001D01*
X150340001Y-99620001D01*
X151442001Y-99620001D01*
X151442001Y-101522001D01*
G37*
G36*
X140817062Y-98258181D02*
G01*
X140851981Y-98268774D01*
X140884163Y-98285976D01*
X140912373Y-98309127D01*
X140935524Y-98337337D01*
X140952726Y-98369519D01*
X140963319Y-98404438D01*
X140967500Y-98446895D01*
X140967500Y-99913105D01*
X140963319Y-99955562D01*
X140952726Y-99990481D01*
X140935524Y-100022663D01*
X140912373Y-100050873D01*
X140884163Y-100074024D01*
X140851981Y-100091226D01*
X140817062Y-100101819D01*
X140774605Y-100106000D01*
X139633395Y-100106000D01*
X139590938Y-100101819D01*
X139556019Y-100091226D01*
X139523837Y-100074024D01*
X139495627Y-100050873D01*
X139472476Y-100022663D01*
X139455274Y-99990481D01*
X139444681Y-99955562D01*
X139440500Y-99913105D01*
X139440500Y-98446895D01*
X139444681Y-98404438D01*
X139455274Y-98369519D01*
X139472476Y-98337337D01*
X139495627Y-98309127D01*
X139523837Y-98285976D01*
X139556019Y-98268774D01*
X139590938Y-98258181D01*
X139633395Y-98254000D01*
X140774605Y-98254000D01*
X140817062Y-98258181D01*
G37*
G36*
X137842062Y-98258181D02*
G01*
X137876981Y-98268774D01*
X137909163Y-98285976D01*
X137937373Y-98309127D01*
X137960524Y-98337337D01*
X137977726Y-98369519D01*
X137988319Y-98404438D01*
X137992500Y-98446895D01*
X137992500Y-99913105D01*
X137988319Y-99955562D01*
X137977726Y-99990481D01*
X137960524Y-100022663D01*
X137937373Y-100050873D01*
X137909163Y-100074024D01*
X137876981Y-100091226D01*
X137842062Y-100101819D01*
X137799605Y-100106000D01*
X136658395Y-100106000D01*
X136615938Y-100101819D01*
X136581019Y-100091226D01*
X136548837Y-100074024D01*
X136520627Y-100050873D01*
X136497476Y-100022663D01*
X136480274Y-99990481D01*
X136469681Y-99955562D01*
X136465500Y-99913105D01*
X136465500Y-98446895D01*
X136469681Y-98404438D01*
X136480274Y-98369519D01*
X136497476Y-98337337D01*
X136520627Y-98309127D01*
X136548837Y-98285976D01*
X136581019Y-98268774D01*
X136615938Y-98258181D01*
X136658395Y-98254000D01*
X137799605Y-98254000D01*
X137842062Y-98258181D01*
G37*
G36*
X145592001Y-99622001D02*
G01*
X142990001Y-99622001D01*
X142990001Y-98520001D01*
X145592001Y-98520001D01*
X145592001Y-99622001D01*
G37*
G36*
X160792001Y-99622001D02*
G01*
X158190001Y-99622001D01*
X158190001Y-98520001D01*
X160792001Y-98520001D01*
X160792001Y-99622001D01*
G37*
G36*
X166149512Y-97431927D02*
G01*
X166298812Y-97461624D01*
X166462784Y-97529544D01*
X166610354Y-97628147D01*
X166735853Y-97753646D01*
X166834456Y-97901216D01*
X166902376Y-98065188D01*
X166937000Y-98239259D01*
X166937000Y-98416741D01*
X166902376Y-98590812D01*
X166834456Y-98754784D01*
X166735853Y-98902354D01*
X166610354Y-99027853D01*
X166462784Y-99126456D01*
X166298812Y-99194376D01*
X166149512Y-99224073D01*
X166124742Y-99229000D01*
X165947258Y-99229000D01*
X165922488Y-99224073D01*
X165773188Y-99194376D01*
X165609216Y-99126456D01*
X165461646Y-99027853D01*
X165336147Y-98902354D01*
X165237544Y-98754784D01*
X165169624Y-98590812D01*
X165135000Y-98416741D01*
X165135000Y-98239259D01*
X165169624Y-98065188D01*
X165237544Y-97901216D01*
X165336147Y-97753646D01*
X165461646Y-97628147D01*
X165609216Y-97529544D01*
X165773188Y-97461624D01*
X165922488Y-97431927D01*
X165947258Y-97427000D01*
X166124742Y-97427000D01*
X166149512Y-97431927D01*
G37*
G36*
X112065062Y-97210181D02*
G01*
X112099981Y-97220774D01*
X112132163Y-97237976D01*
X112160373Y-97261127D01*
X112183524Y-97289337D01*
X112200726Y-97321519D01*
X112211319Y-97356438D01*
X112215500Y-97398895D01*
X112215500Y-98865105D01*
X112211319Y-98907562D01*
X112200726Y-98942481D01*
X112183524Y-98974663D01*
X112160373Y-99002873D01*
X112132163Y-99026024D01*
X112099981Y-99043226D01*
X112065062Y-99053819D01*
X112022605Y-99058000D01*
X110881395Y-99058000D01*
X110838938Y-99053819D01*
X110804019Y-99043226D01*
X110771837Y-99026024D01*
X110743627Y-99002873D01*
X110720476Y-98974663D01*
X110703274Y-98942481D01*
X110692681Y-98907562D01*
X110688500Y-98865105D01*
X110688500Y-97398895D01*
X110692681Y-97356438D01*
X110703274Y-97321519D01*
X110720476Y-97289337D01*
X110743627Y-97261127D01*
X110771837Y-97237976D01*
X110804019Y-97220774D01*
X110838938Y-97210181D01*
X110881395Y-97206000D01*
X112022605Y-97206000D01*
X112065062Y-97210181D01*
G37*
G36*
X115040062Y-97210181D02*
G01*
X115074981Y-97220774D01*
X115107163Y-97237976D01*
X115135373Y-97261127D01*
X115158524Y-97289337D01*
X115175726Y-97321519D01*
X115186319Y-97356438D01*
X115190500Y-97398895D01*
X115190500Y-98865105D01*
X115186319Y-98907562D01*
X115175726Y-98942481D01*
X115158524Y-98974663D01*
X115135373Y-99002873D01*
X115107163Y-99026024D01*
X115074981Y-99043226D01*
X115040062Y-99053819D01*
X114997605Y-99058000D01*
X113856395Y-99058000D01*
X113813938Y-99053819D01*
X113779019Y-99043226D01*
X113746837Y-99026024D01*
X113718627Y-99002873D01*
X113695476Y-98974663D01*
X113678274Y-98942481D01*
X113667681Y-98907562D01*
X113663500Y-98865105D01*
X113663500Y-97398895D01*
X113667681Y-97356438D01*
X113678274Y-97321519D01*
X113695476Y-97289337D01*
X113718627Y-97261127D01*
X113746837Y-97237976D01*
X113779019Y-97220774D01*
X113813938Y-97210181D01*
X113856395Y-97206000D01*
X114997605Y-97206000D01*
X115040062Y-97210181D01*
G37*
G36*
X104001000Y-97361886D02*
G01*
X104001602Y-97374138D01*
X104004149Y-97400000D01*
X104001602Y-97425862D01*
X104001000Y-97438114D01*
X104001000Y-97511406D01*
X103992043Y-97528164D01*
X103987915Y-97539701D01*
X103962949Y-97622001D01*
X103954354Y-97650336D01*
X103893906Y-97763425D01*
X103812554Y-97862554D01*
X103713425Y-97943906D01*
X103600336Y-98004354D01*
X103568404Y-98014040D01*
X103477618Y-98041580D01*
X103413855Y-98047860D01*
X103381974Y-98051000D01*
X102618026Y-98051000D01*
X102586145Y-98047860D01*
X102522382Y-98041580D01*
X102431596Y-98014040D01*
X102399664Y-98004354D01*
X102286575Y-97943906D01*
X102187446Y-97862554D01*
X102106094Y-97763425D01*
X102045646Y-97650336D01*
X102037051Y-97622001D01*
X102012087Y-97539708D01*
X102002713Y-97517075D01*
X101999000Y-97511518D01*
X101999000Y-97438114D01*
X101998398Y-97425862D01*
X101995851Y-97400000D01*
X101998398Y-97374138D01*
X101999000Y-97361886D01*
X101999000Y-96149000D01*
X104001000Y-96149000D01*
X104001000Y-97361886D01*
G37*
G36*
X145592001Y-97622001D02*
G01*
X142990001Y-97622001D01*
X142990001Y-96520001D01*
X145592001Y-96520001D01*
X145592001Y-97622001D01*
G37*
G36*
X160792001Y-97622001D02*
G01*
X158190001Y-97622001D01*
X158190001Y-96520001D01*
X160792001Y-96520001D01*
X160792001Y-97622001D01*
G37*
G36*
X105926348Y-90653820D02*
G01*
X105926350Y-90653821D01*
X105926351Y-90653821D01*
X106067574Y-90712317D01*
X106067577Y-90712319D01*
X106194669Y-90797239D01*
X106302761Y-90905331D01*
X106387681Y-91032423D01*
X106387683Y-91032426D01*
X106416087Y-91101000D01*
X106446180Y-91173652D01*
X106476000Y-91323569D01*
X106476000Y-91476431D01*
X106447045Y-91622001D01*
X106446179Y-91626351D01*
X106387683Y-91767574D01*
X106387681Y-91767577D01*
X106302761Y-91894669D01*
X106194669Y-92002761D01*
X106109940Y-92059375D01*
X106067574Y-92087683D01*
X106017272Y-92108519D01*
X105995664Y-92120068D01*
X105976722Y-92135614D01*
X105961177Y-92154556D01*
X105949626Y-92176166D01*
X105942513Y-92199615D01*
X105940111Y-92224001D01*
X105942513Y-92248387D01*
X105949626Y-92271836D01*
X105961177Y-92293447D01*
X105976723Y-92312389D01*
X105995665Y-92327934D01*
X106017275Y-92339485D01*
X106040724Y-92346598D01*
X106065110Y-92349000D01*
X106426000Y-92349000D01*
X106426000Y-95451000D01*
X106065110Y-95451000D01*
X106040724Y-95453402D01*
X106017275Y-95460515D01*
X105995664Y-95472066D01*
X105976722Y-95487611D01*
X105961177Y-95506553D01*
X105949626Y-95528164D01*
X105942513Y-95551613D01*
X105940111Y-95575999D01*
X105942513Y-95600385D01*
X105949626Y-95623834D01*
X105961177Y-95645445D01*
X105976722Y-95664387D01*
X105995664Y-95679932D01*
X106017272Y-95691481D01*
X106067574Y-95712317D01*
X106067575Y-95712318D01*
X106194669Y-95797239D01*
X106302761Y-95905331D01*
X106387681Y-96032423D01*
X106387683Y-96032426D01*
X106435969Y-96149000D01*
X106446180Y-96173652D01*
X106476000Y-96323569D01*
X106476000Y-96476431D01*
X106460607Y-96553819D01*
X106446179Y-96626351D01*
X106387683Y-96767574D01*
X106387681Y-96767577D01*
X106302761Y-96894669D01*
X106194669Y-97002761D01*
X106144064Y-97036574D01*
X106067574Y-97087683D01*
X105926351Y-97146179D01*
X105926350Y-97146179D01*
X105926348Y-97146180D01*
X105776431Y-97176000D01*
X105623569Y-97176000D01*
X105473652Y-97146180D01*
X105473650Y-97146179D01*
X105473649Y-97146179D01*
X105332426Y-97087683D01*
X105255936Y-97036574D01*
X105205331Y-97002761D01*
X105097239Y-96894669D01*
X105012319Y-96767577D01*
X105012317Y-96767574D01*
X104953821Y-96626351D01*
X104939394Y-96553819D01*
X104924000Y-96476431D01*
X104924000Y-96323569D01*
X104953820Y-96173652D01*
X104964031Y-96149000D01*
X105012317Y-96032426D01*
X105012319Y-96032423D01*
X105097239Y-95905331D01*
X105205331Y-95797239D01*
X105332425Y-95712318D01*
X105332426Y-95712317D01*
X105382728Y-95691481D01*
X105404336Y-95679932D01*
X105423278Y-95664386D01*
X105438823Y-95645444D01*
X105450374Y-95623834D01*
X105457487Y-95600385D01*
X105459889Y-95575999D01*
X105457487Y-95551613D01*
X105450374Y-95528164D01*
X105438823Y-95506553D01*
X105423277Y-95487611D01*
X105404335Y-95472066D01*
X105382725Y-95460515D01*
X105359276Y-95453402D01*
X105334890Y-95451000D01*
X104974000Y-95451000D01*
X104974000Y-92349000D01*
X105334890Y-92349000D01*
X105359276Y-92346598D01*
X105382725Y-92339485D01*
X105404336Y-92327934D01*
X105423278Y-92312389D01*
X105438823Y-92293447D01*
X105450374Y-92271836D01*
X105457487Y-92248387D01*
X105459889Y-92224001D01*
X105457487Y-92199615D01*
X105450374Y-92176166D01*
X105438823Y-92154555D01*
X105423278Y-92135613D01*
X105404336Y-92120068D01*
X105382728Y-92108519D01*
X105332426Y-92087683D01*
X105290060Y-92059375D01*
X105205331Y-92002761D01*
X105097239Y-91894669D01*
X105012319Y-91767577D01*
X105012317Y-91767574D01*
X104953821Y-91626351D01*
X104952956Y-91622001D01*
X104924000Y-91476431D01*
X104924000Y-91323569D01*
X104953820Y-91173652D01*
X104983913Y-91101000D01*
X105012317Y-91032426D01*
X105012319Y-91032423D01*
X105097239Y-90905331D01*
X105205331Y-90797239D01*
X105332423Y-90712319D01*
X105332426Y-90712317D01*
X105473649Y-90653821D01*
X105473650Y-90653821D01*
X105473652Y-90653820D01*
X105623569Y-90624000D01*
X105776431Y-90624000D01*
X105926348Y-90653820D01*
G37*
G36*
X166937000Y-96689000D02*
G01*
X165135000Y-96689000D01*
X165135000Y-94887000D01*
X166937000Y-94887000D01*
X166937000Y-96689000D01*
G37*
G36*
X115002562Y-94710181D02*
G01*
X115037481Y-94720774D01*
X115069663Y-94737976D01*
X115097873Y-94761127D01*
X115121024Y-94789337D01*
X115138226Y-94821519D01*
X115148819Y-94856438D01*
X115153000Y-94898895D01*
X115153000Y-96365105D01*
X115148819Y-96407562D01*
X115138226Y-96442481D01*
X115121024Y-96474663D01*
X115097873Y-96502873D01*
X115069663Y-96526024D01*
X115037481Y-96543226D01*
X115002562Y-96553819D01*
X114960105Y-96558000D01*
X113818895Y-96558000D01*
X113776438Y-96553819D01*
X113741519Y-96543226D01*
X113709337Y-96526024D01*
X113681127Y-96502873D01*
X113657976Y-96474663D01*
X113640774Y-96442481D01*
X113630181Y-96407562D01*
X113626000Y-96365105D01*
X113626000Y-94898895D01*
X113630181Y-94856438D01*
X113640774Y-94821519D01*
X113657976Y-94789337D01*
X113681127Y-94761127D01*
X113709337Y-94737976D01*
X113741519Y-94720774D01*
X113776438Y-94710181D01*
X113818895Y-94706000D01*
X114960105Y-94706000D01*
X115002562Y-94710181D01*
G37*
G36*
X112027562Y-94710181D02*
G01*
X112062481Y-94720774D01*
X112094663Y-94737976D01*
X112122873Y-94761127D01*
X112146024Y-94789337D01*
X112163226Y-94821519D01*
X112173819Y-94856438D01*
X112178000Y-94898895D01*
X112178000Y-96365105D01*
X112173819Y-96407562D01*
X112163226Y-96442481D01*
X112146024Y-96474663D01*
X112122873Y-96502873D01*
X112094663Y-96526024D01*
X112062481Y-96543226D01*
X112027562Y-96553819D01*
X111985105Y-96558000D01*
X110843895Y-96558000D01*
X110801438Y-96553819D01*
X110766519Y-96543226D01*
X110734337Y-96526024D01*
X110706127Y-96502873D01*
X110682976Y-96474663D01*
X110665774Y-96442481D01*
X110655181Y-96407562D01*
X110651000Y-96365105D01*
X110651000Y-94898895D01*
X110655181Y-94856438D01*
X110665774Y-94821519D01*
X110682976Y-94789337D01*
X110706127Y-94761127D01*
X110734337Y-94737976D01*
X110766519Y-94720774D01*
X110801438Y-94710181D01*
X110843895Y-94706000D01*
X111985105Y-94706000D01*
X112027562Y-94710181D01*
G37*
G36*
X104001000Y-95701000D02*
G01*
X101999000Y-95701000D01*
X101999000Y-94099000D01*
X104001000Y-94099000D01*
X104001000Y-95701000D01*
G37*
G36*
X160792001Y-95622001D02*
G01*
X158190001Y-95622001D01*
X158190001Y-94520001D01*
X160792001Y-94520001D01*
X160792001Y-95622001D01*
G37*
G36*
X145592001Y-95622001D02*
G01*
X142990001Y-95622001D01*
X142990001Y-94520001D01*
X145592001Y-94520001D01*
X145592001Y-95622001D01*
G37*
G36*
X104001000Y-93701000D02*
G01*
X101999000Y-93701000D01*
X101999000Y-92099000D01*
X104001000Y-92099000D01*
X104001000Y-93701000D01*
G37*
G36*
X160792001Y-93622001D02*
G01*
X158190001Y-93622001D01*
X158190001Y-92520001D01*
X160792001Y-92520001D01*
X160792001Y-93622001D01*
G37*
G36*
X145592001Y-93622001D02*
G01*
X142990001Y-93622001D01*
X142990001Y-92520001D01*
X145592001Y-92520001D01*
X145592001Y-93622001D01*
G37*
G36*
X111251000Y-93401000D02*
G01*
X109149000Y-93401000D01*
X109149000Y-91799000D01*
X111251000Y-91799000D01*
X111251000Y-93401000D01*
G37*
G36*
X117551000Y-92251000D02*
G01*
X115449000Y-92251000D01*
X115449000Y-88349000D01*
X117551000Y-88349000D01*
X117551000Y-92251000D01*
G37*
G36*
X103413855Y-89752140D02*
G01*
X103477618Y-89758420D01*
X103568404Y-89785960D01*
X103600336Y-89795646D01*
X103713425Y-89856094D01*
X103812554Y-89937446D01*
X103893906Y-90036575D01*
X103954354Y-90149664D01*
X103954355Y-90149668D01*
X103987913Y-90260292D01*
X103997287Y-90282925D01*
X104001000Y-90288482D01*
X104001000Y-90361886D01*
X104001602Y-90374138D01*
X104004149Y-90400000D01*
X104001602Y-90425862D01*
X104001000Y-90438114D01*
X104001000Y-91651000D01*
X101999000Y-91651000D01*
X101999000Y-90438114D01*
X101998398Y-90425862D01*
X101995851Y-90400000D01*
X101998398Y-90374138D01*
X101999000Y-90361886D01*
X101999000Y-90288594D01*
X102007957Y-90271836D01*
X102012085Y-90260299D01*
X102045645Y-90149668D01*
X102045646Y-90149664D01*
X102106094Y-90036575D01*
X102187446Y-89937446D01*
X102286575Y-89856094D01*
X102399664Y-89795646D01*
X102431596Y-89785960D01*
X102522382Y-89758420D01*
X102586145Y-89752140D01*
X102618026Y-89749000D01*
X103381974Y-89749000D01*
X103413855Y-89752140D01*
G37*
G36*
X160792001Y-91622001D02*
G01*
X158190001Y-91622001D01*
X158190001Y-90520001D01*
X160792001Y-90520001D01*
X160792001Y-91622001D01*
G37*
G36*
X145592001Y-91622001D02*
G01*
X142990001Y-91622001D01*
X142990001Y-90520001D01*
X145592001Y-90520001D01*
X145592001Y-91622001D01*
G37*
G36*
X111251000Y-91101000D02*
G01*
X109149000Y-91101000D01*
X109149000Y-89499000D01*
X111251000Y-89499000D01*
X111251000Y-91101000D01*
G37*
G36*
X137253642Y-89229781D02*
G01*
X137399414Y-89290162D01*
X137399416Y-89290163D01*
X137530608Y-89377822D01*
X137642178Y-89489392D01*
X137729837Y-89620584D01*
X137729838Y-89620586D01*
X137790219Y-89766358D01*
X137821000Y-89921107D01*
X137821000Y-90078893D01*
X137790219Y-90233642D01*
X137774398Y-90271836D01*
X137729837Y-90379416D01*
X137642178Y-90510608D01*
X137530608Y-90622178D01*
X137399416Y-90709837D01*
X137399415Y-90709838D01*
X137399414Y-90709838D01*
X137253642Y-90770219D01*
X137098893Y-90801000D01*
X136941107Y-90801000D01*
X136786358Y-90770219D01*
X136640586Y-90709838D01*
X136640585Y-90709838D01*
X136640584Y-90709837D01*
X136509392Y-90622178D01*
X136397822Y-90510608D01*
X136310163Y-90379416D01*
X136265602Y-90271836D01*
X136249781Y-90233642D01*
X136219000Y-90078893D01*
X136219000Y-89921107D01*
X136249781Y-89766358D01*
X136310162Y-89620586D01*
X136310163Y-89620584D01*
X136397822Y-89489392D01*
X136509392Y-89377822D01*
X136640584Y-89290163D01*
X136640586Y-89290162D01*
X136786358Y-89229781D01*
X136941107Y-89199000D01*
X137098893Y-89199000D01*
X137253642Y-89229781D01*
G37*
G36*
X134713642Y-89229781D02*
G01*
X134859414Y-89290162D01*
X134859416Y-89290163D01*
X134990608Y-89377822D01*
X135102178Y-89489392D01*
X135189837Y-89620584D01*
X135189838Y-89620586D01*
X135250219Y-89766358D01*
X135281000Y-89921107D01*
X135281000Y-90078893D01*
X135250219Y-90233642D01*
X135234398Y-90271836D01*
X135189837Y-90379416D01*
X135102178Y-90510608D01*
X134990608Y-90622178D01*
X134859416Y-90709837D01*
X134859415Y-90709838D01*
X134859414Y-90709838D01*
X134713642Y-90770219D01*
X134558893Y-90801000D01*
X134401107Y-90801000D01*
X134246358Y-90770219D01*
X134100586Y-90709838D01*
X134100585Y-90709838D01*
X134100584Y-90709837D01*
X133969392Y-90622178D01*
X133857822Y-90510608D01*
X133770163Y-90379416D01*
X133725602Y-90271836D01*
X133709781Y-90233642D01*
X133679000Y-90078893D01*
X133679000Y-89921107D01*
X133709781Y-89766358D01*
X133770162Y-89620586D01*
X133770163Y-89620584D01*
X133857822Y-89489392D01*
X133969392Y-89377822D01*
X134100584Y-89290163D01*
X134100586Y-89290162D01*
X134246358Y-89229781D01*
X134401107Y-89199000D01*
X134558893Y-89199000D01*
X134713642Y-89229781D01*
G37*
G36*
X132173642Y-89229781D02*
G01*
X132319414Y-89290162D01*
X132319416Y-89290163D01*
X132450608Y-89377822D01*
X132562178Y-89489392D01*
X132649837Y-89620584D01*
X132649838Y-89620586D01*
X132710219Y-89766358D01*
X132741000Y-89921107D01*
X132741000Y-90078893D01*
X132710219Y-90233642D01*
X132694398Y-90271836D01*
X132649837Y-90379416D01*
X132562178Y-90510608D01*
X132450608Y-90622178D01*
X132319416Y-90709837D01*
X132319415Y-90709838D01*
X132319414Y-90709838D01*
X132173642Y-90770219D01*
X132018893Y-90801000D01*
X131861107Y-90801000D01*
X131706358Y-90770219D01*
X131560586Y-90709838D01*
X131560585Y-90709838D01*
X131560584Y-90709837D01*
X131429392Y-90622178D01*
X131317822Y-90510608D01*
X131230163Y-90379416D01*
X131185602Y-90271836D01*
X131169781Y-90233642D01*
X131139000Y-90078893D01*
X131139000Y-89921107D01*
X131169781Y-89766358D01*
X131230162Y-89620586D01*
X131230163Y-89620584D01*
X131317822Y-89489392D01*
X131429392Y-89377822D01*
X131560584Y-89290163D01*
X131560586Y-89290162D01*
X131706358Y-89229781D01*
X131861107Y-89199000D01*
X132018893Y-89199000D01*
X132173642Y-89229781D01*
G37*
G36*
X130201000Y-90801000D02*
G01*
X128599000Y-90801000D01*
X128599000Y-89199000D01*
X130201000Y-89199000D01*
X130201000Y-90801000D01*
G37*
G36*
X160792001Y-89622001D02*
G01*
X158190001Y-89622001D01*
X158190001Y-88520001D01*
X160792001Y-88520001D01*
X160792001Y-89622001D01*
G37*
G36*
X145592001Y-89622001D02*
G01*
X142990001Y-89622001D01*
X142990001Y-88520001D01*
X145592001Y-88520001D01*
X145592001Y-89622001D01*
G37*
G36*
X111251000Y-88801000D02*
G01*
X109149000Y-88801000D01*
X109149000Y-87199000D01*
X111251000Y-87199000D01*
X111251000Y-88801000D01*
G37*
G36*
X160792001Y-87622001D02*
G01*
X158190001Y-87622001D01*
X158190001Y-86520001D01*
X160792001Y-86520001D01*
X160792001Y-87622001D01*
G37*
G36*
X145592001Y-87622001D02*
G01*
X142990001Y-87622001D01*
X142990001Y-86520001D01*
X145592001Y-86520001D01*
X145592001Y-87622001D01*
G37*
G36*
X166801000Y-87331000D02*
G01*
X164999000Y-87331000D01*
X164999000Y-85529000D01*
X166801000Y-85529000D01*
X166801000Y-87331000D01*
G37*
G36*
X145592001Y-85622001D02*
G01*
X142990001Y-85622001D01*
X142990001Y-84520001D01*
X145592001Y-84520001D01*
X145592001Y-85622001D01*
G37*
G36*
X160792001Y-85622001D02*
G01*
X158190001Y-85622001D01*
X158190001Y-84520001D01*
X160792001Y-84520001D01*
X160792001Y-85622001D01*
G37*
G36*
X166013512Y-82993927D02*
G01*
X166162812Y-83023624D01*
X166326784Y-83091544D01*
X166474354Y-83190147D01*
X166599853Y-83315646D01*
X166698456Y-83463216D01*
X166766376Y-83627188D01*
X166795648Y-83774353D01*
X166801000Y-83801258D01*
X166801000Y-83978742D01*
X166797202Y-83997835D01*
X166766376Y-84152812D01*
X166698456Y-84316784D01*
X166599853Y-84464354D01*
X166474354Y-84589853D01*
X166326784Y-84688456D01*
X166162812Y-84756376D01*
X166013512Y-84786073D01*
X165988742Y-84791000D01*
X165811258Y-84791000D01*
X165786488Y-84786073D01*
X165637188Y-84756376D01*
X165473216Y-84688456D01*
X165325646Y-84589853D01*
X165200147Y-84464354D01*
X165101544Y-84316784D01*
X165033624Y-84152812D01*
X165002798Y-83997835D01*
X164999000Y-83978742D01*
X164999000Y-83801258D01*
X165004352Y-83774353D01*
X165033624Y-83627188D01*
X165101544Y-83463216D01*
X165200147Y-83315646D01*
X165325646Y-83190147D01*
X165473216Y-83091544D01*
X165637188Y-83023624D01*
X165786488Y-82993927D01*
X165811258Y-82989000D01*
X165988742Y-82989000D01*
X166013512Y-82993927D01*
G37*
G36*
X130006564Y-82489389D02*
G01*
X130197833Y-82568615D01*
X130197835Y-82568616D01*
X130369973Y-82683635D01*
X130516365Y-82830027D01*
X130580256Y-82925646D01*
X130631385Y-83002167D01*
X130710611Y-83193436D01*
X130751000Y-83396484D01*
X130751000Y-83603516D01*
X130710611Y-83806564D01*
X130660815Y-83926782D01*
X130631384Y-83997835D01*
X130516365Y-84169973D01*
X130369973Y-84316365D01*
X130197835Y-84431384D01*
X130197834Y-84431385D01*
X130197833Y-84431385D01*
X130006564Y-84510611D01*
X129803516Y-84551000D01*
X129596484Y-84551000D01*
X129393436Y-84510611D01*
X129202167Y-84431385D01*
X129202166Y-84431385D01*
X129202165Y-84431384D01*
X129030027Y-84316365D01*
X128883635Y-84169973D01*
X128768616Y-83997835D01*
X128739185Y-83926782D01*
X128689389Y-83806564D01*
X128649000Y-83603516D01*
X128649000Y-83396484D01*
X128689389Y-83193436D01*
X128768615Y-83002167D01*
X128819745Y-82925646D01*
X128883635Y-82830027D01*
X129030027Y-82683635D01*
X129202165Y-82568616D01*
X129202167Y-82568615D01*
X129393436Y-82489389D01*
X129596484Y-82449000D01*
X129803516Y-82449000D01*
X130006564Y-82489389D01*
G37*
G36*
X136506564Y-82489389D02*
G01*
X136697833Y-82568615D01*
X136697835Y-82568616D01*
X136869973Y-82683635D01*
X137016365Y-82830027D01*
X137080256Y-82925646D01*
X137131385Y-83002167D01*
X137210611Y-83193436D01*
X137251000Y-83396484D01*
X137251000Y-83603516D01*
X137210611Y-83806564D01*
X137160815Y-83926782D01*
X137131384Y-83997835D01*
X137016365Y-84169973D01*
X136869973Y-84316365D01*
X136697835Y-84431384D01*
X136697834Y-84431385D01*
X136697833Y-84431385D01*
X136506564Y-84510611D01*
X136303516Y-84551000D01*
X136096484Y-84551000D01*
X135893436Y-84510611D01*
X135702167Y-84431385D01*
X135702166Y-84431385D01*
X135702165Y-84431384D01*
X135530027Y-84316365D01*
X135383635Y-84169973D01*
X135268616Y-83997835D01*
X135239185Y-83926782D01*
X135189389Y-83806564D01*
X135149000Y-83603516D01*
X135149000Y-83396484D01*
X135189389Y-83193436D01*
X135268615Y-83002167D01*
X135319745Y-82925646D01*
X135383635Y-82830027D01*
X135530027Y-82683635D01*
X135702165Y-82568616D01*
X135702167Y-82568615D01*
X135893436Y-82489389D01*
X136096484Y-82449000D01*
X136303516Y-82449000D01*
X136506564Y-82489389D01*
G37*
G36*
X121901000Y-84401000D02*
G01*
X120099000Y-84401000D01*
X120099000Y-82599000D01*
X121901000Y-82599000D01*
X121901000Y-84401000D01*
G37*
G36*
X123653512Y-82603927D02*
G01*
X123802812Y-82633624D01*
X123966784Y-82701544D01*
X124114354Y-82800147D01*
X124239853Y-82925646D01*
X124338456Y-83073216D01*
X124406376Y-83237188D01*
X124441000Y-83411259D01*
X124441000Y-83588741D01*
X124406376Y-83762812D01*
X124338456Y-83926784D01*
X124239853Y-84074354D01*
X124114354Y-84199853D01*
X123966784Y-84298456D01*
X123802812Y-84366376D01*
X123653512Y-84396073D01*
X123628742Y-84401000D01*
X123451258Y-84401000D01*
X123426488Y-84396073D01*
X123277188Y-84366376D01*
X123113216Y-84298456D01*
X122965646Y-84199853D01*
X122840147Y-84074354D01*
X122741544Y-83926784D01*
X122673624Y-83762812D01*
X122639000Y-83588741D01*
X122639000Y-83411259D01*
X122673624Y-83237188D01*
X122741544Y-83073216D01*
X122840147Y-82925646D01*
X122965646Y-82800147D01*
X123113216Y-82701544D01*
X123277188Y-82633624D01*
X123426488Y-82603927D01*
X123451258Y-82599000D01*
X123628742Y-82599000D01*
X123653512Y-82603927D01*
G37*
G36*
X107273512Y-82303927D02*
G01*
X107422812Y-82333624D01*
X107586784Y-82401544D01*
X107734354Y-82500147D01*
X107859853Y-82625646D01*
X107958456Y-82773216D01*
X108026376Y-82937188D01*
X108061000Y-83111259D01*
X108061000Y-83288741D01*
X108026376Y-83462812D01*
X107958456Y-83626784D01*
X107859853Y-83774354D01*
X107734354Y-83899853D01*
X107586784Y-83998456D01*
X107422812Y-84066376D01*
X107273512Y-84096073D01*
X107248742Y-84101000D01*
X107071258Y-84101000D01*
X107046488Y-84096073D01*
X106897188Y-84066376D01*
X106733216Y-83998456D01*
X106585646Y-83899853D01*
X106460147Y-83774354D01*
X106361544Y-83626784D01*
X106293624Y-83462812D01*
X106259000Y-83288741D01*
X106259000Y-83111259D01*
X106293624Y-82937188D01*
X106361544Y-82773216D01*
X106460147Y-82625646D01*
X106585646Y-82500147D01*
X106733216Y-82401544D01*
X106897188Y-82333624D01*
X107046488Y-82303927D01*
X107071258Y-82299000D01*
X107248742Y-82299000D01*
X107273512Y-82303927D01*
G37*
G36*
X109813512Y-82303927D02*
G01*
X109962812Y-82333624D01*
X110126784Y-82401544D01*
X110274354Y-82500147D01*
X110399853Y-82625646D01*
X110498456Y-82773216D01*
X110566376Y-82937188D01*
X110601000Y-83111259D01*
X110601000Y-83288741D01*
X110566376Y-83462812D01*
X110498456Y-83626784D01*
X110399853Y-83774354D01*
X110274354Y-83899853D01*
X110126784Y-83998456D01*
X109962812Y-84066376D01*
X109813512Y-84096073D01*
X109788742Y-84101000D01*
X109611258Y-84101000D01*
X109586488Y-84096073D01*
X109437188Y-84066376D01*
X109273216Y-83998456D01*
X109125646Y-83899853D01*
X109000147Y-83774354D01*
X108901544Y-83626784D01*
X108833624Y-83462812D01*
X108799000Y-83288741D01*
X108799000Y-83111259D01*
X108833624Y-82937188D01*
X108901544Y-82773216D01*
X109000147Y-82625646D01*
X109125646Y-82500147D01*
X109273216Y-82401544D01*
X109437188Y-82333624D01*
X109586488Y-82303927D01*
X109611258Y-82299000D01*
X109788742Y-82299000D01*
X109813512Y-82303927D01*
G37*
G36*
X113141000Y-84101000D02*
G01*
X111339000Y-84101000D01*
X111339000Y-82299000D01*
X113141000Y-82299000D01*
X113141000Y-84101000D01*
G37*
G36*
X166013512Y-80453927D02*
G01*
X166162812Y-80483624D01*
X166326784Y-80551544D01*
X166474354Y-80650147D01*
X166599853Y-80775646D01*
X166698456Y-80923216D01*
X166766376Y-81087188D01*
X166801000Y-81261259D01*
X166801000Y-81438741D01*
X166766376Y-81612812D01*
X166698456Y-81776784D01*
X166599853Y-81924354D01*
X166474354Y-82049853D01*
X166326784Y-82148456D01*
X166162812Y-82216376D01*
X166013512Y-82246073D01*
X165988742Y-82251000D01*
X165811258Y-82251000D01*
X165786488Y-82246073D01*
X165637188Y-82216376D01*
X165473216Y-82148456D01*
X165325646Y-82049853D01*
X165200147Y-81924354D01*
X165101544Y-81776784D01*
X165033624Y-81612812D01*
X164999000Y-81438741D01*
X164999000Y-81261259D01*
X165033624Y-81087188D01*
X165101544Y-80923216D01*
X165200147Y-80775646D01*
X165325646Y-80650147D01*
X165473216Y-80551544D01*
X165637188Y-80483624D01*
X165786488Y-80453927D01*
X165811258Y-80449000D01*
X165988742Y-80449000D01*
X166013512Y-80453927D01*
G37*
G36*
X130006564Y-77989389D02*
G01*
X130197833Y-78068615D01*
X130197835Y-78068616D01*
X130259990Y-78110147D01*
X130369973Y-78183635D01*
X130516365Y-78330027D01*
X130631385Y-78502167D01*
X130710611Y-78693436D01*
X130751000Y-78896484D01*
X130751000Y-79103516D01*
X130710611Y-79306564D01*
X130678389Y-79384354D01*
X130631384Y-79497835D01*
X130516365Y-79669973D01*
X130369973Y-79816365D01*
X130197835Y-79931384D01*
X130197834Y-79931385D01*
X130197833Y-79931385D01*
X130006564Y-80010611D01*
X129803516Y-80051000D01*
X129596484Y-80051000D01*
X129393436Y-80010611D01*
X129202167Y-79931385D01*
X129202166Y-79931385D01*
X129202165Y-79931384D01*
X129030027Y-79816365D01*
X128883635Y-79669973D01*
X128768616Y-79497835D01*
X128721611Y-79384354D01*
X128689389Y-79306564D01*
X128649000Y-79103516D01*
X128649000Y-78896484D01*
X128689389Y-78693436D01*
X128768615Y-78502167D01*
X128883635Y-78330027D01*
X129030027Y-78183635D01*
X129140010Y-78110147D01*
X129202165Y-78068616D01*
X129202167Y-78068615D01*
X129393436Y-77989389D01*
X129596484Y-77949000D01*
X129803516Y-77949000D01*
X130006564Y-77989389D01*
G37*
G36*
X136506564Y-77989389D02*
G01*
X136697833Y-78068615D01*
X136697835Y-78068616D01*
X136759990Y-78110147D01*
X136869973Y-78183635D01*
X137016365Y-78330027D01*
X137131385Y-78502167D01*
X137210611Y-78693436D01*
X137251000Y-78896484D01*
X137251000Y-79103516D01*
X137210611Y-79306564D01*
X137178389Y-79384354D01*
X137131384Y-79497835D01*
X137016365Y-79669973D01*
X136869973Y-79816365D01*
X136697835Y-79931384D01*
X136697834Y-79931385D01*
X136697833Y-79931385D01*
X136506564Y-80010611D01*
X136303516Y-80051000D01*
X136096484Y-80051000D01*
X135893436Y-80010611D01*
X135702167Y-79931385D01*
X135702166Y-79931385D01*
X135702165Y-79931384D01*
X135530027Y-79816365D01*
X135383635Y-79669973D01*
X135268616Y-79497835D01*
X135221611Y-79384354D01*
X135189389Y-79306564D01*
X135149000Y-79103516D01*
X135149000Y-78896484D01*
X135189389Y-78693436D01*
X135268615Y-78502167D01*
X135383635Y-78330027D01*
X135530027Y-78183635D01*
X135640010Y-78110147D01*
X135702165Y-78068616D01*
X135702167Y-78068615D01*
X135893436Y-77989389D01*
X136096484Y-77949000D01*
X136303516Y-77949000D01*
X136506564Y-77989389D01*
G37*
G36*
X166013512Y-77913927D02*
G01*
X166162812Y-77943624D01*
X166326784Y-78011544D01*
X166474354Y-78110147D01*
X166599853Y-78235646D01*
X166698456Y-78383216D01*
X166766376Y-78547188D01*
X166801000Y-78721259D01*
X166801000Y-78898741D01*
X166766376Y-79072812D01*
X166698456Y-79236784D01*
X166599853Y-79384354D01*
X166474354Y-79509853D01*
X166326784Y-79608456D01*
X166162812Y-79676376D01*
X166013512Y-79706073D01*
X165988742Y-79711000D01*
X165811258Y-79711000D01*
X165786488Y-79706073D01*
X165637188Y-79676376D01*
X165473216Y-79608456D01*
X165325646Y-79509853D01*
X165200147Y-79384354D01*
X165101544Y-79236784D01*
X165033624Y-79072812D01*
X164999000Y-78898741D01*
X164999000Y-78721259D01*
X165033624Y-78547188D01*
X165101544Y-78383216D01*
X165200147Y-78235646D01*
X165325646Y-78110147D01*
X165473216Y-78011544D01*
X165637188Y-77943624D01*
X165786488Y-77913927D01*
X165811258Y-77909000D01*
X165988742Y-77909000D01*
X166013512Y-77913927D01*
G37*
M02*
