M48
; DRILL file {KiCad (5.1.5)-3} date 03-Jan-21 12:20:07 AM
; FORMAT={-:-/ absolute / inch / decimal}
; #@! TF.CreationDate,2021-01-03T00:20:07+13:00
; #@! TF.GenerationSoftware,Kicad,Pcbnew,(5.1.5)-3
FMAT,2
INCH
T1C0.0157
T2C0.0236
T3C0.0295
T4C0.0315
T5C0.0335
T6C0.0394
T7C0.0433
T8C0.0866
T9C0.1063
%
G90
G05
T1
X4.1535Y-3.878
X4.2323Y-3.8583
X4.252Y-3.7402
X4.252Y-3.7992
X4.4488Y-3.3858
X4.4488Y-3.4646
X4.5276Y-3.3858
X4.685Y-3.5039
X4.7008Y-3.7402
X4.752Y-3.7402
X5.0Y-3.5827
X5.0Y-3.7638
X5.0787Y-3.8976
X5.0787Y-3.9764
X5.1575Y-3.8976
X5.1575Y-3.9764
X5.2362Y-3.2283
X5.2362Y-3.3071
X5.2717Y-3.6929
X5.4606Y-3.6654
X5.4724Y-3.8228
X5.5827Y-3.6654
X5.5827Y-3.7441
X5.5866Y-3.4291
X5.5866Y-3.8228
X5.8465Y-3.6024
X5.8483Y-3.501
X6.1058Y-3.7376
X6.1058Y-3.8309
X6.3937Y-3.6969
X6.4488Y-3.6969
T3
X4.3161Y-4.0906
X4.3661Y-4.0906
X4.4161Y-4.0906
T4
X4.6496Y-4.1417
X4.9488Y-4.1417
X5.0945Y-3.5433
X5.1945Y-3.5433
X5.2945Y-3.5433
X5.3945Y-3.5433
T5
X4.1614Y-3.5984
X4.1614Y-3.7953
T6
X4.2189Y-3.2756
X4.3189Y-3.2756
X4.4189Y-3.2756
X6.5369Y-3.7712
X6.5369Y-3.8712
X6.5369Y-3.9712
X4.7638Y-3.2874
X4.8638Y-3.2874
X5.5496Y-4.1654
X5.6496Y-4.1654
X5.7496Y-4.1654
X5.8496Y-4.1654
X5.9496Y-4.1654
X6.0496Y-4.1654
X6.1496Y-4.1654
X6.2496Y-4.1654
X6.5315Y-3.1028
X6.5315Y-3.2028
X6.5315Y-3.3028
X6.5315Y-3.4028
T7
X5.1063Y-3.1102
X5.1063Y-3.2874
X5.3622Y-3.1102
X5.3622Y-3.2874
T8
X4.1339Y-3.1299
T9
X4.1535Y-4.2126
X6.5354Y-4.2165
T2
G00X4.0413Y-3.5591
M15
G01X4.0689Y-3.5591
M16
G05
G00X4.0689Y-3.8346
M15
G01X4.0413Y-3.8346
M16
G05
T0
M30
